<svg width="236" height="79" viewBox="0 0 236 79" fill="none" xmlns="http://www.w3.org/2000/svg">
<path d="M40.8759 78.3552C29.9133 77.9222 21.3912 76.3939 14.222 73.5752C12.6183 72.9447 9.4623 71.368 8.0887 70.511C4.8621 68.4979 2.08501 65.8208 0.780089 63.4653L0.489258 62.9404L0.942221 63.4653C4.44124 67.52 8.6975 70.036 15.575 72.1153C24.7527 74.8898 39.1866 76.0257 53.0015 75.0605C60.3134 74.5497 75.1993 72.7112 86.176 70.9632C103.432 68.2154 123.497 63.7888 138.248 59.4759C138.912 59.2816 140.376 58.8564 141.502 58.5307C148.073 56.6301 157.309 53.6249 164.406 51.0781L166.681 50.2617L167.574 51.1999C168.065 51.7159 168.754 52.347 169.105 52.6024C169.456 52.8579 169.743 53.0941 169.743 53.1275C169.743 53.1904 166.382 54.4943 163.601 55.5114C156.765 58.0114 146.516 61.396 141.135 62.9302C140.442 63.1277 139.284 63.462 138.563 63.6731C131.643 65.6968 121.093 68.326 112.684 70.1225C91.4299 74.6637 69.1655 77.6433 51.4267 78.3204C49.0382 78.4115 42.8215 78.4322 40.8759 78.3552Z" fill="#242424"/>
<path d="M86.5423 18.9883C83.4466 18.988 81.4424 19.6577 78.9368 21.5311C78.0518 22.1928 77.4371 22.7683 76.6998 23.6222L76.202 24.1969V19.6336H70.113V67.717H76.4125V59.4525C76.4125 51.7352 76.4242 51.2051 76.5861 51.4475C77.2737 52.4772 79.3506 53.9635 80.8221 54.4789C81.7065 54.7889 83.8106 55.2039 85.1165 55.327C87.9169 55.5911 91.2526 54.9264 93.63 53.6292C98.6719 50.8783 101.675 46.4537 102.628 40.3773C102.888 38.7152 102.884 34.9251 102.62 33.3342C102.132 30.4012 101.254 27.9076 100.108 26.1958C98.8495 24.3176 96.5331 22.1212 94.7314 21.0978C92.1937 19.6563 89.6017 18.9886 86.5423 18.9883ZM86.5762 25.2724C87.2803 25.2402 87.9676 25.2878 88.6319 25.4106C89.2906 25.5325 89.933 25.73 90.5464 25.9991C91.1589 26.268 91.7393 26.6051 92.2764 27.0039C92.8172 27.4048 93.3203 27.8694 93.7775 28.3929C94.2347 28.9164 94.6463 29.4983 95.0051 30.1338C95.3641 30.7691 95.6702 31.4577 95.9163 32.1941C96.1624 32.9306 96.3477 33.7151 96.4664 34.5419C96.6122 35.5583 96.6121 37.9109 96.4664 39.0836C96.3096 40.345 96.0063 41.5228 95.5737 42.5959C95.141 43.6692 94.5793 44.6364 93.9066 45.4768C93.2339 46.3172 92.4499 47.0312 91.5727 47.5941C90.6858 48.1637 89.707 48.5754 88.6795 48.8109C88.0172 48.9634 87.3508 49.0469 86.6868 49.0645C86.0259 49.082 85.365 49.0331 84.714 48.9184C84.066 48.8042 83.4312 48.6246 82.8195 48.3823C82.2023 48.1375 81.6118 47.8301 81.0572 47.465C80.3432 46.9957 79.7 46.4265 79.1473 45.7749C78.5927 45.122 78.1211 44.3809 77.7339 43.5562C77.3467 42.7316 77.043 41.8229 76.8273 40.8351C76.6117 39.8475 76.4833 38.7815 76.4432 37.6394C76.4 36.4074 76.4604 35.3415 76.643 34.3375C76.8255 33.3335 77.131 32.3914 77.5771 31.4075C77.8817 30.7357 78.2805 30.0869 78.754 29.4792C79.2276 28.8715 79.7758 28.3038 80.375 27.7967C80.9742 27.2897 81.6246 26.8436 82.3063 26.4739C82.9881 26.1042 83.701 25.811 84.422 25.615C85.1515 25.4168 85.872 25.3047 86.5762 25.2724ZM32.9781 54.9822C33.0616 54.8546 33.4318 54.3152 33.8007 53.7834C34.1696 53.2516 35.114 51.8817 35.8996 50.7393C39.5077 45.492 42.65 40.9376 43.9095 39.1299C44.6658 38.0445 45.3782 36.9959 45.4925 36.7995L45.7003 36.4426L45.3779 35.9909C43.9053 33.9271 36.8361 23.9202 35.3434 21.7864C35.0723 21.4006 34.7999 21.0156 34.5264 20.6315L34.0033 19.8967L37.7491 19.8691C40.6599 19.8476 41.5225 19.8715 41.6183 19.9741C41.8154 20.1861 47.4923 28.3716 48.4613 29.8411C48.9757 30.6212 49.3103 31.2285 49.2656 31.3009C49.222 31.3714 49.2339 31.397 49.2933 31.3603C49.3507 31.3249 49.5041 31.4854 49.6343 31.717C49.7645 31.9487 49.9098 32.1239 49.9574 32.1064C50.0602 32.0687 51.6493 29.8753 52.9086 28.0329C55.2968 24.5391 56.3238 23.0972 56.3824 23.1558C56.4087 23.1822 56.4304 23.1427 56.4304 23.0683C56.4304 22.9938 56.9179 22.2378 57.5139 21.3885L58.5975 19.8443H62.2618C65.166 19.8443 65.9095 19.8714 65.8461 19.9755C65.802 20.0477 63.5907 23.245 60.9319 27.0809C55.2981 35.2089 54.4706 36.4147 54.4706 36.4962C54.4706 36.5293 55.1956 37.6268 56.0818 38.9349C56.968 40.243 58.7469 42.8723 60.0349 44.7777C61.2478 46.5721 62.4621 48.3656 63.6778 50.1581C64.3933 51.2118 64.9439 52.074 64.9013 52.074C64.8586 52.074 64.8972 52.133 64.9867 52.2052C65.1195 52.3121 66.7351 54.6225 67.0035 55.0891C67.0608 55.189 66.2674 55.2174 63.4151 55.2179L59.7532 55.2186L56.017 49.6205C53.9621 46.5415 51.8605 43.4837 51.3468 42.8252C50.8331 42.167 50.3271 41.4966 50.2224 41.3357C50.1177 41.1748 49.993 41.0567 49.9452 41.0732C49.8974 41.0898 49.3939 41.7883 48.8263 42.6257C47.1862 45.0449 46.0157 46.7516 44.7585 48.5571C44.1152 49.481 43.3295 50.6148 43.0124 51.0767L41.3002 53.5721L40.1644 55.2275L36.4953 55.2197L32.8262 55.2118L32.9781 54.9799V54.9822ZM176.618 55.0017C174.48 54.7466 172.105 54.1017 170.718 53.3997L170.277 53.1763L173.857 51.8213L177.438 50.4661L178.882 50.5975C182.361 50.9139 185.069 50.1139 187.034 48.1891C187.613 47.6226 188.082 46.7977 188.182 46.1707C188.217 45.9553 188.298 45.7358 188.363 45.683C188.428 45.6303 189.652 45.0865 191.082 44.4746C192.512 43.8629 193.869 43.2674 194.096 43.1514L194.51 42.9404L194.631 43.3866C194.786 43.9611 194.698 45.7317 194.473 46.5505C193.959 48.4188 193.149 49.8461 191.928 51.0314C189.792 53.1052 187.548 54.1898 183.969 54.8791C182.959 55.0736 177.926 55.1576 176.618 55.0017ZM211.473 55.05C209.259 54.8129 207.243 54.3184 205.651 53.6215C202.803 52.3751 199.873 48.4401 199.051 44.7571C198.933 44.2294 198.593 44.3349 202.024 43.8345C203.41 43.6324 204.645 43.4435 204.769 43.4146C204.959 43.3698 205.004 43.4225 205.066 43.755C205.226 44.6117 206.116 46.6595 206.698 47.508C207.305 48.3944 210.01 49.7602 212.316 50.3452C213.634 50.6797 214.702 50.7576 215.98 50.6125C218.055 50.3769 219.676 49.7977 220.78 48.8978C221.106 48.6317 221.405 48.4462 221.445 48.4855C221.484 48.5249 221.5 48.5091 221.481 48.4501C221.462 48.3911 221.622 48.128 221.837 47.8654C222.3 47.2992 222.736 46.3886 222.845 45.7568C222.941 45.2084 222.565 43.6469 222.181 42.9932C221.738 42.2394 221.054 41.6521 220.259 41.3432C219.008 40.8566 215.883 39.9316 213.461 39.3304C210.021 38.4768 206.398 37.4108 206.147 37.1784C206.056 37.0943 210.24 34.6929 210.441 34.7139C210.516 34.7219 210.559 34.6979 210.536 34.6609C210.514 34.6238 211.093 34.2625 211.824 33.8579L213.152 33.1224L213.73 33.3134C214.047 33.4184 215.016 33.6685 215.882 33.869C219.729 34.7599 221.516 35.3273 223.748 36.3666C225.526 37.1948 226.099 37.579 227.018 38.5596C228.534 40.1789 229.244 42.2315 229.13 44.673C229.061 46.1731 228.787 47.1591 227.98 48.8198C227.504 49.7975 227.33 50.0351 226.44 50.922C225.33 52.0268 224.895 52.3598 223.644 53.0638C222.151 53.9031 220.486 54.4806 218.454 54.8634C217.584 55.0274 212.524 55.1625 211.473 55.05Z" fill="#242424"/>
<path d="M18.3974 18.7986C16.767 18.6828 14.6754 18.7857 13.1043 19.0582C8.32098 19.8881 4.19846 22.977 2.0326 27.352C0.703136 30.0374 0.140275 32.5145 0.0182632 36.2221C-0.114448 40.2566 0.472957 43.4598 1.88353 46.3843C2.21605 47.0736 2.44733 47.4385 2.5227 47.3921C2.59483 47.3473 2.61301 47.3659 2.5673 47.4398C2.4552 47.6211 3.48377 49.0489 4.49094 50.1087C6.87769 52.6202 10.1691 54.2225 14.0108 54.7457V54.7472C15.2765 54.9198 18.3624 54.9487 19.8416 54.8025C22.3267 54.5571 24.5048 53.9553 26.3609 53.0019C28.808 51.7448 30.9367 49.4186 32.3054 46.5041C32.7892 45.4742 33.41 43.8832 33.3457 43.8384C33.3295 43.8271 32.064 43.6875 30.5339 43.5295C29.0038 43.3715 27.6096 43.2191 27.4349 43.19C27.129 43.1394 27.1042 43.1643 26.7911 43.8691C25.991 45.6697 24.5816 47.6223 23.4738 48.4616C22.6025 49.122 21.4974 49.624 20.3195 49.8951C18.9757 50.2042 15.7714 50.2292 14.5363 49.9397C12.9428 49.5662 11.7863 48.9886 10.3879 47.87C9.55188 47.2014 9.03685 46.5817 8.36433 45.4301C7.46438 43.8891 6.70698 41.3066 6.53596 39.1983L6.46524 38.3224L19.6804 38.3086C26.9492 38.3008 33.0049 38.2836 33.1366 38.2702C33.2684 38.2564 33.4102 38.212 33.4516 38.1703C33.6075 38.0135 33.5122 33.7891 33.3287 32.7098C32.6356 28.6311 31.2013 25.6348 28.8038 23.2575C26.0636 20.5401 22.7157 19.1052 18.3974 18.7986ZM17.5478 23.4557C18.7943 23.5309 19.8472 23.7237 20.8127 24.0717C21.7782 24.4197 22.6567 24.9226 23.5507 25.6189C24.1595 26.0931 24.6611 26.6125 25.0963 27.2322C25.5316 27.8519 25.9008 28.5719 26.2425 29.4509C26.5952 30.3579 27.0237 32.1582 27.0984 33.0462L27.1444 33.5978H6.67575L6.74954 32.9417C6.85495 31.9876 7.0631 31.0756 7.36715 30.2206C7.6712 29.3657 8.0702 28.5679 8.55486 27.8391C9.03945 27.1103 9.60994 26.4511 10.2572 25.8755C10.9107 25.2947 11.6381 24.8028 12.4205 24.4128C13.1827 24.0311 13.9948 23.7586 14.8329 23.6031C15.6805 23.4448 16.5782 23.3971 17.5478 23.4557ZM106.857 37.4822V20.0551H113.051V22.1022C113.051 23.2282 113.078 24.1493 113.11 24.1493C113.143 24.1493 113.553 23.7438 114.022 23.2482C115.001 22.2139 115.822 21.597 117 21.0087C119.701 19.6595 123.068 19.759 126.095 21.2771C126.7 21.5801 126.789 21.6593 126.7 21.8148C126.642 21.9151 126.429 22.5641 126.226 23.257C125.372 26.1645 125.302 26.3641 125.157 26.3083C124.55 26.0756 122.69 25.5993 122.014 25.5038C119.616 25.1649 117.55 25.937 115.701 27.8625C114.327 29.2938 113.667 30.7173 113.304 33.0334C113.147 34.0364 113.119 35.4363 113.08 44.5424L113.035 54.9095H106.857V37.4822ZM141.923 18.8017C137.587 19.107 134.508 20.4137 131.639 23.1652C128.361 26.3095 126.78 30.3231 126.535 36.1175C126.373 39.9497 127.062 43.6747 128.439 46.4211C130.784 51.1001 135.008 53.9891 140.609 54.7456V54.744C142.661 55.0212 146.099 54.9258 148.325 54.5304C150.295 54.1805 152.806 53.2073 154.188 52.258C154.934 51.7456 156.467 50.2252 157.147 49.3218C157.998 48.1937 158.834 46.6709 159.395 45.2302C159.658 44.5562 159.873 43.9638 159.873 43.9135C159.873 43.8631 158.61 43.6908 157.066 43.5309C155.521 43.3712 154.132 43.2166 153.979 43.1883C153.717 43.1395 153.663 43.2116 153.005 44.4728C151.672 47.0259 150.463 48.3866 148.817 49.1805C147.313 49.9058 145.883 50.1823 143.643 50.1823C141.093 50.1823 139.159 49.5558 137.144 48.0773C135.416 46.8087 134.077 44.4338 133.42 41.469C133.21 40.5244 132.943 38.4447 133.02 38.3669C133.046 38.3417 139.1 38.3193 146.474 38.3193H159.881L159.993 38.032C160.158 37.6153 160.118 34.8141 159.925 33.335C159.517 30.1951 158.609 27.6266 157.109 25.3653C156.3 24.1464 154.452 22.2944 153.248 21.4951C150.151 19.4398 146.201 18.5004 141.923 18.8017ZM143.338 23.4633C144.284 23.4551 145.244 23.5202 145.91 23.6615C146.827 23.8562 147.692 24.1638 148.489 24.5772C149.284 24.9886 150.017 25.5105 150.665 26.1275C151.421 26.8471 151.751 27.3128 152.361 28.5244C152.686 29.169 152.948 29.8516 153.156 30.597C153.364 31.3426 153.517 32.1505 153.623 33.0462L153.687 33.5978H133.192L133.262 32.9939C133.395 31.8273 133.678 30.7275 134.093 29.7182C134.508 28.7089 135.054 27.7901 135.712 26.9848C136.37 26.1796 137.139 25.4881 138.002 24.9337C138.864 24.3793 139.821 23.9629 140.85 23.7061C141.46 23.5538 142.392 23.4714 143.338 23.4633ZM166.52 49.1616C165.64 47.7288 164.834 45.8251 164.655 44.7565C164.587 44.3511 164.601 44.3098 164.826 44.2595C165.031 44.2138 169.688 43.5164 170.309 43.4387C170.479 43.4175 170.545 43.5588 170.744 44.3586C170.993 45.3651 171.38 46.3245 171.74 46.8301C171.861 47.0001 171.926 47.1941 171.885 47.2612C171.84 47.3335 171.855 47.3548 171.923 47.3131C172.024 47.2501 172.548 47.8436 172.457 47.9188C172.399 47.9668 167.098 49.8701 167.022 49.8701C166.986 49.8701 166.76 49.5514 166.52 49.1616ZM186.834 41.9081C186.759 41.8018 186.602 41.6658 186.487 41.6059C185.706 41.2009 180.991 39.7521 179.558 39.4771C178.227 39.2214 174.673 38.3123 173.469 37.9192C170.843 37.0618 169.264 36.188 167.98 34.8809C167.351 34.2404 167.115 33.8955 166.644 32.9317C166.016 31.6435 165.791 30.8335 165.691 29.496C165.527 27.3187 166.562 24.3934 168.086 22.7264C168.677 22.0795 169.896 21.2415 171.198 20.5868C172.821 19.7711 175.348 19.1583 177.679 19.0156C178.966 18.937 181.361 19.0133 182.393 19.1656C183.435 19.3197 185.089 19.6795 185.857 19.9192C186.98 20.2699 188.546 21.0006 188.463 21.1352C188.426 21.1953 188.448 21.2104 188.514 21.1697C188.713 21.0466 189.966 21.9243 190.638 22.6576C191.427 23.5178 192.094 24.5774 192.521 25.6479C192.915 26.6335 193.425 28.5318 193.324 28.6333C193.284 28.6734 191.935 28.852 190.327 29.0302L187.403 29.3542L187.275 28.7727C186.754 26.3904 184.62 24.5035 181.736 23.8756C180.055 23.5096 176.607 23.6821 175.025 24.2111C173.403 24.7535 172.213 25.7818 171.693 27.089C171.418 27.7806 171.426 28.9154 171.71 29.451C172.131 30.2463 173.16 31.255 173.921 31.6201C174.96 32.1178 178.947 33.2772 182.914 34.2349C185.677 34.9019 187.1 35.3581 188.659 36.0766C189.334 36.3878 189.927 36.6424 189.976 36.6424C190.141 36.6424 191.541 37.5295 192.044 37.9518C192.497 38.3326 193.258 39.2508 193.258 39.416C193.258 39.4537 193.057 39.572 192.812 39.6791C189.228 41.2435 187.205 42.1015 187.1 42.1015C187.029 42.1015 186.91 42.0144 186.834 41.9081ZM202.038 34.4461C201.293 33.5632 200.648 32.3382 200.348 31.2357C200.104 30.3354 200.025 28.627 200.184 27.6432C200.465 25.8989 201.418 23.8919 202.513 22.7351C203.18 22.0312 204.232 21.2798 204.552 21.2798C204.634 21.2798 204.678 21.2562 204.649 21.2272C204.568 21.1468 205.991 20.3891 206.781 20.0909C208.711 19.3634 210.944 18.9922 213.415 18.9883C215.422 18.9851 216.849 19.1236 218.598 19.4912C221.458 20.0924 224.033 21.4025 225.278 22.8899C225.524 23.183 225.707 23.4396 225.685 23.4601C225.552 23.5852 224.233 24.3103 222.575 25.1691L220.66 26.1617L220.311 25.9463C220.119 25.8279 219.872 25.6306 219.761 25.5079C219.243 24.9353 217.565 24.1795 216.145 23.8787C214.985 23.633 212.31 23.6294 210.934 23.8717C209.866 24.0595 208.658 24.4617 207.985 24.8529C207.381 25.2043 206.564 26.123 206.205 26.8529C205.781 27.7174 205.785 28.6991 206.216 29.4791C206.384 29.7831 206.677 30.2138 206.867 30.4363C207.058 30.6588 207.192 30.8706 207.165 30.9071C207.138 30.9436 207.144 30.9535 207.178 30.9289C207.212 30.9045 207.441 31.0375 207.686 31.2247C207.931 31.4119 208.399 31.6737 208.726 31.8064C209.053 31.9391 209.321 32.0808 209.321 32.1214C209.321 32.162 208.955 32.3553 208.507 32.5509C208.06 32.7467 206.593 33.4402 205.249 34.0923C203.905 34.7443 202.79 35.2778 202.772 35.2778C202.754 35.2778 202.424 34.9034 202.038 34.4461ZM221.703 28.7924C221.639 28.4836 221.608 28.1747 221.634 28.106C221.66 28.0374 222.029 27.745 222.453 27.4563C222.877 27.1676 223.911 26.4566 224.752 25.8764C225.592 25.2961 226.332 24.789 226.396 24.7493C226.524 24.6707 227.02 25.6304 227.307 26.5115C227.534 27.2078 227.816 28.5757 227.746 28.6452C227.716 28.6756 226.37 28.8475 224.755 29.0272L221.819 29.354L221.703 28.7924ZM226.209 23.9595L225.932 23.4577L226.366 23.2125C228.199 22.1776 232.333 19.6431 234.727 18.0871C236.882 16.6862 236.53 16.9933 231.892 20.5649C229.523 22.3892 226.671 24.4664 226.54 24.4628C226.51 24.462 226.361 24.2355 226.209 23.9595ZM16.1849 0.00770934L8.96047 0.0138453L7.28109 2.02661C5.47089 4.19522 2.21676 8.06011 0.907905 9.59671C0.463045 10.1191 0.123991 10.572 0.155065 10.6031C0.185981 10.6342 1.14123 10.6856 2.27686 10.7183C3.4125 10.7511 5.15017 10.7861 6.13956 10.7967C7.8987 10.8156 7.94299 10.8111 8.09702 10.58C8.24649 10.3557 8.37621 10.1987 8.96818 9.53063L9.22479 9.24177H11.1653C12.2331 9.24177 13.1074 9.26662 13.1074 9.29715C13.1074 9.32759 12.965 9.63447 12.7909 9.97927L12.4744 10.6062H20.5254L20.633 10.1606C20.7229 9.78708 23.1895 0.751896 23.3556 0.187463C23.4067 0.013688 23.0175 0.00298934 16.1849 0.00770934ZM16.0174 1.30288C16.0388 1.32435 15.8264 1.92671 15.5457 2.64116C15.2651 3.35561 14.8027 4.54174 14.5179 5.27775L14.0001 6.61603L12.714 6.6176C12.0045 6.61768 11.428 6.57386 11.428 6.52076C11.428 6.46774 11.4678 6.40937 11.5171 6.39018C11.6893 6.32299 14.3529 3.17381 14.2905 3.11135C14.2558 3.07666 14.2789 3.04834 14.3427 3.04834C14.4066 3.04834 14.8008 2.64611 15.2185 2.15563C15.6361 1.66514 15.996 1.28148 16.0174 1.30288ZM145.715 0.00314667L144.456 1.49954C143.698 2.40158 142.937 3.30247 142.176 4.20222C141.614 4.86617 140.479 6.21365 139.655 7.19525C138.83 8.17685 137.848 9.33971 137.471 9.78103C136.87 10.4853 136.812 10.5906 136.995 10.6385C137.11 10.6685 138.038 10.7005 139.059 10.7076C140.08 10.715 140.937 10.7426 140.964 10.7691C140.99 10.7955 141.82 10.8167 142.808 10.8167H144.604L145.26 10.0284L145.917 9.24177H147.856C148.923 9.24177 149.795 9.26812 149.795 9.30021C149.795 9.33231 149.655 9.63919 149.485 9.98241L149.176 10.6062H157.223L157.558 9.37243C157.741 8.69393 158.145 7.21799 158.455 6.09203C159.608 1.90649 159.973 0.573244 160.039 0.291932L160.107 0.003068H152.91L145.715 0.00314667ZM152.675 1.37824C152.706 1.40908 152.455 2.13973 152.119 3.00224C151.782 3.86565 151.446 4.72968 151.112 5.59431L150.719 6.61752H149.47C148.783 6.61752 148.221 6.58149 148.221 6.5376C148.221 6.4937 148.327 6.3403 148.459 6.19658C148.59 6.05277 148.98 5.60028 149.325 5.19169C149.67 4.78309 150.519 3.79362 151.212 2.99295C151.905 2.19244 152.505 1.48995 152.546 1.43048C152.586 1.3714 152.644 1.3474 152.675 1.37824ZM22.6939 10.529C22.85 10.2625 24.27 7.69479 24.6248 7.03713C24.8585 6.60407 25.4142 5.58833 25.8596 4.78003C26.4319 3.74019 27.0018 2.69909 27.5694 1.65672L28.4691 0.00322534H32.8088C35.1957 0.00322534 37.1486 0.021712 37.1486 0.0442107C37.1486 0.066788 36.3364 1.56673 35.3439 3.37748C34.3877 5.1215 33.433 6.86627 32.4796 8.6118L31.42 10.5541L27.0336 10.5814C24.621 10.5965 22.6681 10.5729 22.6939 10.529ZM40.2459 0L37.4894 5.23315C35.9738 8.11156 34.7345 10.4985 34.7345 10.537C34.7345 10.5756 36.6825 10.6047 39.0643 10.6031L43.3956 10.6L44.3897 8.92379C44.9364 8.00182 45.4084 7.24741 45.4391 7.24898C45.4698 7.25032 46.0381 8.00575 46.7021 8.92686L47.9097 10.6016L52.1457 10.6047L56.3833 10.6062L55.4399 9.58294C54.921 9.01993 54.2775 8.31562 54.0094 8.01724L53.5224 7.47491L53.865 7.40883C54.9445 7.20147 55.6684 6.98718 55.9638 6.78815C56.4063 6.49 57.2473 5.20868 58.0549 3.60301C58.5838 2.55163 58.7191 2.18166 58.7556 1.67788C58.8114 0.906555 58.6615 0.64609 57.9673 0.304283L57.4635 0.0553027L48.8546 0.0276907L40.2459 0ZM47.4518 2.81328L48.4674 2.8855C49.0261 2.92459 49.5664 2.97934 49.6673 3.00837C49.8225 3.05298 49.9043 3.18616 49.9269 3.36638C49.9498 3.54653 49.9137 3.77435 49.8318 4.01019C49.6679 4.48188 49.3228 4.98432 48.9068 5.1994C48.6128 5.35146 47.1784 5.41258 46.8064 5.28853C46.7114 5.25694 46.6162 5.22621 46.5207 5.19633C46.3822 5.1533 46.4607 4.9324 47.1153 3.53387L47.4518 2.81328ZM67.6533 9.478C67.9837 8.85732 68.4291 8.04233 68.6429 7.66709C68.8568 7.2917 69.2562 6.56545 69.5305 6.05301C70.4692 4.29977 72.7579 0.160873 72.833 0.0807907C72.8743 0.036816 74.8504 0.013216 77.2245 0.02832L81.5408 0.0558534L80.121 2.62786C79.3402 4.04253 78.3812 5.7905 77.9898 6.51227C77.5984 7.23403 77.1856 7.98986 77.0724 8.19196C76.9591 8.39413 76.6185 9.02 76.3153 9.58302L75.7642 10.6066H67.0524L67.6533 9.478ZM79.5903 9.95181C79.7899 9.59018 81.0516 7.20375 82.394 4.64873L84.8347 0.00322534H93.1622L94.2094 1.90641C94.7854 2.95323 95.3065 3.8789 95.3675 3.96354C95.455 4.08508 95.7393 3.68483 96.719 2.06036L97.9598 0.00322534H105.09L104.593 0.921895C104.32 1.42709 103.615 2.71447 103.026 3.78269C102.438 4.85083 101.753 6.10281 101.505 6.56474C101.256 7.02659 100.879 7.7117 100.665 8.08694C100.452 8.46226 100.054 9.18277 99.7823 9.68796L99.2875 10.6066H90.7012L89.7244 8.71887C89.1872 7.6807 88.7053 6.8444 88.6536 6.86052C88.6019 6.87665 88.0759 7.71429 87.485 8.72194L86.4104 10.5541L82.8188 10.5816L79.2271 10.6093L79.5903 9.95181ZM108.38 0.00314667L108.104 0.502444C107.952 0.776598 107.687 1.2604 107.514 1.57798C105.713 4.87883 102.91 9.99626 102.754 10.2697L102.555 10.6154L112.081 10.5847L121.607 10.554L122.233 10.2389C123.049 9.82736 123.524 9.34474 124.332 8.10629C125.076 6.96468 126.573 4.26657 127.343 2.67962C127.826 1.68583 128.012 0.94345 127.733 1.11549C127.655 1.16364 127.64 1.14358 127.692 1.06019C127.797 0.890507 127.275 0.336615 126.833 0.1475C126.555 0.0284774 124.896 0.00298934 117.438 0.003068L108.38 0.00314667ZM115.798 2.62731H116.583C117.337 2.62731 117.739 2.73713 117.905 2.98532C118.008 3.14022 118.017 3.35278 117.891 3.74438C117.765 4.1359 117.503 4.706 117.07 5.57275C116.567 6.58031 116.162 7.46649 116.168 7.54249C116.175 7.61848 116.159 7.65915 116.133 7.63311C116.107 7.60715 115.851 7.67488 115.565 7.78368C115.187 7.92701 114.77 7.98192 114.048 7.98192C113.572 7.98192 113.294 7.97043 113.162 7.93118C113.029 7.892 113.041 7.82537 113.143 7.71453C113.194 7.6597 113.812 6.49236 114.517 5.12105L115.798 2.62731ZM126.211 10.4513C126.244 10.366 127.524 8.01567 129.056 5.22843C130.588 2.44126 131.854 0.124765 131.869 0.0807907C131.884 0.036816 133.859 0.013216 136.258 0.02832L140.62 0.0558534L140.005 1.15813C139.614 1.85909 139.227 2.56228 138.844 3.26766C138.545 3.82163 137.52 5.69838 136.567 7.43817L134.835 10.6015L130.493 10.6039C126.705 10.6062 126.159 10.5867 126.211 10.4513Z" fill="#242424"/>
</svg>
