<svg width="443" height="116" viewBox="0 0 443 116" fill="none" xmlns="http://www.w3.org/2000/svg">
<path d="M166.742 0.517823C167.455 -0.0356518 168.402 0.0520941 169.253 0.031845C176.075 0.0610937 182.896 -0.0581508 189.718 0.0385947C189.23 1.0983 188.58 2.068 187.938 3.03996C180.903 13.943 173.872 24.8482 166.859 35.7647C166.513 35.8007 166.175 35.8434 165.835 35.8749C160.069 36.2394 154.311 36.7546 148.538 37.0134C146.592 37.1034 144.653 37.2924 142.704 37.3531C135.489 37.5039 128.278 38.2823 121.218 39.7853C119.422 40.1902 117.593 40.5052 115.876 41.1959L115.755 42.5234C125.27 43.2838 134.868 42.4536 144.207 40.557C149.029 39.6233 153.888 38.9123 158.721 38.0393C161.061 37.6771 163.376 37.1191 165.743 36.9481C165.73 37.0899 165.7 37.3689 165.687 37.5106C163.448 41.1779 160.98 44.7125 158.75 48.3911L158.892 48.4879C158.415 48.4879 157.938 48.5014 157.463 48.4969C152.941 48.0221 148.509 46.9579 144.043 46.1367C134.814 44.0646 125.324 43.3468 115.879 43.5223C115.775 43.9093 115.672 44.2985 115.57 44.6878C117.733 45.689 120.066 46.2222 122.365 46.8117C126.831 47.9434 131.394 48.6678 135.981 49.0796C142.529 49.5543 149.105 49.5431 155.65 50.0898C156.134 50.1325 156.615 50.1505 157.106 50.1753C157.151 50.4093 157.146 50.641 157.09 50.8727C155.369 53.6626 153.508 56.3625 151.814 59.1681C148.525 57.8767 145.267 56.4975 142.103 54.9203C139.237 53.5524 136.38 52.1462 133.381 51.0932C127.45 49.0526 121.497 46.9579 115.298 45.8915C115.188 46.3212 115.08 46.7532 114.972 47.1852C121.301 51.0662 128.055 54.2993 135.162 56.4795C138.045 57.3119 140.972 57.9892 143.856 58.8171C145.984 59.4381 148.165 59.8926 150.246 60.6643C150.363 60.7138 150.595 60.8105 150.712 60.86C148.878 63.5374 147.19 66.3115 145.375 69.0024C142.308 66.928 139.458 64.5589 136.614 62.192C135.104 60.9388 133.673 59.5843 132.067 58.4526C126.408 54.4411 120.439 50.83 114.099 47.9974C113.869 48.3619 113.638 48.7241 113.411 49.0886C118.637 54.6458 124.619 59.5371 131.286 63.2697C135.7 65.5511 139.984 68.0709 144.25 70.6133C143.055 72.5595 141.869 74.6946 141.948 77.0503C142.049 79.2439 143.604 81.0798 145.397 82.198C147.197 83.4512 149.285 84.1712 151.281 85.0397C148.309 84.9879 145.339 84.8889 142.371 84.7472C140.052 81.7728 137.55 78.9447 135.302 75.9163C132.586 72.393 130.071 68.7212 127.45 65.1281C124.961 61.796 122.115 58.7541 119.161 55.836C116.941 53.6874 114.817 51.4105 112.245 49.6713C112 50.0223 111.743 50.3688 111.55 50.7535C111.836 51.9167 112.668 52.8414 113.235 53.8741C117.031 60.2683 121.652 66.208 127.214 71.1691C130.26 73.7317 132.913 76.7105 135.756 79.4892C137.428 81.2418 139.309 82.8078 140.769 84.7517C135.885 84.5514 131 84.8664 126.122 85.0689C125.949 84.6909 125.776 84.3175 125.609 83.9417C124.12 80.2946 122.745 76.5981 121.517 72.8565C119.982 68.4377 118.117 64.1314 115.888 60.0186C114.263 56.9812 112.344 54.1148 110.459 51.235C109.979 51.334 109.502 51.4352 109.028 51.5365C109.228 53.4061 109.741 55.2173 110.236 57.0262C111.77 62.4777 113.854 67.792 116.653 72.7237C118.072 75.1761 119.87 77.399 121.098 79.9661C121.902 81.6693 123.076 83.2015 123.636 85.0172C124.444 85.2354 125.29 85.1522 126.116 85.2242C124.752 85.5166 123.339 85.1657 121.969 85.4289C119.217 85.6044 116.491 86.0251 113.746 86.2771C113.453 86.2861 113.165 86.2929 112.875 86.2996C112.157 81.0686 112.54 75.7701 111.908 70.5323C111.433 66.2035 110.537 61.9332 109.473 57.7147C108.983 55.8473 108.42 54.0001 107.979 52.1192C107.379 52.1102 106.778 52.0989 106.179 52.0899C105.819 59.2086 105.68 66.451 107.358 73.4279C107.921 75.9118 108.933 78.2652 109.475 80.7536C109.849 82.4815 110.371 84.187 110.546 85.9531C110.553 86.1736 110.571 86.6146 110.58 86.8351C108.25 87.1181 105.941 87.5509 103.666 88.131C102.193 88.4955 100.757 88.9972 99.2654 89.283C100.19 84.3332 101.369 79.4307 102.71 74.5776C103.727 71.1263 104.177 67.5445 104.568 63.9806C104.973 60.0208 105.14 56.0408 105.126 52.0629C104.607 52.0854 104.091 52.1102 103.574 52.1327C101.819 56.4907 100.411 60.9928 99.4882 65.6028C98.1315 71.8823 98.2912 78.335 97.8187 84.7089C97.6725 86.3221 97.686 87.9555 97.3912 89.5552L97.2833 89.9579C93.9332 91.0356 90.5336 92.3271 87.8247 94.6422C86.3555 95.8662 85.3768 97.8933 85.9033 99.8102C86.5467 101.752 88.0587 103.255 89.6674 104.445C92.761 106.695 96.3068 108.232 99.9021 109.487C104.861 111.161 110.04 112.162 115.26 112.527C119.85 112.896 124.46 113.069 129.065 112.932C123.335 114.169 117.494 114.894 111.638 115.139C102.87 115.49 93.9197 114.14 85.9145 110.443C81.6172 108.295 77.5472 105.716 73.6301 102.942C70.2305 100.478 66.8557 97.9833 63.4223 95.5714C59.539 93.1123 55.4577 90.9794 51.2999 89.0242C43.9405 85.6449 36.1288 83.3477 28.2182 81.6693C18.8924 79.7232 9.42256 78.5915 0 77.228C0.839211 77.0705 1.69417 77.0278 2.54688 77.0548C19.9611 77.3315 37.4585 76.0198 54.4992 72.3053C55.8132 72.0038 57.1811 71.8665 58.423 71.3085C60.9204 70.1566 63.3908 68.9462 65.823 67.6592C66.7297 67.1507 67.6251 66.6018 68.6218 66.28C67.6454 67.2655 66.4012 67.9135 65.3257 68.7797C63.9893 69.8371 62.6439 70.8878 61.2602 71.8868C58.5693 73.8374 55.9639 75.9051 53.3 77.8917C52.0288 78.8682 50.6969 79.7727 49.527 80.8751C51.3359 79.9459 53.0345 78.8232 54.7782 77.7815C60.9924 74.0422 67.0019 69.9654 73.3241 66.4038C77.9634 63.7151 82.8232 61.373 87.1227 58.1377C90.8643 55.3433 94.5024 52.3892 97.8682 49.1448C97.6297 48.8253 97.3957 48.5059 97.1595 48.1886C102.485 44.69 107.759 41.1104 113.06 37.5759C113.701 37.7761 114.405 38.1136 115.064 37.7671C121.571 34.9232 127.754 31.3369 133.435 27.0733C140.4 21.7321 147.269 16.2603 154.368 11.0923C156.93 9.06743 159.666 7.26976 162.179 5.18411C159.587 6.48455 157.164 8.09772 154.712 9.6389C154.156 9.97188 153.524 10.1294 152.91 10.3004C153.409 9.83014 153.951 9.40716 154.518 9.02018C158.6 6.19656 162.674 3.36394 166.742 0.517823ZM165.669 21.0436C161.198 22.5241 156.737 24.0382 152.241 25.4422C147.892 26.8034 143.55 28.2005 139.12 29.2805C130.683 31.3481 122.606 34.7252 114.985 38.8695C115.08 39.315 115.172 39.7605 115.269 40.2082C118.241 39.9113 121.15 39.1823 124.053 38.4938C131.587 36.6017 138.902 33.814 145.771 30.185C149.2 28.6325 152.694 27.2331 156.165 25.7819C160.523 24.0067 164.832 22.1101 169.192 20.3394C169.953 20.0042 170.85 19.8354 171.377 19.129C169.489 19.8084 167.59 20.4587 165.669 21.0436ZM98.3362 50.2405C94.2481 53.5411 90.1308 56.8732 86.6952 60.8713C84.1529 63.5532 82.065 66.613 79.8713 69.5761C77.2299 73.3537 74.2938 76.9085 71.5579 80.6141C68.7276 84.3624 65.7375 87.9893 62.9768 91.7893C64.6508 90.4732 65.832 88.6777 67.3124 87.1681C70.5927 83.7032 74.0103 80.3689 77.2749 76.886C80.5395 73.8554 83.6444 70.6583 86.8572 67.5715C88.3804 66.2305 89.6629 64.6534 90.9903 63.1257C93.3054 60.3853 95.4788 57.5212 97.4565 54.5266C98.2755 53.2599 99.2182 52.0697 99.9044 50.7198C99.4994 50.3395 98.8897 49.7388 98.3362 50.2405ZM101.106 51.1585C99.6974 52.6569 98.6264 54.4321 97.443 56.106C94.9456 59.9781 92.5247 63.9559 90.943 68.3027C88.4682 74.7171 86.009 81.1383 83.4554 87.5213C81.8062 91.8096 79.9793 96.0304 78.4314 100.357C79.2571 99.205 79.8353 97.9136 80.463 96.6514C81.984 93.704 83.5971 90.8061 85.1653 87.8835C87.5794 83.494 89.9261 79.0684 92.4977 74.7689C96.867 67.5242 100.46 59.7328 102.454 51.487C102.001 51.3767 101.554 51.2687 101.106 51.1585ZM313.777 64.0076C317.391 63.9356 321.006 63.9649 324.622 63.9626C324.095 64.8851 323.63 65.9403 322.721 66.5433C319.231 66.631 315.735 66.5905 312.243 66.5478C312.7 65.6703 313.235 64.8379 313.777 64.0076ZM332.429 65.8615C334.105 64.6646 336.152 63.9964 338.216 63.9941C349.391 63.9829 360.568 63.9964 371.746 64.0211C373.1 64.0459 374.716 64.2709 375.454 65.5713C374.968 66.46 374.421 67.3105 373.867 68.1564C375.103 68.1812 376.34 68.1924 377.578 68.2217C377.029 69.2004 376.412 70.1408 375.807 71.0836C374.596 71.1286 373.372 70.9868 372.176 71.1916C370.832 72.2603 370.549 74.6204 368.585 74.8656C364.242 75.0456 359.891 74.8341 355.549 74.9871C354.566 75.0231 353.31 75.4596 353.276 76.6206C356.784 77.057 360.334 76.4631 363.84 76.958C364.699 77.102 365.631 77.1965 366.351 77.7432C366.879 78.1392 367.275 78.8479 367.057 79.5162C366.742 80.5511 366.094 81.4353 365.57 82.3668C364.902 83.4602 364.346 84.6797 363.322 85.4964C362.325 86.2681 361.003 86.3109 359.799 86.3266C353.126 86.3154 346.455 86.3424 339.782 86.3064C338.87 86.2479 337.691 86.2051 337.178 85.3119C336.688 84.3354 337.579 83.4715 338.02 82.6728C338.434 82.1125 338.711 81.1496 339.561 81.1856C343.123 81.1743 346.686 81.1293 350.25 81.2126C349.827 82.0158 349.438 82.837 349.094 83.6762C350.244 83.8652 351.652 84.2297 352.626 83.368C353.47 82.3668 354.246 81.2148 354.39 79.8784C352.649 79.3429 350.813 79.6242 349.026 79.5589C346.776 79.4982 344.457 79.8109 342.279 79.0999C341.356 78.8569 340.74 77.7635 341.109 76.8635C341.595 75.6373 342.389 74.5416 343.341 73.6349C344.232 72.7507 345.564 72.6652 346.749 72.6315C351.058 72.6337 355.367 72.6135 359.675 72.6022C359.887 72.1883 360.098 71.7743 360.305 71.3603C357.146 71.1646 353.983 71.2883 350.82 71.2658C347.202 71.2546 343.582 71.2456 339.962 71.2973C337.068 75.9906 334.13 80.6569 331.279 85.3794C330.984 85.8699 330.561 86.4436 329.907 86.3334C326.347 86.2546 322.784 86.4548 319.231 86.2164C319.573 85.2714 320.189 84.4659 320.718 83.62C323.369 79.4374 326.021 75.2549 328.676 71.0746C327.718 71.0611 326.761 71.0476 325.81 71.0161C326.233 70.0104 326.8 69.0767 327.367 68.1452C328.3 68.1587 329.236 68.1677 330.174 68.1384C330.91 67.3667 331.542 66.478 332.429 65.8615ZM341.669 68.1519C348.446 68.1632 355.223 68.2014 361.997 68.1767C362.244 67.711 362.494 67.243 362.739 66.775C360.841 66.208 358.847 66.406 356.896 66.3745C352.993 66.3858 349.092 66.3565 345.19 66.388C343.807 66.4015 342.614 67.2115 341.669 68.1519ZM210.781 69.0676C212.246 68.2577 213.958 68.1564 215.601 68.1519C221.295 68.1339 226.99 68.1497 232.684 68.1722C233.787 68.1677 234.948 68.2982 235.902 68.9012C236.464 69.2611 236.905 69.9969 236.64 70.6696C236.212 71.8238 235.546 72.87 235.065 74.0017C234.354 75.6126 232.97 76.8455 231.368 77.5363C231.589 78.2382 231.899 79.0234 231.575 79.7457C230.995 80.9854 230.187 82.1013 229.456 83.2533C228.947 84.0745 228.299 84.8552 227.395 85.2534C226.04 85.9374 224.49 85.8114 223.023 85.8136C216.348 85.8181 209.672 85.8001 202.997 85.8361C202.311 85.8339 201.543 85.8316 200.997 85.3547C200.641 85.0734 200.515 84.5762 200.661 84.1532C201.015 82.936 201.753 81.8853 202.461 80.8504C206.36 80.8301 210.26 80.8211 214.159 80.8211C213.844 81.5051 213.418 82.1598 213.308 82.918C213.686 83.4085 214.37 83.377 214.928 83.44C216.064 83.5142 217.45 83.323 218.067 82.2318C218.616 81.2778 219.275 80.3599 219.615 79.3047C219.608 78.6432 218.89 78.3372 218.334 78.2472C216.836 78.0582 215.322 78.1842 213.819 78.146C214.231 77.3293 214.69 76.5351 215.16 75.7498C217.158 75.5114 219.189 75.7543 221.183 75.4551C222.895 74.8971 223.599 73.0657 224.474 71.6573C223.61 70.8091 222.319 71.0363 221.23 71.1128C220.242 71.4705 219.828 72.564 219.165 73.2997C215.209 73.4167 211.256 73.347 207.301 73.3335C208.241 71.7675 209.063 69.9294 210.781 69.0676ZM295.274 68.1407C304.913 68.2329 314.551 68.089 324.192 68.2262C323.722 69.2521 323.094 70.1904 322.43 71.0971C321.764 71.0858 321.098 71.0971 320.439 71.1286C319.557 72.0443 319.114 73.2727 318.261 74.2064C317.688 74.8656 316.754 74.9016 315.944 74.9354C311.971 74.9601 307.995 74.9039 304.024 74.9714C302.926 74.9736 301.767 75.5496 301.5 76.6903C304.816 76.8658 308.137 76.6813 311.453 76.8343C312.828 76.886 314.13 77.4215 315.285 78.146C315.334 78.8569 315.458 79.6264 315.096 80.2811C314.421 81.5298 313.672 82.738 312.94 83.9552C312.486 84.7494 311.872 85.4896 311.021 85.8721C309.835 86.4773 308.465 86.2794 307.185 86.3086C302.962 86.3446 298.739 86.2906 294.516 86.3626C293.989 87.3458 293.371 88.6283 292.108 88.7205C289.575 88.788 287.037 88.7452 284.504 88.7452C284.551 87.9645 284.745 87.1973 285.129 86.5133C284.916 86.0701 284.571 85.6516 284.556 85.1432C285.001 84.1757 285.692 83.3477 286.212 82.4185C286.56 81.9123 286.828 81.0978 287.588 81.1811C290.966 81.1856 294.345 81.1181 297.722 81.2306C297.322 82.0608 296.962 82.9158 296.757 83.8202C297.906 83.854 299.067 83.9732 300.213 83.7977C300.663 83.7617 300.933 83.35 301.209 83.0418C301.767 82.2925 302.283 81.4916 302.611 80.6141C302.75 80.0089 302.091 79.5904 301.558 79.6062C297.463 79.3407 293.29 80.0314 289.265 78.9897C289.238 78.3665 289.058 77.669 289.456 77.1223C290.158 76.0221 290.858 74.9196 291.582 73.8352C292.273 72.7867 293.643 72.636 294.795 72.6157C299.193 72.6112 303.592 72.6202 307.991 72.6135C308.189 72.195 308.389 71.7788 308.591 71.3625C303.527 71.1061 298.455 71.3783 293.389 71.2118C293.897 70.1206 294.541 69.0969 295.274 68.1407ZM169.523 68.2194C181.861 68.2059 194.2 68.1632 206.538 68.2374C206.192 69.1734 205.757 70.0756 205.195 70.9013C204.095 71.0386 202.986 71.0093 201.883 71.0363C200.556 73.4122 199.06 75.6824 197.647 78.0065C196.612 79.9279 194.816 81.8381 192.438 81.6491C188.481 81.6356 184.523 81.6648 180.565 81.6086C180.885 80.9853 181.092 80.2429 181.659 79.7929C182.341 79.5364 183.137 79.5904 183.751 79.1652C184.284 78.7107 184.59 78.0582 184.955 77.4733C186.195 75.3044 187.666 73.2727 188.775 71.0296C187.027 70.9936 185.281 70.9958 183.535 71.0363C181.765 74.1457 179.996 77.2595 178.192 80.3531C177.713 81.1473 177.272 82.1508 177.677 83.0643C177.994 83.3972 178.495 83.3882 178.925 83.422C184.172 83.4895 189.421 83.3815 194.668 83.5007C195.367 83.5097 196.288 83.899 196.317 84.7044C196 85.9351 195.3 87.0241 194.825 88.1963C190.863 88.1625 186.903 88.1963 182.941 88.2008C183.259 87.3998 183.448 86.5538 183.499 85.6944C182.8 85.6089 182.1 85.5391 181.398 85.5346C176.824 85.5504 172.248 85.5504 167.673 85.5256C166.596 85.5121 165.394 85.1634 164.785 84.2117C164.247 83.251 164.607 82.0968 165.091 81.1923C166.843 77.786 168.94 74.5664 170.607 71.1173C169.568 71.0746 168.528 71.0633 167.489 71.0678C168.094 70.0689 168.686 69.0474 169.523 68.2194ZM241.36 68.3409C244.091 68.1519 246.827 68.2757 249.563 68.2352C252.733 68.2779 255.908 68.1519 259.076 68.3432C258.576 69.2026 258.018 70.0261 257.449 70.8406C256.351 70.8653 255.242 70.7911 254.166 71.0386C253.145 72.5392 252.335 74.1659 251.372 75.7026C249.824 78.2292 248.283 80.7604 246.841 83.3477C246.289 84.4007 245.693 85.4469 244.847 86.2974C240.939 86.3356 237.031 86.3266 233.123 86.2884C233.802 84.7764 234.824 83.458 235.591 81.9956C236.217 80.7626 237.218 79.6984 237.477 78.3012C236.289 78.1392 235.092 78.1325 233.897 78.164C234.257 77.3135 234.709 76.5103 235.2 75.7296C236.624 75.7116 238.052 75.7048 239.474 75.5451C240.449 74.0534 241.452 72.5752 242.237 70.9711C241.502 70.9103 240.768 70.8608 240.032 70.8226C240.422 69.9676 240.876 69.1464 241.36 68.3409ZM266.097 68.2892C269.511 68.1924 272.926 68.2509 276.341 68.2352C278.839 68.2532 281.338 68.1744 283.831 68.3274C283.248 69.1734 282.767 70.1183 281.984 70.8023C280.872 71.1061 279.439 70.4288 278.546 71.3828C277.167 73.1715 276.085 75.1806 274.582 76.8725C273.657 77.8737 272.264 78.2945 270.93 78.2292C270.06 79.4442 269.193 80.6614 268.338 81.8876C267.999 82.3218 267.882 82.8595 267.927 83.4017C269.666 83.6582 271.427 83.4782 273.176 83.5997C272.836 84.3534 272.584 85.1702 272.053 85.8159C270.197 86.0454 268.311 85.8654 266.444 85.9126C263.746 85.8879 261.046 85.9194 258.349 85.8991C257.615 85.8519 256.767 85.8406 256.225 85.2737C255.624 84.4074 255.703 83.2105 256.164 82.3015C256.848 80.9876 257.834 79.8424 258.367 78.4475C257.638 78.0537 256.803 78.1437 256.011 78.164C256.331 77.2978 256.794 76.4946 257.294 75.7206C259.143 75.6711 261.01 75.7746 262.846 75.4889C263.704 75.3831 264.268 74.6564 264.761 74.0197C265.499 73.0027 266.271 72.0105 267.022 71.0026C266.232 70.9306 265.44 70.8743 264.651 70.8316C265.11 69.9721 265.598 69.1262 266.097 68.2892ZM384.392 70.6786C384.833 69.8191 385.27 68.9484 385.913 68.2194C404.286 68.1947 422.659 68.2014 441.031 68.2037C441.686 68.2262 442.339 68.2667 443 68.3004C442.487 69.1284 441.974 69.9564 441.538 70.8271C440.203 71.0993 438.379 70.6268 437.546 72.006C434.666 76.7285 431.787 81.4511 428.934 86.1894C427.802 86.4031 426.652 86.3221 425.514 86.3221C422.771 86.2974 420.031 86.3761 417.29 86.2636C419.3 82.5715 421.577 79.0347 423.604 75.3516C424.351 73.9634 425.599 72.726 425.541 71.0363C424.02 70.9891 422.497 70.9058 420.98 71.0183C419.999 71.0656 419.423 71.9903 418.937 72.7237C416.377 76.9108 413.823 81.1046 411.272 85.2984C410.959 85.7529 410.656 86.4369 409.985 86.3221C406.351 86.3131 402.716 86.3604 399.084 86.2749C399.66 85.0532 400.488 83.9597 400.952 82.6795C400.225 82.0068 399.213 81.9888 398.286 81.9888H378.936C377.427 82.0023 375.847 81.8066 374.54 81.0011C373.91 80.6006 373.638 79.8109 373.699 79.0954C373.762 77.9615 374.493 77.039 374.995 76.0671C375.503 75.1424 376.221 74.0804 377.382 74.0017C381.198 73.8374 385.02 74.1322 388.836 73.9274C390.132 73.9409 391.376 72.7822 391.464 71.5245C390.658 70.8946 389.583 70.9868 388.625 70.9778C387.344 71.0093 386.037 70.8428 384.788 71.2096C384.651 71.0318 384.521 70.8541 384.392 70.6786ZM404.059 71.0363C403.114 72.4447 402.421 74.0444 401.213 75.2639C400.463 76.0513 399.345 76.3078 398.297 76.3258C394.917 76.3528 391.534 76.2268 388.157 76.3686C387.11 76.3528 386.397 77.6668 386.912 78.5555C387.344 79.1494 388.109 79.4127 388.829 79.3834C392.879 79.3699 396.929 79.3924 400.979 79.3722C402.034 79.3564 403.283 79.1314 403.865 78.1415C404.714 76.7263 405.526 75.2864 406.351 73.8554C406.819 72.96 407.537 72.0803 407.337 71.0026C406.243 70.9621 405.148 70.9306 404.059 71.0363ZM163.72 97.8573C164.49 97.6436 165.304 97.7358 166.094 97.7223C172.695 97.7178 179.294 97.7538 185.895 97.7336C187.038 97.7111 188.186 97.7201 189.329 97.8123C188.782 99.862 187.974 101.831 187.329 103.849C186.118 107.401 184.973 110.979 183.722 114.518C183.621 115.116 182.98 114.988 182.53 115.015C178.104 115.017 173.681 115.067 169.257 114.959C169.541 114.14 169.802 113.312 170.038 112.479C168.045 112.455 166.051 112.41 164.06 112.455C162.078 112.288 161.547 115.121 159.581 115.011C155.436 115.017 151.294 115.071 147.152 114.966C148.023 113.703 149.168 112.675 150.214 111.568C154.093 107.572 157.979 103.588 161.851 99.5897C162.451 98.989 163 98.3185 163.72 97.8573ZM167.676 108.027C169.149 108.166 170.637 108.182 172.113 108.038C172.943 105.68 174.146 103.469 174.875 101.072C172.466 103.381 170.025 105.658 167.676 108.027ZM197.406 97.8753C202.695 97.8416 207.985 97.8123 213.274 97.8798C209.686 103.633 206.054 109.357 202.356 115.04C197.113 114.981 191.869 115.058 186.629 114.984C188.154 112.189 190.001 109.588 191.671 106.882C193.547 103.858 195.561 100.919 197.406 97.8753ZM218.674 97.8753C228.526 97.8078 238.379 97.8753 248.231 97.8213C249.714 97.7336 251.646 98.5233 251.718 100.224C251.615 102.006 250.368 103.401 249.509 104.879C248.49 106.441 247.7 108.277 246.069 109.314C245.117 109.984 243.929 110.097 242.816 110.281C244.359 111.793 245.997 113.226 247.318 114.95C242.44 115.085 237.564 115.002 232.686 115.022C232.277 115.022 231.8 115.038 231.537 114.662C230.011 112.866 228.673 110.922 227.305 109.008C225.885 110.893 224.902 113.058 223.52 114.968C218.316 115.074 213.103 115.017 207.897 114.979C211.29 109.154 215.158 103.624 218.674 97.8753ZM230.758 102.953C230.137 104.141 229.471 105.307 228.898 106.519C230.495 106.499 232.295 106.904 233.717 105.973C234.392 105.331 235.254 104.459 234.968 103.444C233.766 102.494 232.149 103.043 230.758 102.953ZM270.692 98.413C270.975 97.7786 271.686 97.6818 272.307 97.7156C277.115 97.7763 281.923 97.6503 286.731 97.8033C284.259 101.835 281.709 105.82 279.194 109.825C278.044 111.525 277.09 113.357 275.84 114.988C270.593 115.017 265.344 115.06 260.097 114.986C263.467 109.361 267.173 103.943 270.692 98.413ZM291.256 98.7213C291.564 98.2758 291.883 97.6661 292.529 97.7426C296.728 97.6998 300.93 97.7336 305.131 97.7268C305.594 97.7786 306.258 97.6616 306.515 98.1678C307.781 100.217 308.965 102.323 310.33 104.312C311.782 102.319 312.922 100.118 314.295 98.0711C314.596 97.6211 315.242 97.7786 315.71 97.7201C319.834 97.7696 323.963 97.6616 328.087 97.7943C324.455 103.583 320.644 109.255 317.024 115.051C312.578 114.997 308.13 115.06 303.686 115.035C302.157 112.644 300.591 110.277 299.04 107.901C297.558 110.342 295.936 112.693 294.34 115.062C290.03 115.008 285.721 115.033 281.412 115.042C282.06 113.501 283.08 112.162 283.905 110.718C286.315 106.693 288.842 102.742 291.256 98.7213ZM333.804 97.8236C335.867 97.5873 337.948 97.8011 340.02 97.7381C347.44 97.7538 354.86 97.7133 362.283 97.7291C363.934 97.7876 365.651 97.7898 367.215 98.4018C367.871 98.629 368.445 99.2793 368.337 100.01C368.202 100.796 367.712 101.45 367.323 102.125C365.631 104.926 363.945 107.732 362.262 110.54C360.881 113.253 357.931 115.087 354.874 115.02C344.214 115.035 333.554 115.051 322.894 114.968C323.738 113.269 324.876 111.744 325.855 110.124C328.487 106.013 331.092 101.885 333.804 97.8236ZM346.441 103.016C345.71 104.261 345.019 105.529 344.324 106.794C343.559 108.256 342.639 109.645 342.036 111.19C343.39 111.226 344.92 111.471 346.092 110.616C347.465 109.721 348.072 108.144 348.783 106.747C349.326 105.676 350.183 104.569 349.791 103.298C348.732 102.834 347.562 102.895 346.441 103.016ZM374.819 99.0318C375.206 98.449 375.618 97.6143 376.457 97.7223C381.418 97.7628 386.379 97.6593 391.34 97.8011C390.258 99.9452 388.836 101.887 387.549 103.907C385.56 107.197 383.396 110.378 381.369 113.645C381.072 114.117 380.739 114.563 380.397 115.004C375.154 115.013 369.912 115.065 364.672 114.972C367.898 109.561 371.552 104.42 374.819 99.0318ZM400.538 98.2286C400.958 97.8281 401.546 97.7021 402.115 97.7201C408.185 97.7268 414.255 97.7223 420.326 97.7246C422.364 97.7426 424.405 97.6661 426.441 97.8168C424.67 103.608 422.668 109.33 420.76 115.078C415.965 115.074 411.171 115.031 406.376 115.049C406.7 114.207 407.002 113.359 407.278 112.5C404.99 112.468 402.695 112.376 400.412 112.524C399.233 113.046 398.585 114.257 397.579 115.006C393.109 115.062 388.631 115.031 384.161 115.02C385.02 113.622 386.359 112.63 387.455 111.431C391.813 107.028 396.202 102.652 400.538 98.2286ZM404.878 108.04C406.329 108.085 407.782 108.146 409.238 108.058C410.228 105.734 411.229 103.412 412.221 101.09C409.657 103.282 407.287 105.685 404.878 108.04Z" fill="#C5012D"/>
<path d="M154.712 9.64034C157.165 8.09916 159.588 6.48599 162.18 5.18555C159.667 7.2712 156.931 9.06887 154.368 11.0938C147.27 16.2618 140.401 21.7335 133.435 27.0748C127.754 31.3383 121.571 34.9247 115.065 37.7685C114.405 38.115 113.701 37.7775 113.06 37.5773C116.309 34.9562 119.983 32.929 123.324 30.4339C124.397 29.6059 125.592 28.9579 126.71 28.193C131.025 25.3289 135.154 22.179 139.564 19.4544C141.706 18.1089 143.517 16.2978 145.701 15.0108C147.249 14.0344 148.66 12.8554 150.239 11.9262C151.137 11.402 151.891 10.6033 152.91 10.3018C153.524 10.1308 154.157 9.97332 154.712 9.64034ZM165.669 21.0451C167.591 20.4601 169.49 19.8099 171.377 19.1304C170.851 19.8369 169.953 20.0056 169.193 20.3408C164.832 22.1115 160.524 24.0082 156.166 25.7833C152.694 27.2345 149.2 28.634 145.771 30.1864C138.902 33.8155 131.588 36.6031 124.053 38.4953C121.151 39.1837 118.241 39.9127 115.269 40.2097C115.173 39.7619 115.08 39.3165 114.986 38.871C122.606 34.7267 130.683 31.3496 139.12 29.2819C143.55 28.202 147.893 26.8048 152.242 25.4436C156.737 24.0397 161.199 22.5255 165.669 21.0451ZM148.539 37.0148C154.312 36.7561 160.069 36.2409 165.836 35.8764C166.085 35.8629 166.583 35.8336 166.832 35.8201C166.49 36.4119 166.155 37.0103 165.687 37.512C165.701 37.3703 165.73 37.0913 165.743 36.9496C163.377 37.1206 161.061 37.6785 158.722 38.0408C153.889 38.9137 149.029 39.6247 144.207 40.5584C134.868 42.4551 125.27 43.2853 115.755 42.5248L115.877 41.1974C117.593 40.5067 119.423 40.1917 121.218 39.7867C128.278 38.2838 135.489 37.5053 142.705 37.3546C144.653 37.2938 146.592 37.1048 148.539 37.0148ZM115.879 43.5238C125.324 43.3483 134.814 44.066 144.043 46.1381C148.509 46.9594 152.942 48.0236 157.464 48.4983C157.867 48.5343 158.267 48.5568 158.677 48.5793C158.296 49.1845 157.923 49.7965 157.513 50.3837C157.014 49.909 156.262 50.1902 155.65 50.0912C149.105 49.5445 142.529 49.5557 135.982 49.081C131.394 48.6693 126.832 47.9448 122.365 46.8131C120.066 46.2236 117.733 45.6904 115.571 44.6892C115.672 44.3 115.776 43.9108 115.879 43.5238ZM115.299 45.8929C121.497 46.9594 127.45 49.054 133.381 51.0947C136.38 52.1476 139.237 53.5538 142.104 54.9217C145.267 56.4989 148.525 57.8781 151.814 59.1695C151.506 59.753 151.153 60.3113 150.757 60.839C150.629 60.7962 150.374 60.7085 150.246 60.6657C148.165 59.894 145.985 59.4395 143.856 58.8186C140.972 57.9906 138.045 57.3134 135.163 56.4809C128.055 54.3008 121.301 51.0677 114.972 47.1866C115.08 46.7546 115.188 46.3226 115.299 45.8929ZM113.411 49.09C113.638 48.7255 113.87 48.3633 114.099 47.9988C120.44 50.8314 126.409 54.4425 132.067 58.4541C133.673 59.5858 135.104 60.9402 136.614 62.1934C139.458 64.5603 142.309 66.9294 145.375 69.0038C145.083 69.5933 144.714 70.1445 144.25 70.6148C139.984 68.0724 135.701 65.5525 131.286 63.2711C124.62 59.5385 118.637 54.6473 113.411 49.09ZM92.3879 51.2567C93.9853 50.2442 95.5107 49.1193 97.1599 48.1901C97.3961 48.5073 97.6301 48.8268 97.8686 49.1463C94.5028 52.3906 90.8647 55.3447 87.1231 58.1391C82.8236 61.3744 77.9638 63.7166 73.3245 66.4052C67.0023 69.9668 60.9928 74.0436 54.7786 77.7829C53.0349 78.8246 51.3363 79.9473 49.5273 80.8765C50.6973 79.7741 52.0292 78.8696 53.3004 77.8932C55.9643 75.9065 58.5697 73.8389 61.2605 71.8882C62.6442 70.8893 63.9897 69.8386 65.3261 68.7811C66.4016 67.9149 67.6458 67.2669 68.6222 66.2815C69.2679 65.5863 70.1094 65.1273 70.9441 64.6975C73.4797 63.4061 75.8489 61.8222 78.263 60.326C80.0787 59.3315 81.7481 58.1031 83.4918 56.9939C86.5066 55.1625 89.4112 53.1533 92.3879 51.2567ZM111.55 50.7549C111.744 50.3702 112 50.0237 112.245 49.6727C114.817 51.4119 116.941 53.6888 119.162 55.8375C122.116 58.7556 124.962 61.7974 127.45 65.1295C130.071 68.7226 132.587 72.3944 135.302 75.9178C137.55 78.9461 140.052 81.7743 142.372 84.7486C141.836 84.7486 141.303 84.7509 140.77 84.7531C139.309 82.8092 137.429 81.2433 135.757 79.4906C132.913 76.712 130.26 73.7331 127.214 71.1705C121.652 66.2095 117.031 60.2697 113.235 53.8755C112.668 52.8428 111.836 51.9181 111.55 50.7549ZM98.3366 50.242C98.8901 49.7402 99.4998 50.341 99.9048 50.7212C99.2185 52.0711 98.2758 53.2613 97.4569 54.528C95.4792 57.5226 93.3058 60.3867 90.9907 63.1271C89.6632 64.6548 88.3808 66.232 86.8576 67.5729C83.6448 70.6598 80.5399 73.8569 77.2753 76.8875C74.0107 80.3703 70.5931 83.7047 67.3128 87.1695C65.8323 88.6792 64.6511 90.4746 62.9772 91.7908C65.7378 87.9907 68.728 84.3639 71.5583 80.6156C74.2942 76.91 77.2303 73.3551 79.8717 69.5776C82.0653 66.6145 84.1532 63.5546 86.6956 60.8727C90.1312 56.8747 94.2485 53.5426 98.3366 50.242ZM101.106 51.1599C101.554 51.2702 102.002 51.3782 102.454 51.4884C100.46 59.7343 96.8674 67.5257 92.4981 74.7703C89.9265 79.0699 87.5798 83.4954 85.1657 87.885C83.5975 90.8076 81.9843 93.7055 80.4634 96.6528C79.8357 97.915 79.2575 99.2064 78.4318 100.358C79.9797 96.0318 81.8066 91.811 83.4558 87.5227C86.0094 81.1398 88.4685 74.7186 90.9434 68.3041C92.5251 63.9573 94.946 59.9795 97.4434 56.1074C98.6268 54.4335 99.6978 52.6583 101.106 51.1599ZM109.028 51.5379C109.503 51.4367 109.98 51.3354 110.459 51.2364C112.344 54.1163 114.264 56.9826 115.888 60.02C118.118 64.1328 119.983 68.4391 121.517 72.8579C122.746 76.5995 124.12 80.2961 125.61 83.9432C125.779 84.3684 125.952 84.7936 126.116 85.2256C125.29 85.1536 124.444 85.2368 123.637 85.0186C123.076 83.2029 121.902 81.6708 121.099 79.9676C119.87 77.4005 118.073 75.1776 116.653 72.7252C113.854 67.7934 111.771 62.4791 110.236 57.0276C109.741 55.2187 109.228 53.4076 109.028 51.5379ZM99.4885 65.6043C100.411 60.9942 101.819 56.4922 103.574 52.1341C104.092 52.1116 104.607 52.0869 105.127 52.0644C105.14 56.0422 104.974 60.0223 104.569 63.9821C104.177 67.5459 103.727 71.1277 102.71 74.5791C101.369 79.4321 100.191 84.3346 99.2658 89.2844C98.6313 89.5814 97.9743 89.8334 97.3061 90.0494L97.3916 89.5566C97.6864 87.957 97.6729 86.3235 97.8191 84.7104C98.2916 78.3364 98.1318 71.8837 99.4885 65.6043ZM106.18 52.0914C106.778 52.1004 107.379 52.1116 107.98 52.1206C108.421 54.0015 108.983 55.8487 109.474 57.7161C110.538 61.9347 111.433 66.205 111.908 70.5338C112.54 75.7715 112.158 81.07 112.875 86.301C113.166 86.2943 113.454 86.2875 113.746 86.2785C112.761 86.688 111.692 86.7668 110.641 86.8388C110.61 86.5418 110.576 86.2493 110.547 85.9546C110.371 84.1884 109.849 82.483 109.476 80.7551C108.934 78.2667 107.921 75.9133 107.359 73.4294C105.68 66.4525 105.82 59.21 106.18 52.0914Z" fill="#F19817"/>
</svg>
