<svg width="344" height="62" viewBox="0 0 344 62" fill="none" xmlns="http://www.w3.org/2000/svg">
<path d="M135.497 0.00390625H152.767L132.066 14.8273L133.864 7.23418L139.896 2.79984L134.969 2.81635L135.497 0.00390625Z" fill="#3E3E3E"/>
<path d="M311.074 40.1704C309.545 47.3816 314.7 49.9711 320.495 49.9711C325.674 49.9711 331.285 48.3959 336.515 46.9196L331.657 59.8684C326.412 60.979 321.1 61.6279 316.001 61.6279C302.035 61.6279 290.767 57.1826 294.64 38.9637C295.688 34.0593 301.95 13.2541 325.313 13.2541C339.721 13.2541 346.116 20.3743 343.382 33.2294C342.887 35.5415 342.219 37.8534 341.287 40.1711H311.075M327.531 31.7532C328.672 26.3841 327.149 23.6102 322.935 23.6102C318.193 23.6102 314.679 27.7724 313.387 31.7532H327.531ZM295.696 28.7016C292.373 27.4068 288.791 26.4804 285.016 26.4804C278.245 26.4804 273.057 30.6453 271.526 37.8563C270.05 44.7924 272.802 48.3992 279.391 48.3992C283.078 48.3992 287.048 47.4755 290.751 46.1779L285.72 59.9592C281.173 61.0726 276.67 61.6279 272.271 61.6279C257.959 61.6279 251.518 53.4849 254.759 38.2241C255.798 33.3224 261.205 13.2564 283.347 13.2564C289.06 13.2564 293.593 13.8117 297.813 15.0104L295.696 28.7016ZM222.034 20.3739L222.168 20.5582C227.452 15.0984 233.379 13.2537 240.145 13.2537C248.753 13.2537 255.491 16.6737 253.091 27.9558L244.942 60.5108H227.64C229.877 52.4641 232.382 44.4179 234.089 36.3731C235.054 31.8426 234.617 27.6776 229.523 27.6776C225.047 27.6776 221.366 30.9161 219.214 35.2624C216.679 40.1696 211.653 60.51 211.653 60.51H194.178L206.62 14.3629H223.747L222.034 20.3723M159.266 16.1195C166.559 14.4534 173.842 13.2521 180.607 13.2521C194.484 13.2521 198.009 18.1538 196.376 25.8295L187.513 60.5126H170.647C172.808 53.6727 174.54 46.729 176.349 39.8882C172.591 42.291 162.405 42.6649 161.254 48.1192C160.638 50.9865 162.928 51.8168 165.295 51.8168C166.878 51.8168 168.517 51.5419 170.125 50.9865L165.089 61.0703C162.636 61.4387 160.311 61.6256 157.941 61.6256C141.87 61.6256 144.286 49.4141 144.506 48.3936C148.646 28.8826 177.33 34.892 179.057 26.7556C179.706 23.7041 176.764 23.0526 174.397 23.0526C168.248 23.0526 161.289 25.1831 155.112 27.4045L159.266 16.1195ZM120.82 60.6198L132.075 15.2398L148.927 15.3773L137.672 60.6174L120.82 60.6198ZM97.4689 60.6198L112.526 0.0951699H129.103L114.308 60.6152L97.4689 60.6198ZM74.4332 60.5189L89.4907 0H106.067L91.2829 60.5166L74.4332 60.5189ZM42.0961 0.0103196L0 60.4914H19.5878L32.2167 42.4504L52.3194 42.7081L54.2954 60.4911H73.8832L65.464 7.48494L71.9072 0.0107783L42.0961 0.0103196ZM49.7421 13.7561L51.9757 30.1654H38.574L49.7421 13.7561Z" fill="#3E3E3E"/>
</svg>
