<svg width="97" height="31" viewBox="0 0 97 31" fill="none" xmlns="http://www.w3.org/2000/svg">
<path d="M90.6641 22.2871C90.6641 21.7793 90.5859 21.3236 90.4297 20.9199C90.2865 20.5033 90.013 20.1257 89.6094 19.7871C89.2057 19.4355 88.6393 19.0905 87.9102 18.752C87.181 18.4134 86.237 18.0618 85.0781 17.6973C83.7891 17.2806 82.5651 16.8118 81.4062 16.291C80.2604 15.7702 79.2448 15.1647 78.3594 14.4746C77.487 13.7715 76.7969 12.9577 76.2891 12.0332C75.7943 11.1087 75.5469 10.0345 75.5469 8.81055C75.5469 7.62565 75.8073 6.55143 76.3281 5.58789C76.849 4.61133 77.5781 3.77799 78.5156 3.08789C79.4531 2.38477 80.5599 1.8444 81.8359 1.4668C83.125 1.08919 84.5378 0.900391 86.0742 0.900391C88.1706 0.900391 90 1.27799 91.5625 2.0332C93.125 2.78841 94.3359 3.82357 95.1953 5.13867C96.0677 6.45378 96.5039 7.95768 96.5039 9.65039H90.6836C90.6836 8.81706 90.5078 8.08789 90.1562 7.46289C89.8177 6.82487 89.2969 6.32357 88.5938 5.95898C87.9036 5.5944 87.0312 5.41211 85.9766 5.41211C84.9609 5.41211 84.1146 5.56836 83.4375 5.88086C82.7604 6.18034 82.2526 6.59049 81.9141 7.11133C81.5755 7.61914 81.4062 8.19206 81.4062 8.83008C81.4062 9.31185 81.5234 9.74805 81.7578 10.1387C82.0052 10.5293 82.3698 10.8939 82.8516 11.2324C83.3333 11.571 83.9258 11.89 84.6289 12.1895C85.332 12.4889 86.1458 12.7819 87.0703 13.0684C88.6198 13.5371 89.9805 14.0645 91.1523 14.6504C92.3372 15.2363 93.3268 15.8939 94.1211 16.623C94.9154 17.3522 95.5143 18.179 95.918 19.1035C96.3216 20.028 96.5234 21.0762 96.5234 22.248C96.5234 23.485 96.2826 24.5918 95.8008 25.5684C95.319 26.5449 94.6224 27.3717 93.7109 28.0488C92.7995 28.7259 91.7122 29.2402 90.4492 29.5918C89.1862 29.9434 87.7734 30.1191 86.2109 30.1191C84.8047 30.1191 83.418 29.9368 82.0508 29.5723C80.6836 29.1947 79.4401 28.6283 78.3203 27.873C77.2135 27.1178 76.3281 26.1543 75.6641 24.9824C75 23.8105 74.668 22.4238 74.668 20.8223H80.5469C80.5469 21.7077 80.6836 22.4564 80.957 23.0684C81.2305 23.6803 81.6146 24.1751 82.1094 24.5527C82.6172 24.9303 83.2161 25.2038 83.9062 25.373C84.6094 25.5423 85.3776 25.627 86.2109 25.627C87.2266 25.627 88.0599 25.4837 88.7109 25.1973C89.375 24.9108 89.8633 24.5137 90.1758 24.0059C90.5013 23.498 90.6641 22.9251 90.6641 22.2871Z" fill="white"/>
<path d="M59.7656 1.29102V29.7285H53.9062V1.29102H59.7656ZM71.0938 13.4395V18.0098H58.1641V13.4395H71.0938ZM72.4609 1.29102V5.88086H58.1641V1.29102H72.4609Z" fill="white"/>
<path d="M38.5938 6.1543L30.8594 29.7285H24.6289L35.1953 1.29102H39.1602L38.5938 6.1543ZM45.0195 29.7285L37.2656 6.1543L36.6406 1.29102H40.6445L51.2695 29.7285H45.0195ZM44.668 19.1426V23.7324H29.6484V19.1426H44.668Z" fill="white"/>
<path d="M17.3438 20.2949H23.1836C23.0664 22.209 22.5391 23.9082 21.6016 25.3926C20.6771 26.877 19.3815 28.0358 17.7148 28.8691C16.0612 29.7025 14.069 30.1191 11.7383 30.1191C9.91536 30.1191 8.28125 29.8066 6.83594 29.1816C5.39062 28.5436 4.15365 27.6322 3.125 26.4473C2.10938 25.2624 1.33464 23.8301 0.800781 22.1504C0.266927 20.4707 0 18.5892 0 16.5059V14.5332C0 12.4499 0.273438 10.5684 0.820312 8.88867C1.38021 7.19596 2.17448 5.75716 3.20312 4.57227C4.24479 3.38737 5.48828 2.47591 6.93359 1.83789C8.37891 1.19987 9.99349 0.880859 11.7773 0.880859C14.1471 0.880859 16.1458 1.31055 17.7734 2.16992C19.4141 3.0293 20.6836 4.21419 21.582 5.72461C22.4935 7.23503 23.0404 8.95378 23.2227 10.8809H17.3633C17.2982 9.73503 17.0703 8.76497 16.6797 7.9707C16.2891 7.16341 15.6966 6.55794 14.9023 6.1543C14.1211 5.73763 13.0794 5.5293 11.7773 5.5293C10.8008 5.5293 9.94792 5.71159 9.21875 6.07617C8.48958 6.44076 7.8776 6.99414 7.38281 7.73633C6.88802 8.47852 6.51693 9.41602 6.26953 10.5488C6.03516 11.6686 5.91797 12.9837 5.91797 14.4941V16.5059C5.91797 17.9772 6.02865 19.2728 6.25 20.3926C6.47135 21.4993 6.8099 22.4368 7.26562 23.2051C7.73438 23.9603 8.33333 24.5332 9.0625 24.9238C9.80469 25.3014 10.6966 25.4902 11.7383 25.4902C12.9622 25.4902 13.9714 25.2949 14.7656 24.9043C15.5599 24.5137 16.1654 23.9342 16.582 23.166C17.0117 22.3978 17.2656 21.4408 17.3438 20.2949Z" fill="white"/>
</svg>
