<svg width="45" height="44" viewBox="0 0 45 44" fill="none" xmlns="http://www.w3.org/2000/svg">
<path d="M1.69462 21.8616H44.013M22.7544 43.4229C34.6072 43.4229 44.2158 33.8143 44.2158 21.9615C44.2158 10.1087 34.6072 0.50008 22.7544 0.50008M22.7544 43.4229C10.9016 43.4229 1.29297 33.8143 1.29297 21.9615C1.29297 10.1087 10.9016 0.50008 22.7544 0.50008M22.7544 43.4229C26.2598 43.4229 29.102 33.8142 29.102 21.9614C29.102 10.1086 26.2598 0.50008 22.7544 0.50008M22.7544 43.4229C19.249 43.4229 16.4079 33.8142 16.4079 21.9614C16.4079 10.1086 19.249 0.50008 22.7544 0.50008M36.1564 21.9614C36.1564 33.8142 30.1568 43.4229 22.7559 43.4229C15.355 43.4229 9.35545 33.8142 9.35545 21.9614C9.35545 10.1086 15.355 0.5 22.7559 0.5C30.1568 0.5 36.1564 10.1086 36.1564 21.9614Z" stroke="white"/>
<path d="M16.751 22.6664C16.0949 39.7521 22.0493 43.4989 22.0493 43.4989C22.0493 43.4989 9.29297 40.8328 9.29297 22.6664C9.29297 4.5 20.7931 1 20.7931 1C20.7931 1 16.0467 9.60201 16.751 22.6664Z" fill="white"/>
<path d="M29.4595 22.3144C29.1064 36.085 24.1634 43.1469 24.1634 43.1469C24.1634 43.1469 35.793 39.969 35.793 22.3144C36.1443 5.7191 24.7928 0.5 24.7928 0.5C24.7928 0.5 29.8126 8.54384 29.4595 22.3144Z" fill="white"/>
</svg>
