<svg width="40" height="44" viewBox="0 0 40 44" fill="none" xmlns="http://www.w3.org/2000/svg">
<circle cx="19.7852" cy="9.85939" r="9.21095" stroke="white"/>
<path d="M0.799423 42.6462C1.06453 32.3895 9.46224 24.1562 19.7829 24.1562C30.1036 24.1562 38.5013 32.3895 38.7664 42.6462H38.7298H38.6768H38.6239H38.5713H38.5189H38.4667H38.4148H38.363H38.3115H38.2602H38.2091H38.1582H38.1076H38.0571H38.0069H37.9569H37.907H37.8574H37.808H37.7588H37.7098H37.6611H37.6125H37.5641H37.5159H37.4679H37.4202H37.3726H37.3252H37.278H37.231H37.1842H37.1376H37.0912H37.045H36.999H36.9531H36.9075H36.862H36.8167H36.7716H36.7267H36.682H36.6375H36.5931H36.549H36.505H36.4612H36.4175H36.3741H36.3308H36.2877H36.2448H36.202H36.1594H36.117H36.0748H36.0327H35.9908H35.949H35.9075H35.8661H35.8248H35.7837H35.7428H35.7021H35.6615H35.6211H35.5808H35.5407H35.5007H35.4609H35.4213H35.3818H35.3424H35.3032H35.2642H35.2253H35.1866H35.148H35.1095H35.0712H35.0331H34.9951H34.9572H34.9195H34.8819H34.8445H34.8072H34.77H34.733H34.6961H34.6594H34.6227H34.5863H34.5499H34.5137H34.4776H34.4416H34.4058H34.3701H34.3345H34.2991H34.2637H34.2285H34.1935H34.1585H34.1237H34.089H34.0544H34.0199H33.9855H33.9513H33.9171H33.8831H33.8492H33.8154H33.7818H33.7482H33.7147H33.6814H33.6481H33.615H33.582H33.549H33.5162H33.4835H33.4509H33.4184H33.3859H33.3536H33.3214H33.2893H33.2572H33.2253H33.1935H33.1617H33.1301H33.0985H33.067H33.0356H33.0043H32.9731H32.942H32.9109H32.88H32.8491H32.8183H32.7876H32.757H32.7264H32.696H32.6656H32.6353H32.605H32.5748H32.5447H32.5147H32.4848H32.4549H32.4251H32.3953H32.3657H32.336H32.3065H32.277H32.2476H32.2183H32.189H32.1597H32.1306H32.1015H32.0724H32.0434H32.0145H31.9856H31.9568H31.928H31.8993H31.8706H31.842H31.8134H31.7849H31.7564H31.7279H31.6996H31.6712H31.6429H31.6147H31.5864H31.5583H31.5301H31.502H31.474H31.4459H31.4179H31.39H31.3621H31.3342H31.3063H31.2785H31.2507H31.2229H31.1952H31.1675H31.1398H31.1122H31.0845H31.0569H31.0293H31.0017H30.9742H30.9467H30.9191H30.8916H30.8642H30.8367H30.8092H30.7818H30.7544H30.727H30.6996H30.6722H30.6448H30.6174H30.59H30.5627H30.5353H30.508H30.4806H30.4532H30.4259H30.3985H30.3712H30.3438H30.3165H30.2891H30.2617H30.2344H30.207H30.1796H30.1522H30.1248H30.0973H30.0699H30.0425H30.015H29.9875H29.96H29.9325H29.905H29.8775H29.8499H29.8223H29.7947H29.7671H29.7394H29.7118H29.6841H29.6563H29.6286H29.6008H29.573H29.5451H29.5173H29.4893H29.4614H29.4334H29.4054H29.3774H29.3493H29.3212H29.293H29.2648H29.2366H29.2083H29.1799H29.1516H29.1232H29.0947H29.0662H29.0376H29.009H28.9804H28.9517H28.9229H28.8941H28.8652H28.8363H28.8073H28.7783H28.7492H28.7201H28.6908H28.6616H28.6322H28.6029H28.5734H28.5439H28.5143H28.4846H28.4549H28.4251H28.3953H28.3654H28.3354H28.3053H28.2752H28.2449H28.2146H28.1843H28.1538H28.1233H28.0927H28.062H28.0313H28.0004H27.9695H27.9385H27.9074H27.8762H27.8449H27.8136H27.7821H27.7506H27.719H27.6873H27.6555H27.6236H27.5916H27.5595H27.5273H27.495H27.4626H27.4301H27.3976H27.3649H27.3321H27.2992H27.2662H27.2331H27.1999H27.1666H27.1332H27.0996H27.066H27.0322H26.9984H26.9644H26.9303H26.8961H26.8618H26.8274H26.7928H26.7581H26.7233H26.6884H26.6534H26.6182H26.583H26.5476H26.512H26.4764H26.4406H26.4047H26.3686H26.3325H26.2962H26.2597H26.2232H26.1865H26.1496H26.1126H26.0755H26.0383H26.0009H25.9634H25.9257H25.8879H25.8499H25.8118H25.7736H25.7352H25.6967H25.658H25.6191H25.5802H25.541H25.5017H25.4623H25.4227H25.383H25.3431H25.303H25.2628H25.2224H25.1819H25.1412H25.1003H25.0593H25.0181H24.9768H24.9353H24.8936H24.8517H24.8097H24.7676H24.7252H24.6827H24.64H24.5971H24.5541H24.5109H24.4675H24.4239H24.3801H24.3362H24.2921H24.2478H24.2034H24.1587H24.1139H24.0689H24.0236H23.9783H23.9327H23.8869H23.8409H23.7948H23.7485H23.7019H23.6552H23.6083H23.5612H23.5139H23.4663H23.4186H23.3707H23.3226H23.2743H23.2258H23.1771H23.1282H23.079H23.0297H22.9802H22.9304H22.8805H22.8303H22.78H22.7294H22.6786H22.6276H22.5763H22.5249H22.4732H22.4214H22.3693H22.3169H22.2644H22.2116H22.1587H22.1055H22.052H21.9984H21.9445H21.8904H21.8361H21.7815H21.7267H21.6717H21.6164H21.5609H21.5052H21.4492H21.393H21.3366H21.2799H21.223H21.1659H21.1085H21.0509H20.993H20.9349H20.8765H20.8179H20.759H20.6999H20.6406H20.581H20.5211H20.461H20.4006H20.34H20.2792H20.218H20.1566H20.095H20.0331H19.971H19.9085H19.8459H19.7829H19.72H19.6573H19.5949H19.5328H19.471H19.4094H19.348H19.287H19.2262H19.1657H19.1054H19.0454H18.9856H18.9262H18.8669H18.808H18.7492H18.6908H18.6326H18.5746H18.5169H18.4594H18.4022H18.3453H18.2886H18.2321H18.1759H18.1199H18.0642H18.0087H17.9535H17.8985H17.8437H17.7892H17.7349H17.6808H17.627H17.5734H17.5201H17.467H17.4141H17.3614H17.309H17.2568H17.2049H17.1531H17.1016H17.0503H16.9992H16.9484H16.8978H16.8473H16.7972H16.7472H16.6974H16.6479H16.5986H16.5495H16.5006H16.4519H16.4034H16.3552H16.3071H16.2593H16.2116H16.1642H16.117H16.0699H16.0231H15.9765H15.9301H15.8838H15.8378H15.792H15.7464H15.7009H15.6557H15.6106H15.5658H15.5211H15.4767H15.4324H15.3883H15.3444H15.3007H15.2571H15.2138H15.1706H15.1276H15.0848H15.0422H14.9998H14.9575H14.9154H14.8735H14.8318H14.7902H14.7488H14.7076H14.6665H14.6257H14.585H14.5444H14.504H14.4638H14.4238H14.3839H14.3442H14.3046H14.2653H14.226H14.1869H14.148H14.1093H14.0707H14.0322H13.9939H13.9558H13.9178H13.8799H13.8422H13.8047H13.7673H13.73H13.6929H13.656H13.6192H13.5825H13.546H13.5096H13.4733H13.4372H13.4012H13.3654H13.3297H13.2941H13.2586H13.2233H13.1882H13.1531H13.1182H13.0834H13.0487H13.0142H12.9798H12.9455H12.9113H12.8773H12.8434H12.8096H12.7759H12.7423H12.7089H12.6755H12.6423H12.6092H12.5762H12.5433H12.5106H12.4779H12.4454H12.4129H12.3806H12.3483H12.3162H12.2842H12.2523H12.2204H12.1887H12.1571H12.1256H12.0942H12.0628H12.0316H12.0005H11.9694H11.9385H11.9076H11.8768H11.8461H11.8155H11.785H11.7546H11.7243H11.694H11.6639H11.6338H11.6038H11.5738H11.544H11.5142H11.4845H11.4549H11.4254H11.3959H11.3665H11.3372H11.3079H11.2787H11.2496H11.2206H11.1916H11.1627H11.1338H11.105H11.0763H11.0477H11.0191H10.9905H10.962H10.9336H10.9052H10.8769H10.8486H10.8204H10.7923H10.7642H10.7361H10.7081H10.6802H10.6523H10.6244H10.5966H10.5688H10.5411H10.5134H10.4857H10.4581H10.4306H10.403H10.3755H10.3481H10.3207H10.2933H10.2659H10.2386H10.2113H10.184H10.1568H10.1296H10.1024H10.0753H10.0481H10.021H9.99396H9.9669H9.93986H9.91284H9.88583H9.85885H9.83188H9.80493H9.77799H9.75107H9.72415H9.69725H9.67036H9.64348H9.61661H9.58975H9.56289H9.53603H9.50918H9.48234H9.45549H9.42865H9.40181H9.37497H9.34812H9.32127H9.29442H9.26756H9.2407H9.21383H9.18695H9.16007H9.13317H9.10626H9.07934H9.05241H9.02546H8.9985H8.97152H8.94452H8.91751H8.89048H8.86342H8.83635H8.80925H8.78213H8.75498H8.72781H8.70061H8.67339H8.64614H8.61886H8.59154H8.5642H8.53682H8.50941H8.48197H8.45448H8.42697H8.39941H8.37182H8.34418H8.31651H8.28879H8.26104H8.23323H8.20539H8.17749H8.14955H8.12156H8.09353H8.06544H8.0373H8.00911H7.98087H7.95257H7.92422H7.89581H7.86735H7.83882H7.81024H7.7816H7.75289H7.72413H7.6953H7.66641H7.63745H7.60842H7.57933H7.55017H7.52094H7.49164H7.46227H7.43282H7.4033H7.37371H7.34404H7.3143H7.28448H7.25457H7.22459H7.19453H7.16439H7.13417H7.10386H7.07346H7.04298H7.01242H6.98176H6.95102H6.92019H6.88927H6.85825H6.82714H6.79594H6.76464H6.73325H6.70176H6.67017H6.63848H6.6067H6.57481H6.54282H6.51073H6.47853H6.44622H6.41382H6.3813H6.34868H6.31594H6.2831H6.25014H6.21707H6.18389H6.1506H6.11719H6.08366H6.05002H6.01625H5.98237H5.94837H5.91424H5.87999H5.84562H5.81113H5.77651H5.74176H5.70688H5.67188H5.63675H5.60148H5.56609H5.53056H5.49489H5.4591H5.42316H5.38709H5.35088H5.31454H5.27805H5.24142H5.20465H5.16774H5.13068H5.09348H5.05613H5.01863H4.98099H4.9432H4.90525H4.86716H4.82891H4.79051H4.75196H4.71325H4.67439H4.63536H4.59618H4.55684H4.51734H4.47768H4.43785H4.39787H4.35771H4.31739H4.27691H4.23626H4.19544H4.15445H4.11328H4.07195H4.03045H3.98877H3.94691H3.90488H3.86268H3.82029H3.77773H3.73499H3.69206H3.64896H3.60567H3.5622H3.51854H3.47469H3.43066H3.38645H3.34204H3.29744H3.25265H3.20767H3.1625H3.11713H3.07157H3.02581H2.97985H2.9337H2.88734H2.84079H2.79403H2.74707H2.69991H2.65255H2.60497H2.5572H2.50921H2.46102H2.41262H2.364H2.31518H2.26614H2.21689H2.16742H2.11774H2.06784H2.01773H1.96739H1.91684H1.86606H1.81507H1.76385H1.7124H1.66074H1.60884H1.55672H1.50437H1.45179H1.39899H1.34595H1.29268H1.23917H1.18544H1.13146H1.07725H1.02281H0.968124H0.913201H0.858038H0.802633H0.799423Z" fill="white" stroke="white"/>
</svg>
