<svg width="325" height="55" viewBox="0 0 325 55" fill="none" xmlns="http://www.w3.org/2000/svg">
<path d="M102.33 31.2178V42.9517H116.574V52.9391H90.7051V1.14648H115.865V11.1339H102.33V21.2304H114.227V31.2178H102.33Z" fill="#242424"/>
<path d="M144.135 25.3235C147.791 26.0876 150.575 29.3621 150.575 33.237V47.918C150.575 50.4831 151.011 52.5024 151.666 52.9935H140.26C139.659 52.5024 139.168 50.4831 139.168 47.918V33.7282C139.168 31.7089 137.531 30.0716 135.512 30.0716H131.255V21.2849H135.894C137.149 21.2849 138.295 20.5208 138.786 19.4293C139.223 18.447 139.441 17.028 139.441 15.4453C139.441 14.0809 139.277 12.7711 138.95 11.8433C138.513 10.6972 137.313 9.87853 136.057 9.87853H132.674V52.939H121.158V1.0918H140.478C145.226 1.0918 149.647 4.63924 150.411 9.11447C150.629 10.4789 150.738 12.007 150.738 13.5351C150.738 15.1724 150.575 16.7551 150.356 18.1741C149.756 21.6124 147.355 24.2866 144.135 25.3235Z" fill="#242424"/>
<path d="M172.678 32.6368C180.155 32.6368 184.139 28.9257 185.012 23.3589C185.394 20.9576 185.504 19.102 185.504 16.8098C185.504 13.5898 185.394 11.5705 184.849 9.16916C183.812 4.69393 179.609 1.14648 174.916 1.14648H155.705V52.9936H167.221V10.5881H170.113C172.351 10.5881 173.442 11.8979 173.77 13.6444C173.933 14.6267 173.933 15.7728 173.933 16.8644C173.933 18.065 173.933 19.4294 173.715 20.4118C173.388 22.1036 171.86 23.4135 170.059 23.4135H165.747V32.6368H172.678Z" fill="#242424"/>
<path d="M200.239 1.14648H188.724V52.9936H200.239V1.14648Z" fill="#242424"/>
<path d="M217.922 43.2791H229.656V52.9936H206.406V1.14648H217.922V43.2791Z" fill="#242424"/>
<path d="M317.469 25.3236C321.125 26.0877 323.909 29.3622 323.909 33.2371V47.9181C323.909 50.4832 324.345 52.5025 325 52.9936H313.594C312.994 52.5025 312.502 50.4832 312.502 47.9181V33.7283C312.502 31.709 310.865 30.0717 308.846 30.0717H304.589V21.3396H309.228C310.483 21.3396 311.629 20.5755 312.12 19.484C312.557 18.5016 312.775 17.0827 312.775 15.5C312.775 14.1356 312.612 12.8257 312.284 11.898C311.847 10.7519 310.647 9.93322 309.392 9.93322H306.062V52.9936H294.547V1.14648H313.867C318.615 1.14648 323.036 4.69393 323.8 9.16916C324.018 10.5336 324.127 12.0617 324.127 13.5898C324.127 15.2271 323.963 16.8098 323.745 18.2288C323.145 21.6125 320.689 24.3413 317.469 25.3236Z" fill="#242424"/>
<path d="M279.374 52.9936H291.49L282.157 1.14648H266.876L257.38 52.9936H268.895L274.571 9.93322L277.3 34.929H269.987L268.513 44.2069H278.282L279.374 52.9936Z" fill="#242424"/>
<path d="M244.009 43.2791H255.361V52.9936H232.548V1.14648H244.009V43.2791Z" fill="#242424"/>
<path d="M18.2832 52.9388L46.8264 30.6172L72.9683 52.9388H18.2832Z" fill="#242424"/>
<path d="M18.2832 52.9388L46.8264 30.6172L72.9683 52.9388H18.2832Z" fill="#242424" stroke="white" strokeWidth="2.58232" stroke-miterlimit="10"/>
<path d="M13.1528 43.8791C12.1159 43.5516 11.2972 42.5147 11.2972 41.6415V11.1881C11.5155 9.9874 12.0613 9.27791 13.1528 8.95045V8.89589C13.3711 8.84132 13.644 8.84131 13.9169 8.84131C14.1352 8.84131 14.4081 8.84132 14.6264 8.89589C15.827 9.05962 16.7548 9.9874 16.7548 11.1881V22.1578H27.7246V10.6969C27.3971 5.62133 24.2317 1.91016 19.3199 0.600339C17.628 0.163731 15.9908 0 13.9714 0C12.0613 0 10.424 0.163731 8.51385 0.600339C3.98405 1.58271 0.27288 5.51218 0 10.7515V42.6238C0 48.2452 4.5298 52.9387 10.1511 53.0478H13.9714L25.487 43.9882C26.5785 43.1696 27.7246 41.4232 27.7246 39.513V30.7808H16.7548V41.4777C16.7548 42.6784 15.7725 43.7699 14.5718 43.9337C14.3535 43.9882 14.1352 43.9882 13.8623 43.9882C13.644 43.9882 13.3711 43.9336 13.1528 43.8791Z" fill="#242424"/>
<path d="M45.5705 25.9785L63.9081 41.6419L54.4118 1.14648H38.8031L29.9072 40.4412L47.0987 27.0155H51.0281V24.6687H43.7695L46.7166 10.1515L49.9912 25.9785H45.5705Z" fill="#242424"/>
<path d="M87.4855 1.14648V11.2976H80.0632V52.9391H77.2252L68.1656 45.2439V11.2976H60.7979V1.14648H87.4855Z" fill="#242424"/>
</svg>
