<svg width="117" height="116" viewBox="0 0 117 116" fill="none" xmlns="http://www.w3.org/2000/svg">
<path d="M54.4362 95.1779C53.2092 95.1581 50.6161 94.1367 49.0841 94.0041C48.905 94.7535 48.4607 95.9937 48.4474 96.7497C49.1969 96.9089 50.0458 97.2007 50.8416 97.3864C51.339 97.5058 52.9904 97.8109 53.3286 97.9833C53.3684 98.7792 52.8843 100.331 52.672 101.107C51.6043 101.067 48.2352 99.9464 47.6781 100.092C47.2139 100.994 46.7231 103.448 46.4446 104.642C46.3252 105.146 46.1527 105.736 46.0665 106.234C44.8993 106.088 43.0092 105.418 41.7623 105.04C41.4705 104.954 41.3445 104.96 41.3047 104.715C41.2517 104.396 43.4137 95.6024 43.679 94.5545C43.8846 93.7454 44.7799 90.0315 44.9988 89.554L47.3067 90.3764C49.7009 91.1855 52.6588 91.7956 55.1988 92.0078C55.1856 92.3991 54.5887 94.8795 54.4362 95.1779ZM59.5428 92.1007C60.4912 92.0078 61.3998 92.0078 62.3614 91.8951C64.0194 91.6961 65.8366 91.3513 67.4349 90.9268C68.2043 90.7212 69.0863 90.4029 69.8225 90.2504L70.3597 93.5266L69.3914 93.7852C68.3634 93.9908 67.2625 94.1235 66.2412 94.2893C64.7622 94.528 64.7954 94.329 65.4785 97.3997C67.2227 97.2737 68.8675 96.8094 70.5852 96.637C70.6846 97.7048 70.9764 98.7128 71.0229 99.8602C70.2138 99.9398 69.345 100.086 68.5491 100.218C67.7533 100.351 66.8646 100.557 66.0886 100.636C66.1815 103.216 66.9773 105.577 67.0503 106.996C66.0754 107.401 63.2236 107.666 62.0166 107.62C61.9038 106.326 61.0151 101.591 60.7432 99.9066C60.4514 98.1027 59.6622 93.646 59.5428 92.1007ZM24.088 91.3977C23.9354 88.9505 24.8772 86.9874 26.4026 85.2896C28.6243 82.8158 32.4377 82.0067 35.8532 83.3862C40.94 85.4421 43.0224 92.4853 38.6784 97.0349C35.9593 99.8801 31.3633 100.424 27.9014 98.1358C27.3907 97.7976 26.5617 97.1079 26.2301 96.6768C24.9236 95.0254 24.2339 93.772 24.088 91.3977ZM79.9032 88.5791C79.9827 89.0964 80.951 90.5024 81.2893 90.8605C81.7668 90.7279 83.1064 89.806 83.5309 89.5009C83.8957 89.2489 84.2272 89.0102 84.6053 88.7714C84.9037 88.5791 85.4011 88.2475 85.746 88.1016C86.0179 88.3536 87.2714 90.2106 87.457 90.6549C87.1586 91.0396 85.9715 91.8155 85.421 92.1869C84.9634 92.492 83.5508 93.4205 83.3585 93.7322C83.3717 94.15 84.6517 95.7748 84.9037 96.2192C85.4144 96.0335 89.0819 93.2812 89.7849 92.996L90.6603 94.2362C90.8659 94.5214 91.3434 95.1846 91.4363 95.5958L88.936 97.6583C86.9663 99.1771 85.5404 100.046 83.385 101.286C83.2258 101.379 82.7947 101.651 82.6223 101.644C82.3504 101.638 82.2111 101.279 82.0519 101.041C81.7203 100.563 81.4285 100.119 81.1036 99.6546C79.2466 96.9819 77.4095 94.15 75.5658 91.4441C75.1745 90.8671 73.9343 89.2025 73.7685 88.6388C73.9144 88.4929 74.7235 88.0949 74.949 87.9756C77.0647 86.8481 79.2267 85.3692 81.0173 83.804C81.3489 83.5188 82.0851 82.6832 82.5626 82.4643C82.8942 82.8623 84.214 84.8983 84.3997 85.3493C84.1875 85.6146 81.3887 87.4052 80.4735 88.1414C80.3011 88.274 80.0889 88.4862 79.9032 88.5791ZM21.4484 82.4643L21.0704 86.9476C19.3991 87.0802 17.4029 85.9528 16.4412 85.2299C12.3692 82.1593 11.7723 75.9716 15.9239 72.1515C18.1987 70.0558 22.3703 69.2135 25.6266 71.1103C28.0805 72.5428 30.3088 75.2819 29.9772 79.5065C28.4651 79.4667 26.8602 79.2743 25.3812 79.0555C25.3149 78.6045 25.3746 78.2464 25.2618 77.7423C24.5588 74.7181 21.1964 73.8029 18.9946 75.6864C18.4972 76.1109 18.0661 76.8271 17.887 77.497C17.6682 78.3392 17.761 79.2478 18.0595 80.0105C18.7558 81.7812 20.0225 81.9935 21.4484 82.4643ZM91.2572 76.7741C91.7082 76.9465 93.0877 77.9413 93.4988 78.0275C93.9233 77.5964 94.5666 76.5021 94.9181 75.8854C95.1436 75.4874 96.0522 73.8493 96.2578 73.6172C96.8082 73.7366 98.632 74.8839 99.0764 75.2089C99.0167 75.5471 97.4913 78.0275 97.1332 78.631C96.9475 78.9427 96.6358 79.4401 96.4965 79.7518C97.0403 80.1763 98.3866 81.0385 99.1294 81.3104C99.3417 80.9058 99.6136 80.5079 99.8589 80.0834L101.311 77.6097C101.543 77.2317 101.895 76.7343 102.081 76.3761C102.459 76.5088 104.515 77.7423 104.76 77.9745C104.661 78.4254 103.566 80.4814 103.294 81.0252C102.439 82.7495 100.92 85.084 99.8125 86.6226C99.1493 87.5511 99.3615 87.4052 97.0403 86.0059C95.1502 84.8651 93.2667 83.7443 91.3434 82.6301C90.6073 82.2057 86.2434 79.6789 85.62 79.2345C85.8455 78.7703 86.0444 78.5183 86.3163 78.1668C86.6082 77.7954 86.827 77.4903 87.1056 77.099C88.4054 75.2951 89.4865 73.1861 90.4348 71.1435C90.5675 70.8516 90.846 70.089 91.0118 69.8701C91.4429 70.0028 93.406 71.3292 94.0957 71.6541C93.9896 72.0056 93.585 72.6224 93.3927 72.9341C92.829 73.8294 91.4628 75.892 91.2572 76.7741ZM88.8962 58.4895C88.4519 68.2386 84.214 74.9503 79.4323 79.4534L77.4228 81.2109C71.8253 85.6742 64.7423 87.9756 57.3012 87.7766C51.0936 87.6108 45.0054 85.3891 40.3033 81.9669C39.534 81.4032 38.8641 80.8528 38.1744 80.2691C37.1531 79.407 36.2511 78.4055 35.3293 77.4373C33.4657 75.4676 31.171 71.7072 30.143 69.2467C28.5115 65.3404 27.6096 61.1888 27.7422 56.4203C28.2065 40.0193 42.2664 26.616 59.3638 27.193C68.7613 27.5113 76.0964 32.0277 80.4138 36.5972C81.979 38.2486 82.4233 38.7791 83.8161 40.782C87.1918 45.6499 89.1814 52.2156 88.8962 58.4895ZM11.885 48.9659L12.5814 48.9527L12.588 56.4402L11.8983 56.4535L11.885 48.9659ZM98.2407 53.6946C96.9608 53.615 96.7353 53.7941 96.6159 52.4478C96.5363 51.5524 96.5628 50.6306 96.7021 49.7485C96.8414 48.8598 98.055 48.8466 98.6586 49.1384C99.4478 49.523 99.2952 50.352 99.3085 51.327C99.3151 52.282 99.3019 53.237 99.2952 54.192C99.2886 55.2001 99.5008 56.102 98.7315 56.5066C98.002 56.8912 96.9475 56.7122 96.7286 56.0092C96.596 55.5913 96.596 55.1271 96.6424 54.6761C96.6623 54.4573 96.5496 54.0063 97.5046 54.2185C97.6041 55.021 97.4515 55.2465 97.7964 55.9495C98.1877 55.8434 98.3402 55.5383 98.3535 55.0475C98.3535 54.7756 98.2938 53.9466 98.2407 53.6946ZM15.1878 56.4402L14.4516 56.4469L14.445 49.019L15.6985 48.9659C15.7515 49.6092 16.2423 53.8471 16.3683 54.1522L16.4611 48.9726H17.0315V56.4137C16.7065 56.4203 16.2754 56.48 15.977 56.3938C15.8709 55.5913 15.3801 51.1147 15.201 50.7765L15.1878 56.4402ZM105.569 56.6193C105.576 54.9945 105.602 53.3762 105.576 51.7514C105.569 51.2938 105.649 50.9953 105.377 50.75C105.145 50.5377 104.899 50.425 105.171 50.0005C105.549 49.4103 105.874 48.9792 106.571 48.9527L106.564 56.6127L105.569 56.6193ZM94.5533 48.9726V56.5862L93.5519 56.5928L93.5718 51.4397C93.5718 50.7964 93.5187 50.6306 93.0744 50.3918C93.0943 49.9276 93.3397 49.6623 93.5453 49.4236C93.8968 49.019 93.7575 48.9527 94.5533 48.9726ZM101.013 49.0256C101.139 48.9925 103.069 48.9527 103.347 49.0256L103.427 49.0588C103.652 49.6689 103.016 52.1758 102.87 52.8921C102.618 54.0792 102.426 55.4919 102.074 56.6127L101.185 56.6392C101.252 54.8287 102.2 52.1891 102.353 49.9011L101 49.8082L101.013 49.0256ZM20.3608 54.4042C20.5067 54.3379 20.6791 54.318 20.8449 54.3114C21.1235 54.3047 21.1367 54.2981 21.1434 54.5567C21.1699 55.1006 21.2428 56.1086 20.7919 56.4336C20.5398 56.6127 20.2281 56.679 19.8833 56.6392C18.915 56.5331 18.9879 55.8301 18.968 55.3128C18.9481 54.5833 18.9349 53.867 18.9283 53.1375L18.9481 49.848C18.968 48.6078 20.573 48.767 20.9245 49.3307C21.203 49.7817 21.1235 50.803 21.1102 51.3866L20.3674 51.3667L20.3011 49.5695L19.8567 49.6159C19.6047 50.3056 19.7506 54.9613 19.7772 56.0224L20.3011 55.9362L20.3608 54.4042ZM23.8956 51.8774L24.7512 51.9703L24.7379 52.4809C23.9023 52.8656 23.7763 52.2024 23.8094 54.1986L23.8691 55.724L24.7246 55.8235L24.6915 56.5132L23.5906 56.5596C23.1396 56.5596 23.0932 56.6458 23.0865 56.2148C23.0268 53.6283 23.0467 51.5989 23.06 48.9792H24.7578C24.7445 49.4633 24.8573 49.5429 24.4129 49.5894C23.9288 49.6424 23.889 49.5496 23.8426 50.0337C23.8028 50.4913 23.7829 51.4463 23.8956 51.8774ZM8.73482 55.9428C9.22559 55.8566 9.20569 55.2332 9.19243 54.7159C9.15264 53.0115 7.94561 52.7396 7.74664 51.1545C7.60074 50.0204 7.614 48.8598 8.89399 48.9262C10.0546 48.9792 10.0148 50.1 10.0281 51.181L9.21232 51.2341C9.20569 50.6969 9.28528 49.7949 9.01999 49.4633C8.69502 49.4368 8.56902 49.5761 8.51596 49.8679C8.1313 52.0167 9.9949 52.5074 10.0214 54.5567C10.0281 54.9679 10.0082 55.8699 9.81584 56.1617C9.46434 56.6923 8.05172 57.13 7.7798 55.5714C7.70022 55.0939 7.72012 54.4241 7.7997 53.9267L8.49606 53.9134C8.51596 54.5302 8.44301 55.4521 8.73482 55.9428ZM96.2113 30.7411H96.7286L97.2857 32.3991L97.8097 30.7345L98.3203 30.7411L98.3137 32.8833L97.9954 32.8899L97.9755 31.1722C97.9755 31.2054 97.4979 32.744 97.4316 32.8833H97.1133L96.5429 31.1589L96.523 32.8833H96.1981L96.2113 30.7411ZM95.2563 31.0727L95.2497 32.9032L94.8982 32.8899L94.8717 31.0727L94.1886 31.0595L94.2085 30.7411L95.9461 30.7345L95.966 30.834V31.0661L95.2563 31.0727ZM84.1609 22.2985C85.6531 21.4828 87.0658 20.6339 88.5712 19.8049C88.9559 19.5927 89.2875 19.3738 89.6854 19.1682C90.6073 18.6841 90.4879 18.7106 90.793 19.0024L93.532 21.4165C94.5533 22.4444 95.263 22.4909 94.865 23.2867C93.9564 25.1039 93.0611 27.2726 92.1658 29.1362C91.4097 30.7212 90.72 32.2665 89.9706 33.8449C89.5992 34.6341 89.2344 35.4034 88.863 36.1926C88.6773 36.5906 88.4983 36.9421 88.3126 37.34C88.1534 37.6716 87.9478 38.1889 87.7555 38.4741C87.079 37.844 86.4224 37.1875 85.7659 36.5176L83.8161 34.4551C84.0018 33.7587 84.6915 32.8302 84.8109 32.1736C84.2803 31.5502 83.3253 30.7013 82.6555 30.1243C82.4432 29.9453 82.0984 29.6269 81.8861 29.5009C81.276 29.6866 80.5531 30.1111 80.0159 30.4029C79.8302 30.5024 79.7506 30.6018 79.5716 30.509L78.3911 29.6667C77.7212 29.1428 75.7382 27.7899 75.3867 27.246L84.1609 22.2985ZM35.7007 29.8856C35.7007 31.9946 34.2615 34.1301 32.9351 35.2376C30.5741 37.214 27.1918 37.8374 24.2869 36.6768C22.861 36.1064 21.5015 35.1183 20.6194 33.9245C16.5938 28.4862 19.87 21.3037 26.124 20.3487C26.7872 20.2492 28.5115 20.1697 29.0753 20.4283C29.0753 20.7931 28.3656 24.8253 28.2728 24.9978C27.1785 25.0442 26.6745 24.8386 25.7195 25.3559C23.4646 26.5696 22.9804 29.355 24.3997 31.1457C25.169 32.1206 26.7408 33.0159 28.5911 32.366C29.818 31.9349 30.9389 30.6814 31.1975 29.1892C32.6101 29.2555 34.235 29.733 35.7007 29.8856ZM41.4307 9.95633C42.7041 9.84358 43.9973 10.1022 45.0651 10.5333C45.8477 10.8517 46.4578 11.2031 47.0945 11.6873C47.3333 11.873 47.4659 11.9924 47.6781 12.1648C50.2845 14.3003 51.1533 18.4122 49.8866 21.5624C49.4422 22.6699 48.5602 24.0096 47.6914 24.7259C41.4904 29.8325 33.8702 25.409 33.3927 18.9759C33.1407 15.5538 35.1303 12.3837 38.0617 10.8517C39.083 10.3277 40.1375 10.0691 41.4307 9.95633ZM68.8409 12.3505C68.8874 11.926 69.8357 8.66971 69.9883 8.45086C70.3729 8.51718 71.0494 8.79572 71.4606 8.94163C71.9381 9.10743 72.3891 9.27986 72.8599 9.45229C73.8083 9.80379 74.7434 10.1354 75.6918 10.4935C76.6468 10.8517 77.6151 11.1435 78.5768 11.4817C79.4522 11.7934 80.5266 12.2377 81.4285 12.4831L80.3077 16.0843C79.0742 15.9318 77.96 15.2686 76.7331 15.1293C76.4943 16.0114 76.0831 17.0194 75.778 17.8949C75.2276 19.4932 73.364 24.9182 73.039 26.238C72.2498 26.0987 70.2469 25.3559 69.3317 25.0309C68.9471 24.8917 68.4894 24.7988 68.1379 24.6396C68.118 24.0428 68.7879 22.3251 69.0067 21.7414C69.6103 20.1564 70.4061 17.8285 70.9433 16.1971C71.1953 15.4278 71.6993 14.1345 71.8055 13.332C71.3279 13.1861 70.877 12.9673 70.3464 12.8147C69.8424 12.6556 69.345 12.5229 68.8409 12.3505ZM54.3234 24.0826C55.1657 23.3729 57.6262 21.2242 57.0359 19.0488C56.4921 17.0393 54.7014 15.6201 54.4693 13.6437C54.2107 11.4485 55.1126 9.30639 56.6048 7.90703C57.0757 7.46931 57.3078 7.1974 57.8782 7.1775C59.6755 7.11118 61.7646 7.29688 63.5552 7.44942C63.5021 7.5489 62.0365 8.88194 61.4661 9.68441C58.2164 14.234 65.8101 17.7357 62.7726 22.5572C62.1956 23.4724 61.4993 24.1887 60.7167 24.7988C60.4912 24.9713 59.6688 25.5947 59.3505 25.5549C58.7868 25.4952 56.6645 24.7856 55.9682 24.58L54.3632 24.1025C54.3499 24.0892 54.3367 24.0958 54.3234 24.0826ZM55.0065 3.79517C46.8292 4.33899 40.2038 6.36176 33.7973 9.51198C30.7333 11.0175 27.9014 12.8877 25.5072 14.7049C24.8772 15.1824 24.2538 15.6665 23.6436 16.1838L21.3954 18.127C21.2362 18.2663 21.1301 18.4122 20.9709 18.5514C20.6526 18.83 20.3939 19.082 20.0889 19.3738L18.4242 21.1048C8.90062 31.5038 3.31645 45.4974 4.31125 60.7378C4.88161 69.5053 7.36862 77.2516 11.3213 84.0361C12.9462 86.8282 14.8363 89.5341 16.9055 91.9349L20.1419 95.4432C20.4337 95.735 20.7123 95.9871 21.0173 96.2656L21.906 97.0747C23.9686 99.0312 27.1387 101.372 29.5727 102.891C45.589 112.892 65.8366 113.9 82.8478 105.318C86.376 103.541 89.2411 101.657 92.0796 99.4225C92.4045 99.1638 92.6964 98.9118 93.0147 98.6598C93.6779 98.1358 94.2151 97.6318 94.8319 97.0814C95.4288 96.5508 95.9991 96.0136 96.5628 95.4631L97.8097 94.1566C97.9489 94.0041 98.1015 93.8913 98.2341 93.7322C98.7448 93.1419 99.2554 92.5649 99.7993 91.9548C102.187 89.2555 104.952 85.0376 106.577 81.8542C107.347 80.3421 108.05 78.8632 108.699 77.2383C111.458 70.3741 112.957 62.3958 112.44 54.1522C111.996 47.1222 109.9 39.0776 106.597 33.0358C105.297 30.6549 104.336 28.9107 102.784 26.7685C102.127 25.8599 99.5406 22.4511 98.6586 21.6022L96.6093 19.46C96.3108 19.1616 96.0455 18.9228 95.7338 18.6377C95.5813 18.4984 95.4685 18.3458 95.316 18.2132C92.6367 15.8257 90.342 13.9886 87.1918 12.0056C79.4986 7.16424 70.9168 4.38542 61.6584 3.81506C59.629 3.68242 57.0226 3.66253 55.0065 3.79517Z" fill="#232323"/>
<path d="M72.5631 64.9109C72.2713 69.3809 69.9302 73.8907 66.9922 76.8817C66.6606 77.2133 66.3887 77.5714 66.0438 77.903C65.8581 78.0821 65.7189 78.1882 65.5464 78.3606C65.3541 78.5596 65.248 78.6856 65.0358 78.8581C64.8567 79.004 64.7241 79.1631 64.5317 79.309C64.3328 79.4616 64.1935 79.5942 63.9879 79.7733C62.7013 80.8477 60.9571 81.9154 59.1067 82.6914C55.1209 84.3626 49.9479 84.5019 46.36 82.2868C44.7218 81.2721 43.6276 80.1248 42.8052 78.0357C42.0093 76.0195 41.8701 73.5126 42.2083 71.1981C42.8317 66.8673 44.8545 63.0473 46.917 60.3083C49.0658 57.4499 51.9309 54.4654 55.3596 53.1457C58.3838 51.9851 61.733 51.3285 64.5317 53.5038C66.203 54.797 66.2826 55.4735 67.3769 56.5015C68.4977 57.556 73.034 57.6554 72.5631 64.9109ZM73.359 68.3264C73.3192 67.1658 74.4997 63.9161 73.359 60.421C73.0539 59.4792 72.7754 58.9752 72.2116 58.2789C71.8867 57.8809 70.8852 57.0121 70.4409 56.7071C68.9951 55.7388 68.5839 56.2561 67.2177 54.4124C67.0453 54.1803 66.8927 54.0344 66.7004 53.8155C66.0239 53.086 65.3143 52.3763 64.2664 51.7861C62.4029 50.7382 60.8576 50.6122 58.7154 50.9173C58.165 50.9969 57.2829 51.2091 56.7855 51.2091C56.4804 48.5032 56.3544 48.9277 56.56 45.9499C56.6794 44.2388 57.2498 42.8461 58.0788 41.785C59.8495 39.5168 62.562 39.1454 63.3313 38.5419C64.4919 37.6333 65.699 35.2723 68.6701 35.3121C71.3097 35.3519 73.1069 36.0615 75.1828 37.315C75.4945 37.5007 75.72 37.6864 76.0582 37.8721C76.927 38.3695 77.756 39.0858 78.4258 39.749C78.8901 40.2132 79.3543 40.7106 79.792 41.2478C82.8627 45.0082 86.0792 51.302 85.5685 58.1197C85.3099 61.5551 83.8906 64.4135 82.1133 66.0184C79.9114 68.008 77.3647 69.0426 73.359 68.3264ZM40.9018 70.3425C39.9402 69.9446 38.5076 68.6911 38.0169 68.1142C37.2276 67.1923 36.591 66.3633 35.9012 65.1364C33.1954 60.3679 32.4062 53.5568 33.4341 48.0921C34.0045 45.0413 34.7274 43.3501 36.4849 41.0024C37.7781 39.2714 39.6284 37.2686 42.9246 37.2553C45.2259 37.2487 46.2008 37.9915 47.2752 37.9782C47.8588 37.9716 48.7409 37.6731 49.4041 37.5869C52.0768 37.242 53.8674 38.522 55.3928 40.3392C56.56 41.7319 56.5136 41.7651 56.0693 42.813C54.8888 45.5719 55.101 48.6093 55.5918 51.6468C55.4591 51.7662 54.5306 52.1575 54.2786 52.2769C52.8129 52.9533 51.9242 53.5104 50.6973 54.4853L50.1601 54.9562C49.5964 55.4006 49.603 55.4602 49.1719 55.8781C48.4292 56.5943 47.441 57.7151 46.8242 58.2656C46.7778 57.5692 46.8574 56.6474 46.8375 55.8913C46.8176 55.1286 46.7711 54.366 46.7115 53.6099C46.5191 50.977 46.3799 46.8585 46.5656 44.2587C46.6783 42.7201 46.9303 41.2345 46.7778 39.6694C46.0085 39.9479 45.3784 41.8977 45.1397 42.667C44.755 43.9338 44.4831 45.0612 44.2974 46.4407C43.8928 49.372 44.0454 52.3498 44.2045 55.3143C44.251 56.2362 44.4234 61.2765 44.1714 62.0856C44.0387 62.5234 43.6209 63.1998 43.4087 63.6044C42.8649 64.6655 42.4404 65.6271 42.0027 66.8143C41.492 68.2004 41.3992 69.0957 41.0941 69.991L40.935 70.3293C40.9217 70.3027 40.9084 70.3293 40.9018 70.3425ZM57.3625 27.8378C50.7636 28.0832 44.5428 30.3646 39.6616 34.3173L38.1694 35.584C38.0036 35.7565 37.8444 35.8692 37.6654 36.035C36.9425 36.6916 35.6094 38.1838 34.986 38.9266C30.6354 44.146 28.2147 51.3616 28.4269 58.4314C28.6325 65.1165 31.0532 71.1185 34.9794 76.0262C35.7487 76.9878 36.7899 78.1683 37.672 78.9575C38.3153 79.5345 38.9321 80.1248 39.6682 80.6819C43.5413 83.6331 47.4211 85.5498 52.3686 86.5645C54.776 87.0552 56.8054 87.095 59.3256 87.095C63.7823 87.095 67.8279 85.8548 71.3296 84.23C74.7451 82.6449 77.8886 80.0916 79.9313 77.9694C82.1133 75.6946 84.3284 72.7433 85.8604 69.036C87.6842 64.6191 88.3673 61.4622 88.2147 56.4683C88.029 50.3005 85.867 44.5572 82.4183 39.9678L80.8001 37.8721C79.4074 36.36 78.4723 35.5442 76.9071 34.2842C76.2638 33.7669 75.4879 33.2164 74.7451 32.7323C69.6848 29.4627 63.7956 27.6057 57.3625 27.8378Z" fill="#232323"/>
<path d="M54.2444 2.58649C56.5258 2.49364 58.7807 2.52017 61.0687 2.54007C63.1114 2.55996 65.3331 2.88493 67.3028 3.2099C71.1826 3.84658 74.744 4.82812 78.1462 6.16116C82.1188 7.72632 86.045 9.62971 89.5268 12.0305C90.8731 12.959 92.226 13.9339 93.4795 14.9751L96.2517 17.4091L99.2626 20.4466C99.5876 20.745 101.763 23.3647 102.015 23.6896C104.601 27.0056 106.823 30.441 108.634 34.3208C111.452 40.3427 113.163 46.5834 113.674 53.3746C114.138 59.5092 113.502 66.0816 111.857 71.9576C110.902 75.3598 109.595 78.8283 108.004 81.899C107.188 83.4641 106.405 84.89 105.51 86.3027C103.083 90.1293 100.941 92.7888 97.903 95.8926C97.598 96.2043 97.3327 96.4231 97.0342 96.7746C96.6827 97.1792 94.8722 98.7244 94.3284 99.2152C93.0152 100.409 89.686 102.783 88.3728 103.606C80.7062 108.42 72.4161 111.385 62.5477 112.227C60.3989 112.413 57.9053 112.307 55.7101 112.294C53.6939 112.287 51.4258 111.949 49.4693 111.63C45.1651 110.927 39.959 109.508 36.1456 107.711C35.7476 107.525 35.3563 107.32 34.9584 107.147C32.7301 106.179 31.3771 105.39 29.3345 104.176C27.5504 103.115 24.8844 101.211 23.2794 99.8784L21.4092 98.3C21.2367 98.1607 21.1107 98.0148 20.9317 97.8755C20.746 97.723 20.6797 97.6501 20.494 97.4644C20.1889 97.1593 19.9369 97.0067 19.6185 96.642C19.3599 96.3435 19.0283 96.0584 18.7365 95.7666L16.2495 93.1071C15.7255 92.4771 15.2149 91.8934 14.6843 91.2236C8.21143 82.9933 3.9404 72.707 3.0915 61.4657C2.43493 52.7578 3.78786 45.005 6.58658 37.6501C8.33081 33.0673 11.1229 28.1066 14.0012 24.3661C14.2665 24.0279 14.5052 23.7095 14.7639 23.3779C15.0225 23.0529 15.2679 22.728 15.5266 22.4428C15.7852 22.151 16.0505 21.826 16.3025 21.5209C16.5678 21.2026 16.8463 20.9307 17.0984 20.619C17.7417 19.8497 20.5404 17.0841 21.0046 16.726L21.9066 15.9301C22.0657 15.8041 22.2315 15.6649 22.3642 15.5389C25.1297 13.0784 29.2151 10.4786 32.7102 8.63491C35.7078 7.04985 39.057 5.74997 42.5654 4.69548C45.636 3.78026 51.0477 2.71913 54.2444 2.58649ZM58.2568 115.125C61.3009 115.125 64.073 114.913 66.885 114.522C71.7463 113.839 76.455 112.466 81.0113 110.655C82.2713 110.151 83.485 109.574 84.7053 108.991L87.0597 107.737C88.7641 106.789 90.3889 105.748 92.0005 104.667L96.5899 101.139C96.696 101.046 96.7159 101.052 96.8287 100.953L98.0291 99.8718C98.6525 99.3943 100.748 97.2986 101.206 96.7813L102.691 95.1365C102.804 95.0171 102.804 94.9906 102.904 94.8712C103.726 93.8963 104.542 92.9347 105.304 91.9133C106.949 89.7115 108.965 86.7536 110.212 84.2401C110.418 83.8289 110.617 83.484 110.829 83.053C111.041 82.6351 111.2 82.2505 111.412 81.8327C114.039 76.6133 115.989 69.2716 116.532 63.6476C116.579 63.1569 116.678 62.5069 116.685 61.9962C116.698 61.2004 116.824 60.2388 116.844 59.4495C116.871 58.6006 116.897 56.0871 116.804 55.3974L116.738 54.0842C116.473 48.825 115.299 43.1414 113.508 38.3663C113.449 38.2005 113.402 38.0413 113.349 37.8888C112.885 36.5956 112.361 35.2824 111.771 34.0555C111.26 32.9877 110.789 31.8736 110.186 30.8655C110.013 30.5803 109.887 30.2951 109.721 30.0033C109.542 29.685 109.403 29.4396 109.224 29.1213C109.051 28.8162 108.899 28.5774 108.727 28.2923C107.38 26.044 106.352 24.6645 104.84 22.6219C104.27 21.8459 103.62 21.1562 103.03 20.4001C102.632 19.8961 102.174 19.4518 101.763 18.961L98.3673 15.5588C98.228 15.4327 98.1617 15.4062 98.0224 15.2669C97.8964 15.1409 97.8168 15.0481 97.6709 14.9287L93.579 11.5928C90.0043 8.88029 86.0383 6.67183 81.9331 4.87454C79.466 3.79352 76.7137 2.80535 73.915 2.06256C69.5047 0.901956 64.2189 0.0265281 59.6893 0.0530563C59.2449 0.0530563 58.9133 0 58.4159 0C57.3084 0 56.2207 0.0928485 55.1198 0.106113C54.8214 0.106113 54.7816 0.159169 54.4831 0.165801C52.971 0.172433 51.0743 0.477506 49.5887 0.683099C47.9771 0.908589 46.5048 1.23356 44.9927 1.5519C44.2963 1.6978 43.5668 1.92329 42.8439 2.10235C42.4593 2.1952 42.1608 2.28805 41.8093 2.39416L39.7401 3.03084C37.4852 3.78026 35.0911 4.70211 32.9754 5.76987L30.3027 7.12944C28.5187 8.03139 26.0251 9.58992 24.44 10.7638L20.6399 13.7018C20.5205 13.8079 20.3878 13.914 20.2618 14.0135C19.393 14.7165 18.5375 15.4858 17.7483 16.275C16.9657 17.0576 16.1168 17.8136 15.4138 18.6625L13.789 20.4466C12.8141 21.4944 11.6336 23.0994 10.7979 24.2467C10.022 25.3012 9.31898 26.369 8.62262 27.4831L6.64627 30.9185C6.1356 31.7674 5.75758 32.7291 5.3066 33.6111L4.66993 34.9906C3.68839 37.0863 2.65379 40.2896 2.02374 42.5312C1.81815 43.2541 1.61919 43.9903 1.46665 44.7331C0.836611 47.7705 0.259624 51.0202 0.093823 54.1837C-0.350523 62.2085 0.776922 70.1006 3.61543 77.5152C3.74807 77.8667 3.84092 78.132 3.98019 78.4769C4.63013 80.0951 5.34639 81.6403 6.11571 83.1856C6.85186 84.6645 7.63444 86.1236 8.52977 87.5097L10.1546 89.9702C11.0035 91.2236 12.6483 93.4586 13.6829 94.5662C14.3328 95.2692 14.9164 96.0119 15.5929 96.6884C15.7189 96.8144 15.8117 96.9073 15.9377 97.0333C16.3622 97.4644 16.7866 97.9949 17.2642 98.4127C17.4167 98.5454 17.483 98.5785 17.6356 98.7311L18.6701 99.7126C18.7962 99.8386 18.889 99.9447 19.0216 100.051L25.1231 104.833L28.4259 106.942C29.8783 107.81 32.0801 109.044 33.7514 109.734L35.6349 110.563C35.94 110.682 36.2583 110.801 36.5833 110.947C36.7623 111.027 36.9082 111.073 37.0807 111.14C43.6928 113.773 51.0212 115.125 58.2568 115.125Z" fill="#232323"/>
<path d="M64.4243 40.0352C63.9866 40.4531 65.0411 43.5038 65.24 44.0277C66.3144 46.8264 68.1051 49.5721 69.9024 51.8867L73.2316 56.098C74.6177 57.9019 76.1033 60.0839 77.1578 62.1531C77.4297 62.6903 77.7348 63.254 78.0332 63.7713C78.3051 64.2422 78.597 65.0247 79.2071 65.0645C79.5984 62.9224 77.8409 58.9432 76.992 57.378C76.3686 56.2373 75.7651 55.2624 75.0621 54.2676C74.7106 53.7702 74.3724 53.286 74.0076 52.8284C71.3747 49.5787 68.6887 46.3887 66.5399 42.7809C66.2282 42.2636 65.9165 41.7198 65.6114 41.2157C65.3926 40.8709 64.7493 39.7235 64.4243 40.0352ZM46.551 79.4693C47.8973 79.2505 51.0143 77.1348 52.0954 76.0604C52.3341 75.8217 52.553 75.6957 52.7851 75.4238C53.0039 75.1717 53.1498 75.0391 53.4218 74.7871L54.6155 73.4342C57.1224 70.3967 59.0192 66.8883 61.5526 63.5989C61.9373 63.0948 62.2888 62.6637 62.6801 62.1796C63.5157 61.1317 65.1074 59.4804 65.6446 58.7243C65.8237 58.4789 65.9895 58.1473 66.0425 57.7958C64.8554 57.8025 63.4428 59.0692 62.7199 59.5666C60.014 61.4235 57.2683 65.1043 55.5175 67.8102C54.4564 69.4417 53.508 70.8211 52.3673 72.3531L49.1441 76.1865C49.0181 76.3125 48.9385 76.4186 48.8125 76.5446C48.4079 76.9823 47.9835 77.42 47.559 77.8378C47.1611 78.2424 46.6637 78.6536 46.551 79.4693ZM41.2918 14.6942C39.4481 15.0258 37.8431 16.8165 38.2079 19.0913C38.5063 20.9681 40.3368 22.5333 42.585 22.1685C44.4553 21.8701 46.0403 20.0529 45.6822 17.7848C45.5031 16.6441 44.9328 15.8615 44.2961 15.3972C43.5599 14.86 42.4391 14.4886 41.2918 14.6942ZM32.0666 87.388C29.8515 87.6333 28.6047 89.6561 28.8235 91.6391C29.0424 93.6088 30.8331 95.174 33.0946 94.8954C35.051 94.65 36.6096 92.9257 36.3045 90.631C36.0525 88.7409 34.2751 87.1359 32.0666 87.388ZM85.3815 27.1293C85.5142 27.3747 86.5554 28.3231 86.8671 28.4822C87.0462 28.2634 87.265 27.8124 87.4043 27.5604C87.59 27.2155 87.7558 26.937 87.9415 26.612C88.2598 26.0483 88.744 25.1994 88.9363 24.5693C88.6379 24.7285 88.3593 24.9938 88.0542 25.1861C87.7359 25.3917 87.4375 25.5907 87.1257 25.7963C86.4957 26.2141 85.8524 26.6385 85.3815 27.1293ZM98.2543 52.8019C98.2941 52.2315 98.3405 51.6944 98.3405 51.1174C98.3405 50.4343 98.4135 49.7313 97.9625 49.7843C97.5049 49.8374 97.6044 50.6996 97.5977 51.1174C97.5911 51.6546 97.5911 52.2514 97.6176 52.8085L98.2543 52.8019Z" fill="#232323"/>
</svg>
