<svg width="374" height="375" viewBox="0 0 374 375" fill="none" xmlns="http://www.w3.org/2000/svg">
<path d="M373.506 187.24C373.506 192.533 370.025 197.038 364.971 198.615C325.218 210.947 289.619 232.853 260.926 261.685C232.234 290.461 210.392 326.107 198.095 365.976C196.523 370.988 192.031 374.536 186.753 374.536C181.475 374.536 176.983 371.044 175.411 365.976C150.761 286.237 88.0423 223.336 8.59086 198.615C3.59356 197.038 0.0561494 192.533 0.0561494 187.24H0C0 181.946 3.48127 177.441 8.53471 175.864C48.2885 163.532 83.8311 141.626 112.523 112.851C141.216 84.0185 163.002 48.3726 175.355 8.55953C176.927 3.5477 181.419 0 186.697 0C191.975 0 196.467 3.49139 198.039 8.55953C210.336 48.4289 232.178 84.0748 260.87 112.851C289.619 141.626 325.161 163.532 364.915 175.864C369.913 177.441 373.45 181.946 373.45 187.24H373.506Z" fill="#B9E7FF"/>
</svg>
