<svg width="135" height="47" viewBox="0 0 135 47" fill="none" xmlns="http://www.w3.org/2000/svg">
<g clip-path="url(#clip0_5538_18800)">
<path d="M23.5049 1.03142L21.9488 4.0142C21.0932 5.65483 20.3936 7.01535 20.3936 7.03727C20.3936 7.0592 21.4933 7.07583 22.8379 7.07493L25.283 7.07328L25.8442 6.11785C26.1528 5.59234 26.4192 5.16239 26.4366 5.16329C26.4539 5.16399 26.7747 5.59457 27.1496 6.1196L27.8313 7.07416L30.2227 7.07581L32.6149 7.07674L32.0823 6.4935C31.7894 6.17262 31.4261 5.77116 31.2748 5.60112L30.9998 5.29198L31.1932 5.25433C31.8026 5.13612 32.2113 5.01402 32.3781 4.90052C32.6278 4.73057 33.1026 4.00029 33.5585 3.08511C33.8571 2.48584 33.9335 2.27496 33.9541 1.9878C33.9856 1.54814 33.901 1.39969 33.5091 1.20486L33.2246 1.06299L28.3648 1.04723L23.5049 1.03142ZM16.8565 1.03307L16.3491 1.97536C16.0698 2.49371 15.6352 3.295 15.3837 3.75575C15.1322 4.2165 14.8183 4.79539 14.6864 5.04222C14.486 5.41707 13.6842 6.88095 13.5961 7.03278C13.5815 7.0578 14.6844 7.07117 16.0464 7.06256L18.5227 7.0468L19.1203 5.93987C19.4493 5.33102 20.1776 3.98826 20.738 2.95621C21.2983 1.92414 21.7563 1.06958 21.7563 1.05672C21.7563 1.04389 20.6543 1.03307 19.3068 1.03307H16.8565ZM48.6768 1.03307L47.2985 3.68131C46.5407 5.13761 45.8283 6.49738 45.7156 6.70351L45.5109 7.07832L47.5379 7.06254L49.5658 7.04679L50.1721 6.0029C50.5057 5.42857 50.803 4.95069 50.8322 4.94149C50.8614 4.93231 51.1335 5.40939 51.4367 6.00115L51.9884 7.07656H54.4118H56.8352L57.1145 6.55286C57.2681 6.2649 57.4928 5.85426 57.6133 5.64034C57.7337 5.42642 57.9466 5.03664 58.0868 4.77335C58.2271 4.51007 58.6142 3.79623 58.9464 3.18738C59.2786 2.57853 59.676 1.84472 59.8302 1.55675L60.1104 1.03305H58.0981H56.0858L55.385 2.20567C54.8319 3.13157 54.672 3.36001 54.6226 3.29072C54.5882 3.24247 54.2937 2.71471 53.9686 2.1181L53.377 1.03305H51.0265L48.6768 1.03307ZM61.9683 1.03307L61.8122 1.31768C61.7267 1.47397 61.5769 1.74969 61.4791 1.9307C60.4625 3.81213 58.8805 6.72895 58.792 6.88479L58.6801 7.08183L64.0578 7.06431L69.4355 7.04679L69.7885 6.86726C70.2494 6.63267 70.5175 6.35756 70.9733 5.65173C71.3935 5.00099 72.2383 3.46312 72.6734 2.55861C72.9458 1.99218 73.0508 1.56908 72.8937 1.6671C72.8497 1.69455 72.8412 1.68311 72.8703 1.63557C72.9295 1.53887 72.6349 1.22318 72.3854 1.11538C72.2284 1.04753 71.2918 1.033 67.0815 1.03306L61.9683 1.03307ZM83.0445 1.03307L82.3341 1.88604C81.9436 2.35501 81.3644 3.048 81.0469 3.42647C80.7295 3.80495 80.0891 4.57293 79.6236 5.13242C79.1581 5.6919 78.6037 6.35473 78.391 6.6063C78.0518 7.00766 78.0189 7.0677 78.1222 7.09496C78.1869 7.11208 78.7107 7.13034 79.287 7.13437C79.8634 7.13862 80.3476 7.15434 80.3626 7.1694C80.3775 7.18446 80.8458 7.19656 81.4034 7.19656H82.4174L82.7877 6.7473L83.159 6.29891H84.2536C84.8556 6.29891 85.3482 6.3139 85.3482 6.3322C85.3482 6.35049 85.2691 6.52541 85.173 6.72103L84.9986 7.07658H87.2703H89.5411L89.7301 6.37335C89.834 5.98665 90.0616 5.1454 90.2367 4.50364C90.8874 2.11797 91.0935 1.35804 91.1309 1.1977L91.1691 1.03307H87.1063H83.0445ZM9.92191 1.03569L5.84355 1.03919L4.89552 2.18642C3.8736 3.42247 2.03656 5.62537 1.29768 6.50121C1.04655 6.79889 0.855164 7.05711 0.872667 7.07483C0.890162 7.09253 1.42942 7.12185 2.0705 7.1405C2.71159 7.15915 3.69253 7.17911 4.25106 7.18516C5.24415 7.19592 5.26917 7.19336 5.35609 7.06169C5.44051 6.93381 5.51371 6.84433 5.84789 6.46355L5.99274 6.29891H7.08822C7.691 6.29891 8.18458 6.31303 8.18458 6.33044C8.18458 6.34784 8.10416 6.52274 8.0059 6.71926L7.82722 7.07657H10.0997H12.3722L12.4329 6.8226C12.4837 6.6097 13.8762 1.45988 13.9699 1.13815C13.9988 1.03912 13.7791 1.033 9.92191 1.03569ZM43.4309 1.04532C42.5507 1.04673 41.9184 1.05891 41.9009 1.07772C41.8585 1.12333 40.5668 3.48243 40.0369 4.48174C39.8821 4.77378 39.6563 5.18735 39.5356 5.40127C39.4149 5.61519 39.1636 6.07998 38.977 6.43377L38.6379 7.07656H41.0968H43.5558L43.8672 6.49332C44.0383 6.17244 44.23 5.81596 44.294 5.70077C44.3579 5.58558 44.5917 5.15409 44.8126 4.74271C45.0336 4.33133 45.5749 3.33514 46.0157 2.52883L46.8171 1.06283L44.3798 1.04705C44.0448 1.04493 43.7243 1.04485 43.4309 1.04532ZM76.7491 1.04532C75.8637 1.04673 75.2351 1.05891 75.2286 1.07772C75.2201 1.10277 74.5052 2.42281 73.6405 4.01146C72.7757 5.60013 72.0526 6.93947 72.0341 6.98812C72.0048 7.06531 72.3128 7.07704 74.4515 7.07569L76.9026 7.07405L77.881 5.27089C78.4189 4.27924 78.9965 3.20987 79.1656 2.89413C79.3347 2.57838 79.6301 2.0373 79.8213 1.69173L80.1683 1.06294L77.7067 1.04716C77.3681 1.04505 77.0442 1.04485 76.7491 1.04532ZM9.82737 1.77394C9.83944 1.78615 9.71954 2.12948 9.56109 2.53671C9.40264 2.94394 9.14158 3.61996 8.98082 4.03949L8.68852 4.80226L7.96253 4.8032C7.56193 4.80328 7.23654 4.7783 7.23654 4.74803C7.23654 4.71785 7.25899 4.68458 7.28685 4.67359C7.38399 4.63535 8.88773 2.84035 8.85245 2.80475C8.83289 2.78498 8.84589 2.76885 8.88194 2.76885C8.91798 2.76885 9.14057 2.5396 9.37634 2.26004C9.61211 1.98048 9.81528 1.76174 9.82737 1.77394ZM86.958 1.80897C86.9639 1.80967 86.9693 1.81245 86.9737 1.81686C86.9911 1.83445 86.8497 2.25094 86.6597 2.74252C86.4697 3.2341 86.2139 3.89902 86.0916 4.2199L85.8695 4.80314H85.1643C84.7766 4.80314 84.4592 4.78262 84.4592 4.75761C84.4592 4.73259 84.5195 4.64513 84.5936 4.56319C84.6677 4.48125 84.888 4.22336 85.0828 3.99045C85.2776 3.75755 85.7568 3.19357 86.1479 2.73726C86.5391 2.28096 86.8781 1.88053 86.9008 1.84663C86.9178 1.82137 86.9404 1.80698 86.958 1.80897ZM66.156 2.52886H66.5992C67.0245 2.52886 67.2515 2.59142 67.3451 2.73291C67.4035 2.82116 67.4086 2.94234 67.3373 3.16552C67.266 3.3887 67.1184 3.71362 66.8741 4.20766C66.5902 4.78195 66.3614 5.28705 66.365 5.33036C66.3685 5.37368 66.3598 5.39687 66.3451 5.38203C66.3304 5.36719 66.1858 5.40583 66.0241 5.46785C65.8112 5.54954 65.5754 5.58082 65.168 5.58082C64.8991 5.58082 64.7424 5.57428 64.6676 5.55193C64.5928 5.52957 64.5994 5.49159 64.6572 5.42845C64.6858 5.39718 65.0349 4.73182 65.4326 3.95019L66.156 2.52886ZM27.5728 2.63482L28.1462 2.67598C28.4616 2.69829 28.7666 2.72949 28.8236 2.74604C28.9112 2.77145 28.9574 2.8474 28.9702 2.95009C28.983 3.05278 28.9626 3.1826 28.9164 3.31702C28.8239 3.58588 28.629 3.87226 28.3942 3.99485C28.2283 4.08153 27.4185 4.11634 27.2086 4.04564C27.1597 4.02916 27.0873 4.00565 27.0472 3.9931C26.969 3.96859 27.0134 3.84268 27.3829 3.04554L27.5728 2.63482ZM134.006 10.8983C133.963 10.9067 133.712 11.0661 133.294 11.3406C131.942 12.2275 129.609 13.6722 128.574 14.2621L128.329 14.4013L128.485 14.6877C128.571 14.845 128.655 14.9745 128.672 14.9749C128.746 14.977 130.356 13.793 131.693 12.7532C133.412 11.4172 134.088 10.8824 134.006 10.8983ZM81.7998 11.7163C81.5043 11.7158 81.2057 11.7263 80.9038 11.7478C78.4564 11.9219 76.7179 12.6666 75.0985 14.2349C73.248 16.0271 72.3552 18.3148 72.2171 21.6174C72.1258 23.8017 72.5146 25.9248 73.2918 27.4902C74.6159 30.1571 77.0002 31.8038 80.1622 32.235V32.234C81.3207 32.392 83.2613 32.3377 84.5181 32.1123C85.6302 31.9129 87.0479 31.3581 87.828 30.8171C88.2492 30.525 89.1142 29.6585 89.4986 29.1435C89.9785 28.5006 90.4504 27.6326 90.7675 26.8114C90.9159 26.4272 91.0373 26.0896 91.0373 26.0609C91.0373 26.0322 90.3245 25.934 89.4526 25.8428C88.5807 25.7518 87.7961 25.6637 87.71 25.6476C87.5623 25.6198 87.5317 25.6608 87.1601 26.3797C86.4078 27.8349 85.7248 28.6105 84.7957 29.063C83.9471 29.4763 83.1397 29.634 81.8753 29.634C80.4357 29.634 79.3435 29.2769 78.2063 28.4342C77.2304 27.7111 76.4748 26.3575 76.1038 24.6676C75.9856 24.1292 75.8345 22.9439 75.8783 22.8995C75.8926 22.8851 79.3103 22.8723 83.473 22.8723H91.0416L91.1049 22.7086C91.1979 22.4711 91.1754 20.8745 91.0668 20.0314C90.8362 18.2418 90.3238 16.7778 89.4769 15.4889C89.0204 14.7942 87.9771 13.7385 87.2972 13.2829C85.7675 12.2579 83.8685 11.7197 81.7998 11.7163ZM10.4406 11.7198C9.67864 11.7157 8.84803 11.7775 8.18284 11.8941C5.48255 12.3671 3.15531 14.1277 1.93259 16.6213C1.1821 18.1519 0.864336 19.5638 0.795471 21.677C0.720534 23.9765 1.05214 25.8023 1.84846 27.4692C2.03617 27.8621 2.16673 28.0701 2.20928 28.0437C2.25001 28.0181 2.26027 28.0287 2.23443 28.0708C2.17117 28.1742 2.75185 28.988 3.32038 29.592C4.66773 31.0235 6.52587 31.9368 8.69459 32.235V32.2359C9.40911 32.3343 11.1512 32.3507 11.9862 32.2674C13.3891 32.1275 14.6187 31.7845 15.6665 31.2411C17.0479 30.5246 18.2497 29.1987 19.0223 27.5375C19.2954 26.9505 19.6459 26.0437 19.6095 26.0181C19.6005 26.0117 18.8861 25.9321 18.0223 25.8421C17.1585 25.752 16.3714 25.6651 16.2728 25.6486C16.1001 25.6197 16.0861 25.6339 15.9094 26.0356C15.4577 27.0619 14.662 28.1749 14.0367 28.6532C13.5448 29.0297 12.921 29.3158 12.256 29.4703C11.4974 29.6465 9.68849 29.6607 8.99123 29.4957C8.09169 29.2828 7.4388 28.9536 6.64934 28.3161C6.17744 27.935 5.88668 27.5818 5.50701 26.9254C4.99894 26.0471 4.57141 24.575 4.47485 23.3734L4.43495 22.8742L11.8952 22.8663C15.9986 22.8618 19.4172 22.852 19.4916 22.8444C19.566 22.8366 19.646 22.8113 19.6694 22.7875C19.7574 22.6981 19.7035 20.2903 19.6 19.6751C19.2087 17.3504 18.399 15.6425 17.0456 14.2875C15.4987 12.7387 13.6087 11.9208 11.1709 11.7461C10.9408 11.7296 10.6946 11.7211 10.4406 11.7198ZM101.729 11.852C101.491 11.853 101.271 11.8583 101.089 11.8695C99.7732 11.9509 98.3465 12.3005 97.4306 12.7654C96.6956 13.1386 96.0071 13.6157 95.6733 13.9845C94.8133 14.9346 94.2289 16.602 94.3211 17.843C94.3777 18.6053 94.5049 19.0669 94.8598 19.8012C95.1253 20.3505 95.2591 20.5474 95.6144 20.9125C96.3393 21.6575 97.2301 22.156 98.7126 22.6447C99.3921 22.8687 101.398 23.387 102.15 23.5327C102.959 23.6894 105.621 24.5148 106.062 24.7456C106.127 24.7798 106.214 24.8575 106.257 24.9181C106.3 24.9787 106.368 25.0285 106.408 25.0285C106.467 25.0285 107.609 24.5391 109.632 23.6474C109.77 23.5864 109.884 23.5192 109.884 23.4977C109.884 23.4035 109.454 22.8801 109.198 22.6631C108.915 22.4223 108.124 21.917 108.032 21.917C108.004 21.917 107.669 21.7712 107.287 21.5938C106.407 21.1843 105.604 20.9248 104.044 20.5447C101.805 19.9988 99.5539 19.3378 98.9676 19.0541C98.5376 18.8461 97.9573 18.2709 97.7195 17.8176C97.5593 17.5123 97.5547 16.8658 97.7099 16.4716C98.0033 15.7266 98.6758 15.1404 99.5912 14.8313C100.484 14.5297 102.43 14.4309 103.379 14.6395C105.007 14.9974 106.212 16.0735 106.507 17.4314L106.579 17.7624L108.229 17.5776C109.137 17.4761 109.898 17.3746 109.921 17.3517C109.978 17.2938 109.69 16.2119 109.468 15.6501C109.227 15.04 108.85 14.4362 108.405 13.9459C108.026 13.528 107.318 13.0272 107.206 13.0973C107.169 13.1206 107.156 13.1124 107.177 13.0781C107.224 13.0014 106.34 12.5843 105.706 12.3845C105.273 12.2478 104.339 12.0432 103.75 11.9554C103.314 11.8903 102.443 11.8494 101.729 11.852ZM121.263 11.8537C119.868 11.856 118.607 12.0677 117.518 12.4824C117.072 12.6524 116.269 13.0847 116.314 13.1305C116.33 13.147 116.306 13.1603 116.259 13.1603C116.079 13.1603 115.485 13.5884 115.108 13.9896C114.49 14.6489 113.952 15.7934 113.794 16.7876C113.704 17.3483 113.748 18.3219 113.886 18.8351C114.056 19.4635 114.42 20.1613 114.84 20.6645C115.058 20.9252 115.245 21.1383 115.255 21.1383C115.265 21.1383 115.894 20.8347 116.653 20.4631C117.412 20.0915 118.239 19.6963 118.492 19.5847C118.745 19.4732 118.952 19.3627 118.952 19.3395C118.952 19.3164 118.801 19.2356 118.616 19.16C118.432 19.0844 118.167 18.9357 118.029 18.829C117.89 18.7223 117.761 18.646 117.742 18.6599C117.722 18.6739 117.72 18.6685 117.735 18.6477C117.75 18.6269 117.674 18.5056 117.567 18.3788C117.459 18.252 117.294 18.0065 117.199 17.8333C116.955 17.3887 116.953 16.8293 117.193 16.3366C117.395 15.9206 117.857 15.3967 118.198 15.1964C118.578 14.9734 119.26 14.7448 119.862 14.6377C120.639 14.4995 122.149 14.5011 122.804 14.6412C123.606 14.8126 124.553 15.2439 124.846 15.5703C124.908 15.6402 125.048 15.7524 125.156 15.8199L125.353 15.9425L126.435 15.3768C127.37 14.8873 128.115 14.4743 128.19 14.403C128.202 14.3913 128.099 14.2451 127.96 14.0781C127.257 13.2303 125.803 12.4836 124.189 12.1409C123.202 11.9313 122.396 11.8519 121.263 11.8537ZM49.6404 11.8546C47.8928 11.8544 46.7614 12.2362 45.3469 13.304C44.8473 13.6811 44.5003 14.0091 44.0841 14.4958L43.803 14.8234V13.5229V12.2224H42.0848H40.3657V25.926V39.6288H42.1438H43.9219V34.9182C43.9219 30.5195 43.9285 30.2174 44.0199 30.3555C44.4081 30.9425 45.5805 31.7896 46.4112 32.0834C46.9105 32.26 48.0983 32.4966 48.8355 32.5668C50.4164 32.7173 52.2995 32.3384 53.6416 31.5991C56.4879 30.031 58.1832 27.5092 58.7209 24.0458C58.8679 23.0984 58.8659 20.9382 58.7164 20.0314C58.4412 18.3597 57.9455 16.9383 57.2983 15.9627C56.5881 14.8921 55.2804 13.6402 54.2634 13.0569C52.8308 12.2353 51.3675 11.8548 49.6404 11.8546ZM33.8647 12.3424L33.2532 13.2225C32.9168 13.7066 32.6417 14.1372 32.6417 14.1797C32.6417 14.2222 32.6297 14.2446 32.6149 14.2296C32.5818 14.1962 32.0019 15.0187 30.6537 17.0101C29.9428 18.0602 29.0455 19.3102 28.9875 19.3317C28.9607 19.3417 28.878 19.2413 28.8045 19.1093C28.731 18.9772 28.6452 18.8859 28.6128 18.9061C28.5793 18.927 28.5726 18.913 28.5972 18.8728C28.6225 18.8316 28.4331 18.4855 28.1427 18.0409C27.5957 17.2033 24.3907 12.5376 24.2795 12.4168C24.2254 12.3583 23.7386 12.3442 22.0954 12.3564L19.9808 12.3722L20.2766 12.7917C20.439 13.022 20.6459 13.3177 20.7371 13.4494C21.5798 14.6656 25.5706 20.3693 26.4019 21.5456L26.584 21.8031L26.467 22.0062C26.4024 22.1181 26.0005 22.7161 25.5736 23.3348C24.8625 24.3651 23.0879 26.9611 21.0511 29.9519C20.6076 30.6031 20.0745 31.3836 19.8663 31.6867C19.6581 31.9898 19.4494 32.298 19.4022 32.3707V32.369L19.3164 32.5013L21.3876 32.5057L23.4589 32.5101L24.0999 31.5669C24.4525 31.0479 24.888 30.4079 25.067 30.1446C25.246 29.8814 25.6892 29.235 26.0524 28.7084C26.7621 27.6793 27.4233 26.7061 28.3491 25.3272C28.6696 24.85 28.9536 24.4521 28.9806 24.4427C29.0076 24.4332 29.0776 24.5007 29.1367 24.5924C29.1958 24.6842 29.4816 25.0658 29.7716 25.441C30.0616 25.8163 31.2484 27.5595 32.4084 29.3144L34.517 32.5048H36.5848C38.195 32.5046 38.6425 32.4881 38.6101 32.4312C38.4586 32.1652 37.5471 30.8484 37.4721 30.7874C37.4216 30.7463 37.3995 30.713 37.4235 30.713C37.4476 30.713 37.137 30.2216 36.7331 29.621C36.3292 29.0203 35.4037 27.6402 34.6766 26.5541C33.9494 25.4681 32.9451 23.9693 32.4449 23.2236C31.9446 22.4781 31.535 21.8527 31.535 21.8338C31.535 21.7873 32.0027 21.1 35.1831 16.4673C36.6841 14.281 37.9321 12.4581 37.957 12.417C37.9928 12.3577 37.5729 12.3425 35.9334 12.3425L33.8647 12.3424ZM61.1087 12.4624V22.395V32.3286H62.8522H64.5964L64.6216 26.4191C64.6438 21.2289 64.6595 20.4314 64.7482 19.8598C64.9532 18.5396 65.3256 17.7278 66.1013 16.912C67.1448 15.8146 68.3115 15.3746 69.6653 15.5677C70.0466 15.6222 71.0967 15.894 71.4391 16.0266C71.5212 16.0585 71.5609 15.9447 72.0428 14.2874C72.1576 13.8925 72.2775 13.5223 72.3099 13.4651C72.3601 13.3765 72.3101 13.3313 71.969 13.1586C70.2597 12.2933 68.3592 12.2364 66.8342 13.0053C66.1692 13.3407 65.706 13.6926 65.1533 14.2822C64.8884 14.5647 64.6573 14.7962 64.6389 14.7962C64.6206 14.7962 64.6051 14.2706 64.6051 13.6289V12.4624H62.8573L61.1087 12.4624ZM10.2879 14.3863C10.4199 14.387 10.5544 14.392 10.6913 14.4003C11.395 14.4432 11.9894 14.5531 12.5344 14.7515C13.0794 14.9499 13.5754 15.2365 14.0801 15.6334C14.4238 15.9037 14.7069 16.1997 14.9526 16.5529C15.1984 16.9061 15.4068 17.3165 15.5997 17.8175C15.7988 18.3344 16.0406 19.3606 16.0828 19.8667L16.1088 20.1811H10.3313H4.55378L4.59541 19.8072C4.65495 19.2634 4.77244 18.7435 4.94409 18.2562C5.11574 17.7689 5.34096 17.3142 5.61457 16.8988C5.88817 16.4834 6.2102 16.1077 6.57561 15.7796C6.94102 15.4516 7.34979 15.1713 7.79686 14.9459C8.22957 14.7278 8.68009 14.5746 9.15863 14.4844C9.51754 14.4167 9.89208 14.3841 10.2879 14.3863ZM81.7027 14.4047C82.2366 14.4001 82.7787 14.4372 83.1546 14.5177C83.6727 14.6287 84.1608 14.804 84.6109 15.0396C85.0611 15.2752 85.4731 15.5715 85.8391 15.9233C86.266 16.3335 86.4524 16.5989 86.7967 17.2894C86.9799 17.6568 87.1277 18.0459 87.2451 18.4708C87.3625 18.8957 87.4494 19.3562 87.5088 19.8667L87.5452 20.1811H81.7608H75.9754L76.0145 19.837C76.0898 19.172 76.2496 18.5452 76.4837 17.9699C76.7178 17.3946 77.0266 16.8709 77.3979 16.4119C77.7692 15.953 78.2033 15.5588 78.6903 15.2428C79.1773 14.9268 79.7172 14.6895 80.2984 14.5431C80.6429 14.4563 81.1687 14.4094 81.7027 14.4047ZM128.599 15.1351C128.596 15.1353 128.594 15.1363 128.592 15.1377C128.555 15.1603 128.137 15.4498 127.663 15.7805C127.188 16.1112 126.604 16.5162 126.365 16.6808C126.126 16.8453 125.918 17.0121 125.903 17.0512C125.888 17.0903 125.906 17.2658 125.942 17.4418L126.008 17.7623L127.664 17.5758C128.576 17.4734 129.336 17.3759 129.353 17.3586C129.392 17.319 129.233 16.5391 129.105 16.1422C128.948 15.6557 128.68 15.1269 128.599 15.1351ZM49.9561 15.4311C50.2505 15.4343 50.5388 15.4626 50.82 15.5152C51.195 15.5852 51.5565 15.6983 51.9008 15.8506C52.245 16.0029 52.5721 16.1949 52.8774 16.4233C53.1827 16.6517 53.4668 16.9166 53.7248 17.215C53.9829 17.5134 54.2152 17.845 54.4179 18.2072C54.6205 18.5694 54.7933 18.9618 54.9322 19.3816C55.0712 19.8014 55.1757 20.2485 55.2427 20.7197C55.3251 21.2991 55.325 22.64 55.2427 23.3084C55.1543 24.0273 54.983 24.6987 54.7388 25.3104C54.4946 25.9221 54.1775 26.4734 53.7977 26.9524C53.4179 27.4314 52.9753 27.8383 52.4802 28.1592C51.985 28.48 51.4372 28.7155 50.8469 28.8527C50.473 28.9396 50.0968 28.9873 49.7219 28.9972C49.3471 29.0072 48.9737 28.9792 48.6082 28.914C48.2428 28.8489 47.8846 28.7468 47.5388 28.6084C47.193 28.47 46.8597 28.2954 46.5439 28.0856C46.1385 27.8163 45.7789 27.4944 45.4658 27.1223C45.1526 26.7502 44.8864 26.3277 44.6678 25.8577C44.4492 25.3877 44.2778 24.8697 44.156 24.3068C44.0343 23.7438 43.9618 23.1362 43.9392 22.4852C43.9148 21.7831 43.9489 21.1755 44.052 20.6032C44.155 20.031 44.3275 19.494 44.5793 18.9332C44.7513 18.5503 44.9764 18.1805 45.2437 17.8341C45.511 17.4878 45.8205 17.1642 46.1588 16.8752C46.4971 16.5862 46.8642 16.3319 47.2491 16.1212C47.6339 15.9104 48.0364 15.7433 48.4434 15.6316C48.8552 15.5186 49.262 15.4547 49.6595 15.4363C49.7589 15.4317 49.858 15.43 49.9561 15.4311ZM121.115 19.9105L120.365 20.33C119.952 20.5606 119.625 20.7668 119.638 20.788C119.651 20.8091 119.627 20.8223 119.584 20.8178C119.471 20.8058 117.108 22.1746 117.16 22.2225C117.302 22.3549 119.347 22.9629 121.288 23.4494C122.656 23.7921 124.42 24.3193 125.127 24.5966C125.575 24.7727 125.962 25.1075 126.212 25.5372C126.428 25.9097 126.64 26.7993 126.586 27.1118C126.524 27.4719 126.279 27.9915 126.017 28.3142C125.896 28.4638 125.806 28.6133 125.817 28.6469C125.828 28.6806 125.818 28.6895 125.796 28.6671C125.774 28.6447 125.605 28.751 125.421 28.9027C124.798 29.4156 123.882 29.7457 122.711 29.88C121.99 29.9627 121.387 29.9183 120.642 29.7276C119.341 29.3942 117.814 28.6154 117.471 28.1101C117.143 27.6265 116.64 26.459 116.55 25.9707C116.515 25.7811 116.489 25.7516 116.382 25.7771C116.312 25.7936 115.615 25.9011 114.833 26.0162C112.895 26.3015 113.088 26.2418 113.154 26.5425C113.619 28.6418 115.272 30.8842 116.88 31.5947C117.778 31.9919 118.917 32.2741 120.167 32.4091C120.76 32.4733 123.616 32.3958 124.107 32.3023C125.254 32.0841 126.195 31.7552 127.037 31.2768C127.744 30.8756 127.99 30.6857 128.616 30.056C129.119 29.5505 129.217 29.4153 129.485 28.858C129.941 27.9114 130.095 27.3494 130.135 26.4944C130.199 25.1028 129.798 23.9327 128.942 23.0098C128.424 22.4509 128.1 22.2322 127.096 21.7601C125.836 21.1677 124.827 20.8439 122.655 20.3361C122.166 20.2218 121.62 20.079 121.441 20.0191L121.115 19.9105ZM110.59 25.5065L110.357 25.6265C110.229 25.6926 109.463 26.0327 108.655 26.3814C107.848 26.7301 107.158 27.0397 107.121 27.0697C107.084 27.0998 107.038 27.2254 107.019 27.3482C106.962 27.7056 106.697 28.1752 106.371 28.4981C105.261 29.5952 103.732 30.0516 101.768 29.8712L100.953 29.7959L98.932 30.5683L96.9102 31.3407L97.1591 31.4686C97.942 31.8688 99.2834 32.2357 100.491 32.3811C101.229 32.47 104.07 32.4219 104.64 32.3111C106.661 31.9182 107.927 31.3002 109.133 30.1182C109.822 29.4426 110.28 28.6295 110.57 27.5645C110.697 27.0978 110.747 26.0888 110.659 25.7614L110.59 25.5065ZM96.9284 25.7903C96.5776 25.8345 93.9487 26.2319 93.8328 26.2579C93.7061 26.2866 93.6982 26.3106 93.7365 26.5417C93.8375 27.1507 94.2925 28.2358 94.7895 29.0524C94.9247 29.2746 95.0524 29.4561 95.0731 29.4561C95.1159 29.4561 98.1083 28.3713 98.141 28.3439C98.1922 28.3011 97.8966 27.963 97.8392 27.9989C97.8011 28.0227 97.793 28.0104 97.8183 27.9691C97.8417 27.9309 97.8043 27.82 97.7359 27.723C97.5327 27.4349 97.3148 26.8885 97.1739 26.3148C97.0619 25.859 97.0239 25.7782 96.9284 25.7903ZM94.8806 29.6794L93.596 30.1445C89.5895 31.5961 84.3756 33.3095 80.6662 34.3927C80.0305 34.5783 79.2039 34.8206 78.8291 34.9313C70.5019 37.3896 59.1745 39.9122 49.4331 41.4783C43.2365 42.4746 34.8335 43.5228 30.7058 43.814C22.907 44.3641 14.7586 43.7166 9.57757 42.1352C5.69504 40.95 3.29202 39.5158 1.31676 37.2047L1.06089 36.9061L1.22482 37.2047C1.9615 38.5473 3.52939 40.0735 5.35089 41.2209C6.12629 41.7093 7.90809 42.6077 8.81342 42.9671C12.8606 44.5737 17.6719 45.4448 23.8605 45.6916C24.9589 45.7354 28.4683 45.7242 29.8167 45.6723C39.8307 45.2863 52.3992 43.5877 64.3978 40.9993C69.1445 39.9753 75.1004 38.4772 79.0069 37.3238C79.4143 37.2035 80.0677 37.0125 80.4588 36.8999C83.4965 36.0255 89.2823 34.0968 93.1415 32.6718C94.7116 32.0921 96.6084 31.3486 96.6084 31.3127C96.6084 31.2937 96.4464 31.1588 96.2484 31.0132C96.0504 30.8676 95.6617 30.5077 95.3845 30.2136L94.8806 29.6794Z" fill="#242424"/>
</g>
<defs>
<clipPath id="clip0_5538_18800">
<rect width="134" height="46" fill="white" transform="translate(0.1875 0.5)"/>
</clipPath>
</defs>
</svg>
