<svg width="320" height="65" viewBox="0 0 320 65" fill="none" xmlns="http://www.w3.org/2000/svg">
<path d="M307.234 22.5532C307.234 24.0425 306.064 25.2128 304.574 25.2128C303.138 25.2128 301.915 24.0425 301.915 22.5532C301.915 21.0638 303.085 19.8936 304.574 19.8936C306.064 19.8936 307.234 21.0638 307.234 22.5532ZM299.309 14.5745C299.309 16.0638 298.138 17.234 296.649 17.234C295.16 17.234 293.989 16.0638 293.989 14.5745C293.989 13.0851 295.16 11.9149 296.649 11.9149C298.138 11.9149 299.309 13.1383 299.309 14.5745ZM307.234 14.5745C307.234 16.0638 306.064 17.234 304.574 17.234C303.138 17.234 301.915 16.0638 301.915 14.5745C301.915 13.0851 303.085 11.9149 304.574 11.9149C306.064 11.9149 307.234 13.1383 307.234 14.5745ZM291.33 14.5745C291.33 16.0638 290.16 17.234 288.67 17.234C287.234 17.234 286.011 16.0638 286.011 14.5745C286.011 13.0851 287.181 11.9149 288.67 11.9149C290.16 11.9149 291.33 13.1383 291.33 14.5745ZM311.755 6.06383C312.766 7.07446 312.766 8.77659 311.755 9.84042C310.745 10.8511 309.043 10.8511 308.032 9.84042C307.021 8.82979 307.021 7.12766 308.032 6.06383C309.043 5.05319 310.691 5.05319 311.755 6.06383ZM318.351 0.797872C319.362 1.80851 319.362 3.51064 318.351 4.57447C317.34 5.58511 315.638 5.58511 314.628 4.57447C313.617 3.56383 313.617 1.8617 314.628 0.797872C315.638 -0.265957 317.34 -0.265957 318.351 0.797872ZM282.074 14.5745C282.074 16.0638 280.904 17.234 279.415 17.234C277.979 17.234 276.755 16.0638 276.755 14.5745C276.755 13.0851 277.925 11.9149 279.415 11.9149C280.904 11.9149 282.074 13.1383 282.074 14.5745ZM274.149 14.5745C274.149 16.0638 272.979 17.234 271.489 17.234C270 17.234 268.83 16.0638 268.83 14.5745C268.83 13.0851 270 11.9149 271.489 11.9149C272.979 11.9149 274.149 13.1383 274.149 14.5745ZM304.574 27.8723C306.011 27.8723 307.234 29.0425 307.234 30.5319C307.234 32.0213 306.064 33.1915 304.574 33.1915C303.138 33.1915 301.915 32.0213 301.915 30.5319C301.915 29.0425 303.138 27.8723 304.574 27.8723ZM275.479 54.3617C275.479 55.8511 274.309 57.0213 272.819 57.0213C271.383 57.0213 270.16 55.8511 270.16 54.3617C270.16 52.8723 271.33 51.7021 272.819 51.7021C274.309 51.7553 275.479 52.9255 275.479 54.3617ZM267.553 46.4362C267.553 47.9255 266.383 49.0957 264.894 49.0957C263.457 49.0957 262.234 47.9255 262.234 46.4362C262.234 44.9468 263.404 43.7766 264.894 43.7766C266.383 43.7766 267.553 44.9468 267.553 46.4362ZM275.479 46.4362C275.479 47.9255 274.309 49.0957 272.819 49.0957C271.383 49.0957 270.16 47.9255 270.16 46.4362C270.16 44.9468 271.33 43.7766 272.819 43.7766C274.309 43.7766 275.479 44.9468 275.479 46.4362ZM259.628 46.4362C259.628 47.9255 258.457 49.0957 256.968 49.0957C255.532 49.0957 254.308 47.9255 254.308 46.4362C254.308 44.9468 255.479 43.7766 256.968 43.7766C258.404 43.7766 259.628 44.9468 259.628 46.4362ZM272.819 59.6809C274.255 59.6809 275.479 60.8511 275.479 62.3404C275.479 63.8298 274.309 65 272.819 65C271.383 65 270.16 63.8298 270.16 62.3404C270.213 60.9043 271.383 59.6809 272.819 59.6809ZM304.574 35.7979C306.011 35.7979 307.234 36.9681 307.234 38.4575C307.234 39.9468 306.064 41.117 304.574 41.117C303.138 41.117 301.915 39.9468 301.915 38.4575C301.915 37.0213 303.138 35.7979 304.574 35.7979ZM304.574 45.1064C306.011 45.1064 307.234 46.2766 307.234 47.766C307.234 49.2553 306.064 50.4255 304.574 50.4255C303.138 50.4255 301.915 49.2553 301.915 47.766C301.915 46.2766 303.138 45.1064 304.574 45.1064ZM287.394 34.4681C287.394 35.9575 286.223 37.1277 284.734 37.1277C283.298 37.1277 282.074 35.9575 282.074 34.4681C282.074 32.9787 283.245 31.8085 284.734 31.8085C286.223 31.8617 287.394 33.0319 287.394 34.4681ZM291.915 25.9575C292.925 26.9681 292.925 28.6702 291.915 29.734C290.904 30.7447 289.202 30.7447 288.191 29.734C287.181 28.7234 287.181 27.0213 288.191 25.9575C289.202 24.9468 290.851 24.9468 291.915 25.9575ZM298.511 20.6915C299.521 21.7021 299.521 23.4043 298.511 24.4681C297.5 25.4787 295.798 25.4787 294.787 24.4681C293.777 23.4574 293.777 21.7553 294.787 20.6915C295.798 19.6277 297.5 19.6277 298.511 20.6915ZM281.33 37.9255C282.34 38.9362 282.34 40.6383 281.33 41.7021C280.319 42.7128 278.617 42.7128 277.606 41.7021C276.596 40.6915 276.596 38.9894 277.606 37.9255C278.617 36.8617 280.266 36.8617 281.33 37.9255ZM176.702 57.1276C170.532 62.3404 163.298 65 155 65C146.064 65 138.351 61.8617 131.862 55.6383C125.426 49.3085 122.181 41.6489 122.181 32.6064C122.181 23.5638 125.426 15.9043 131.862 9.57447C138.351 3.19149 146.064 0 155 0C160.266 0 164.894 0.851061 168.936 2.60638C172.926 4.30851 176.968 7.18085 181.011 11.2234L181.33 11.5426L175.106 18.2979L174.734 17.9787C170.745 14.6809 167.713 12.4468 165.532 11.2766C162.34 9.57447 158.83 8.7766 155 8.7766C148.351 8.7766 142.872 11.117 138.457 15.7447C134.043 20.3723 131.808 26.0106 131.808 32.5532C131.808 39.0426 134.043 44.6277 138.457 49.3085C142.872 53.9362 148.404 56.2766 155 56.2766C161.117 56.2766 166.33 54.5213 170.532 50.9575C174.947 47.2872 177.181 42.6064 177.287 36.8617H155.638V28.1383H187.021V33.883C187.074 43.5638 183.617 51.2766 176.702 57.1276ZM230.691 58.4574C226.277 62.7128 220.957 64.8404 214.787 64.8404C208.67 64.8404 203.351 62.7128 198.936 58.4574C194.521 54.2021 192.287 48.7766 192.287 42.2872C192.287 35.7979 194.468 30.4255 198.83 26.2234C203.245 21.9149 208.564 19.7872 214.734 19.7872C220.851 19.7872 226.17 21.9149 230.585 26.2234C235.106 30.4787 237.34 35.8511 237.34 42.2872C237.34 48.8298 235.16 54.2021 230.691 58.4574ZM224.415 32.0213C221.915 29.4149 218.723 28.0851 214.787 28.0851C210.798 28.0851 207.606 29.4149 205.053 32.0213C202.606 34.5745 201.383 37.9787 201.383 42.2872C201.383 46.4894 202.66 49.8936 205.16 52.5532C207.66 55.1596 210.851 56.4894 214.787 56.4894C218.723 56.4894 221.915 55.1596 224.415 52.5532C226.915 49.9468 228.191 46.5425 228.191 42.2872C228.191 38.0851 226.915 34.6809 224.415 32.0213ZM115.585 15.2128C114.681 16.2234 113.404 16.7021 111.755 16.7021C110.213 16.7021 108.936 16.2234 107.926 15.2128C107.021 14.1489 106.543 12.9255 106.543 11.4894C106.543 10.0532 107.021 8.8298 107.926 7.87235C108.883 6.86171 110.16 6.38298 111.755 6.38298C113.298 6.38298 114.574 6.91489 115.479 7.97872C116.436 8.93617 116.968 10.1596 116.968 11.4894C116.968 12.9787 116.543 14.2553 115.585 15.2128ZM107.34 63.9362V20.6383H116.17V63.9362H107.34ZM95.1064 58.2447C91.0106 62.6064 85.7447 64.7872 79.3617 64.7872C72.6064 64.7872 67.0745 62.4468 62.8723 57.766C58.9362 53.3511 56.9681 47.8191 56.9681 41.1702C56.9681 35.1596 58.9894 30.1064 63.0851 25.9575C67.234 21.7553 72.1276 19.6808 77.8723 19.6808C82.3936 19.6808 86.4893 20.6915 90.1596 22.6596L90.4255 22.8191V32.234L89.6808 31.7021C88.2447 30.7447 86.4893 29.8936 84.5213 29.1489C82.6064 28.4043 80.8511 28.0319 79.2553 28.0319C75.1596 28.0319 71.9149 29.3085 69.4681 31.8617C67.0213 34.4149 65.7979 37.8191 65.7979 42.1277C65.7979 46.3298 67.0745 49.7872 69.5745 52.4468C72.1277 55.0532 75.4255 56.383 79.4681 56.383C83.2447 56.383 86.3298 54.9468 88.8298 52.1277C91.3298 49.3085 92.6064 45.1064 92.6064 39.5745V1.01063H101.33V40.9574C101.33 48.0851 99.2553 53.8298 95.1064 58.2447ZM42.8723 63.9362V38.7234C42.8723 35.6383 41.9149 33.1383 40 31.1702C38.1383 29.1489 35.8511 28.1383 33.0319 28.1383C30.3723 28.1383 28.0851 29.1489 26.0638 31.1702C24.1489 33.1383 23.1915 35.6383 23.1915 38.7234V63.9362H14.4681V38.7234C14.4681 33.1383 16.2234 28.5638 19.6808 25.0532C23.1915 21.4894 27.6596 19.734 33.0319 19.734C38.4043 19.734 42.8191 21.4894 46.383 25.0532C49.9468 28.617 51.7021 33.1915 51.7021 38.7234V63.9362H42.8723ZM0 63.9362V1.06383H9.25532V63.9362H0Z" fill="#242424"/>
</svg>
