<svg width="20" height="19" viewBox="0 0 20 19" fill="none" xmlns="http://www.w3.org/2000/svg">
<path fillRule="evenodd" clipRule="evenodd" d="M6.19986 0.173677C7.1694 0.129442 7.47844 0.119141 9.94714 0.119141C12.4165 0.119141 12.7249 0.130048 13.6938 0.173677C14.6616 0.217913 15.3233 0.372434 15.9014 0.596035C16.5076 0.824398 17.0569 1.18214 17.5108 1.64436C17.9732 2.09842 18.3309 2.64787 18.5591 3.2544C18.7839 3.8325 18.9378 4.4936 18.9821 5.46133C19.0263 6.43087 19.0366 6.73992 19.0366 9.20862C19.0366 11.6773 19.0263 11.9864 18.9821 12.9559C18.9378 13.9236 18.7839 14.5847 18.5597 15.1628C18.3314 15.7691 17.9736 16.3183 17.5114 16.7723C17.0569 17.2352 16.5073 17.5928 15.9014 17.8206C15.3233 18.0454 14.6622 18.1993 13.6944 18.2436C12.7249 18.2878 12.4158 18.2981 9.94714 18.2981C7.47844 18.2981 7.1694 18.2878 6.19986 18.2436C5.23213 18.1993 4.57102 18.0454 3.99293 17.8212C3.38667 17.5928 2.83745 17.2351 2.38349 16.7729C1.92053 16.3184 1.56301 15.7688 1.33517 15.1628C1.11035 14.5847 0.956438 13.9236 0.912203 12.9559C0.867967 11.9864 0.857666 11.6779 0.857666 9.20862C0.857666 6.73931 0.868573 6.43087 0.912203 5.46194C0.956438 4.49421 1.11096 3.8325 1.33456 3.2544C1.56292 2.64813 1.92066 2.09891 2.38288 1.64496C2.83735 1.182 3.38696 0.824484 3.99293 0.596641C4.57102 0.371828 5.23213 0.217913 6.19986 0.173677ZM13.6205 1.80978C12.6619 1.76615 12.374 1.75706 9.94714 1.75706C7.52025 1.75706 7.23242 1.76615 6.27378 1.80978C5.38786 1.85038 4.90673 1.99824 4.58617 2.12307C4.19133 2.26848 3.83413 2.50061 3.54088 2.80235C3.22335 3.12049 3.02581 3.42347 2.86159 3.84764C2.73616 4.1682 2.58891 4.64934 2.54831 5.53526C2.50468 6.49389 2.49559 6.78173 2.49559 9.20862C2.49559 11.6355 2.50468 11.9233 2.54831 12.882C2.58891 13.7679 2.73676 14.249 2.86159 14.5696C3.0071 14.9644 3.23922 15.3216 3.54088 15.6149C3.83417 15.9166 4.19136 16.1487 4.58617 16.2942C4.90673 16.4196 5.38786 16.5669 6.27378 16.6075C7.23242 16.6511 7.51965 16.6602 9.94714 16.6602C12.3746 16.6602 12.6619 16.6511 13.6205 16.6075C14.5064 16.5669 14.9876 16.419 15.3081 16.2942C15.703 16.1488 16.0602 15.9166 16.3534 15.6149C16.6551 15.3216 16.8872 14.9644 17.0327 14.5696C17.1581 14.249 17.3054 13.7679 17.346 12.882C17.3896 11.9233 17.3987 11.6355 17.3987 9.20862C17.3987 6.78173 17.3896 6.49389 17.346 5.53526C17.3054 4.64934 17.1575 4.1682 17.0327 3.84764C16.8685 3.42347 16.6715 3.12049 16.3534 2.80235C16.0353 2.48483 15.7323 2.28728 15.3081 2.12307C14.9876 1.99763 14.5064 1.85038 13.6205 1.80978ZM8.78645 12.0107C9.15441 12.1631 9.54879 12.2415 9.94707 12.2415C10.7514 12.2415 11.5229 11.922 12.0916 11.3532C12.6604 10.7845 12.9799 10.0131 12.9799 9.20869C12.9799 8.40433 12.6604 7.63291 12.0916 7.06414C11.5229 6.49537 10.7514 6.17584 9.94707 6.17584C9.54879 6.17584 9.15441 6.25428 8.78645 6.4067C8.41848 6.55911 8.08414 6.78251 7.80252 7.06414C7.52089 7.34577 7.29749 7.68011 7.14508 8.04807C6.99266 8.41603 6.91422 8.81041 6.91422 9.20869C6.91422 9.60697 6.99266 10.0014 7.14508 10.3693C7.29749 10.7373 7.52089 11.0716 7.80252 11.3532C8.08414 11.6349 8.41848 11.8583 8.78645 12.0107ZM6.64347 5.9051C7.51964 5.02893 8.70798 4.5367 9.94707 4.5367C11.1862 4.5367 12.3745 5.02893 13.2507 5.9051C14.1268 6.78126 14.6191 7.9696 14.6191 9.20869C14.6191 10.4478 14.1268 11.6361 13.2507 12.5123C12.3745 13.3885 11.1862 13.8807 9.94707 13.8807C8.70798 13.8807 7.51964 13.3885 6.64347 12.5123C5.76731 11.6361 5.27508 10.4478 5.27508 9.20869C5.27508 7.9696 5.76731 6.78126 6.64347 5.9051ZM15.6548 5.23277C15.8619 5.02566 15.9782 4.74476 15.9782 4.45187C15.9782 4.15897 15.8619 3.87807 15.6548 3.67096C15.4477 3.46385 15.1668 3.34749 14.8739 3.34749C14.581 3.34749 14.3001 3.46385 14.093 3.67096C13.8859 3.87807 13.7695 4.15897 13.7695 4.45187C13.7695 4.74476 13.8859 5.02566 14.093 5.23277C14.3001 5.43988 14.581 5.55624 14.8739 5.55624C15.1668 5.55624 15.4477 5.43988 15.6548 5.23277Z" fill="white"/>
</svg>
