<svg width="20" height="19" viewBox="0 0 20 19" fill="none" xmlns="http://www.w3.org/2000/svg">
<path d="M4.09336 2.07218C4.09309 2.6101 3.87913 3.12587 3.49855 3.50604C3.11797 3.88621 2.60193 4.09964 2.06398 4.09937C1.52602 4.0991 1.0102 3.88516 0.63 3.50461C0.249797 3.12405 0.0363524 2.60807 0.0366213 2.07016C0.0368903 1.53224 0.250851 1.01647 0.631434 0.636298C1.01202 0.256127 1.52805 0.0427 2.06601 0.042969C2.60396 0.043238 3.11978 0.257181 3.49998 0.637732C3.88019 1.01828 4.09363 1.53427 4.09336 2.07218ZM4.15421 5.60125H0.0974724V18.2978H4.15421V5.60125ZM10.5639 5.60125H6.52741V18.2978H10.5233V11.6351C10.5233 7.92354 15.361 7.57875 15.361 11.6351V18.2978H19.367V10.256C19.367 3.99897 12.2068 4.23222 10.5233 7.30494L10.5639 5.60125Z" fill="white"/>
</svg>
