<svg width="97" height="31" viewBox="0 0 97 31" fill="none" xmlns="http://www.w3.org/2000/svg">
<path d="M90.668 22.2871C90.668 21.7793 90.5898 21.3236 90.4336 20.9199C90.2904 20.5033 90.0169 20.1257 89.6133 19.7871C89.2096 19.4355 88.6432 19.0905 87.9141 18.752C87.1849 18.4134 86.2409 18.0618 85.082 17.6973C83.793 17.2806 82.569 16.8118 81.4102 16.291C80.2643 15.7702 79.2487 15.1647 78.3633 14.4746C77.4909 13.7715 76.8008 12.9577 76.293 12.0332C75.7982 11.1087 75.5508 10.0345 75.5508 8.81055C75.5508 7.62565 75.8112 6.55143 76.332 5.58789C76.8529 4.61133 77.582 3.77799 78.5195 3.08789C79.457 2.38477 80.5638 1.8444 81.8398 1.4668C83.1289 1.08919 84.5417 0.900391 86.0781 0.900391C88.1745 0.900391 90.0039 1.27799 91.5664 2.0332C93.1289 2.78841 94.3398 3.82357 95.1992 5.13867C96.0716 6.45378 96.5078 7.95768 96.5078 9.65039H90.6875C90.6875 8.81706 90.5117 8.08789 90.1602 7.46289C89.8216 6.82487 89.3008 6.32357 88.5977 5.95898C87.9076 5.5944 87.0352 5.41211 85.9805 5.41211C84.9648 5.41211 84.1185 5.56836 83.4414 5.88086C82.7643 6.18034 82.2565 6.59049 81.918 7.11133C81.5794 7.61914 81.4102 8.19206 81.4102 8.83008C81.4102 9.31185 81.5273 9.74805 81.7617 10.1387C82.0091 10.5293 82.3737 10.8939 82.8555 11.2324C83.3372 11.571 83.9297 11.89 84.6328 12.1895C85.3359 12.4889 86.1497 12.7819 87.0742 13.0684C88.6237 13.5371 89.9844 14.0645 91.1562 14.6504C92.3411 15.2363 93.3307 15.8939 94.125 16.623C94.9193 17.3522 95.5182 18.179 95.9219 19.1035C96.3255 20.028 96.5273 21.0762 96.5273 22.248C96.5273 23.485 96.2865 24.5918 95.8047 25.5684C95.3229 26.5449 94.6263 27.3717 93.7148 28.0488C92.8034 28.7259 91.7161 29.2402 90.4531 29.5918C89.1901 29.9434 87.7773 30.1191 86.2148 30.1191C84.8086 30.1191 83.4219 29.9368 82.0547 29.5723C80.6875 29.1947 79.444 28.6283 78.3242 27.873C77.2174 27.1178 76.332 26.1543 75.668 24.9824C75.0039 23.8105 74.6719 22.4238 74.6719 20.8223H80.5508C80.5508 21.7077 80.6875 22.4564 80.9609 23.0684C81.2344 23.6803 81.6185 24.1751 82.1133 24.5527C82.6211 24.9303 83.2201 25.2038 83.9102 25.373C84.6133 25.5423 85.3815 25.627 86.2148 25.627C87.2305 25.627 88.0638 25.4837 88.7148 25.1973C89.3789 24.9108 89.8672 24.5137 90.1797 24.0059C90.5052 23.498 90.668 22.9251 90.668 22.2871Z" fill="black"/>
<path d="M59.7656 1.29102V29.7285H53.9062V1.29102H59.7656ZM71.0938 13.4395V18.0098H58.1641V13.4395H71.0938ZM72.4609 1.29102V5.88086H58.1641V1.29102H72.4609Z" fill="black"/>
<path d="M38.5898 6.1543L30.8555 29.7285H24.625L35.1914 1.29102H39.1562L38.5898 6.1543ZM45.0156 29.7285L37.2617 6.1543L36.6367 1.29102H40.6406L51.2656 29.7285H45.0156ZM44.6641 19.1426V23.7324H29.6445V19.1426H44.6641Z" fill="black"/>
<path d="M17.3438 20.2949H23.1836C23.0664 22.209 22.5391 23.9082 21.6016 25.3926C20.6771 26.877 19.3815 28.0358 17.7148 28.8691C16.0612 29.7025 14.069 30.1191 11.7383 30.1191C9.91536 30.1191 8.28125 29.8066 6.83594 29.1816C5.39062 28.5436 4.15365 27.6322 3.125 26.4473C2.10938 25.2624 1.33464 23.8301 0.800781 22.1504C0.266927 20.4707 0 18.5892 0 16.5059V14.5332C0 12.4499 0.273438 10.5684 0.820312 8.88867C1.38021 7.19596 2.17448 5.75716 3.20312 4.57227C4.24479 3.38737 5.48828 2.47591 6.93359 1.83789C8.37891 1.19987 9.99349 0.880859 11.7773 0.880859C14.1471 0.880859 16.1458 1.31055 17.7734 2.16992C19.4141 3.0293 20.6836 4.21419 21.582 5.72461C22.4935 7.23503 23.0404 8.95378 23.2227 10.8809H17.3633C17.2982 9.73503 17.0703 8.76497 16.6797 7.9707C16.2891 7.16341 15.6966 6.55794 14.9023 6.1543C14.1211 5.73763 13.0794 5.5293 11.7773 5.5293C10.8008 5.5293 9.94792 5.71159 9.21875 6.07617C8.48958 6.44076 7.8776 6.99414 7.38281 7.73633C6.88802 8.47852 6.51693 9.41602 6.26953 10.5488C6.03516 11.6686 5.91797 12.9837 5.91797 14.4941V16.5059C5.91797 17.9772 6.02865 19.2728 6.25 20.3926C6.47135 21.4993 6.8099 22.4368 7.26562 23.2051C7.73438 23.9603 8.33333 24.5332 9.0625 24.9238C9.80469 25.3014 10.6966 25.4902 11.7383 25.4902C12.9622 25.4902 13.9714 25.2949 14.7656 24.9043C15.5599 24.5137 16.1654 23.9342 16.582 23.166C17.0117 22.3978 17.2656 21.4408 17.3438 20.2949Z" fill="black"/>
</svg>
