<svg width="436" height="84" viewBox="0 0 436 84" fill="none" xmlns="http://www.w3.org/2000/svg">
<g clip-path="url(#clip0_4681_7710)">
<path d="M221.147 62.6529L234.032 62.6635L252.995 10.8105L240.097 10.8244L221.147 62.6529ZM279.506 21.7228H257.564L254.404 30.3657H272.599C274.357 30.3657 274.622 31.4208 274.32 32.2418L274.059 32.9534C273.616 34.1473 272.024 34.9119 271.068 34.9152H260.503C254.212 34.9152 247.457 39.1236 245.379 44.809L242.352 53.0079C240.624 57.7296 243.422 62.6529 250.359 62.6635H263.201L280.042 51.6884L287.438 31.5041C289.363 26.2038 285.858 21.7367 279.506 21.7228ZM266.326 53.9211H257.19C256.23 53.9211 255.05 53.4943 255.602 51.9756L257.945 45.5631C258.399 44.3251 259.689 43.5686 261.035 43.558H267.641C270.052 43.5686 270.856 41.5342 270.873 41.4869L266.326 53.9211ZM311.776 53.9211L323.547 21.7367H336.445L320.579 65.1304C318.145 71.7943 310.778 75.9326 303.799 75.9432H282.526L285.69 67.2995H304.318C305.81 67.2995 307.249 66.3096 307.611 65.3173L308.582 62.6529L292.448 62.6782C286.644 62.6782 281.953 58.3906 284.089 52.4587C284.089 52.4587 284.629 49.7617 288.613 45.395L295.406 37.2711C298.181 33.9196 299.764 28.9457 300.915 25.799L302.348 21.7326L315.299 21.7359L312.644 28.9955C311.811 31.278 310.146 36.1523 306.444 40.7255L298.306 50.5712C296.994 52.1201 296.781 53.9203 299.587 53.9203L311.776 53.9211Z" fill="#1D5B99"/>
<path d="M364.129 62.6521H353.616L367.392 53.7188L364.129 62.6521Z" fill="#B81F25"/>
<path d="M383.744 21.7346L368.785 62.6508H381.712L396.646 21.7346H383.744ZM384.855 18.6899H397.757L400.635 10.8223H387.735L384.855 18.6899ZM349.636 32.9349C349.153 34.2749 349.925 34.9334 351.267 34.9334H362.913C369.306 34.9334 372.529 39.6551 370.841 44.2748L368.139 51.6862L351.226 62.6524H325.9L329.124 53.9132H352.132C353.849 53.9198 354.809 52.8581 355.154 51.8649L357.509 45.4132C357.631 45.046 357.858 43.5657 355.934 43.5657H344.886C336.525 43.5657 334.866 38.1291 336.591 33.4107L337.203 31.7369C339.413 25.6949 346.236 21.7346 352.929 21.7346H375.139L371.985 30.3643H352.878C351.76 30.3643 350.345 30.9829 349.894 32.2201L349.636 32.9349Z" fill="#1D5B99"/>
<path d="M265.608 62.6563H276.045L279.29 53.785L265.608 62.6563ZM163.239 62.6147L173.744 62.6033L177.011 53.6699L163.239 62.6147Z" fill="#B81F25"/>
<path d="M177.752 51.6374L185.256 31.2785C186.906 26.7616 184.207 21.7363 177.4 21.7363H131.828L116.885 62.6036L129.791 62.615L141.601 30.3163H150.697L138.893 62.615L151.794 62.6036L163.605 30.3163H170.299C171.367 30.3163 172.492 30.8264 171.936 32.2487L160.832 62.6142L177.752 51.6374Z" fill="#1D5B99"/>
<path d="M427.578 21.7344H405.241L402.087 30.3642H420.423C422.179 30.3642 422.354 31.3369 422.053 32.1603L421.793 32.8719C421.356 34.0992 419.861 34.9333 418.663 34.9333H408.062C401.794 34.9333 395.121 39.3016 393.112 44.7275L390.166 52.8016C388.438 57.5233 391.066 62.6506 398.079 62.6506H423.848L435.432 30.9729C437.041 26.5581 433.852 21.7344 427.578 21.7344ZM414.088 53.9392H404.959C403.856 53.9506 402.829 53.492 403.361 52.0443L405.714 45.5958C406.227 44.1996 407.415 43.5687 408.758 43.5687H415.326C417.768 43.5687 418.581 41.6478 418.602 41.6029L414.088 53.9392ZM218.996 21.7344H197.047L193.895 30.3642H212.226C213.978 30.3642 214.156 31.3369 213.854 32.1603L213.595 32.8719C213.059 34.3775 211.419 34.9333 210.793 34.9333H199.862C193.89 34.9333 186.902 39.3546 184.91 44.7275L181.959 52.8016C180.235 57.5233 182.623 62.6506 189.88 62.6506H215.649L227.23 30.9729C228.866 26.505 225.535 21.7344 218.996 21.7344ZM205.896 53.9392H196.764C195.897 53.9392 194.636 53.4773 195.162 52.0443L197.522 45.5958C198.034 44.1996 199.189 43.5687 200.563 43.5687H207.132C209.573 43.5687 210.388 41.6478 210.407 41.6029L205.896 53.9392Z" fill="#1D5B99"/>
<path d="M330.562 65.891H325.506L316.407 75.9758H321.561L322.613 74.6269H327.207L327.291 75.9758H332.333L330.562 65.891ZM324.298 72.4088L326.856 69.1201L327.064 72.4088H324.298ZM333.232 75.9456L336.894 65.8649H341.865L338.202 75.9456H333.232ZM365.234 65.8649L362.416 73.5048H368.862L367.948 75.9456H356.602L360.265 65.8649H365.234ZM377.48 65.8649L373.818 75.9456H368.848L372.507 65.8649H377.48ZM381.249 75.9456L382.487 72.4994L382.806 70.9203V70.891L385.783 75.9456H385.753H390.726L394.389 65.9212H389.363L388.122 69.369L387.805 70.9456L384.843 65.9049H379.866L376.261 75.9456H381.234M400.907 68.3065H408.24L409.093 65.9212H396.804L393.154 75.9456H405.599L406.483 73.5309H398.999L399.63 71.9021H405.656L406.509 69.5151H400.445L400.921 68.3065M417.65 68.8418H422.312C422.312 68.8418 423.269 65.3018 415.291 65.6968C415.291 65.6968 408.832 66.3047 409.448 69.9639C409.448 69.9639 409.686 71.8172 415.443 72.4088C415.443 72.4088 417.445 72.8715 415.516 73.8247C415.516 73.8247 412.508 74.6562 412.508 72.7165H407.819C407.819 72.7165 407.032 76.1447 413.296 76.1447C413.296 76.1447 420.655 76.5209 421.58 72.4358C421.58 72.4358 422.201 70.1067 417.143 69.5143C417.143 69.5143 414.446 69.3454 414.558 68.5048C414.558 68.5048 414.753 67.5231 417 67.9695C417.002 67.9695 417.62 68.1931 417.65 68.8418ZM352.528 65.8649H344.253L340.591 75.9464H345.561L346.855 72.3542H348.483C350.733 72.3542 350.226 73.757 350.226 73.757C349.552 75.2463 349.777 75.9489 349.777 75.9489H355C354.638 75.354 355.282 73.1392 355.282 73.1392C355.676 71.5683 353.707 71.006 353.707 71.006C356.277 70.9922 356.853 68.8157 356.853 68.8157C357.528 65.6095 352.528 65.8649 352.528 65.8649ZM351.642 69.684C351.642 69.684 351.179 70.1769 350.096 70.1769L347.617 70.194L348.299 68.3498H350.615C350.615 68.3498 352.747 68.482 351.642 69.684Z" fill="black"/>
<path d="M112.39 41.9428H0.625977L1.09602 40.6461L3.93916 40.4625C14.6327 39.7215 20.3443 30.4691 20.3443 30.4691C27.4367 19.1202 45.5009 1.04945 71.6652 0H108.486L110.07 2.22049H77.9954C74.1909 2.28169 69.8136 5.03996 68.1921 9.49888L59.413 33.6149C57.3116 40.8362 64.1999 40.4633 64.1999 40.4633C71.3502 39.8741 73.5732 33.4289 73.5732 33.4289L77.5914 22.3901C79.0538 18.6256 82.8525 16.8409 85.2183 16.7805L115.358 16.7944C115.414 17.0213 115.49 17.6676 115.638 18.9814C115.638 18.9814 102.528 18.8696 98.418 18.9643C94.5009 19.059 91.843 21.96 90.8686 24.5494C90.8686 24.5494 89.2406 29.1128 87.1074 34.8815C85.0493 40.4633 91.4407 40.5237 90.6589 40.4633H112.928" fill="#B81F25"/>
<path d="M112.388 41.9422H0.625161L0.154297 43.2381L2.85789 43.4209C13.0137 44.1627 11.9879 53.4143 11.9879 53.4143C10.8185 64.7657 15.7312 82.8356 41.1276 83.8858H77.9521L81.1478 81.6645H49.0784C45.3181 81.6033 42.9499 78.8451 44.5746 74.382L53.3489 50.2684C56.5013 43.0512 63.1195 43.4193 63.1195 43.4193C69.8454 44.0093 67.3752 50.4578 67.3752 50.4578L63.361 61.4933C62.0815 65.2537 64.5753 67.0416 66.8986 67.1069L97.0494 67.0898C97.2706 66.8637 97.8214 66.2166 98.9296 64.8995C98.9296 64.8995 85.7299 65.0146 81.6986 64.9166C77.846 64.8252 77.3009 61.9274 78.2043 59.334C78.2043 59.334 79.9008 54.7706 81.9687 49.0027C83.9697 43.4193 90.4043 43.3589 89.585 43.4193L111.85 43.4209" fill="#1D5B99"/>
</g>
<defs>
<clipPath id="clip0_4681_7710">
<rect width="436" height="83.8864" fill="white"/>
</clipPath>
</defs>
</svg>
