<svg width="1200" height="630" viewBox="0 0 1200 630" fill="none" xmlns="http://www.w3.org/2000/svg">
<rect width="1200" height="630" fill="white"/>
<path d="M857.519 356.219C857.519 353.135 857.044 350.367 856.095 347.916C855.226 345.385 853.565 343.092 851.113 341.036C848.662 338.901 845.222 336.805 840.794 334.749C836.365 332.693 830.632 330.558 823.594 328.344C815.765 325.814 808.332 322.967 801.294 319.804C794.335 316.64 788.167 312.963 782.79 308.772C777.492 304.502 773.3 299.56 770.216 293.945C767.211 288.33 765.709 281.806 765.709 274.373C765.709 267.177 767.29 260.653 770.454 254.801C773.617 248.87 778.045 243.809 783.739 239.618C789.432 235.348 796.154 232.066 803.904 229.773C811.732 227.48 820.312 226.333 829.644 226.333C842.375 226.333 853.486 228.626 862.975 233.213C872.465 237.799 879.819 244.086 885.038 252.073C890.336 260.06 892.985 269.193 892.985 279.474H857.637C857.637 274.413 856.57 269.984 854.435 266.188C852.379 262.314 849.216 259.269 844.945 257.055C840.754 254.841 835.456 253.734 829.051 253.734C822.882 253.734 817.742 254.683 813.63 256.58C809.518 258.399 806.434 260.89 804.378 264.053C802.322 267.137 801.294 270.617 801.294 274.492C801.294 277.418 802.006 280.067 803.429 282.439C804.932 284.811 807.146 287.026 810.072 289.082C812.998 291.138 816.596 293.075 820.866 294.894C825.136 296.713 830.079 298.492 835.693 300.232C845.103 303.078 853.367 306.281 860.484 309.84C867.68 313.398 873.69 317.392 878.514 321.82C883.338 326.248 886.975 331.27 889.427 336.884C891.878 342.499 893.104 348.865 893.104 355.982C893.104 363.494 891.641 370.216 888.715 376.147C885.789 382.078 881.559 387.099 876.023 391.211C870.488 395.323 863.885 398.447 856.214 400.582C848.543 402.717 839.963 403.785 830.474 403.785C821.934 403.785 813.512 402.678 805.208 400.463C796.905 398.17 789.353 394.73 782.553 390.144C775.831 385.557 770.454 379.705 766.421 372.588C762.388 365.471 760.371 357.049 760.371 347.323H796.075C796.075 352.7 796.905 357.247 798.566 360.964C800.227 364.68 802.559 367.685 805.564 369.979C808.648 372.272 812.286 373.933 816.477 374.961C820.747 375.989 825.413 376.503 830.474 376.503C836.642 376.503 841.703 375.633 845.657 373.893C849.69 372.153 852.655 369.742 854.553 366.657C856.53 363.573 857.519 360.094 857.519 356.219Z" fill="#45B5F0"/>
<path d="M669.866 228.706V401.413H634.281V228.706H669.866ZM738.665 302.486V330.243H660.14V302.486H738.665ZM746.968 228.706V256.581H660.14V228.706H746.968Z" fill="#45B5F0"/>
<path d="M541.288 258.242L494.316 401.413H456.477L520.649 228.706H544.728L541.288 258.242ZM580.313 401.413L533.222 258.242L529.426 228.706H553.743L618.271 401.413H580.313ZM578.178 337.122V364.997H486.961V337.122H578.178Z" fill="#45B5F0"/>
<path d="M412.231 344.121H447.697C446.986 355.745 443.783 366.065 438.089 375.08C432.475 384.095 424.606 391.133 414.484 396.194C404.442 401.255 392.343 403.785 378.188 403.785C367.117 403.785 357.192 401.887 348.415 398.092C339.637 394.217 332.124 388.681 325.877 381.485C319.709 374.289 315.004 365.59 311.762 355.389C308.52 345.188 306.898 333.761 306.898 321.109V309.128C306.898 296.476 308.559 285.049 311.88 274.848C315.281 264.568 320.105 255.83 326.352 248.634C332.678 241.437 340.23 235.902 349.008 232.027C357.785 228.152 367.591 226.215 378.425 226.215C392.817 226.215 404.956 228.824 414.84 234.044C424.804 239.263 432.514 246.459 437.971 255.632C443.506 264.805 446.827 275.243 447.935 286.947H412.349C411.954 279.988 410.57 274.097 408.198 269.273C405.825 264.37 402.227 260.693 397.404 258.242C392.659 255.711 386.333 254.446 378.425 254.446C372.494 254.446 367.314 255.553 362.886 257.767C358.457 259.981 354.741 263.342 351.736 267.85C348.731 272.357 346.477 278.051 344.975 284.93C343.551 291.731 342.84 299.718 342.84 308.891V321.109C342.84 330.045 343.512 337.913 344.856 344.714C346.2 351.435 348.256 357.129 351.024 361.795C353.871 366.381 357.509 369.861 361.937 372.233C366.444 374.526 371.861 375.673 378.188 375.673C385.621 375.673 391.749 374.487 396.573 372.114C401.397 369.742 405.074 366.223 407.605 361.557C410.214 356.892 411.756 351.079 412.231 344.121Z" fill="#45B5F0"/>
</svg>
