<svg width="292" height="73" viewBox="0 0 292 73" fill="none" xmlns="http://www.w3.org/2000/svg">
<path d="M210.155 25.1508C210.155 43.7818 228.92 46.2766 228.92 72.2324C228.92 72.2324 247.695 72.8385 247.695 59.7681C247.695 46.2766 208.464 23.3898 216.529 9.31445C210.369 15.6216 210.155 25.1508 210.155 25.1508Z" fill="#515151"/>
<path d="M217.483 8.28723C209.115 23.0836 248.614 46.5701 248.614 59.0312C248.614 63.3125 248.173 66.2794 245.06 68.1266C245.06 68.1266 260.019 61.2803 262.121 52.0669V47.4538C259.24 32.6894 231.843 21.2779 231.565 9.75476C231.405 3.29769 237.681 1.51437 237.681 1.51437C236.779 1.45297 235.876 1.42213 234.972 1.42188C221.835 1.41867 217.483 8.28723 217.483 8.28723Z" fill="#515151"/>
<path d="M271.015 5.64899C261.192 5.64899 243.152 1.79197 239.77 1.83027C233.019 1.91636 229.395 10.1504 235.147 16.4256C235.147 16.4256 238.038 13.1939 240.804 12.2495C244.645 10.9288 249.098 11.2542 254.64 11.5796C260.417 11.9147 267.388 12.2559 276.084 10.7278C286.686 8.86794 290.249 4.73336 291.988 0.65625C287.735 4.17832 280.841 5.64899 271.015 5.64899Z" fill="#242424"/>
<path d="M276.477 11.4448C267.777 12.9729 260.813 12.6347 255.032 12.2966C249.488 11.9712 245.034 11.649 241.193 12.9697C238.424 13.9108 235.623 16.9224 235.623 16.9224C235.623 16.9224 242.635 24.2536 246.837 27.1312C249.542 18.4378 266.667 21.8609 273.667 19.3597C282.488 16.211 286.192 10.912 287.592 7.40274L287.551 7.38672C285.123 9.09991 281.633 10.5387 276.477 11.4448Z" fill="#242424"/>
<path d="M274.129 19.9408C266.591 22.3559 256.165 20.5151 250.464 23.8553C248.087 25.243 247.414 27.6548 247.414 27.6548C247.414 27.6548 252.77 31.968 257.722 37.6148C257.722 36.2876 258.178 34.1597 259.904 32.4338C262.966 29.3712 279.655 27.2465 282.768 14.9258C280.401 17.6343 275.459 19.5133 274.129 19.9408Z" fill="#242424"/>
<path d="M190.472 36.2662L197.928 16.6253H193.435L185.969 36.2662H190.472ZM123.959 36.2662L131.425 16.6253H126.932L119.465 36.2662H123.959ZM91.3064 36.2662L98.7725 16.6253H94.2743L86.813 36.2662H91.3064ZM186.108 16.6259L180.343 31.9444H176.793L177.409 30.2968C178.118 28.4094 177.17 26.8789 175.273 26.8789H162.77C161.998 26.8789 161.196 27.1332 160.463 27.5635L164.57 16.6259H160.086L154.326 31.9444H151.383L153.368 26.6736H148.875L146.895 31.9444H135.874L137.248 28.2872H132.089L128.941 36.6675L124.682 36.6628C124.315 37.9194 124.457 38.9852 125.083 39.8359C125.719 40.6867 126.96 41.0046 128.261 41.0046C129.508 41.0046 130.72 40.7454 131.908 39.8849C133.092 39.0292 133.625 37.9192 134.104 36.6675L134.255 36.2665H183.272V36.1346L190.596 16.6259H186.108ZM172.202 32.2085H158.698C159.02 31.3577 159.465 30.6632 160.311 30.6632H171.239C172.09 30.6632 172.525 31.3577 172.202 32.2085ZM106.717 32.3893C104.262 32.9516 102.654 35.2595 102.204 36.6628C101.837 37.9194 101.979 38.9852 102.61 39.8359C103.24 40.6867 105.382 41.4886 106.673 41.4886C107.929 41.4886 111.039 41.4886 113.655 39.8849C114.897 39.1221 116.085 37.9192 116.545 36.6675L116.701 36.2665L118.329 31.9444L119.703 28.2872H114.54L111.543 36.2665H105.265L106.717 32.3893ZM91.5372 16.6259H87.0438L81.2156 31.9444H70.6056L70.7963 31.4505C71.0799 30.6828 71.9355 30.0619 72.6982 30.0619H78.0424L79.6901 25.7252C78.7807 25.7252 78.7318 26.2042 77.7881 26.2042H69.8477C68.9041 26.2042 67.628 26.9718 67.2759 27.9105L65.7553 31.9444H60.2205C60.2254 29.9202 58.7586 28.4779 56.3676 28.4779C53.9816 28.4779 51.3804 29.9202 49.8012 31.9444H43.4694L49.2927 16.6259H44.7993L37.3332 36.2665H48.3833C48.6473 37.9631 50.0407 39.1269 52.1921 39.1269C54.3336 39.1269 56.6463 37.9631 58.2452 36.2665H84.0759L91.5372 16.6259ZM55.82 33.7096C55.4875 34.5408 54.5243 35.2154 53.6491 35.2154C52.7837 35.2154 52.3388 34.5408 52.6713 33.7096C52.9989 32.8784 53.9621 32.1986 54.8324 32.1986C55.7027 32.1986 56.1427 32.8784 55.82 33.7096ZM33.7307 28.1869L32.0732 32.289H24.7977L24.3919 32.7095L25.2133 30.5143H25.2329L27.4967 24.5688C27.0664 24.6568 25.7511 26.2018 23.8589 26.2018H15.9235C14.9847 26.2018 13.7037 26.9694 13.3467 27.9082L13.2001 28.2895L12.4178 30.3821L11.2834 33.404L10.2078 36.2641H3.92485L5.38192 32.3869C2.91766 32.9492 1.31391 35.2568 0.868976 36.6601C0.502271 37.9216 0.634288 38.9828 1.26991 39.8335C1.90064 40.6843 4.0471 41.4859 5.33301 41.4859C6.58959 41.4859 9.69926 41.4861 12.32 39.8873C13.557 39.1245 14.7451 37.9169 15.2145 36.6652L15.3661 36.2641L16.9894 31.942L17.5272 30.5143H20.7249L18.554 36.2641H23.0571L23.1011 36.1369H33.5938C33.9165 36.1369 34.2392 36.0343 34.5765 35.829C34.9041 35.6236 35.1388 35.3646 35.2562 35.0468L37.8329 28.1869H33.7307ZM34.5839 24.5604C34.4177 25.729 35.2195 26.6727 36.388 26.6727C37.5566 26.6727 38.6372 25.729 38.8083 24.5604C38.9795 23.4016 38.1727 22.4482 37.009 22.4482C35.8404 22.4482 34.7599 23.4016 34.5839 24.5604ZM6.03562 44.1488C5.87916 45.1951 6.59792 46.0312 7.63936 46.0312C8.67591 46.0312 9.63421 45.1951 9.79556 44.1488C9.94224 43.1171 9.22841 42.2714 8.19186 42.2714C7.15041 42.2714 6.18719 43.1171 6.03562 44.1488ZM1.11249 44.1488C0.96092 45.1951 1.67475 46.0312 2.71131 46.0312C3.75275 46.0312 4.71597 45.1951 4.87243 44.1488C5.024 43.1171 4.30036 42.2714 3.2638 42.2714C2.22725 42.2714 1.26895 43.1171 1.11249 44.1488Z" fill="#242424"/>
<path d="M144.663 39.93C144.506 40.9666 145.225 41.8125 146.262 41.8125C147.303 41.8125 148.271 40.9666 148.418 39.93C148.574 38.8935 147.856 38.0523 146.819 38.0523C145.782 38.0523 144.814 38.8935 144.663 39.93ZM139.734 39.93C139.588 40.9666 140.311 41.8125 141.343 41.8125C142.384 41.8125 143.343 40.9666 143.499 39.93C143.651 38.8935 142.932 38.0523 141.895 38.0523C140.854 38.0523 139.896 38.8935 139.734 39.93ZM108.077 27.5666C107.906 28.7351 108.713 29.6788 109.877 29.6788C111.04 29.6788 112.126 28.7351 112.302 27.5666C112.468 26.4078 111.661 25.4594 110.502 25.4594C109.334 25.4594 108.253 26.4078 108.077 27.5666ZM70.2642 20.4419C69.0956 20.4419 68.015 21.3854 67.8439 22.5491C67.8205 22.7077 67.814 22.8684 67.8243 23.0284C67.8243 23.3804 65.4334 23.5026 65.4334 23.5026L64.832 25.2138C64.832 25.2138 67.8048 24.9351 69.829 24.6515C69.917 24.6418 70.005 24.632 70.0881 24.6124H70.0979C71.0807 24.4071 71.9168 23.5612 72.0586 22.5491C72.2346 21.3854 71.4279 20.4419 70.2642 20.4419ZM70.5966 22.5736C70.5429 22.9745 70.1663 23.2973 69.7703 23.2973C69.3743 23.2973 69.0956 22.9745 69.1543 22.5736C69.213 22.1824 69.5894 21.8547 69.9855 21.8547C70.3815 21.8547 70.6553 22.1824 70.5966 22.5736Z" fill="#242424"/>
<path d="M1.11808 64.7208L2.93621 58.9295C4.91501 52.6151 10.3954 51.4082 17.5853 51.4082C24.7751 51.4082 29.5044 52.6151 27.5205 58.9295L25.7023 64.7208C23.7235 71.0352 18.2483 72.2369 11.0481 72.2369C3.86342 72.2369 -0.855479 71.0352 1.11808 64.7208ZM18.5901 64.1199L20.0457 59.4994C20.9937 56.4639 19.7816 56.1686 16.0986 56.1686C12.4105 56.1686 11.1154 56.4639 10.0536 59.4994L8.60314 64.1199C7.74848 67.1813 8.85695 67.4869 12.5452 67.4869C16.2281 67.4869 17.6318 67.1813 18.5901 64.1199ZM33.81 72.0774H26.7238L33.1573 51.575H44.3875L45.4132 64.4472H45.6618L54.5196 51.575H66.0244L59.596 72.0774H52.5149L58.1507 56.3561H57.9072L46.242 72.0774H40.1141L38.2441 56.3561H38.0317L33.81 72.0774ZM71.4784 68.5498L69.0645 72.0774H61.6933L76.1041 51.575H86.863L88.5102 72.0774H81.2841L81.0095 68.5498H71.4784ZM80.3361 55.6723H80.2688L74.2548 64.556H80.8438L80.3361 55.6723ZM97.4446 72.0774H90.3636L96.7971 51.575H108.768L111.441 67.317H111.726L116.243 51.575H123.324L116.896 72.0774H104.811L102.241 56.3302H101.962L97.4446 72.0774ZM140.085 68.5498L137.666 72.0774H130.295L144.7 51.575H155.464L157.111 72.0774H149.885L149.606 68.5498H140.085ZM148.937 55.6723H148.865L142.856 64.556H149.445L148.937 55.6723ZM165.962 72.0774H158.876L165.31 51.575H172.396L165.962 72.0774ZM176.612 51.574H190.288C196.39 51.6568 199.078 52.6721 197.472 57.7796C196.405 61.1932 195.778 63.1927 190.464 64.094L190.396 64.3167C193.277 64.3944 194.768 65.6221 194.033 67.9479L192.743 72.0764H185.657L186.558 69.2066C187.107 67.6786 186.584 66.6374 184.46 66.6374H178.969L177.265 72.0764H170.174L176.612 51.574ZM185.952 61.877C188.998 61.877 189.174 61.0067 189.894 58.6809C190.469 56.8472 190.034 56.3292 187.698 56.3292H182.202L180.461 61.877H185.952Z" fill="#515151"/>
</svg>
