<svg width="309" height="92" viewBox="0 0 309 92" fill="none" xmlns="http://www.w3.org/2000/svg">
<mask id="mask0_4681_7698" style="mask-type:luminance" maskUnits="userSpaceOnUse" x="0" y="0" width="309" height="92">
<path d="M0 91.5234H308.339V0H0V91.5234Z" fill="white"/>
</mask>
<g mask="url(#mask0_4681_7698)">
<path d="M218.155 34.1508C218.155 52.7818 236.92 55.2766 236.92 81.2324C236.92 81.2324 255.695 81.8385 255.695 68.7681C255.695 55.2766 216.464 32.3898 224.529 18.3145C218.369 24.6216 218.155 34.1508 218.155 34.1508Z" fill="#A7A9AC"/>
<path d="M225.483 17.2872C217.115 32.0836 256.614 55.5701 256.614 68.0312C256.614 72.3125 256.173 75.2794 253.06 77.1266C253.06 77.1266 268.019 70.2803 270.121 61.0669V56.4538C267.24 41.6894 239.843 30.2779 239.565 18.7548C239.405 12.2977 245.681 10.5144 245.681 10.5144C244.779 10.453 243.876 10.4221 242.972 10.4219C229.835 10.4187 225.483 17.2872 225.483 17.2872Z" fill="#A7A9AC"/>
<path d="M279.015 14.649C269.192 14.649 251.152 10.792 247.77 10.8303C241.019 10.9164 237.395 19.1504 243.147 25.4256C243.147 25.4256 246.038 22.1939 248.804 21.2495C252.645 19.9288 257.098 20.2542 262.64 20.5796C268.417 20.9147 275.388 21.2559 284.084 19.7278C294.686 17.8679 298.249 13.7334 299.988 9.65625C295.735 13.1783 288.841 14.649 279.015 14.649Z" fill="#B5985A"/>
<path d="M284.477 20.4448C275.777 21.9729 268.813 21.6347 263.032 21.2966C257.488 20.9712 253.034 20.649 249.193 21.9697C246.424 22.9108 243.623 25.9224 243.623 25.9224C243.623 25.9224 250.635 33.2536 254.837 36.1312C257.542 27.4378 274.667 30.8609 281.667 28.3597C290.488 25.211 294.192 19.912 295.592 16.4027L295.551 16.3867C293.123 18.0999 289.633 19.5387 284.477 20.4448Z" fill="#B5985A"/>
<path d="M282.129 28.9408C274.591 31.3559 264.165 29.5151 258.464 32.8553C256.087 34.243 255.414 36.6548 255.414 36.6548C255.414 36.6548 260.77 40.968 265.722 46.6148C265.722 45.2876 266.178 43.1597 267.904 41.4338C270.966 38.3712 287.655 36.2465 290.768 23.9258C288.401 26.6343 283.459 28.5133 282.129 28.9408Z" fill="#B5985A"/>
<path d="M198.472 45.2662L205.928 25.6253H201.435L193.969 45.2662H198.472ZM131.959 45.2662L139.425 25.6253H134.932L127.465 45.2662H131.959ZM99.3064 45.2662L106.773 25.6253H102.274L94.813 45.2662H99.3064ZM194.108 25.6259L188.343 40.9444H184.793L185.409 39.2968C186.118 37.4094 185.17 35.8789 183.273 35.8789H170.77C169.998 35.8789 169.196 36.1332 168.463 36.5635L172.57 25.6259H168.086L162.326 40.9444H159.383L161.368 35.6736H156.875L154.895 40.9444H143.874L145.248 37.2872H140.089L136.941 45.6675L132.682 45.6628C132.315 46.9194 132.457 47.9852 133.083 48.8359C133.719 49.6867 134.96 50.0046 136.261 50.0046C137.508 50.0046 138.72 49.7454 139.908 48.8849C141.092 48.0292 141.625 46.9192 142.104 45.6675L142.255 45.2665H191.272V45.1346L198.596 25.6259H194.108ZM180.202 41.2085H166.698C167.02 40.3577 167.465 39.6632 168.311 39.6632H179.239C180.09 39.6632 180.525 40.3577 180.202 41.2085ZM114.717 41.3893C112.262 41.9516 110.654 44.2595 110.204 45.6628C109.837 46.9194 109.979 47.9852 110.61 48.8359C111.24 49.6867 113.382 50.4886 114.673 50.4886C115.929 50.4886 119.039 50.4886 121.655 48.8849C122.897 48.1221 124.085 46.9192 124.545 45.6675L124.701 45.2665L126.329 40.9444L127.703 37.2872H122.54L119.543 45.2665H113.265L114.717 41.3893ZM99.5372 25.6259H95.0438L89.2156 40.9444H78.6056L78.7963 40.4505C79.0799 39.6828 79.9355 39.0619 80.6982 39.0619H86.0424L87.6901 34.7252C86.7807 34.7252 86.7318 35.2042 85.7881 35.2042H77.8477C76.9041 35.2042 75.628 35.9718 75.2759 36.9105L73.7553 40.9444H68.2205C68.2254 38.9202 66.7586 37.4779 64.3676 37.4779C61.9816 37.4779 59.3804 38.9202 57.8012 40.9444H51.4694L57.2927 25.6259H52.7993L45.3332 45.2665H56.3833C56.6473 46.9631 58.0407 48.1269 60.1921 48.1269C62.3336 48.1269 64.6463 46.9631 66.2452 45.2665H92.0759L99.5372 25.6259ZM63.82 42.7096C63.4875 43.5408 62.5243 44.2154 61.6491 44.2154C60.7837 44.2154 60.3388 43.5408 60.6713 42.7096C60.9989 41.8784 61.9621 41.1986 62.8324 41.1986C63.7027 41.1986 64.1427 41.8784 63.82 42.7096ZM41.7307 37.1869L40.0732 41.289H32.7977L32.3919 41.7095L33.2133 39.5143H33.2329L35.4967 33.5688C35.0664 33.6568 33.7511 35.2018 31.8589 35.2018H23.9235C22.9847 35.2018 21.7037 35.9694 21.3467 36.9082L21.2001 37.2895L20.4178 39.3821L19.2834 42.404L18.2078 45.2641H11.9249L13.3819 41.3869C10.9177 41.9492 9.31391 44.2568 8.86898 45.6601C8.50227 46.9216 8.63429 47.9828 9.26991 48.8335C9.90064 49.6843 12.0471 50.4859 13.333 50.4859C14.5896 50.4859 17.6993 50.4861 20.32 48.8873C21.557 48.1245 22.7451 46.9169 23.2145 45.6652L23.3661 45.2641L24.9894 40.942L25.5272 39.5143H28.7249L26.554 45.2641H31.0571L31.1011 45.1369H41.5938C41.9165 45.1369 42.2392 45.0343 42.5765 44.829C42.9041 44.6236 43.1388 44.3646 43.2562 44.0468L45.8329 37.1869H41.7307ZM42.5839 33.5604C42.4177 34.729 43.2195 35.6727 44.388 35.6727C45.5566 35.6727 46.6372 34.729 46.8083 33.5604C46.9795 32.4016 46.1727 31.4482 45.009 31.4482C43.8404 31.4482 42.7599 32.4016 42.5839 33.5604ZM14.0356 53.1488C13.8792 54.1951 14.5979 55.0312 15.6394 55.0312C16.6759 55.0312 17.6342 54.1951 17.7956 53.1488C17.9422 52.1171 17.2284 51.2714 16.1919 51.2714C15.1504 51.2714 14.1872 52.1171 14.0356 53.1488ZM9.11249 53.1488C8.96092 54.1951 9.67475 55.0312 10.7113 55.0312C11.7528 55.0312 12.716 54.1951 12.8724 53.1488C13.024 52.1171 12.3004 51.2714 11.2638 51.2714C10.2273 51.2714 9.26895 52.1171 9.11249 53.1488Z" fill="#B5985A"/>
<path d="M152.663 48.93C152.506 49.9666 153.225 50.8125 154.262 50.8125C155.303 50.8125 156.271 49.9666 156.418 48.93C156.574 47.8935 155.856 47.0523 154.819 47.0523C153.782 47.0523 152.814 47.8935 152.663 48.93ZM147.734 48.93C147.588 49.9666 148.311 50.8125 149.343 50.8125C150.384 50.8125 151.343 49.9666 151.499 48.93C151.651 47.8935 150.932 47.0523 149.895 47.0523C148.854 47.0523 147.896 47.8935 147.734 48.93ZM116.077 36.5666C115.906 37.7351 116.713 38.6788 117.877 38.6788C119.04 38.6788 120.126 37.7351 120.302 36.5666C120.468 35.4078 119.661 34.4594 118.502 34.4594C117.334 34.4594 116.253 35.4078 116.077 36.5666ZM78.2642 29.4419C77.0956 29.4419 76.015 30.3854 75.8439 31.5491C75.8205 31.7077 75.814 31.8684 75.8243 32.0284C75.8243 32.3804 73.4334 32.5026 73.4334 32.5026L72.832 34.2138C72.832 34.2138 75.8048 33.9351 77.829 33.6515C77.917 33.6418 78.005 33.632 78.0881 33.6124H78.0979C79.0807 33.4071 79.9168 32.5612 80.0586 31.5491C80.2346 30.3854 79.4279 29.4419 78.2642 29.4419ZM78.5966 31.5736C78.5429 31.9745 78.1663 32.2973 77.7703 32.2973C77.3743 32.2973 77.0956 31.9745 77.1543 31.5736C77.213 31.1824 77.5894 30.8547 77.9855 30.8547C78.3815 30.8547 78.6553 31.1824 78.5966 31.5736Z" fill="#B5985A"/>
<path d="M9.11808 73.7208L10.9362 67.9295C12.915 61.6151 18.3954 60.4082 25.5853 60.4082C32.7751 60.4082 37.5044 61.6151 35.5205 67.9295L33.7023 73.7208C31.7235 80.0352 26.2483 81.2369 19.0481 81.2369C11.8634 81.2369 7.14452 80.0352 9.11808 73.7208ZM26.5901 73.1199L28.0457 68.4994C28.9937 65.4639 27.7816 65.1686 24.0986 65.1686C20.4105 65.1686 19.1154 65.4639 18.0536 68.4994L16.6031 73.1199C15.7485 76.1813 16.857 76.4869 20.5452 76.4869C24.2281 76.4869 25.6318 76.1813 26.5901 73.1199ZM41.81 81.0774H34.7238L41.1573 60.575H52.3875L53.4132 73.4472H53.6618L62.5196 60.575H74.0244L67.596 81.0774H60.5149L66.1507 65.3561H65.9072L54.242 81.0774H48.1141L46.2441 65.3561H46.0317L41.81 81.0774ZM79.4784 77.5498L77.0645 81.0774H69.6933L84.1041 60.575H94.863L96.5102 81.0774H89.2841L89.0095 77.5498H79.4784ZM88.3361 64.6723H88.2688L82.2548 73.556H88.8438L88.3361 64.6723ZM105.445 81.0774H98.3636L104.797 60.575H116.768L119.441 76.317H119.726L124.243 60.575H131.324L124.896 81.0774H112.811L110.241 65.3302H109.962L105.445 81.0774ZM148.085 77.5498L145.666 81.0774H138.295L152.7 60.575H163.464L165.111 81.0774H157.885L157.606 77.5498H148.085ZM156.937 64.6723H156.865L150.856 73.556H157.445L156.937 64.6723ZM173.962 81.0774H166.876L173.31 60.575H180.396L173.962 81.0774ZM184.612 60.574H198.288C204.39 60.6568 207.078 61.6721 205.472 66.7796C204.405 70.1932 203.778 72.1927 198.464 73.094L198.396 73.3167C201.277 73.3944 202.768 74.6221 202.033 76.9479L200.743 81.0764H193.657L194.558 78.2066C195.107 76.6786 194.584 75.6374 192.46 75.6374H186.969L185.265 81.0764H178.174L184.612 60.574ZM193.952 70.877C196.998 70.877 197.174 70.0067 197.894 67.6809C198.469 65.8472 198.034 65.3292 195.698 65.3292H190.202L188.461 70.877H193.952Z" fill="#A7A9AC"/>
</g>
</svg>
