<svg width="317" height="90" viewBox="0 0 317 90" fill="none" xmlns="http://www.w3.org/2000/svg">
<path d="M58.1647 79.4382C57.4876 79.4843 56.8301 79.5259 56.1508 79.5259C55.3837 79.5259 54.6408 79.4602 53.8739 79.4382L56.1069 74.0538L58.1647 79.4382ZM60.6389 85.5459C61.0334 85.5239 61.647 85.4165 62.2584 85.4165C62.872 85.4165 63.6391 85.5239 63.9678 85.5459C62.9815 83.4224 61.5352 80.1154 60.7047 78.2111C59.9157 76.3746 58.603 73.3088 57.5534 70.3086C57.3123 70.3743 57.0909 70.4203 56.852 70.4203C56.5891 70.4203 56.3699 70.3743 56.1289 70.3086C55.6051 72.1034 54.3319 74.9501 52.1229 79.9007L49.583 85.5459C49.8876 85.502 50.1966 85.4165 50.5669 85.4165C50.9176 85.4165 51.3362 85.502 51.6188 85.5459C51.9674 84.2989 52.6685 82.48 53.3676 80.7969C54.2442 80.7509 55.1208 80.7093 55.9952 80.7093C56.9376 80.7093 57.858 80.7509 58.8025 80.7969L59.7184 83.1178L60.6389 85.5459ZM65.887 75.5854C65.887 79.3284 65.887 82.9422 65.646 85.5456C66.1302 85.5259 66.7417 85.4163 67.2216 85.4163C67.7257 85.4163 68.2516 85.5259 68.7557 85.5457C68.5803 83.7728 68.5365 81.4081 68.5365 78.1473C68.5365 75.9339 68.5365 72.1492 68.7776 70.5275C68.2516 70.5932 67.7059 70.6612 67.2216 70.6612C66.8951 70.6612 66.0821 70.5736 65.6679 70.5275C65.887 72.6489 65.887 74.2048 65.887 75.5854ZM78.9076 78.1032C80.9019 77.7307 82.7185 76.4816 82.7185 74.0534C82.7185 73.133 82.3678 72.2345 81.7127 71.5989C80.7725 70.7026 79.6965 70.5273 78.2743 70.5273C77.7702 70.5273 75.2304 70.6369 74.6628 70.6369C73.5451 70.6369 72.9754 70.5734 72.4734 70.5273C72.6247 73.3522 72.6247 73.6589 72.6247 76.5276C72.6247 80.7505 72.6028 81.2326 72.4297 85.5455C72.9118 85.4819 73.4378 85.4161 73.9374 85.4161C74.4874 85.4161 74.9674 85.5016 75.4056 85.5455C75.4056 84.9778 75.318 82.1531 75.318 81.5175V78.41H75.8439C77.0273 80.0734 78.3816 81.9996 79.4993 83.7309C79.828 84.2327 80.3101 85.0436 80.6389 85.5455C81.2963 85.4577 81.5593 85.4161 82.414 85.4161C83.2007 85.4161 83.7485 85.4819 84.36 85.5455C82.9815 83.8185 82.3877 83.0515 80.6608 80.6212C80.332 80.1611 79.85 79.4378 79.5212 78.9798L78.9076 78.1032ZM75.318 71.7108C75.6467 71.6866 76.4576 71.5989 76.8739 71.5989C77.595 71.5989 78.3203 71.7108 78.9076 72.1491C79.6746 72.7166 79.828 73.5056 79.828 74.426C79.828 75.8459 79.0193 77.448 76.8301 77.448C76.2604 77.448 75.7344 77.4019 75.318 77.38V71.7108ZM90.3111 80.4247C89.2856 77.3807 87.8611 73.1117 87.1817 70.528C86.6338 70.6156 86.1539 70.6595 85.6498 70.6595C85.1239 70.6595 84.3788 70.574 83.9405 70.528C84.7139 72.5634 85.4663 74.6067 86.1978 76.6575C87.2059 79.5042 87.8611 81.4766 88.65 83.8806L89.1957 85.5461C89.5024 85.4825 89.851 85.4168 90.0941 85.4168C90.3352 85.4168 90.5544 85.4584 90.9247 85.5461C91.2754 84.4087 91.6918 83.0084 92.0008 82.1099C92.851 79.6138 92.9628 79.2632 94.0804 76.1557L94.7357 74.3389C94.9767 75.038 95.3931 76.1557 95.632 76.8547C95.8731 77.5341 96.9907 80.8849 97.2537 81.6299C97.6044 82.6139 97.6897 82.8965 98.5006 85.5461C98.6979 85.5241 99.112 85.4168 99.4429 85.4168C99.7497 85.4168 99.9886 85.4825 100.317 85.5461C101.15 82.9427 101.238 82.6797 102.463 79.1756C103.668 75.7589 104.411 73.8129 105.724 70.528C105.395 70.6156 105.071 70.6595 104.74 70.6595C104.323 70.6595 103.975 70.5938 103.734 70.528C102.945 73.3747 102.553 74.7553 101.917 76.6356C100.887 79.6992 100.756 80.0498 100.122 81.7154C99.4211 79.8329 98.7416 77.9263 98.1062 76.0023C97.7576 74.9504 96.4188 70.574 96.399 70.528C96.0944 70.5938 95.8731 70.6595 95.4349 70.6595C95.0447 70.6595 94.7554 70.574 94.4727 70.528C93.8153 73.1994 91.4944 79.6356 91.2753 80.2274L90.7275 81.6496L90.3111 80.4247ZM112.403 79.4382C111.724 79.4843 111.069 79.5259 110.387 79.5259C109.622 79.5259 108.877 79.4602 108.112 79.4382L110.343 74.0538L112.403 79.4382ZM114.875 85.5459C115.272 85.5239 115.886 85.4165 116.497 85.4165C117.11 85.4165 117.878 85.5239 118.204 85.5459C117.22 83.4224 115.774 80.1154 114.941 78.2111C114.152 76.3746 112.839 73.3088 111.79 70.3086C111.549 70.3743 111.329 70.4203 111.088 70.4203C110.828 70.4203 110.606 70.3743 110.365 70.3086C109.841 72.1034 108.57 74.9501 106.359 79.9007L103.819 85.5459C104.128 85.502 104.433 85.4165 104.805 85.4165C105.156 85.4165 105.57 85.502 105.857 85.5459C106.206 84.2989 106.909 82.48 107.608 80.7969C108.483 80.7509 109.359 80.7093 110.234 80.7093C111.176 80.7093 112.094 80.7509 113.037 80.7969L113.957 83.1178L114.875 85.5459ZM124.066 79.6791C124.066 79.484 124.198 79.243 124.351 78.9778C125.271 77.4022 126.124 75.7585 127.11 74.1829C127.436 73.657 129.036 71.1193 129.367 70.5275C129.124 70.6152 128.883 70.6612 128.447 70.6612C127.962 70.6612 127.524 70.5932 127.173 70.5275C125.598 73.9879 125.247 74.7308 123.389 77.9282C121.528 74.6672 120.696 72.9381 119.556 70.5275C118.923 70.6371 118.285 70.6612 117.761 70.6612C117.279 70.6612 116.775 70.6151 115.966 70.5275C117.104 72.4319 118.967 75.4539 120.082 77.3802L121.373 79.6133C121.373 80.9721 121.307 83.8385 121.243 85.5457C121.658 85.5018 122.271 85.4163 122.707 85.4163C123.211 85.4163 123.718 85.5018 124.222 85.5457C124.132 83.5098 124.066 82.3286 124.066 80.4877V79.6791ZM130.628 82.2639C130.521 83.3136 130.497 83.5985 130.124 84.736C130.913 85.1304 132.338 85.8535 134.218 85.8535C138.226 85.8535 139.78 83.2939 139.78 81.0586C139.78 80.4451 139.626 79.1521 138.708 78.1681C138.073 77.4668 137.415 77.2279 135.73 76.5705C133.806 75.8254 132.686 75.3871 132.686 73.7895C132.686 72.4987 133.541 71.4249 135.27 71.4249C136.648 71.4249 137.812 72.0824 138.139 73.3293H138.445C138.643 72.4987 138.686 72.3234 139.125 71.2496C138.051 70.7697 137.087 70.3533 135.489 70.3533C131.525 70.3533 130.387 72.8055 130.387 74.7297C130.387 76.5486 131.025 77.6661 133.146 78.6064C133.758 78.8694 134.79 79.2617 135.401 79.5268C135.818 79.6999 137.198 80.3113 137.198 82.0426C137.198 83.6205 136.057 84.782 134.33 84.782C133.037 84.782 131.941 84.4532 130.935 82.2639H130.628Z" fill="#505967"/>
<path d="M8.99813 41.8026C8.99813 25.2527 17.8648 20.7843 24.5663 20.7843C35.3373 20.7843 40.0008 29.719 40.0008 39.243C40.0008 44.6932 39.3434 49.8169 36.6501 53.9564C33.9567 58.0918 29.4927 60.5901 24.6299 60.5901C12.4804 60.5901 8.99813 49.0279 8.99813 41.8026ZM41.708 75.6324C43.6781 74.2518 46.7658 72.5447 48.9989 71.5584L34.1562 62.3608C43.2836 59.1438 48.9989 50.9982 48.9989 39.8984C48.9989 24.1373 36.9788 17.4358 24.6956 17.4358C11.4307 17.4357 0 24.7925 0 41.4762C0 45.0196 0.788918 51.7213 6.3048 57.305C12.0202 63.0862 18.7853 63.9387 24.5005 63.9387C25.2216 63.9387 25.9426 63.9387 26.668 63.8751L41.708 75.6324ZM79.6404 44.6938C77.6024 44.8276 75.6345 44.9591 73.5942 44.9591C71.2976 44.9591 69.0644 44.7596 66.7678 44.6938L73.4671 28.5362L79.6404 44.6938ZM87.0631 63.0189C88.2442 62.9532 90.0851 62.6245 91.9215 62.6245C93.7646 62.6245 96.059 62.9532 97.0473 63.0189C94.091 56.6484 89.7564 46.7297 87.258 41.0144C84.8935 35.4985 80.9532 26.301 77.802 17.3028C77.0787 17.5022 76.4212 17.6337 75.7003 17.6337C74.9114 17.6337 74.254 17.5022 73.5329 17.3027C71.9551 22.6915 68.1463 31.2295 61.5128 46.0723L53.8907 63.0189C54.8111 62.8896 55.7316 62.6245 56.847 62.6245C57.8967 62.6245 59.1481 62.8896 60.0006 63.0189C61.0502 59.2737 63.1562 53.8234 65.2557 48.7656C67.8811 48.6363 70.5086 48.5048 73.1361 48.5048C75.961 48.5048 78.72 48.6363 81.5471 48.7656L84.3016 55.7301L87.0631 63.0189ZM116.209 29.7192C116.209 27.2231 116.273 24.727 116.338 22.3602C120.87 22.3602 125.536 22.4281 129.41 22.8203C129.213 21.7707 129.082 21.1812 129.082 20.458C129.082 19.932 129.213 19.0752 129.41 17.962C123.106 18.2885 117.324 18.3542 111.872 18.3542C106.814 18.3542 99.5232 18.2885 94.3337 17.962C94.5332 18.7509 94.6625 19.6033 94.6625 20.3922C94.6625 21.1812 94.5332 22.0337 94.3337 22.8203C97.6867 22.4939 103.992 22.3602 104.581 22.3602H107.866C107.932 24.9242 107.998 27.2231 107.998 29.6534L108.063 47.9763C108.063 52.9706 107.671 58.0284 107.406 63.0185C109.77 62.7576 110.757 62.6262 111.872 62.6262C112.661 62.6262 114.763 62.8235 116.669 63.0185C116.47 61.182 116.209 59.0124 116.209 54.0225V29.7192ZM152.768 44.6938C150.732 44.8276 148.762 44.9591 146.726 44.9591C144.425 44.9591 142.194 44.7596 139.893 44.6938L146.595 28.5362L152.768 44.6938ZM160.19 63.0189C161.372 62.9532 163.212 62.6245 165.051 62.6245C166.89 62.6245 169.189 62.9532 170.175 63.0189C167.218 56.6484 162.884 46.7297 160.388 41.0144C158.023 35.4985 154.081 26.301 150.929 17.3028C150.206 17.5022 149.549 17.6337 148.828 17.6337C148.039 17.6337 147.381 17.5022 146.658 17.3027C145.085 22.6915 141.274 31.2295 134.638 46.0723L127.02 63.0189C127.939 62.8896 128.861 62.6245 129.977 62.6245C131.026 62.6245 132.273 62.8896 133.13 63.0189C134.182 59.2737 136.281 53.8234 138.383 48.7656C141.008 48.6363 143.636 48.5048 146.266 48.5048C149.09 48.5048 151.85 48.6363 154.672 48.7656L157.431 55.7301L160.19 63.0189ZM196.628 40.6898C202.604 39.5722 208.056 35.8291 208.056 28.536C208.056 25.777 207.004 23.0835 205.032 21.1815C202.209 18.4881 198.99 17.9622 194.721 17.9622C193.209 17.9622 185.592 18.2887 183.882 18.2887C180.532 18.2887 178.824 18.0914 177.317 17.9622C177.775 26.4344 177.775 27.3525 177.775 35.9563C177.775 48.6361 177.709 50.0781 177.185 63.0187C178.629 62.8236 180.205 62.6242 181.715 62.6242C183.356 62.6242 184.803 62.8894 186.115 63.0187C186.115 61.3094 185.855 52.8393 185.855 50.9328V41.6057H187.432C190.978 46.5979 195.052 52.379 198.401 57.5683C199.385 59.0805 200.829 61.5108 201.813 63.0186C203.785 62.7578 204.574 62.6241 207.134 62.6241C209.498 62.6241 211.142 62.8236 212.981 63.0186C208.843 57.8313 207.072 55.5326 201.881 48.2415C200.895 46.8609 199.45 44.6935 198.464 43.3152L196.628 40.6898ZM185.855 21.5079C186.839 21.4444 189.269 21.1815 190.518 21.1815C192.685 21.1815 194.851 21.5079 196.628 22.8207C198.924 24.53 199.385 26.8923 199.385 29.6537C199.385 33.9226 196.954 38.7175 190.387 38.7175C188.677 38.7175 187.102 38.5838 185.855 38.5224V21.5079Z" fill="#242424"/>
<path d="M294.814 40.8141C294.814 41.237 288.869 41.6337 280.381 41.9668C278.882 41.1165 277.745 40.2619 276.912 39.5255C287.205 39.8893 294.814 40.3385 294.814 40.8141ZM288.717 26.4848C288.717 26.8376 283.734 27.1685 276.609 27.4533C277.63 26.8573 278.682 26.2569 279.787 25.6542C285.169 25.9018 288.717 26.1889 288.717 26.4848ZM235.632 57.3121C232.334 57.3516 229.441 57.3668 227.182 57.3668C223.93 57.3668 221.296 56.3653 221.296 55.1228C221.296 53.8868 223.93 52.8853 227.182 52.8853C230.061 52.8853 233.962 52.916 238.437 52.9729C236.706 55.4713 235.884 56.9724 235.807 57.0666C235.757 57.139 235.693 57.2244 235.632 57.3121ZM237.409 60.3133C238.496 61.626 239.539 62.7305 240.935 63.938C240.935 63.938 241.461 64.6896 243.058 64.0452C244.684 63.3835 246.063 62.4829 247.616 60.3988C252.153 60.4755 256.963 60.5763 261.699 60.6837C262.089 61.2512 262.88 62.4259 263.855 63.8744C250.654 64.2163 236.326 64.4201 228.987 64.4201C225.93 64.4201 223.449 63.4712 223.449 62.3098C223.449 61.1416 225.93 60.1993 228.987 60.1993C231.222 60.1993 234.102 60.2147 237.398 60.2519C237.397 60.2729 237.401 60.2938 237.409 60.3133ZM232.302 71.3226C229.589 71.3226 227.391 70.4875 227.391 69.4575C227.391 68.4254 229.589 67.5882 232.302 67.5882C239.479 67.5882 254.192 67.8074 266.793 68.1647C267.4 69.0347 268.007 69.9002 268.584 70.6957C255.61 71.0771 239.819 71.3226 232.302 71.3226ZM274.153 77.3093C263.57 77.7738 245.374 78.085 237.814 78.085C235.686 78.085 233.957 77.4209 233.957 76.6168C233.957 75.8059 235.686 75.1462 237.814 75.1462C245.046 75.1462 262.029 75.4312 272.748 75.8584C273.232 76.3778 273.706 76.8667 274.153 77.3093ZM246.544 81.2783C252.787 81.2783 271.794 81.7496 271.794 82.3193C271.794 82.8979 252.785 83.3646 246.544 83.3646C245.328 83.3646 244.344 82.8979 244.344 82.3193C244.344 81.7496 245.328 81.2783 246.544 81.2783ZM246.613 42.8475C238.754 42.9813 231.713 43.0557 227.181 43.0557C223.931 43.0557 221.295 42.0542 221.295 40.8139C221.295 39.5757 223.931 38.5698 227.181 38.5698C232.445 38.5698 241.095 38.6706 250.472 38.8481C249.154 40.1506 247.868 41.4841 246.613 42.8475ZM285.159 32.8244C289.763 33.0743 292.66 33.3482 292.66 33.6331C292.66 33.9465 289.154 34.2466 283.727 34.514C284.887 33.6419 285.141 32.8814 285.159 32.8244ZM228.988 35.7399C225.929 35.7399 223.448 34.7976 223.448 33.6318C223.448 32.4681 225.929 31.5214 228.988 31.5214C235.262 31.5214 246.642 31.6747 258.058 31.9268C256.707 33.0653 255.38 34.2307 254.076 35.4222C244.056 35.6238 234.532 35.7399 228.988 35.7399ZM263.104 27.875C251.433 28.1708 238.788 28.3527 232.301 28.3527C229.588 28.3527 227.392 27.5178 227.392 26.4856C227.392 25.4535 229.588 24.6141 232.301 24.6141C239.461 24.6141 254.139 24.8376 266.723 25.1926C266.096 25.6484 265.465 26.1043 264.825 26.582C264.242 27.016 263.667 27.4432 263.104 27.875ZM237.813 20.7922C235.685 20.7922 233.956 20.137 233.956 19.324C233.956 18.5131 235.685 17.8534 237.813 17.8534C245.84 17.8534 265.862 18.2084 276.03 18.7146C275.381 19.1399 274.733 19.5803 274.077 20.0231C263.479 20.481 245.358 20.7922 237.813 20.7922ZM226.575 50.2512C223.266 50.2512 220.579 49.2321 220.579 47.9677C220.579 46.712 223.266 45.6886 226.575 45.6886C230.723 45.6886 236.932 45.7499 243.953 45.8573C242.766 47.2522 241.617 48.6786 240.506 50.135C234.916 50.2096 230.029 50.2512 226.575 50.2512ZM244.345 13.6193C244.345 13.0429 245.329 12.5762 246.545 12.5762C252.786 12.5762 271.795 13.0429 271.795 13.6193C271.795 14.1913 252.788 14.6602 246.545 14.6602C245.329 14.6602 244.345 14.1913 244.345 13.6193Z" fill="#747F8A"/>
<path d="M295.436 46.2797C295.48 47.4036 295.474 48.529 295.417 49.6523C284.358 50.0907 273.872 50.7569 273.872 51.5063C273.872 52.2427 284.124 52.9023 295.055 53.3385C294.865 54.5874 294.617 55.8269 294.312 57.053C283.537 57.4935 273.537 58.1421 273.537 58.8719C273.537 59.5754 282.873 60.2087 293.21 60.6491C292.737 61.9684 292.2 63.2505 291.597 64.4776C282.719 64.905 275.382 65.4748 275.382 66.097C275.382 66.6779 281.792 67.2148 289.872 67.629C289.419 68.3675 288.945 69.0908 288.45 69.7744C287.924 70.5195 287.352 71.258 286.747 71.9834C281.696 72.3669 278.229 72.8031 278.229 73.2698C278.229 73.6709 280.712 74.0455 284.538 74.3809C282.45 76.4475 279.982 78.378 277.074 80.0633C277.074 80.0633 273.649 77.1136 270.822 73.6686C268.302 70.5962 262.955 62.4966 261.697 60.6842C260.436 58.8718 259.608 58.3416 258.135 58.8674C256.161 59.5666 253.867 59.9172 253.161 59.9172C252.455 59.9172 252.067 59.6433 253.251 59.1743C254.43 58.6987 259.091 56.4984 261.385 51.9512C263.963 46.8298 261.697 39.7579 261.697 39.7579C260.831 43.5382 258.863 44.9495 258.863 44.9495C259.499 41.4387 258.806 38.2568 257.073 36.0237L256.106 40.468C256.106 40.468 255.501 40.4372 254.005 41.6952C252.51 42.9553 252.098 44.7917 252.098 44.7917C253.275 45.265 254.691 44.0839 254.691 44.0839C252.883 50.8489 250.29 56.3561 248.399 59.2685C246.51 62.181 244.952 63.2789 243.058 64.0482C241.461 64.688 240.935 63.9363 240.935 63.9363C239.539 62.731 238.496 61.6265 237.409 60.3139C237.409 60.3139 237.321 60.1605 237.615 60.1648C238.393 60.1757 239.778 58.8457 240.08 58.2933C240.426 57.66 240.389 57.1757 240.216 57.1428C240.045 57.1143 239.749 57.6162 238.248 58.5628C236.756 59.5074 236.07 58.8522 235.572 58.3261C235.186 57.9077 235.566 57.3904 235.807 57.0661C236.035 56.7768 243.93 42.0524 264.824 26.5829C292.204 6.30957 309.69 0.835186 310.691 0.440727C311.353 0.180007 312.434 -0.164153 312.679 0.0878807C312.951 0.372839 313.084 0.600742 313.047 0.931603C313.012 1.26032 312.837 1.42913 311.57 1.988C301.06 6.61855 288.79 14.3369 281.819 18.8293C273.246 23.0063 265.061 28.9714 264.763 29.1139C264.103 29.5237 264.589 30.1199 264.988 29.87C279.465 20.2407 296.438 13.6816 315.195 8.30814C316.091 8.05396 316.582 8.05396 316.731 8.25119C316.9 8.4703 316.972 8.72008 316.998 8.99624C317.022 9.34029 316.737 9.52219 315.968 9.82237C295.818 17.3084 280.966 24.262 271.414 30.6896C271.414 30.6896 270.425 31.2856 270.412 31.9759C270.408 32.2389 270.942 32.2695 270.942 32.2695C275.724 32.355 282.117 32.6356 285.159 32.8131C285.159 32.8131 284.725 34.3537 281.812 35.594C279.564 36.5539 277.482 36.4005 275.422 36.418C274.964 36.4092 274.576 36.8717 274.942 37.3647C275.126 37.6102 279.509 44.6668 295.436 46.2797ZM149.417 83.1808H146.717C146.717 83.1808 146.353 81.5198 147.33 80.8842C148.312 80.24 149.417 79.7447 149.417 79.7447L149.417 83.1808ZM162.228 76.9615C162.228 76.9615 160.587 77.9039 159.548 78.8287C158.516 79.7447 159.76 80.0931 159.76 80.0931V83.1808H151.926V72.3749C151.926 72.3749 149.071 75.0004 148.803 75.3487C148.527 75.7213 149.482 76.0587 149.482 76.0587L149.32 77.0821C149.32 77.0821 148.183 77.6717 146.802 78.6053C145.43 79.5278 144.414 80.7047 144.414 81.5199C144.414 82.3373 144.067 85.5456 144.067 85.5456H162.228V76.9615ZM146.009 73.0104C146.903 73.0104 147.534 72.6575 147.534 71.9453C147.534 71.2309 147.116 70.7334 146.009 70.7334C145.025 70.7334 144.762 71.1629 144.762 71.9453C144.762 72.7342 145.104 73.0104 146.009 73.0104ZM149.349 73.0103C150.252 73.0103 150.863 72.6574 150.863 71.9453C150.863 71.2309 150.449 70.7334 149.349 70.7334C148.36 70.7334 148.102 71.1629 148.102 71.9453C148.102 72.7342 148.441 73.0103 149.349 73.0103ZM154.409 86.4746C153.431 86.4746 153.162 86.8932 153.162 87.68C153.162 88.4601 153.508 88.745 154.409 88.745C155.303 88.745 155.936 88.39 155.936 87.68C155.936 86.9634 155.524 86.4746 154.409 86.4746ZM157.88 86.4746C156.903 86.4746 156.635 86.8932 156.635 87.68C156.635 88.4601 156.99 88.745 157.88 88.745C158.787 88.745 159.41 88.39 159.41 87.68C159.41 86.9634 159 86.4746 157.88 86.4746ZM197.013 72.7978C197.914 72.7978 198.545 72.4537 198.545 71.7414C198.545 71.0336 198.129 70.5274 197.013 70.5274C196.038 70.5274 195.773 70.9569 195.773 71.7414C195.773 72.526 196.121 72.7978 197.013 72.7978ZM200.482 72.7978C201.376 72.7978 202.003 72.4537 202.003 71.7414C202.003 71.0336 201.587 70.5274 200.482 70.5274C199.5 70.5274 199.24 70.9569 199.24 71.7414C199.24 72.526 199.575 72.7978 200.482 72.7978ZM210.059 73.0914C209.57 73.5143 209.713 74.0206 210.333 73.9505V85.5609H212.906V71.1081C212.906 71.1081 210.539 72.6707 210.059 73.0914ZM199.72 79.6023H198.054C198.054 78.6884 199.72 78.1822 199.72 78.1822V79.6023ZM188.756 81.5199C188.756 81.9405 188.736 82.6265 188.716 83.1809H174.18V80.6256C174.559 79.6417 175.199 79.5277 176.19 79.5277H186.816C189.111 79.5277 188.756 80.7354 188.756 81.5199ZM205.755 73.9373V83.1809H202.295V74.7877C202.295 74.7877 201.587 75.0593 200.616 75.4889C199.654 75.9249 196.174 77.3385 196.174 79.2494V81.4584H199.72V83.1808H191.309C191.315 82.7754 191.324 82.1794 191.324 81.305C191.324 78.5504 188.977 77.0514 186.889 77.0514H177.165C175.462 77.0514 174.64 77.4634 174.18 77.9346V70.8189C174.18 70.8189 172.662 71.8861 171.546 72.7342C170.433 73.5823 171.546 74.152 171.546 74.152V83.1809H168.36L168.292 75.4319C168.292 75.4319 166.074 77.0514 165.439 77.5445C164.818 78.0354 165.162 78.4737 165.857 78.4737C165.857 78.4737 165.73 84.1956 165.73 85.5455C165.73 86.9042 164.606 88.4557 162.246 87.7501C162.246 87.7501 161.496 87.8947 162.118 88.4601C162.739 89.0234 163.488 89.4529 164.327 89.4529C165.162 89.4529 168.222 88.8766 168.222 85.5455H208.319V71.0993C208.319 71.0993 205.959 72.6574 205.472 73.0804C204.984 73.5033 205.126 74.0118 205.755 73.9373Z" fill="#242424"/>
</svg>
