<svg width="275" height="82" viewBox="0 0 275 82" fill="none" xmlns="http://www.w3.org/2000/svg">
<path d="M121.451 45.1944L124.431 42.0879L121.451 38.9996L118.489 42.0879L121.451 45.1944ZM102.959 0L99.97 3.10416L102.959 6.19478L105.928 3.10416L102.959 0ZM113.69 45.1944L116.664 42.0879L113.69 38.9996L110.68 42.0879L113.69 45.1944ZM110.733 0L107.756 3.10416L110.733 6.19478L113.746 3.10416L110.733 0ZM177.549 27.8917H167.064V27.1491C167.064 18.2027 174.017 12.7534 177.549 11.7912V27.8917ZM257.56 6.10837V27.958C257.56 29.2042 257.441 30.2528 257.002 30.9954C256.463 31.8931 255.514 32.6451 253.703 32.6451C251.891 32.6451 250.933 31.8936 250.387 30.9954C249.943 30.2528 249.812 29.2042 249.812 27.958V12.1897H244.677V27.8912H238.252V12.2139H233.154V27.8912H226.733V12.1897H221.632V27.8912H201.931C196.247 27.4966 194.918 24.4615 194.918 21.6413C194.918 17.6792 198.433 16.1495 202.272 16.1495H210.635V12.1897H203.21C197.173 12.1897 192.118 14.6726 192.118 20.9538C192.118 25.0398 193.954 26.8936 195.553 27.8912H182.622V8.42739C171.446 9.81553 162.577 18.1649 162.577 31.8758H177.549V36.6984C177.549 38.5564 177.758 42.1145 175.051 42.6227V44.7554C176.937 44.5512 179.993 43.2878 181.341 40.9973C182.396 39.2191 182.622 37.5984 182.622 33.8651V31.8763H245.325C245.539 32.4067 245.811 32.9123 246.134 33.384C247.699 35.548 250.469 36.5148 253.704 36.5148C256.901 36.5148 259.645 35.548 261.209 33.384C262.506 31.5484 262.652 29.7324 262.652 27.5241V6.10884H257.561L257.56 6.10837ZM269.798 6.10884H274.864V31.8763H269.798V6.10884ZM146.318 12.0962H138.994V16.0939H145.132C149.872 16.0939 154.731 16.3265 154.731 21.8207C154.731 26.7072 151.146 27.809 144.741 27.809H132.436V31.7978H145.657C153.63 31.7978 157.538 29.3546 157.538 21.845C157.539 14.2845 152.902 12.0962 146.318 12.0962ZM108.573 27.8922H98.1624V27.2205C98.1624 18.3275 105.022 12.7226 108.573 11.7628V27.8922ZM121.451 27.8922C121.451 29.1649 121.311 30.1916 120.867 30.9608C120.328 31.8567 119.4 32.5905 117.577 32.5905C115.788 32.5905 114.823 31.8567 114.276 30.9608C113.83 30.1916 113.691 29.1649 113.691 27.8922V8.41057C101.532 9.55911 93.6613 19.1635 93.6613 31.8744H109.192C109.417 32.3832 109.692 32.8682 110.013 33.3224C111.56 35.484 114.325 36.455 117.54 36.455C120.786 36.455 123.502 35.484 125.047 33.3224C126.375 31.5045 126.539 29.6974 126.539 27.4671V10.4685H121.451V27.8922H121.451ZM170.238 81.0917C165.212 81.0917 161.434 80.0408 159.113 77.8129C157.053 75.8993 156.104 73.7223 156.104 69.3724V51.2052H161.551V70.1417C161.551 72.9306 161.981 74.5205 163.317 75.9507C164.753 77.5004 167.229 78.3383 170.239 78.3383C173.229 78.3383 175.69 77.4999 177.131 75.9507C178.462 74.5205 178.879 72.931 178.879 70.1417V51.2052H184.364V69.3724C184.364 73.7223 183.393 75.8997 181.353 77.8129C179.023 80.0408 175.22 81.0917 170.238 81.0917M205.843 77.931C204.753 77.931 202.378 77.8115 201.364 76.9866C200.535 76.2706 200.515 75.1067 200.515 73.3551V53.0576C208.905 52.3126 218.193 54.7913 218.193 65.8325C218.193 74.6718 212.446 77.931 205.843 77.931ZM204.786 50.6003C202.101 50.6671 195.489 50.9571 190.667 52.3495L191.119 54.5181C192.423 54.1524 193.645 53.8908 195.057 53.6601V80.4672C202.775 80.6181 206.087 80.5915 210.131 80.1258C217.226 79.2701 223.926 73.9376 223.926 65.7456C223.926 54.2122 213.614 50.4275 204.786 50.6003ZM231.464 51.207H236.948V80.4687H231.464V51.207ZM130.126 67.7503C132.915 67.7503 138.13 68.1249 141.841 71.0805L135.172 57.421L130.126 67.7503ZM152.532 80.4696H146.325C144.135 76.031 138.421 69.5947 128.936 70.2178L123.943 80.4696H120.072L135.361 50.7315H137.303L152.532 80.4696ZM252.596 67.7498C255.387 67.7498 260.6 68.1309 264.302 71.0866L257.643 57.4247L252.596 67.7498ZM275 80.4715H268.792C266.599 76.0329 260.886 69.6031 251.399 70.2215L246.408 80.4715H242.541L257.82 50.7311H259.777L275 80.4715ZM115.756 52.2024C114.187 51.3752 110.267 50.1627 106.22 50.2313C99.07 50.413 94.3035 53.3289 94.2544 58.5989C94.2236 59.641 94.4516 60.9646 95.0882 62.0996C98.5468 68.0258 112.876 67.0525 112.876 73.4023C112.876 75.2183 111.142 78.2001 106.22 78.2001C100.868 78.2001 96.7911 75.7279 94.8378 74.1959L93.4277 78.4859C95.0882 79.3416 99.5581 80.9712 105.974 80.9712C108.852 80.9712 112.12 80.1931 114.512 78.3309C116.831 76.5107 117.876 74.2692 117.876 71.4976C117.876 60.9931 99.5581 63.6335 99.5581 57.0356C99.5581 55.945 100.161 55.1622 100.374 54.8941C101.367 53.6059 103.542 52.8278 106.292 52.8278C108.852 52.8278 111.548 53.69 114.224 55.8189L115.756 52.2024Z" fill="#242424"/>
<path d="M73.6297 59.1941L73.5256 59.365C66.8941 70.9008 54.4648 78.6696 40.1976 78.6696C18.9799 78.6696 1.77949 61.4715 1.77949 40.2557C1.77949 33.3005 3.63096 26.7779 6.87198 21.1487L6.95605 20.9978L6.91402 20.8535L6.77203 20.9068L6.67441 21.0422C6.10038 21.8694 5.56604 22.7405 5.05133 23.6205C-5.49517 42.0334 1.00742 65.5818 19.5801 76.2282C38.1462 86.8747 61.7614 80.5827 72.2986 62.1782C72.816 61.2983 73.2909 60.3941 73.7217 59.4687L73.8039 59.2894L73.7596 59.1385L73.6297 59.1941Z" fill="#242424"/>
<path d="M30.7918 10.5647C25.3289 11.7287 16.1524 17.3471 14.2014 26.6722C20.0893 19.7193 26.2215 16.0678 30.9156 15.214C26.1132 18.8076 21.5994 27.1906 23.0006 33.0706C25.5415 26.8226 29.9955 20.7123 34.0749 18.4867C31.7647 22.298 31.0062 31.5078 33.2192 35.5694C33.7381 30.2995 35.4032 23.4442 38.0282 20.0608L38.8087 26.6722H37.9128L38.8549 33.4032H38.1076L38.8904 40.1341H38.2472L39.236 46.8609L36.0543 48.4882V48.7189H44.3486V48.4882L41.166 46.8609L40.1991 47.6101L41.159 46.8609L42.1351 40.1341H41.4962L42.2809 33.4032H41.5294L42.4784 26.6722H41.5789L42.3617 20.0608C44.989 23.4442 46.6494 30.2995 47.1707 35.5694C49.3879 31.5078 48.6233 22.298 46.3168 18.4867C50.3991 20.7128 54.8461 26.823 57.3981 33.0706C58.7928 27.1906 54.2832 18.8081 49.4785 15.214C54.1725 16.0678 60.2982 19.7189 66.1824 26.6722C64.2426 17.3471 55.0679 11.7287 49.5966 10.5647C55.6177 9.9664 61.4822 11.8949 66.7966 14.4779C61.0208 7.81553 52.308 5.39423 46.5476 6.05513C47.5191 5.0243 48.463 4.47643 49.9329 4.04205C47.4962 2.90473 43.7115 3.50118 42.2356 5.15508C42.2356 5.15508 41.9647 2.06447 40.1996 0.849609C38.4238 2.06447 38.1622 5.15508 38.1622 5.15508C36.6788 3.50118 32.8988 2.90473 30.4686 4.04205C31.9343 4.47643 32.8698 5.0243 33.854 6.05513C28.0856 5.39469 19.3654 7.81553 13.5938 14.4779C18.9221 11.8949 24.7797 9.96593 30.7918 10.5647Z" fill="#242424"/>
<path d="M41.8402 53.5169C41.3858 53.8163 40.8201 54.1974 40.1952 54.6252C39.6501 54.2521 39.1026 53.8826 38.5525 53.5169C36.1097 51.876 15.4614 38.0591 6.53516 47.8345C14.772 44.5663 26.9771 50.7368 37.0271 56.7938C34.5105 58.5145 31.644 60.4898 29.2139 62.1395C25.354 58.3968 23.9219 58.9956 23.5735 59.1441C23.1966 59.3016 22.9303 59.6519 22.9126 60.082C22.906 60.6472 23.3404 61.1217 23.8902 61.1371C24.4446 61.1507 24.9121 60.6958 24.921 60.1329L24.899 59.9022C25.9677 60.5762 26.9612 61.4851 29.4577 64.0573C31.9939 66.6869 32.9808 67.4095 33.7276 67.8485C34.2419 68.1479 34.7655 68.2231 35.0868 68.1965C35.61 68.1722 36.1335 67.7929 36.1578 67.2012C36.1887 66.6136 35.7519 66.1278 35.1844 66.1236C34.6286 66.1105 34.1555 66.5645 34.1555 67.1502V67.2479C33.4661 66.7467 32.7276 65.8443 31.2554 64.2525C33.6749 62.8714 36.7538 60.8779 40.1952 58.7341C43.6333 60.8779 46.7109 62.8714 49.1303 64.2525C47.6623 65.8443 46.9238 66.7467 46.2274 67.2479L46.2298 67.1502C46.2314 67.0144 46.2057 66.8797 46.1542 66.754C46.1028 66.6283 46.0266 66.5142 45.9303 66.4184C45.8339 66.3227 45.7194 66.2473 45.5933 66.1966C45.4673 66.146 45.3324 66.1212 45.1966 66.1236C44.6268 66.1283 44.1943 66.6136 44.2298 67.2012C44.2541 67.7929 44.7706 68.1722 45.2984 68.1965C45.6179 68.2231 46.1392 68.1479 46.6623 67.8485C47.4096 67.4095 48.3933 66.6864 50.9341 64.0573C53.4241 61.4856 54.426 60.5762 55.4881 59.9022L55.468 60.1329C55.4834 60.6962 55.9467 61.1507 56.4923 61.1371C57.042 61.1217 57.4834 60.6472 57.4769 60.082C57.4681 59.8788 57.4012 59.6824 57.284 59.5161C57.1669 59.3498 57.0044 59.2207 56.816 59.1441C56.468 58.9956 55.0336 58.3968 51.1737 62.1353C48.7454 60.4902 45.8678 58.5145 43.3601 56.7943C53.4124 50.7373 65.6198 44.5668 73.852 47.8349C64.9253 38.0596 44.2793 51.8765 41.8402 53.5169Z" fill="#242424"/>
<path d="M18.7963 66.3925C18.4792 66.2528 18.1518 66.0712 17.9804 66.0469C17.8673 66.0333 17.7632 66.0581 17.6898 66.1375C17.6235 66.2197 17.5988 66.3925 17.6698 66.5322C17.7141 66.634 17.8337 66.8245 18.1555 67.1043C19.5058 68.2771 22.2218 69.3257 29.3807 65.3215C29.1611 65.1043 28.9393 64.8694 28.702 64.6321C28.2209 64.1356 27.7996 63.7008 27.4274 63.3262C23.6473 65.7166 20.6473 67.1487 18.7963 66.3925ZM61.5937 66.3925C59.7404 67.1487 56.7427 65.7162 52.9627 63.3262C52.5858 63.7008 52.1733 64.1356 51.6834 64.6321C51.4526 64.8694 51.2266 65.1043 51.0159 65.3215C58.1593 69.3257 60.8842 68.2771 62.2322 67.1043C62.5582 66.825 62.6736 66.634 62.7198 66.5322C62.7974 66.3925 62.7731 66.2197 62.6979 66.1375C62.6315 66.0576 62.5297 66.0333 62.4139 66.0469C62.2458 66.0712 61.9174 66.2528 61.5937 66.3925Z" fill="#242424"/>
</svg>
