<svg width="323" height="89" viewBox="0 0 323 89" fill="none" xmlns="http://www.w3.org/2000/svg">
<mask id="mask0_4681_7892" style="mask-type:luminance" maskUnits="userSpaceOnUse" x="0" y="0" width="323" height="89">
<path d="M323 0H0V88.6686H323V0Z" fill="white"/>
</mask>
<g mask="url(#mask0_4681_7892)">
<path d="M84.8014 50.4714C82.3278 52.8622 78.9827 53.5536 77.5901 52.161C76.1975 50.7586 76.9084 47.3161 79.3576 44.935C81.8214 42.5735 85.0984 41.7603 86.5154 43.1578C87.9274 44.5601 87.236 48.1098 84.8014 50.4714Z" fill="#FBD107"/>
<path d="M94.7984 50.1435C93.0455 52.0717 90.6547 52.8118 89.4909 51.8331C88.3467 50.8446 88.7898 48.2737 90.5378 46.326C92.3151 44.4075 94.7497 43.5164 95.9037 44.5146C97.0285 45.508 96.5464 48.1958 94.7984 50.1435Z" fill="#FAD700"/>
<path d="M53.3417 37.8729C50.016 37.1523 45.4438 38.3112 42.3129 41.3934C39.031 44.646 36.6305 49.077 37.9257 52.7241C38.4467 54.2287 40.5892 55.6602 42.3129 55.7284C45.658 55.8745 49.5145 54.3455 52.1633 51.9109C55.0118 49.3205 56.5018 45.5128 56.57 42.8347C56.5651 42.1725 56.5651 41.8754 56.4093 41.1451C56.1123 39.5918 54.5736 38.1213 53.3417 37.8729Z" fill="#F5A91A"/>
<path d="M71.2993 50.8453C68.0126 53.9811 63.1531 55.1497 61.2784 53.2799C59.4038 51.4199 60.5188 46.7747 63.7861 43.5999C67.0485 40.4252 71.645 39.6753 73.5197 41.5451C75.3943 43.3808 74.5665 47.656 71.2993 50.8453Z" fill="#F8B81A"/>
<path d="M65.5 42.422C66.6443 41.4823 67.8762 40.8298 68.9523 40.7324C67.7398 41.195 66.5664 41.7403 65.5 42.422Z" fill="#F6A31A"/>
<path d="M92.8755 35.4293C90.8548 38.1999 87.5875 39.3832 85.9515 38.2584C84.3446 37.1384 84.3349 33.6521 86.3361 30.8718C88.3861 28.1304 91.6728 26.728 93.2699 27.848C94.9157 28.9874 94.9157 32.6831 92.8755 35.4293Z" fill="#FBD107"/>
<path d="M100.691 38.3716C99.0643 40.5969 96.6491 41.6437 95.3636 40.7332C94.0441 39.8226 94.2388 37.1251 95.8749 34.8901C97.4817 32.6844 99.9651 31.467 101.251 32.3971C102.546 33.2881 102.336 36.1756 100.691 38.3716Z" fill="#FAD700"/>
<path d="M66.586 26.6997C62.4958 31.5933 56.2584 33.5897 53.556 31.0528C50.4299 28.0583 50.2936 23.2913 54.8804 17.5261C59.8226 11.3276 65.2859 11.1085 68.1734 13.4214C71.0608 15.7245 70.6567 21.7964 66.586 26.6997Z" fill="#F9B61C"/>
<path d="M81.8409 31.5779C78.8512 36.6322 74.2157 36.7198 72.1268 35.0886C70.0769 33.4185 70.6758 28.6321 73.607 25.1311C76.5286 21.6204 81.1933 20.2375 83.0923 22.0878C84.6699 23.6557 84.1879 27.6387 81.8409 31.5779Z" fill="#F8BF13"/>
<path d="M53.8385 10.6016C53.858 11.3319 53.7947 12.038 53.7217 12.7586C53.7704 12.0477 53.8385 11.3271 53.8385 10.6016Z" fill="#F6A31A"/>
<path d="M49.0953 1.76339C38.4317 -2.7163 27.695 11.721 28.552 19.8282C29.224 26.0949 33.2167 28.6172 38.7969 27.731C38.8943 27.692 38.9819 27.692 39.0452 27.6725C44.9321 26.8886 49.8744 22.0875 52.1239 17.8708C52.903 16.3954 53.4435 14.6279 53.7113 12.8068C53.7162 12.7776 53.7113 12.7776 53.7113 12.7776C53.7697 12.0472 53.8379 11.3314 53.8379 10.601C53.833 6.81764 52.4502 3.19494 49.0953 1.76339Z" fill="#F6A11C"/>
<path d="M26.7022 34.0852C24.2676 34.4991 21.9401 35.507 19.8366 36.9045C16.4038 38.9204 13.5553 41.5838 11.8998 44.7975C9.85957 48.7416 10.1128 52.2912 11.8559 54.7551C12.6448 56.0795 13.7501 56.8927 14.8262 57.3552C15.4154 57.5938 16.0386 57.7886 16.6619 57.9006H16.6814C18.5365 58.3388 20.6352 58.3047 22.9529 57.7009C29.7357 55.8701 37.4096 48.5225 37.3609 41.5838C37.3317 34.7913 32.331 32.8922 26.7022 34.0852Z" fill="#F49822"/>
<path d="M92.8457 60.8414C90.9808 62.643 88.5559 63.2566 87.4603 62.1853C86.4037 61.119 86.988 58.6065 88.8578 56.7659C90.7422 54.9643 93.245 54.2339 94.3308 55.3002C95.402 56.3617 94.7398 59.0155 92.8457 60.8414Z" fill="#FAD700"/>
<path d="M81.1591 64.2932C78.6027 66.5281 75.428 67.1222 74.089 65.6273C72.7792 64.1519 73.8114 61.1476 76.4165 58.9321C79.0118 56.7264 82.0599 56.1518 83.3989 57.6369C84.6893 59.1026 83.7836 62.0777 81.1591 64.2932Z" fill="#FBD107"/>
<path d="M65.5681 69.0522C62.0866 72.0078 57.8748 72.7917 56.1024 70.8197C54.3348 68.8331 55.7372 64.8354 59.1894 61.8993C62.6612 58.9339 66.7319 58.1695 68.4897 60.1561C70.2523 62.1135 69.0302 66.0868 65.5681 69.0522Z" fill="#F8BA15"/>
<path d="M46.3642 62.483C39.4986 60.545 28.5721 69.2853 30.1594 76.1412C30.5344 77.6945 32.672 79.0676 34.3713 79.2672C41.2467 79.9781 48.9887 72.6499 49.4026 67.4593C49.3685 66.8556 49.3442 66.2518 49.315 65.6529C49.1153 64.0898 47.5961 62.8238 46.3642 62.483Z" fill="#F7A51D"/>
<path d="M27.8707 70.1169C26.6194 64.9166 20.3137 65.3305 16.0775 66.577C14.4999 66.9422 12.9125 67.5362 11.4322 68.3445H11.403C9.22161 69.4109 7.42 70.7061 5.76933 72.2886C3.7486 74.2265 0.306063 78.5796 1.01697 82.7915C1.74735 87.2322 7.30801 88.5275 12.3379 87.3199C18.3758 85.9273 29.8038 78.2047 27.8707 70.1169Z" fill="#F49822"/>
<path d="M133.509 33.8172C132.622 31.1878 132.7 27.4288 128.279 27.5116C123.931 27.6187 121.9 30.4769 121.9 33.9C121.9 39.4363 135.934 40.5124 136.99 51.7457C137.633 58.4409 131.084 69.5719 117.917 69.6937C112.581 69.6937 105.934 67.3126 105.827 56.0891L115.288 54.0537C115.395 56.8633 115.171 61.9029 120.576 61.9029C124.691 61.9029 126.848 58.0173 127.174 54.9691C127.953 47.9477 112.303 45.9319 112.381 36.9725C112.488 28.5877 117.913 19.9253 130.884 20.0422C143.754 20.1396 142.02 31.6115 142.02 31.6115L133.509 33.8172Z" fill="#E52426"/>
<path d="M152.917 41.0377L147.887 60.9334C149.012 62.6814 150.458 63.5627 152.225 63.5335C153.341 63.6114 154.446 63.0904 155.507 61.8926C156.574 60.7143 157.586 58.3722 158.487 54.842L160.459 47.1096C161.307 43.5989 161.487 41.2568 161.029 40.0785C160.547 38.8806 159.719 38.3353 158.546 38.4375C156.783 38.3986 154.923 39.2751 152.917 41.0377ZM146.723 32.8233H154.309L153.214 37.2154H153.341C154.426 36.0176 155.911 34.883 157.776 33.8264C159.641 32.7892 161.496 32.2049 163.42 32.1562C166.624 32.1562 168.606 33.393 169.443 35.8666C170.251 38.3012 170.076 41.8801 168.839 46.5643L166.629 55.3873C165.475 60.0472 163.868 63.6553 161.813 66.1045C159.753 68.5488 157.129 69.7856 153.915 69.7953C152.849 69.8148 151.763 69.5178 150.672 68.8946C149.567 68.281 148.238 67.2536 146.67 65.788L141.562 85.9904H133.279L146.723 32.8233Z" fill="#E52426"/>
<path d="M218.476 45.3372H210.262L210.676 43.745C211.012 42.3426 210.822 41.2811 210.121 40.5508C209.459 39.8204 208.353 39.46 206.897 39.46C205.417 39.46 204.156 39.8252 203.119 40.5508C202.043 41.2811 201.342 42.3426 200.976 43.745L197.329 58.1433C196.984 59.5456 197.174 60.6266 197.86 61.3472C198.552 62.0581 199.637 62.4233 201.108 62.4233C202.569 62.4233 203.849 62.0581 204.896 61.3472C205.943 60.6266 206.654 59.5407 207.029 58.1433L207.599 55.8888H215.881L215.837 56.0251C214.586 60.7921 212.565 64.2834 209.741 66.4989C206.893 68.7046 203.411 69.8002 199.258 69.7515C195.085 69.8002 192.119 68.7046 190.41 66.4989C188.682 64.2834 188.409 60.7921 189.602 56.0251L192.144 45.868C193.385 41.1107 195.43 37.5903 198.25 35.404C201.098 33.1885 204.594 32.0832 208.753 32.1221C212.823 32.0832 215.716 33.1495 217.449 35.2677C219.197 37.4004 219.514 40.7407 218.476 45.3372Z" fill="#E52426"/>
<path d="M247.954 52.9917H229.958L228.745 57.7879C228.312 59.5992 228.468 60.9042 229.169 61.7417C229.841 62.5938 230.898 62.9979 232.305 62.9979C234.048 62.9493 235.392 62.4818 236.395 61.5323C237.413 60.5439 238.08 59.3753 238.455 57.9047H246.718C245.564 61.7027 243.65 64.6097 240.909 66.6547C238.197 68.7436 234.754 69.7516 230.591 69.81C226.598 69.7516 223.735 68.6316 221.943 66.348C220.156 64.0838 219.752 60.9383 220.701 56.9163L223.701 45.05C224.767 41.0378 226.778 37.8922 229.705 35.628C232.631 33.3541 236.074 32.1952 240.091 32.166C243.976 32.205 246.83 33.3346 248.66 35.5599C250.486 37.7851 250.998 40.731 250.102 44.5095L247.954 52.9917ZM231.682 46.1894H241.396L241.907 44.1833C242.311 42.5618 242.272 41.2958 241.717 40.3463C241.157 39.4553 240.042 38.9732 238.362 38.9635C236.707 38.9732 235.353 39.4553 234.33 40.3463C233.303 41.2958 232.607 42.5618 232.207 44.1833L231.682 46.1894Z" fill="#E52426"/>
<path d="M297.377 52.9917H279.41L278.197 57.7879C277.784 59.5992 277.91 60.9042 278.592 61.7417C279.264 62.5938 280.32 62.9979 281.737 62.9979C283.466 62.9493 284.824 62.4818 285.852 61.5323C286.84 60.5439 287.498 59.3753 287.853 57.9047H296.136C294.991 61.7027 293.058 64.6097 290.346 66.6547C287.634 68.7436 284.211 69.7516 280.038 69.81C276.036 69.7516 273.163 68.6316 271.381 66.348C269.584 64.0838 269.17 60.9383 270.129 56.9163L273.129 45.05C274.214 41.0378 276.206 37.8922 279.127 35.628C282.054 33.3541 285.511 32.1952 289.514 32.166C293.419 32.205 296.277 33.3346 298.093 35.5599C299.919 37.7851 300.401 40.731 299.515 44.5095L297.377 52.9917ZM281.143 46.1894H290.848L291.359 44.1833C291.773 42.5618 291.695 41.2958 291.125 40.3463C290.57 39.4553 289.47 38.9732 287.819 38.9635C286.154 38.9732 284.79 39.4553 283.758 40.3463C282.731 41.2958 282.034 42.5618 281.611 44.1833L281.143 46.1894Z" fill="#E52426"/>
<path d="M306.765 41.233H302.466L304.18 34.4209H308.489L311.634 21.8242H319.907L316.771 34.4209H322.079L320.365 41.233H315.028L310.364 59.7944C310.14 60.6952 310.32 61.3672 310.914 61.8103C311.454 62.2534 312.297 62.4822 313.446 62.4822C314.025 62.4822 314.561 62.4433 315.101 62.3946L313.324 69.4842C311.678 69.713 310.081 69.8299 308.499 69.8104C305.786 69.8299 303.717 69.2845 302.432 68.1695C301.141 67.0301 300.786 65.1749 301.404 62.5942L306.765 41.233Z" fill="#E52426"/>
<path d="M254.918 58.0182L260.805 34.6946L264.038 21.8496H272.321L269.058 34.6995L259.096 73.3514C257.825 78.0892 255.8 81.5853 252.98 83.7521C250.151 85.9773 246.631 87.0534 242.497 87.0437C238.314 87.0534 235.359 85.9773 233.669 83.7521C231.94 81.5463 231.658 78.0843 232.812 73.2881L241.167 73.2394L240.554 75.4159C240.257 76.8378 240.418 77.8798 241.094 78.6004C241.786 79.3211 242.872 79.7155 244.342 79.7155C245.813 79.7155 247.064 79.3211 248.13 78.6004C249.207 77.8798 249.888 76.8329 250.273 75.4159L251.013 72.4993L254.918 58.0182Z" fill="#E52426"/>
<path d="M179.289 32.8242H187.542L178.408 69.1438H170.135L179.289 32.8242Z" fill="#E52426"/>
<path d="M188.492 29.4494H180.209L182.113 21.8242H190.356L188.492 29.4494Z" fill="#E52426"/>
</g>
</svg>
