<svg width="473" height="125" viewBox="0 0 473 125" fill="none" xmlns="http://www.w3.org/2000/svg">
<path d="M139.435 0.82006C140.194 0.389717 141.032 0.0872725 141.903 0C141.423 0.756863 140.744 1.36025 140.287 2.13216C139.084 4.05967 138.444 6.2791 137.997 8.49251C137.562 10.5916 137.396 12.7493 136.733 14.7957C135.854 17.6892 134.439 20.4218 132.554 22.7766C130.15 25.7363 127.134 28.1183 123.995 30.2339C120.186 32.8566 116.162 35.243 112.865 38.5368C110.515 40.8902 108.626 43.7521 107.597 46.9421C105.591 52.8299 103.893 58.8638 101.096 64.4402C99.097 68.4683 96.454 72.1653 93.2896 75.3432C89.188 79.5188 84.273 82.7584 79.2627 85.7061C68.2021 92.095 56.0599 96.3879 43.6822 99.3146C29.849 102.527 15.6434 104.059 1.4526 104.038C0.966909 104.045 0.48122 104.027 0 103.97C12.5445 102.259 24.9907 99.3131 36.6844 94.3491C47.3905 89.841 57.4395 83.5814 65.8318 75.4576C67.6807 73.6655 69.464 71.7997 71.1222 69.8255C74.893 65.2392 77.5658 59.8779 80.1134 54.5363C81.4364 51.7842 82.7102 48.999 84.2567 46.3627C86.6002 42.3648 89.7974 38.8769 93.598 36.2527C98.1942 33.0537 103.474 31.0855 108.698 29.2062C111.747 28.1077 114.806 27.0304 117.796 25.7725C119.778 24.9253 121.769 24.0676 123.59 22.8955C127.048 20.7107 130.132 17.7449 131.899 13.9847C133.113 11.4447 133.694 8.66254 134.731 6.05039C133.596 6.56801 132.793 7.63032 132.417 8.8085C131.923 10.3508 130.375 11.2642 128.861 11.5094C129.542 10.9121 130.145 10.1853 130.4 9.29452C131.023 7.25565 132.846 5.53729 135.011 5.41541C136.038 3.51949 137.548 1.86282 139.435 0.82006ZM136.646 4.32751C136.149 4.62544 136.096 5.42594 136.556 5.78105C137.054 6.22644 137.988 5.85628 137.998 5.16563C138.083 4.47798 137.212 3.92576 136.646 4.32751Z" fill="#242424"/>
<path d="M86.8635 35.4589C90.6566 33.906 94.5988 32.7595 98.5707 31.7754C97.8764 32.1651 97.1151 32.4059 96.3985 32.7414C91.9081 34.7517 87.9585 37.8604 84.654 41.5063C80.9458 45.6156 77.9974 50.3734 75.6003 55.366C72.2645 62.8444 66.907 69.3191 60.4381 74.2455C51.3903 81.1596 40.4653 85.3095 29.2989 87.0399C26.8868 87.3875 24.4598 87.6884 22.0225 87.7516C25.1705 86.7495 28.3245 85.7459 31.3742 84.4609C39.6131 81.0663 47.2872 76.0917 53.3822 69.5072C56.8014 65.7349 60.0105 61.746 62.7071 57.4094C64.1553 55.1208 65.5229 52.7704 67.1782 50.6247C69.0852 48.1164 71.2946 45.8579 73.6173 43.7422C77.4879 40.1972 82.014 37.409 86.8635 35.4589Z" fill="#242424"/>
<path d="M113.271 41.5148C114.051 40.1365 114.868 38.7507 115.96 37.5996C115.402 40.1591 114.8 42.7201 114.575 45.3368C114.161 49.4386 114.414 53.5645 114.559 57.6723C114.827 62.5535 114.494 67.5897 112.602 72.1445C110.713 76.6495 107.963 80.8356 104.32 84.0872C99.3323 88.5171 92.9081 91.0329 86.3916 92.008C83.7471 92.3857 81.0624 92.6174 78.3926 92.4353C79.7856 91.531 81.2933 90.8147 82.7221 89.9646C87.0098 87.5074 91.1963 84.8005 94.8449 81.4315C98.5144 78.0384 101.581 74.0028 104.018 69.6286C106.415 65.3297 107.535 60.4755 108.629 55.7101C109.737 50.8545 110.847 45.9055 113.271 41.5148Z" fill="#242424"/>
<path d="M133.175 37.6559C137.009 34.8819 141.913 34.1746 146.533 34.1719C150.111 34.2104 153.677 34.7938 157.092 35.8561C159.737 36.7477 162.437 38.0824 164.014 40.4904C165.233 42.3645 165.18 44.7036 165.057 46.8502C164.242 45.4164 163.593 43.8313 162.291 42.7497C158.658 39.4474 153.512 38.4842 148.743 38.564C145.586 38.6823 142.331 39.0208 139.441 40.3913C137.479 41.3628 135.668 43.069 135.286 45.3118C134.859 47.5932 135.685 49.9214 136.989 51.7789C139.551 55.5133 143.448 58.0726 147.436 60.0733C152.131 62.2749 156.969 64.3719 160.992 67.7155C163.48 69.7767 165.698 72.3801 166.576 75.5476C167.822 80.0883 166.54 85.1382 163.554 88.7322C161.328 91.3906 158.35 93.3445 155.147 94.6269C149.747 96.7514 143.759 97.2633 138.054 96.2808C133.943 95.5158 129.862 93.8233 126.892 90.81C124.999 88.9139 124.256 86.1591 124.336 83.5365C124.413 82.1413 124.424 80.6717 125.065 79.3921C125.255 82.5431 127.019 85.4629 129.592 87.2544C134.147 90.4907 139.953 91.4402 145.432 91.0604C148.402 90.8265 151.476 90.0256 153.782 88.058C156.206 85.9417 157.582 82.6559 157.318 79.4416C157.054 76.7089 155.405 74.334 153.457 72.4957C149.414 68.8108 144.469 66.3753 139.813 63.5876C136.301 61.4273 132.672 59.2505 130.016 56.028C128.601 54.3052 127.503 52.233 127.335 49.9764C126.942 45.2293 129.284 40.3858 133.175 37.6559Z" fill="#242424"/>
<path d="M207.178 35.2358C210.164 34.0497 213.879 36.5457 213.818 39.7765C214 42.8064 210.887 45.4401 207.935 44.8236C205.169 44.4438 203.325 41.3424 204.03 38.7033C204.385 37.0989 205.631 35.7642 207.178 35.2358Z" fill="#242424"/>
<path d="M188.404 51.928C190.579 50.5218 193.278 50.076 195.824 50.3759C197.918 50.6566 199.787 51.9363 200.964 53.67C198.942 53.1279 196.809 52.4867 194.723 53.1169C191.217 54.014 188.883 57.0604 187.185 60.0601C184.527 64.543 183.712 69.7882 183.066 74.8766C182.592 78.944 182.312 83.0362 182.248 87.1311C182.29 89.9876 182.543 93.0918 184.433 95.3925C181.563 95.3705 178.665 95.5521 175.814 95.3347C174.945 92.8854 174.777 90.2601 174.634 87.687C174.287 81.1208 175.71 74.6592 176.403 68.1646C176.827 63.6706 177.077 59.1354 176.764 54.6249C176.607 53.1802 175.853 51.9033 175.126 50.6814C177.52 50.5933 179.92 50.6429 182.317 50.6236C182.763 50.6401 183.236 50.6043 183.657 50.797C184.731 51.9445 184.728 53.6287 184.857 55.0983C185.977 53.9782 187.059 52.7866 188.404 51.928Z" fill="#242424"/>
<path d="M204.713 50.6777C207.66 51.107 210.885 51.9409 212.798 54.4121C214.438 56.4954 214.353 59.3326 214.006 61.8232C213.164 69.3278 212.149 76.8268 211.931 84.381C211.884 88.0851 211.593 92.0534 213.514 95.3916C210.833 95.3998 208.142 95.5099 205.467 95.3448C204.006 93.1129 204.055 90.2564 203.926 87.6778C204.003 77.801 205.613 68.0261 206.744 58.2374C207.013 55.5459 205.924 53.0086 204.713 50.6777Z" fill="#242424"/>
<path d="M378.279 101.596C379.366 101.547 380.453 101.536 381.54 101.596C383.381 104.34 384.108 107.639 384.991 110.779C386.265 115.452 387.052 120.463 389.969 124.468C388.869 124.49 387.757 124.597 386.664 124.424C385.448 123.312 384.986 121.628 384.43 120.128C383.29 116.671 382.49 113.116 381.579 109.596C381.078 107.78 380.618 105.939 379.776 104.243C379.65 105.578 379.584 106.932 379.248 108.239C378.783 110.166 377.765 111.894 377.2 113.787C379.058 113.578 381.331 113.743 382.415 115.513C380.55 115.155 378.342 114.902 376.779 116.234C374.446 118.287 373.659 121.495 373.37 124.473C372.241 124.509 371.116 124.512 369.99 124.473C370.433 120.543 372.34 117.013 374.096 113.54C375.948 109.756 378.122 105.911 378.279 101.596Z" fill="#242424"/>
<path d="M392.584 101.753C393.792 101.106 395.438 102.207 395.273 103.572C395.256 104.964 393.476 105.848 392.353 105.03C391.134 104.334 391.302 102.278 392.584 101.753Z" fill="#242424"/>
<path d="M410.191 101.585C411.228 101.563 412.268 101.565 413.309 101.596C414.063 106.541 413.823 111.583 413.256 116.533C413.044 119.175 412.571 121.936 413.526 124.495C412.458 124.517 411.39 124.52 410.325 124.481C410.039 123.691 409.893 122.855 409.935 122.015C410.045 115.212 411.492 108.357 410.191 101.585Z" fill="#242424"/>
<path d="M417.888 101.754C419.022 101.168 420.715 101.935 420.764 103.284C421.067 105.018 418.499 106.05 417.404 104.775C416.477 103.942 416.793 102.279 417.888 101.754Z" fill="#242424"/>
<path d="M430.809 108.017C432.466 107.131 434.417 106.96 436.261 107.181C438.669 107.453 440.813 109.611 440.824 112.079C440.804 114.027 440.433 115.951 440.345 117.897C440.243 120.104 440.067 122.424 440.989 124.501C439.995 124.501 439.002 124.496 438.011 124.466C437.177 121.229 437.585 117.853 438.11 114.603C438.237 113.092 438.526 111.13 437.095 110.125C434.139 108.182 429.475 109.522 428.184 112.877C427.391 114.803 427.254 116.909 427.177 118.967C427.119 120.822 426.805 122.809 427.785 124.499C426.684 124.501 425.581 124.501 424.483 124.468C423.035 118.871 426.214 113.169 424.488 107.599C425.575 107.569 426.665 107.599 427.752 107.654C427.909 108.524 428.046 109.399 428.173 110.279C428.982 109.451 429.766 108.559 430.809 108.017Z" fill="#242424"/>
<path d="M446.484 109.151C448.036 107.594 450.337 107.123 452.461 107.109C454.415 107.118 456.567 107.946 457.517 109.757C458.408 111.645 457.401 114.061 455.499 114.87C452.882 116.092 449.927 116.912 447.942 119.152C447.381 119.656 447.502 120.522 447.865 121.109C448.65 122.556 450.342 123.222 451.908 123.338C453.818 123.373 455.538 122.41 457.123 121.45C456.207 122.735 455.111 124.031 453.556 124.532C451.501 125.234 449.051 125.231 447.221 123.94C444.948 122.339 443.828 119.485 443.881 116.763C443.765 114.031 444.519 111.135 446.484 109.151ZM448.38 111.265C446.897 113.1 446.577 115.58 446.759 117.867C448.069 116.983 449.376 116.072 450.84 115.453C452.524 114.641 454.47 113.676 455.128 111.793C455.623 110.288 454.079 109.047 452.723 108.917C450.937 108.719 449.44 109.974 448.38 111.265Z" fill="#242424"/>
<path d="M461.06 109.181C462.032 107.805 463.76 107.222 465.384 107.153C467.228 107.087 469.203 107.321 470.736 108.438C471.438 108.917 471.501 109.839 471.666 110.601C470.981 110.064 470.406 109.39 469.663 108.933C468.042 108.171 466.105 108.284 464.473 108.947C463.735 109.231 462.992 109.869 463.056 110.733C463.207 111.575 463.76 112.288 464.41 112.825C466.278 114.371 468.848 114.82 470.56 116.589C471.743 117.715 472.275 119.479 471.834 121.064C471.466 122.498 470.29 123.582 468.986 124.198C467.065 125.082 464.822 125.228 462.791 124.661C461.688 124.342 460.626 123.736 459.943 122.795C459.382 121.997 459.525 120.976 459.5 120.057C460.059 120.965 460.579 121.997 461.564 122.514C463.344 123.428 465.554 123.764 467.434 122.949C469.008 122.278 469.721 119.955 468.502 118.653C466.41 116.369 463.1 115.722 461.055 113.386C460.004 112.227 460.171 110.381 461.06 109.181Z" fill="#242424"/>
<path d="M402.49 109.191C403.283 108.393 404.166 107.493 405.369 107.446C406.574 107.228 407.796 107.743 408.528 108.717C407.342 108.58 405.919 108.23 404.937 109.133C402.672 111.076 401.915 114.161 401.701 117.017C401.475 119.499 401.035 122.13 402.078 124.5C400.977 124.505 399.879 124.502 398.781 124.467C398.431 122.295 398.291 120.066 398.651 117.887C399.092 115.149 399.419 112.377 399.315 109.598C399.304 108.888 399.012 108.233 398.767 107.583C399.87 107.583 400.977 107.581 402.08 107.583C402.218 108.117 402.353 108.648 402.49 109.191Z" fill="#242424"/>
<path d="M391.824 107.535C392.947 107.827 394.298 108 394.989 109.057C395.575 109.861 395.482 110.906 395.382 111.842C394.992 115.208 394.513 118.582 394.56 121.977C394.582 122.844 394.84 123.681 395.124 124.496C394.048 124.523 392.972 124.529 391.899 124.446C391.444 123.414 391.378 122.272 391.433 121.166C391.599 117.761 392.077 114.382 392.46 111C392.633 109.803 392.223 108.641 391.824 107.535Z" fill="#242424"/>
<path d="M417.272 107.51C418.708 107.807 420.58 108.418 420.753 110.138C420.874 112.634 420.379 115.116 420.249 117.609C420.153 119.894 419.545 122.304 420.513 124.492C419.462 124.52 418.397 124.588 417.365 124.343C416.708 122.635 416.933 120.78 417.09 119.005C417.313 116.242 417.698 113.498 417.998 110.746C418.128 109.612 417.657 108.545 417.272 107.51Z" fill="#242424"/>
<path d="M222.967 34.9431C225.718 34.9403 228.47 34.9348 231.222 34.9844C232.7 42.3541 232.755 49.9165 232.486 57.4018C232.202 67.8648 229.811 78.2177 230.438 88.7136C234.973 88.7797 239.635 88.5485 243.997 90.0346C247.041 91.0583 249.787 93.0039 253.051 93.3369C247.682 91.3197 244.181 85.0398 245.733 79.4395C246.521 76.6105 248.637 74.2108 251.309 73.0109C257.985 70.1269 265.333 69.1995 271.943 66.1421C273.751 65.2642 275.683 64.1496 276.506 62.2123C277.298 59.7135 276.297 56.7579 274.136 55.2663C271.709 53.5216 268.624 53.0537 265.702 53.084C260.115 53.0923 254.705 55.0021 249.892 57.7403C250.907 55.7452 252.685 54.2976 254.507 53.0703C258.61 50.3678 263.613 49.4707 268.451 49.3799C271.613 49.3579 274.841 49.4817 277.868 50.4779C280.895 51.3916 283.405 53.7445 284.569 56.6781C285.362 58.6622 285.02 60.8445 284.888 62.9168C284.418 68.1675 283.179 73.3192 282.78 78.5809C282.563 80.9559 282.673 83.3446 282.646 85.7305C282.651 89.0164 282.874 92.4425 284.432 95.4091C281.685 95.4394 278.939 95.5 276.192 95.3789C274.183 86.3249 275.378 77.0095 276.192 67.8923C270.399 72.1358 262.831 72.5404 256.802 76.3243C254.639 77.6398 252.553 79.335 251.493 81.7016C250.274 84.3765 251.147 87.7119 253.257 89.6878C254.958 91.2867 257.383 91.8619 259.664 91.7793C264.177 91.5839 268.462 89.6163 271.94 86.801C270.135 90.1006 266.827 92.2114 263.47 93.6837C259.513 95.4202 255.145 96.1577 250.836 95.8963C247.142 95.6981 243.518 94.8835 239.842 94.5423C234.445 94.0634 229.029 94.6579 223.69 95.4284C222.058 91.0225 222.185 86.2204 222.565 81.6108C223.203 73.4403 224.384 65.3082 224.554 57.1046C224.601 49.7184 225.611 42.0321 222.967 34.9431Z" fill="#242424"/>
<path d="M341.862 34.9403C344.672 34.9596 347.482 34.9045 350.291 34.9843C351.491 43.4136 351.467 51.9502 351.213 60.44C351.109 62.9112 350.784 65.366 350.66 67.8345C354.664 64.9834 357.493 60.872 361.162 57.6495C364.555 54.5232 368.666 52.1345 373.141 50.9595C376.19 50.1394 379.341 49.7404 382.492 49.5945C380.037 50.687 377.426 51.4411 375.131 52.8803C368.275 56.7881 363.834 63.5111 358.404 69.0206C362.174 72.6669 364.577 77.3893 367.323 81.7924C369.718 85.7745 372.326 89.7401 375.926 92.748C377.137 93.7827 378.562 94.5092 379.897 95.3623C376.972 95.4697 374.03 95.5164 371.11 95.3844C369.632 94.7844 368.49 93.5873 367.288 92.5718C363.446 89.0108 360.787 84.4316 358.231 79.9183C356.098 76.0959 353.935 72.1358 350.531 69.2793C350.184 72.9256 349.802 76.5692 349.521 80.2238C349.237 83.6638 349.064 87.134 349.427 90.5767C349.614 92.2636 350.091 93.9176 350.9 95.4119C348.115 95.4366 345.327 95.533 342.547 95.3431C341.315 92.9846 341.306 90.2492 341.271 87.6541C341.499 76.0766 343.414 64.5927 343.376 53.0042C343.414 48.7717 343.392 44.5336 343.076 40.3094C342.919 38.4738 342.539 36.6548 341.862 34.9403Z" fill="#242424"/>
<path d="M308.337 52.1479C312.812 49.616 318.181 49.0079 323.217 49.7261C327.331 50.3288 331.175 52.8083 333.198 56.4767C334.783 59.2452 335.353 62.5503 334.902 65.6985C333.93 72.3362 333.361 79.051 333.548 85.763C333.677 89.0626 333.958 92.5219 335.711 95.4142C333.286 95.4142 330.851 95.5408 328.435 95.3646C326.77 93.6392 326.635 91.0358 326.464 88.7709C326.393 84.7311 326.252 80.6609 326.838 76.6486C327.408 71.9895 328.536 67.3442 328.165 62.6191C328.022 60.5331 327.067 58.4196 325.306 57.217C322.548 55.3071 319.072 54.7402 315.781 54.9604C311.092 55.2135 306.402 57.3353 303.485 61.078C301.842 63.1254 301.141 65.7095 300.422 68.1863C299.184 72.6417 298.867 77.2815 298.812 81.8883C298.664 86.4125 297.981 91.4623 300.736 95.4087C297.88 95.3811 295.009 95.593 292.164 95.3343C291.388 93.042 291.165 90.6203 291.022 88.2233C290.623 82.9505 291.511 77.7025 292.274 72.5013C293.072 67.3222 293.735 62.0687 293.314 56.8207C293.113 54.6356 292.552 52.4533 291.393 50.571C294.021 50.582 296.649 50.6013 299.278 50.5902C300.056 50.4774 300.425 51.3058 300.645 51.9084C301.355 54.1128 301.333 56.4629 301.344 58.7553C303.21 56.1272 305.461 53.6779 308.337 52.1479Z" fill="#242424"/>
<path d="M396.06 50.7549C399.709 49.5853 403.592 49.3018 407.403 49.3927C410.502 49.5468 413.738 49.7972 416.51 51.3273C418.554 52.4116 420.107 54.2609 421.133 56.3111C421.854 57.7559 421.67 59.4153 421.642 60.9757C421.326 66.9859 419.754 72.8504 419.452 78.8634C419.284 82.3501 419.165 85.8534 419.435 89.3401C419.597 91.4371 420.062 93.5313 421.028 95.4109C418.692 95.444 416.353 95.4577 414.016 95.4495C413.609 95.3944 412.913 95.5485 412.869 94.9734C412.032 91.8829 411.919 88.6576 411.818 85.4736C411.782 79.6037 412.351 73.753 412.866 67.9134C408.983 70.6928 404.371 72.1184 399.858 73.5053C395.87 74.8676 391.668 76.5435 389.015 79.9862C386.37 83.4509 387.757 89.1502 391.69 91.0243C394.065 92.0866 396.789 91.9242 399.269 91.3325C402.643 90.5262 405.862 89.0264 408.568 86.8386C406.715 90.3336 403.41 92.8048 399.877 94.4312C396.74 95.8265 393.201 96.5117 389.791 95.8925C387.105 95.4329 384.598 93.9579 382.941 91.7949C380.346 88.4622 379.944 83.6656 381.78 79.8871C383.64 75.9986 387.212 73.1228 391.28 71.7964C396.665 69.7352 402.392 68.7252 407.734 66.5456C409.459 65.8301 411.157 64.9165 412.44 63.535C413.656 62.1067 413.738 60.018 413.141 58.309C412.594 56.6413 411.245 55.3534 409.721 54.5581C407.753 53.5151 405.505 53.1794 403.306 53.0968C399.803 52.9592 396.316 53.6444 393 54.7425C390.674 55.4745 388.558 56.7101 386.367 57.7559C388.517 54.2471 392.207 51.9768 396.06 50.7549Z" fill="#242424"/>
<path d="M447.681 50.8571C451.149 49.5142 454.941 49.25 458.618 49.5609C461.934 49.8994 465.217 51.2561 467.567 53.6641C470 56.1023 471.42 59.479 471.593 62.908C471.706 64.7463 471.301 66.557 471.084 68.3733C470.253 74.7606 469.741 81.2222 470.143 87.6646C470.294 90.3532 470.77 93.1217 472.276 95.4113C469.755 95.3948 467.226 95.593 464.716 95.3068C463.153 93.1988 463.065 90.4716 462.985 87.9563C462.98 84.6402 462.869 81.3185 463.164 78.0134C463.56 73.88 464.51 69.8099 464.691 65.6544C464.774 63.3042 464.691 60.7532 463.274 58.7635C461.76 56.7958 459.339 55.7446 456.969 55.2382C452.478 54.4127 447.626 55.1749 443.765 57.6737C441.377 59.2093 439.362 61.4219 438.319 64.0858C436.734 68.0926 435.721 72.3417 435.54 76.6567C435.41 79.7775 435.3 82.9009 435.193 86.0272C435.102 89.2442 435.366 92.7007 437.293 95.4113C434.351 95.4278 431.406 95.5599 428.473 95.3095C427.166 89.1094 427.108 82.6725 428.115 76.4256C429.108 70.0603 430.267 63.629 429.81 57.1619C429.684 54.8667 429.062 52.6156 428.01 50.5737C430.845 50.5792 433.677 50.6149 436.511 50.5737C438.052 53.0284 437.813 56.0225 437.92 58.791C440.232 55.2107 443.65 52.3046 447.681 50.8571Z" fill="#242424"/>
</svg>
