<svg width="121" height="123" viewBox="0 0 121 123" fill="none" xmlns="http://www.w3.org/2000/svg">
<path d="M1.53516 60.9107C1.53516 28.2494 28.0438 1.76953 60.748 1.76953C93.4494 1.76953 119.959 28.2494 119.959 60.9107C119.959 93.5749 93.4494 120.052 60.748 120.052C28.0438 120.052 1.53516 93.574 1.53516 60.9107Z" fill="#606060"/>
<path d="M3.28223 60.9056C3.28223 29.2075 29.0097 3.50977 60.7485 3.50977C92.4855 3.50977 118.215 29.2075 118.215 60.9056C118.215 92.6046 92.4855 118.303 60.7485 118.303C29.0097 118.302 3.28223 92.6046 3.28223 60.9056Z" fill="white"/>
<path d="M5.15723 60.8963C5.15723 30.2307 30.0475 5.37109 60.7526 5.37109C91.4559 5.37109 116.346 30.2307 116.346 60.8963C116.346 91.5639 91.4549 116.423 60.7526 116.423C30.0465 116.423 5.15723 91.5639 5.15723 60.8963Z" fill="#606060"/>
<path d="M26.3838 60.6659C26.3838 41.7792 41.7117 26.4696 60.6191 26.4696C79.5264 26.4696 94.8534 41.7792 94.8534 60.6659C94.8534 79.5498 79.5264 94.8584 60.6191 94.8584C41.7117 94.8584 26.3838 79.5498 26.3838 60.6659ZM66.0324 10.2641C66.9702 11.1041 67.236 12.2096 67.1876 13.4354C66.9228 14.302 66.4425 15.142 65.6708 15.744C66.6105 16.4399 67.5493 17.1623 67.6926 18.411C67.9584 19.6368 67.5958 20.7414 66.8981 21.6553C65.4316 23.3125 63.0975 22.8812 60.9788 22.9513L55.3851 23.0983L55.3471 22.5901L54.7719 9.9029L54.7482 9.62606C58.4292 9.60236 62.7595 8.65144 66.0324 10.2641ZM76.4529 12.0531C75.4648 14.9012 74.1672 17.7141 73.4667 20.7176C73.4271 21.1058 73.5298 21.4951 73.7556 21.8134C73.9815 22.1317 74.3152 22.3575 74.6949 22.4488C75.2863 22.774 76.1273 22.8347 76.5715 22.4488C78.4738 19.7819 79.3765 16.4646 80.5687 13.4715C82.0836 14.0015 83.2644 14.758 84.7329 15.3108C83.1667 18.6281 82.2042 22.5342 80.0381 25.2608C78.4747 26.6308 75.9963 26.2933 74.1207 25.8363C71.9783 25.0684 69.6442 23.6994 68.9949 21.295C68.4909 19.6492 70.7766 14.0005 72.0267 10.6253L76.4529 12.0531Z" fill="white"/>
<path d="M41.7823 27.8696L38.6052 29.9582C37.4197 29.3343 36.7277 28.9134 35.862 28.5171L32.3452 31.4742C32.7068 32.3407 33.1682 33.3969 33.5526 34.3582L30.4116 37.8652L30.1592 37.3124L24.5996 24.119L29.6769 19.7559L30.0861 20.009C34.0699 22.438 38.1639 25.3022 42.199 27.5956L41.7823 27.8696ZM42.5758 27.386C40.908 23.3235 38.8653 18.5784 37.3542 14.7681C41.1814 13.2293 46.7163 9.44459 50.1315 12.9667C50.9972 13.9281 51.1178 15.2734 51.1415 16.4992C50.927 17.2909 50.7314 18.0863 50.2037 18.7348C51.3456 20.1389 53.4661 21.7326 54.9327 23.1263L54.7523 23.187L50.4211 24.1417C48.8805 22.9045 48.0082 22.0313 46.6679 21.1136C46.0898 21.1837 45.6921 21.5222 45.1491 21.762L46.6413 25.1761L42.5758 27.386Z" fill="white"/>
<path d="M62.2768 12.5085C62.6128 12.8669 62.5426 13.614 62.347 14.0226C61.7234 14.7451 60.5682 14.7185 59.6057 14.5981C59.676 13.7818 59.3741 12.9883 59.4349 12.1483C60.2531 12.2677 61.675 11.8582 62.2768 12.5085ZM46.3955 15.824C46.6338 16.4251 46.648 17.4035 46.1354 17.76L43.7539 18.7687C43.1596 17.6775 42.9072 16.9294 42.498 16.042C43.6039 15.6334 45.5033 13.9752 46.3955 15.824ZM63.0703 17.9875C63.2611 18.8303 62.8786 19.695 62.0594 19.8638C61.2896 19.9823 60.7134 19.9112 59.8943 19.9349C59.7737 19.0683 59.7035 17.9154 59.7737 17.194C60.8796 17.3381 62.5426 16.7379 63.0703 17.9875Z" fill="#606060"/>
<path d="M95.554 22.6787C96.3731 23.6875 96.9284 24.937 97.2882 26.2103C96.2773 26.7526 95.5075 27.366 94.544 27.7974C94.3057 26.307 93.4866 24.7929 92.0191 24.0487C91.3214 23.6391 90.2849 23.5671 89.4923 23.8316C88.264 24.2876 87.2066 25.3457 86.7491 26.5715C86.3399 27.749 86.7965 28.9019 87.4724 29.8149C88.4092 30.873 89.6631 31.4276 91.0784 31.475C90.4425 32.5198 90.095 33.1796 89.4923 33.9988C87.1325 33.6613 84.9199 32.3633 83.573 30.1761C82.4178 28.3264 82.3466 25.4907 83.3575 23.5434C84.4149 21.4035 86.5099 20.0336 88.769 19.7207C91.4894 19.6249 93.9431 20.7067 95.554 22.6787Z" fill="white"/>
<path d="M33.04 26.699C32.36 27.3252 31.6368 27.9031 30.8758 28.4283C30.2978 27.0583 29.7434 25.8324 29.1426 24.3184C30.5246 25.0531 31.7387 25.9045 33.04 26.699Z" fill="#606060"/>
<path d="M102.785 31.1737C101.679 32.2791 100.211 33.2177 99.0294 34.2749C100.908 34.6825 103.024 34.6105 104.95 34.9233C105.816 36.1748 106.273 37.376 107.116 38.8892L100.041 38.3857C98.477 40.8365 97.0579 43.3357 95.7091 45.8831C94.8681 44.6573 94.2198 43.073 93.3996 41.7031C94.3156 39.8515 95.505 37.8927 96.4219 36.0411C94.8462 37.0158 93.4623 38.2767 91.8581 39.2855L89.3588 35.9321C92.7267 33.048 96.3602 30.4768 99.898 27.8592L100.185 27.7559L102.785 31.1737ZM23.3515 30.2853C22.7127 31.607 21.8707 32.5076 21.2832 33.7695L29.5119 39.1764C29.0781 40.4013 28.1403 41.6054 27.3448 42.781L18.8997 37.5173C18.1422 38.5147 17.5993 39.5367 16.8408 40.8109C15.7341 40.079 14.9519 39.5974 14.0625 38.9622C16.1574 35.4742 18.1422 32.2071 20.4517 28.5883L23.3515 30.2853Z" fill="white"/>
<path d="M46.4949 62.4345C46.5096 63.0043 46.4516 63.5736 46.3222 64.1288C45.0474 66.7009 42.9791 68.9583 42.643 71.9172C41.1756 72.852 39.97 74.4875 37.878 73.9357C37.8049 74.4875 37.9739 75.3265 38.1656 75.9523C36.5064 75.8821 35.374 77.1061 33.9777 77.6835C33.2325 77.4445 33.0398 76.4813 32.7522 75.8091C34.3868 75.2573 35.5657 73.6219 37.4432 73.6484C37.6606 73.0445 37.3217 72.4927 37.2259 71.9172C34.8908 70.8819 31.186 77.035 30.8747 71.7001C33.2079 71.556 34.7 69.3925 37.0114 69.1763L37.0816 67.4451C34.4589 67.1806 32.7741 69.8732 30.1523 69.6077L29.5733 67.302C32.6051 67.4925 34.4115 64.7782 37.299 64.6322C37.6824 64.1288 37.7309 63.3826 37.8049 62.6858C34.6526 62.2762 32.4874 65.7633 29.1424 64.7042C29.1424 64.7042 29.0285 63.2527 28.9658 62.4336H46.4949" fill="black"/>
<path d="M50.2015 62.4336C50.3078 63.7135 49.9946 64.9906 48.7872 66.2923C47.0539 68.3325 45.2988 70.9047 46.5499 73.6475C47.8741 76.6728 52.0364 79.0288 50.2309 82.8021C49.2457 85.1818 46.8859 86.9851 46.9827 89.7961C46.3582 89.5316 45.7098 89.2661 45.1792 88.7874C45.1792 85.2065 50.2784 82.9709 47.8484 79.1975C47.6339 79.9418 47.5855 80.9515 47.4165 81.7934C46.5727 83.9806 44.7692 85.7336 44.0943 87.9967C42.9657 87.5615 41.7849 86.6485 40.8461 85.6871L42.1474 84.8927C42.0032 84.411 41.6168 84.0034 41.2799 83.5947C40.436 83.4762 39.8836 84.028 39.1869 84.2451C38.5851 83.7151 38.006 83.2345 37.5267 82.586C37.9586 81.3582 41.3283 82.3708 39.6187 80.3513C38.4645 79.6308 37.3103 80.6642 36.2993 81.1458L34.9277 79.4146C36.1067 78.6941 37.2846 77.6835 38.7512 77.9726C39.1128 78.623 39.1384 79.5815 39.8352 79.9209C42.3136 79.8726 44.0706 77.9973 45.9709 76.5306C44.6458 74.5624 43.5656 71.8442 44.7426 69.4646C45.6852 67.0792 48.1436 65.0721 48.2547 62.4355H50.2015" fill="black"/>
<path d="M53.7191 62.4336C53.8425 63.5334 53.6612 64.6616 52.8923 65.8571C51.3299 67.9751 49.2844 70.2069 50.2212 72.9952C51.1116 75.8082 54.6256 77.5137 54.4092 80.7837C54.3854 84.6518 49.8843 87.0571 51.16 91.3832L48.9227 90.6608C48.0333 86.8163 52.1235 84.8462 52.1709 81.289C52.749 77.2009 47.5245 75.6858 47.8378 71.6992C47.8159 68.6701 50.4861 66.7474 51.665 64.1999C51.8542 63.6311 51.9366 63.0323 51.908 62.4336H53.7191Z" fill="black"/>
<path d="M66.0949 62.4345C65.9449 63.4385 66.1276 64.4639 66.615 65.3546C68.1784 67.8282 70.9226 70.4506 69.2111 73.6484C67.4086 76.2888 64.4005 78.8629 65.6022 82.2978C66.9264 85.3032 69.6933 88.1626 68.2002 91.8895L65.9639 92.3929C67.7436 88.7618 65.0745 85.16 63.5111 82.0105C61.6089 77.4919 67.6003 75.3256 67.6962 71.1948C67.6734 68.5288 64.8334 67.0138 64.2335 64.562C63.0052 63.5267 61.7294 64.9716 60.261 64.7042C59.1779 64.9223 57.5178 63.2139 56.8695 65.0655C56.0987 67.7798 52.5838 69.7765 54.1262 72.9962C55.5947 75.8575 59.1295 77.948 57.9497 81.6512C56.8922 85.1098 53.4029 88.4044 55.5681 92.3929C54.6777 92.1057 53.0166 92.6574 53.0413 91.2391C51.6697 86.4077 57.5178 83.5957 55.7114 78.7662C54.8704 75.8091 51.0432 74.1737 51.8861 70.6165C52.5088 67.6888 55.794 65.6409 55.3327 62.4336H66.0949" fill="black"/>
<path d="M69.5718 62.4336C69.5253 63.2556 69.6914 64.0728 70.222 64.8484C71.8831 67.5409 74.7707 70.498 73.1105 74.0068C71.2339 76.8179 67.961 79.6782 69.7882 83.3805C71.1124 85.5914 73.1589 87.8004 72.6064 90.5186L70.4394 91.2391C71.8831 86.1688 64.8077 83.1861 67.7693 78.1158C69.5984 75.3995 72.8694 72.8511 71.0184 69.2465C69.9116 67.0138 67.625 65.6912 67.6962 62.901L67.774 62.4345L69.5718 62.4336Z" fill="black"/>
<path d="M73.1525 62.4345C73.1408 63.1543 73.3241 63.8639 73.6831 64.4881C75.2474 67.3029 78.0637 69.9689 77.0053 73.5005C76.7139 74.5842 75.8511 75.4261 75.6337 76.5296C77.4647 78.0447 79.1961 79.7493 81.6251 79.846C82.4908 79.2942 82.0096 76.8425 83.7903 77.9717L86.3883 79.2715C86.1984 79.9674 85.6185 80.5941 85.0907 81.0728C84.1045 80.5931 83.142 80.0157 81.9128 80.0622C81.5502 80.4471 81.2369 80.8804 81.2644 81.4322C82.1301 81.5744 82.9218 81.9356 83.6451 82.4409C83.309 83.1634 82.6579 83.6184 82.0561 84.1721L80.0352 83.4497C79.6992 83.9313 78.9987 84.4366 79.2436 84.9647C79.6992 85.1591 80.2061 85.4217 80.5411 85.7592C79.6508 86.7206 78.5212 87.3425 77.4363 87.9957C76.5003 84.942 73.4173 82.8012 73.6821 79.2705L73.5397 79.1264C72.8164 79.9408 73.0594 81.2407 73.1069 82.2968C73.9735 84.5077 76.0428 86.2171 76.3561 88.6423C75.9944 89.2661 75.1762 89.3866 74.5497 89.6511C74.6228 85.2776 67.9821 81.9631 72.2412 77.5394C73.6612 75.373 76.0428 73.3081 75.199 70.3273C74.3333 67.448 71.2673 65.6609 71.2939 62.4336H73.1525" fill="black"/>
<path d="M92.3879 62.4345C92.4116 63.2471 92.4866 63.9458 92.1686 64.7791C88.872 65.7159 86.7068 62.2307 83.508 62.7569L83.8677 64.562C86.8274 64.6587 88.6803 67.4935 91.7367 67.3712C91.3029 68.2377 91.9294 70.5207 90.0054 69.6077C88.0082 69.128 86.5635 67.3712 84.3737 67.3712C84.1098 67.8547 84.2769 68.5288 84.2303 69.1024C86.5398 69.4636 88.2 71.4119 90.5084 71.7722C90.2911 72.5648 90.0746 73.4512 89.4254 73.9348C87.5469 73.4778 86.0804 71.794 84.0813 71.8423L83.7235 73.4996C85.6238 73.5479 86.8521 75.2308 88.5597 75.7342C88.6062 76.4339 87.9826 77.0577 87.6219 77.6825C86.1069 77.2274 84.9508 75.9286 83.2185 76.0253C83.1938 75.373 83.5792 74.6306 83.433 73.9348C81.4871 74.5121 80.1848 72.7089 78.7439 71.6252C78.7021 68.0813 74.967 65.7538 74.7695 62.4336H92.3879" fill="black"/>
<path d="M29.0485 62.4883C29.0257 62.1679 29.0077 61.946 29.0077 61.946C31.992 63.1017 34.6128 60.9619 37.1643 59.8574C37.8135 59.663 38.8235 60.0006 39.1149 59.28C39.0893 58.7273 40.1002 58.0779 39.2592 57.6929C35.5278 57.1876 33.0504 61.6834 29.225 59.6403L28.9346 59.0629C29.73 48.2008 35.8657 37.6979 46.0432 32.53C55.1395 27.3373 69.0967 27.7715 77.6624 33.8279C82.212 36.6152 86.5661 41.2068 88.9267 45.8704C91.1859 49.9557 92.2224 54.5444 92.5328 59.4241C88.586 62.4039 85.9396 56.614 81.9197 57.91C82.137 58.5358 82.2576 59.1843 82.717 59.7133C86.2794 59.6886 88.7322 63.4146 92.4616 61.946L92.4645 62.4883H74.8461C74.8086 61.7613 74.9331 61.035 75.2106 60.3618C76.438 57.5261 76.0516 53.8466 74.7047 51.2024C74.2956 50.5065 73.5742 49.9547 72.8993 49.5451C73.8874 51.6376 75.0891 54.112 74.4883 56.6832C74.419 58.6685 73.2486 60.5742 73.2353 62.4883H71.3767L71.3843 62.2361C72.0811 58.8704 74.2016 55.2886 72.4683 51.7077C71.9861 50.2666 70.9059 48.6321 69.4375 48.0311C71.6264 50.5321 72.4921 54.6164 71.2401 57.9831C70.6088 59.3217 69.7384 60.9136 69.652 62.4874H67.8523C68.5975 58.5291 71.6131 54.7842 69.5068 50.5539C68.9534 49.3043 67.8476 48.0311 66.6202 47.3086L66.5462 47.3826C69.0018 49.7623 69.7469 53.6807 68.4237 56.8273C67.8049 58.6733 66.4484 60.5087 66.1732 62.4874H55.41C55.3697 62.2055 55.304 61.9278 55.2135 61.6578C53.9862 58.1964 51.4822 54.7368 52.9743 50.6971C53.3844 49.5432 54.2036 48.5572 54.9231 47.5257C52.5406 48.799 51.3379 51.4915 51.3863 54.2315C51.2829 57.2094 53.4879 59.7616 53.8011 62.4874H51.991C51.8467 59.6697 49.3056 57.4711 49.7271 54.3036C49.8695 51.9722 50.663 49.9282 52.1789 48.1752C50.0868 49.0152 49.2212 51.4195 48.6431 53.438C47.6398 56.6756 50.0346 59.5862 50.2748 62.4874H48.3279C48.3512 61.8337 48.2378 61.1824 47.9948 60.5751C46.6963 57.235 46.2378 52.7184 48.7162 49.7613C47.3683 50.1225 46.5748 51.8025 46.1172 53.0767C44.627 56.3381 46.5121 59.3606 46.5766 62.4874H29.0485" fill="black"/>
<path d="M62.3489 34.5761L66.2482 34.7932L66.1761 35.1544L63.2886 37.8944C63.7926 39.1212 64.2986 40.3471 64.8045 41.5701C66.9943 40.2987 69.0892 38.7116 71.7357 38.5419C71.4946 39.9375 70.4362 41.4042 70.5786 42.7959C72.216 42.3399 73.71 41.3312 75.4907 41.426C74.3821 43.47 72.7693 45.5141 72.6725 48.0606C70.2425 47.1495 67.7395 46.0412 65.0219 45.6098C59.2222 44.6229 53.638 45.8971 48.8482 48.2057C48.4401 45.7786 47.2621 43.6625 45.8174 41.644C46.6831 41.3558 47.7414 41.8346 48.6337 42.0783C49.3798 42.2925 50.0053 42.7969 50.7998 42.9429C50.9422 41.5009 50.1021 40.0825 49.5013 38.76C49.9104 38.4471 50.5597 38.686 51.0172 38.833C52.9165 39.5526 54.6261 40.6817 56.3593 41.717C57.2488 40.6817 57.5838 39.1913 57.9455 37.8214L54.9877 35.1544V34.8672L58.8852 34.6491C59.5335 33.4242 59.9673 32.1263 60.6175 30.9004C61.412 31.9821 61.6768 33.4005 62.3489 34.5761Z" fill="white"/>
<path d="M63.7254 42.4295L63.3666 42.7897C61.5612 42.5982 59.6609 42.8371 57.9504 42.8637C57.7587 42.6712 57.3752 42.3821 57.7331 42.1412L60.4772 40.0488C61.6096 40.7011 62.8113 41.5411 63.7254 42.4295Z" fill="black"/>
<path d="M15.5757 43.4306C14.0826 44.5863 13.0242 46.2692 13.3384 48.1909C13.5073 48.4791 13.6744 48.9105 14.0598 48.9826C15.2624 48.9826 15.6715 47.6866 16.224 46.8921C16.8742 45.45 18.1272 43.8867 19.8348 43.7198C21.3023 43.625 22.5562 44.008 23.5177 45.1618C24.9852 46.9177 24.7204 49.7534 24.0237 51.7974C23.3716 53.3115 22.3616 54.8474 20.9188 55.8344L18.3189 54.2473C19.7389 53.2641 21.232 51.6514 21.4238 49.8491C21.4238 49.2006 21.2814 48.335 20.4841 48.262C18.8248 48.7437 18.6568 50.7375 17.5263 51.8676C16.6606 52.7578 15.5766 53.4291 14.2041 53.2366C12.9283 53.1636 11.8443 52.372 11.0992 51.3623C9.67916 49.2006 10.3768 46.0255 11.2435 44.3692C11.7741 43.4306 12.4006 42.4939 13.2662 41.7715C13.9867 42.182 14.8305 42.8077 15.5757 43.4306ZM109.856 45.3088C111.106 47.3263 111.59 49.9932 110.939 52.4459L108.268 52.3018C108.631 50.691 108.895 48.6726 107.763 47.3263C107.427 46.9177 106.825 46.6759 106.392 46.893C104.924 48.5275 106.515 50.8844 105.6 52.7341C105.165 53.577 104.516 54.5857 103.577 54.9678C102.059 55.5452 100.183 55.257 99.0277 54.1032C96.7676 51.7472 95.7073 48.0933 97.153 45.0177H99.9674C99.4861 46.2218 99.152 47.9264 99.6076 49.3447C99.8468 49.9458 100.136 50.7147 100.836 50.9309C103.145 51.0143 101.58 47.7103 102.133 46.1706C102.351 45.0177 102.975 43.8165 104.153 43.2865C106.319 42.2294 108.847 43.4306 109.856 45.3088ZM39.0383 49.8491C41.3715 48.9589 44.5476 47.422 47.0506 49.0565C46.52 49.8008 45.4882 50.2103 44.7393 50.8579C43.5139 52.0591 42.0217 53.5239 41.1323 55.0389C38.1242 54.4369 35.7161 56.1946 33.1902 57.2034C32.2277 57.3939 30.952 57.4906 30.1584 56.8422C32.541 52.9228 35.9078 49.3182 35.0668 44.1512C35.3317 43.6942 35.7882 44.0801 36.0768 44.2242C37.9315 45.6662 38.821 47.6619 39.0383 49.8491ZM86.5389 44.7295C85.602 49.632 88.9688 53.0944 91.2308 56.8431C88.6338 58.5743 86.1762 55.9045 83.7235 55.256C82.6404 55.0892 81.3666 54.9432 80.3291 55.1119C78.8398 52.8062 76.8417 50.6417 74.4108 49.3447C74.5541 48.5531 75.6609 48.5019 76.4326 48.4061C78.574 48.1919 80.4506 49.0802 82.2076 49.9942C82.5446 49.2025 82.6888 48.3113 82.928 47.4713C83.508 46.053 84.6404 44.6091 86.1079 44.0099C86.4193 44.0573 86.6357 44.3948 86.5389 44.7295ZM66.4687 49.2016C66.5427 49.6093 66.9509 49.9705 66.6861 50.4275C65.266 49.9932 63.6552 50.2331 62.2827 50.7858C61.0544 51.6988 61.2471 53.576 61.5603 54.8958L61.922 55.1859C62.5228 55.0408 62.5484 54.2729 63.0762 54.1032C63.9675 54.3203 65.1939 54.6341 66.0358 54.1032C66.781 54.1278 66.7591 55.1603 66.8294 55.6902C66.3007 58.4785 65.1218 61.5067 62.2827 62.8283C61.1028 63.4057 59.5859 63.0189 58.4554 62.6112C55.6647 60.953 54.1004 57.6604 54.4137 54.6815C54.6311 54.2245 54.968 53.8633 55.4986 54.1762C56.6263 54.9441 57.8536 53.576 58.8902 54.5345C60.1403 53.9818 59.3951 52.4459 59.3951 51.2921C58.3852 49.9932 56.6519 50.1847 55.137 50.2814C54.4621 49.8719 55.1854 49.2243 55.3515 48.7674C56.9889 46.4607 60.1185 46.4133 62.8588 46.7489C64.2561 47.1092 65.7966 47.7103 66.4687 49.2016Z" fill="white"/>
<path d="M58.0954 52.523V52.8131C57.2781 52.7401 55.9559 51.9228 55.2089 52.9562C54.7286 53.1705 54.6564 52.6178 54.7048 52.3068C54.6814 52.231 54.6742 52.1511 54.6838 52.0723C54.6934 51.9935 54.7195 51.9177 54.7605 51.8497C54.8014 51.7817 54.8562 51.7231 54.9214 51.6777C54.9866 51.6323 55.0606 51.6011 55.1386 51.5863C56.2672 51.3217 57.543 51.6574 58.0954 52.523ZM66.6867 52.1617C66.664 52.4518 66.7352 52.7875 66.3982 52.9562C65.4831 52.596 64.2074 52.0906 63.2933 52.8131C62.7627 51.683 64.233 51.9228 64.7371 51.5872C65.4841 51.5607 66.3507 51.5388 66.6867 52.1617Z" fill="white"/>
<path d="M62.0623 56.7681C61.6304 57.6811 60.2341 57.1047 59.4633 57.2715C59.2014 57.1748 59.3665 56.8885 59.3191 56.696C60.0898 56.1661 61.4614 56.0959 62.0623 56.7681ZM63.2165 58.7884C62.6423 59.6531 61.7747 60.733 60.6204 60.6638C59.3191 60.7595 59.0314 59.7014 58.0917 59.0767L58.0215 58.6415C59.7547 58.907 61.6551 58.5723 63.2165 58.7884Z" fill="black"/>
<path d="M18.2423 70.0482C19.7003 70.0406 21.0994 70.0966 22.6049 70.0615L19.2551 72.8593C19.5778 74.0368 19.8569 75.3906 20.265 76.9701L16.9437 74.6625C15.5475 75.2996 14.7064 76.0808 13.2636 76.8251L14.4179 72.8583C13.3215 71.9624 12.0961 71.112 11.0596 70.199C12.5707 70.1601 13.8939 70.2208 15.3548 70.1914C16.0297 68.9304 16.3306 67.4856 16.9437 66.2246L18.2423 70.0482ZM35.3518 89.0117C35.6423 89.7076 36.0609 90.2594 36.2394 91.3042C35.4705 91.7877 34.4985 92.184 33.6195 92.6173C33.405 91.0302 32.0078 89.4914 30.4444 89.0819C29.1459 88.7595 27.7259 89.3729 26.7643 90.5258C25.9689 91.4606 25.7278 92.8088 25.9689 93.9863C26.5953 95.6179 28.3277 96.8504 30.0837 96.8504L30.5887 96.8656C30.2251 97.7654 29.7913 98.6353 29.2911 99.4671C26.378 99.3685 23.443 97.662 22.359 94.849C21.4212 92.568 21.8312 89.6109 23.2987 87.7109C25.0795 85.4536 27.9195 84.8278 30.6627 85.4052C32.5118 85.9115 34.2451 87.3042 35.3518 89.0117ZM91.4418 87.4986L91.624 87.6768L87.2928 91.7043L88.7365 93.4449C89.9629 92.4836 91.288 91.4615 92.5989 90.2376C93.2728 90.8026 93.8158 91.4615 94.4518 92.2096C93.1542 93.4449 91.8044 94.2868 90.6748 95.4653C91.1561 96.0673 91.5272 96.7499 92.261 97.4724L96.9311 93.626L98.9263 95.6814C96.2799 98.192 93.3934 100.777 90.6502 102.783L82.4917 92.2551C85.0916 90.0906 87.2804 88.1205 89.5671 85.8366C90.2657 86.2955 90.7717 86.8946 91.4418 87.4986ZM45.5312 96.3669C46.9987 98.2413 47.0224 101.148 46.1074 103.287C45.087 105.463 43.1249 106.846 40.9826 107.326C38.3865 107.733 35.9309 106.894 34.0533 105.093C32.3941 103.265 31.479 100.646 32.32 98.0991C33.0661 95.3345 35.7609 93.316 38.5298 92.9794C41.3917 92.8097 44.039 94.1313 45.5312 96.3669Z" fill="white"/>
<path d="M42.5021 98.0878C43.3175 99.9859 42.3797 101.86 41.0565 103.206C40.2155 103.878 39.1134 104.302 38.0076 103.893C37.3109 103.556 36.4499 102.941 36.2573 102.195C35.7266 100.273 36.6066 98.4709 37.9526 97.1493C38.7708 96.4752 39.9506 96.0921 40.9834 96.5719C41.6099 96.7634 42.3075 97.4621 42.5021 98.0878Z" fill="#606060"/>
<path d="M71.2299 101.144C69.2052 101.435 67.2717 101.676 65.3438 101.989C65.5384 102.937 65.452 103.572 65.5973 104.294C67.4027 104.259 68.9793 103.939 70.6642 103.722L71.1568 106.805C69.4426 107.123 67.7161 107.372 65.9817 107.551C66.0301 108.944 66.2152 110.649 66.1934 112.188C64.7743 112.405 63.2423 112.561 61.7738 112.464L60.9082 99.3187L60.8968 99.0428C64.1366 98.7341 67.3656 98.3209 70.5787 97.8037C70.7126 98.7897 71.0135 99.9284 71.2299 101.144ZM82.2702 95.2344L82.3917 95.46L77.1055 98.108L78.0006 100.183C79.6134 99.569 81.0058 98.9964 82.6081 98.1877C83.097 98.9205 83.432 99.7046 83.8345 100.599C82.3813 101.372 80.8768 101.972 79.2925 102.667C79.5868 103.378 79.7349 103.897 80.2522 105.038L85.8155 102.654L87.1549 105.189C83.9085 106.856 80.4116 108.526 77.2128 109.683L72.3405 97.2936C75.4435 95.9455 78.1003 94.6665 80.9347 93.1183C81.4786 93.7516 81.7946 94.4703 82.2702 95.2344ZM58.9234 102.638C56.9101 102.301 54.9889 101.942 53.061 101.653C52.9537 102.616 52.6813 103.197 52.6006 103.926C54.3311 104.441 55.9295 104.616 57.6001 104.921L57.1303 108.012C55.3997 107.793 53.6786 107.505 51.9713 107.147C51.5935 108.488 51.2537 110.17 50.7649 111.63C49.3448 111.405 47.8365 111.086 46.4678 110.547L49.6438 97.7629L49.7188 97.4984C52.9196 98.1896 56.1982 98.7926 59.3201 99.259C59.1455 100.238 59.0847 101.418 58.9234 102.638ZM105.706 70.0638C107.161 70.0582 108.462 70.097 110.066 70.079L106.719 72.8768C107.045 74.0524 107.321 75.4063 107.727 76.9877L104.409 74.6781C103.01 75.3134 102.17 76.0965 100.726 76.8407L101.881 72.8758C100.786 71.9818 99.5573 71.1276 98.5264 70.2146C100.034 70.1757 101.358 70.2364 102.818 70.207C103.407 68.8939 103.829 67.633 104.409 66.2402L105.706 70.0638Z" fill="white"/>
</svg>
