<svg width="154" height="65" viewBox="0 0 154 65" fill="none" xmlns="http://www.w3.org/2000/svg">
<path d="M45.8125 32.2493C45.8125 14.9571 59.8473 0.9375 77.1623 0.9375C94.4757 0.9375 108.511 14.9571 108.511 32.2493C108.511 49.5431 94.4757 63.5612 77.1623 63.5612C59.8473 63.5612 45.8125 49.5426 45.8125 32.2493Z" fill="#397657"/>
<path d="M46.7383 32.2471C46.7383 15.4648 60.3595 1.85938 77.1634 1.85938C93.9662 1.85938 107.588 15.4648 107.588 32.2471C107.588 49.0299 93.9662 62.6359 77.1634 62.6359C60.3595 62.6354 46.7383 49.0299 46.7383 32.2471Z" fill="white"/>
<path d="M47.7305 32.2411C47.7305 16.0055 60.9084 2.84375 77.165 2.84375C93.4206 2.84375 106.599 16.0055 106.599 32.2411C106.599 48.4778 93.4201 61.6395 77.165 61.6395C60.9079 61.6395 47.7305 48.4778 47.7305 32.2411Z" fill="#397657"/>
<path d="M58.9688 32.1189C58.9688 22.1195 67.084 14.014 77.0943 14.014C87.1047 14.014 95.2194 22.1195 95.2194 32.1189C95.2194 42.1168 87.1047 50.2219 77.0943 50.2219C67.084 50.2219 58.9688 42.1168 58.9688 32.1189ZM79.9604 5.43409C80.4569 5.87882 80.5976 6.4641 80.572 7.11312C80.4318 7.57191 80.1775 8.01664 79.7689 8.33538C80.2665 8.70381 80.7635 9.0863 80.8394 9.74737C80.9801 10.3964 80.7881 10.9812 80.4187 11.4651C79.6423 12.3425 78.4065 12.1141 77.2848 12.1512L74.3233 12.229L74.3032 11.96L73.9986 5.24285L73.9861 5.09628C75.935 5.08373 78.2276 4.58027 79.9604 5.43409ZM85.4774 6.38128C84.9543 7.88914 84.2673 9.37844 83.8964 10.9686C83.8755 11.1741 83.9298 11.3802 84.0494 11.5488C84.169 11.7173 84.3456 11.8368 84.5467 11.8852C84.8598 12.0574 85.3051 12.0895 85.5403 11.8852C86.5474 10.4732 87.0253 8.71686 87.6565 7.1322C88.4586 7.41279 89.0838 7.81335 89.8612 8.10599C89.032 9.86232 88.5224 11.9304 87.3756 13.374C86.5479 14.0993 85.2357 13.9206 84.2427 13.6787C83.1084 13.2721 81.8726 12.5473 81.5289 11.2743C81.262 10.4029 82.4722 7.41229 83.134 5.62533L85.4774 6.38128Z" fill="white"/>
<path d="M67.1207 14.7543L65.4386 15.8601C64.8109 15.5298 64.4446 15.3069 63.9862 15.0971L62.1243 16.6627C62.3157 17.1215 62.56 17.6807 62.7635 18.1897L61.1006 20.0464L60.9669 19.7537L58.0234 12.7686L60.7116 10.4586L60.9282 10.5926C63.0374 11.8786 65.2049 13.395 67.3413 14.6092L67.1207 14.7543ZM67.5408 14.4983C66.6578 12.3474 65.5763 9.83514 64.7762 7.81779C66.8025 7.00312 69.7329 4.99932 71.5411 6.86408C71.9994 7.37306 72.0633 8.08533 72.0758 8.73436C71.9623 9.15349 71.8587 9.57463 71.5793 9.91796C72.1839 10.6614 73.3066 11.5051 74.083 12.243L73.9875 12.2751L71.6944 12.7806C70.8788 12.1256 70.4169 11.6633 69.7073 11.1774C69.4012 11.2145 69.1907 11.3937 68.9032 11.5207L69.6932 13.3282L67.5408 14.4983Z" fill="white"/>
<path d="M77.9717 6.62287C78.1496 6.81261 78.1124 7.20815 78.0089 7.42449C77.6787 7.80698 77.0671 7.79293 76.5575 7.72918C76.5947 7.297 76.4349 6.87686 76.4671 6.43213C76.9003 6.49538 77.6531 6.27853 77.9717 6.62287ZM69.5635 8.37821C69.6896 8.69644 69.6972 9.21446 69.4258 9.40319L68.1649 9.93727C67.8503 9.35952 67.7166 8.96348 67.5 8.49365C68.0855 8.27731 69.0911 7.3994 69.5635 8.37821ZM78.3918 9.52366C78.4929 9.9699 78.2903 10.4277 77.8566 10.517C77.4491 10.5798 77.144 10.5421 76.7103 10.5547C76.6465 10.0959 76.6093 9.48551 76.6465 9.10353C77.2319 9.17982 78.1124 8.86209 78.3918 9.52366Z" fill="#397657"/>
<path d="M95.59 12.0067C96.0237 12.5408 96.3177 13.2024 96.5082 13.8765C95.973 14.1636 95.5654 14.4884 95.0553 14.7167C94.9292 13.9277 94.4955 13.1261 93.7185 12.732C93.3491 12.5152 92.8004 12.477 92.3807 12.6171C91.7304 12.8585 91.1706 13.4187 90.9283 14.0677C90.7117 14.6911 90.9535 15.3015 91.3113 15.7849C91.8073 16.3451 92.4712 16.6387 93.2205 16.6638C92.8838 17.217 92.6998 17.5663 92.3807 18C91.1314 17.8213 89.9599 17.1341 89.2468 15.9761C88.6352 14.9968 88.5975 13.4955 89.1327 12.4645C89.6926 11.3316 90.8017 10.6062 91.9978 10.4406C93.4381 10.3899 94.7372 10.9626 95.59 12.0067Z" fill="white"/>
<path d="M62.4932 14.1354C62.1331 14.467 61.7502 14.7729 61.3474 15.051C61.0413 14.3256 60.7478 13.6766 60.4297 12.875C61.1614 13.264 61.8042 13.7148 62.4932 14.1354Z" fill="#397657"/>
<path d="M99.4185 16.5049C98.833 17.0901 98.0561 17.5871 97.4304 18.1467C98.4249 18.3626 99.5451 18.3244 100.565 18.4901C101.024 19.1527 101.265 19.7886 101.712 20.5897L97.9661 20.3232C97.1379 21.6208 96.3866 22.9439 95.6724 24.2927C95.2272 23.6436 94.8839 22.8049 94.4497 22.0795C94.9347 21.0992 95.5644 20.0622 96.0499 19.0819C95.2156 19.5979 94.4829 20.2655 93.6336 20.7996L92.3104 19.0242C94.0934 17.4972 96.0172 16.1359 97.8902 14.75L98.042 14.6953L99.4185 16.5049ZM57.3633 16.0345C57.0251 16.7342 56.5793 17.2111 56.2682 17.8792L60.6249 20.7418C60.3952 21.3904 59.8987 22.0278 59.4775 22.6503L55.0063 19.8634C54.6053 20.3915 54.3178 20.9326 53.9163 21.6072C53.3303 21.2197 52.9162 20.9647 52.4453 20.6284C53.5544 18.7817 54.6053 17.052 55.828 15.136L57.3633 16.0345Z" fill="white"/>
<path d="M69.6166 33.0552C69.6244 33.3569 69.5936 33.6583 69.5251 33.9522C68.8502 35.314 67.7551 36.5091 67.5772 38.0757C66.8003 38.5707 66.162 39.4365 65.0544 39.1444C65.0157 39.4365 65.1052 39.8808 65.2067 40.212C64.3282 40.1749 63.7287 40.8229 62.9894 41.1286C62.5949 41.0021 62.4929 40.4921 62.3406 40.1362C63.206 39.8441 63.8302 38.9782 64.8242 38.9923C64.9393 38.6726 64.7599 38.3804 64.7092 38.0757C63.4729 37.5276 61.5114 40.7853 61.3466 37.9608C62.5818 37.8845 63.3719 36.739 64.5956 36.6246L64.6328 35.708C63.2442 35.568 62.3522 36.9935 60.9641 36.853L60.6576 35.6322C62.2627 35.7331 63.2191 34.296 64.7479 34.2187C64.9509 33.9522 64.9765 33.5571 65.0157 33.1882C63.3467 32.9714 62.2004 34.8175 60.4294 34.2569C60.4294 34.2569 60.3691 33.4884 60.3359 33.0547H69.6166" fill="black"/>
<path d="M71.5788 33.0547C71.6351 33.7323 71.4692 34.4085 70.83 35.0976C69.9123 36.1778 68.9831 37.5396 69.6455 38.9918C70.3465 40.5935 72.5502 41.8409 71.5944 43.8387C71.0727 45.0986 69.8234 46.0533 69.8746 47.5416C69.5439 47.4015 69.2007 47.261 68.9198 47.0075C68.9198 45.1116 71.6195 43.928 70.3329 41.9302C70.2194 42.3243 70.1937 42.8588 70.1043 43.3046C69.6575 44.4626 68.7027 45.3907 68.3453 46.5889C67.7478 46.3585 67.1226 45.8751 66.6256 45.3661L67.3146 44.9455C67.2382 44.6905 67.0337 44.4746 66.8553 44.2583C66.4085 44.1955 66.116 44.4877 65.7471 44.6026C65.4285 44.322 65.122 44.0675 64.8682 43.7242C65.0968 43.0742 66.8809 43.6103 65.9758 42.5411C65.3647 42.1596 64.7536 42.7067 64.2184 42.9617L63.4922 42.0452C64.1164 41.6637 64.74 41.1286 65.5165 41.2817C65.7079 41.626 65.7215 42.1335 66.0904 42.3132C67.4026 42.2876 68.3328 41.2948 69.3389 40.5182C68.6373 39.4762 68.0654 38.0371 68.6886 36.7772C69.1876 35.5143 70.4892 34.4516 70.548 33.0557H71.5788" fill="black"/>
<path d="M73.4413 33.0547C73.5066 33.637 73.4107 34.2343 73.0036 34.8672C72.1764 35.9886 71.0934 37.1702 71.5894 38.6464C72.0608 40.1357 73.9213 41.0388 73.8067 42.77C73.7941 44.818 71.411 46.0914 72.0864 48.3818L70.9019 47.9993C70.431 45.9639 72.5965 44.9209 72.6216 43.0375C72.9277 40.8731 70.1616 40.071 70.3275 37.9603C70.3159 36.3565 71.7296 35.3386 72.3538 33.9898C72.454 33.6887 72.4976 33.3717 72.4824 33.0547H73.4413Z" fill="black"/>
<path d="M79.9928 33.0552C79.9134 33.5867 80.0101 34.1296 80.2682 34.6012C81.0959 35.9108 82.5487 37.2992 81.6426 38.9923C80.6883 40.3902 79.0957 41.753 79.7319 43.5716C80.433 45.1628 81.8979 46.6767 81.1074 48.6499L79.9234 48.9164C80.8657 46.9939 79.4525 45.087 78.6248 43.4195C77.6177 41.0272 80.7898 39.8803 80.8406 37.6932C80.8285 36.2817 79.3249 35.4796 79.0072 34.1816C78.3569 33.6334 77.6815 34.3984 76.9041 34.2569C76.3306 34.3723 75.4517 33.4678 75.1084 34.4481C74.7004 35.8852 72.8394 36.9423 73.6561 38.647C74.4335 40.1618 76.305 41.2687 75.6803 43.2293C75.1205 45.0604 73.2731 46.8047 74.4194 48.9164C73.948 48.7643 73.0686 49.0565 73.0816 48.3055C72.3554 45.7476 75.4517 44.2588 74.4953 41.7018C74.0501 40.1362 72.0238 39.2704 72.47 37.387C72.7997 35.837 74.539 34.7528 74.2948 33.0547H79.9928" fill="black"/>
<path d="M81.8342 33.0547C81.8095 33.4899 81.8975 33.9226 82.1784 34.3332C83.0579 35.7587 84.5867 37.3243 83.7077 39.182C82.7141 40.6703 80.9813 42.1847 81.9487 44.1448C82.6498 45.3154 83.7333 46.4849 83.4408 47.924L82.2935 48.3055C83.0579 45.6211 79.3118 44.0419 80.8798 41.3575C81.8482 39.9194 83.58 38.5701 82.6001 36.6617C82.0141 35.4796 80.8034 34.7794 80.8411 33.3021L80.8823 33.0552L81.8342 33.0547Z" fill="black"/>
<path d="M83.73 33.0552C83.7238 33.4363 83.8209 33.8119 84.011 34.1424C84.8392 35.6327 86.3302 37.0442 85.7699 38.914C85.6156 39.4877 85.1588 39.9335 85.0437 40.5177C86.0131 41.3199 86.9298 42.2224 88.2158 42.2736C88.6741 41.9814 88.4194 40.6834 89.3621 41.2812L90.7376 41.9694C90.6371 42.3378 90.3301 42.6696 90.0506 42.9231C89.5285 42.6691 89.0189 42.3634 88.3681 42.388C88.1761 42.5918 88.0103 42.8212 88.0248 43.1133C88.4832 43.1886 88.9023 43.3799 89.2853 43.6474C89.1073 44.0299 88.7626 44.2708 88.444 44.564L87.374 44.1815C87.1961 44.4365 86.8253 44.704 86.9549 44.9836C87.1961 45.0865 87.4645 45.2256 87.6419 45.4042C87.1705 45.9132 86.5725 46.2425 85.9981 46.5884C85.5025 44.9716 83.8702 43.8382 84.0105 41.9689L83.9351 41.8926C83.5521 42.3238 83.6808 43.0119 83.7059 43.5711C84.1647 44.7417 85.2603 45.6467 85.4261 46.9307C85.2347 47.261 84.8015 47.3247 84.4698 47.4648C84.5085 45.1493 80.9926 43.3944 83.2476 41.0523C83.9994 39.9053 85.2603 38.8121 84.8135 37.234C84.3552 35.7095 82.732 34.7633 82.746 33.0547H83.73" fill="black"/>
<path d="M93.9138 33.0552C93.9264 33.4854 93.9661 33.8553 93.7977 34.2965C92.0524 34.7925 90.9061 32.9473 89.2124 33.2259L89.4029 34.1816C90.9699 34.2328 91.9509 35.7336 93.5691 35.6689C93.3394 36.1276 93.6711 37.3363 92.6524 36.853C91.5951 36.599 90.8302 35.6689 89.6708 35.6689C89.5311 35.9249 89.6195 36.2817 89.5949 36.5854C90.8176 36.7767 91.6966 37.8082 92.9188 37.9989C92.8037 38.4186 92.6891 38.8879 92.3454 39.1439C91.3508 38.9019 90.5744 38.0105 89.516 38.0361L89.3265 38.9135C90.3326 38.9391 90.9829 39.8301 91.887 40.0966C91.9117 40.467 91.5815 40.7973 91.3905 41.1281C90.5884 40.8872 89.9763 40.1995 89.0592 40.2507C89.0461 39.9053 89.2501 39.5123 89.1727 39.1439C88.1425 39.4496 87.453 38.4949 86.6901 37.9211C86.668 36.0448 84.6905 34.8125 84.5859 33.0547H93.9138" fill="black"/>
<path d="M60.3377 33.0611C60.3256 32.8915 60.316 32.774 60.316 32.774C61.8961 33.3859 63.2836 32.253 64.6345 31.6682C64.9782 31.5653 65.5129 31.744 65.6672 31.3625C65.6537 31.0699 66.1889 30.726 65.7436 30.5222C63.7681 30.2547 62.4564 32.635 60.4311 31.5533L60.2773 31.2476C60.6985 25.4967 63.947 19.9361 69.3354 17.1999C74.1513 14.4507 81.5409 14.6806 86.0759 17.8871C88.4847 19.3628 90.7899 21.7938 92.0397 24.2629C93.2358 26.4258 93.7846 28.8553 93.9489 31.4388C91.8593 33.0165 90.4582 29.951 88.3299 30.6372C88.445 30.9685 88.5088 31.3118 88.752 31.5919C90.6381 31.5789 91.9367 33.5515 93.9112 32.774L93.9127 33.0611H84.5848C84.565 32.6762 84.6309 32.2917 84.7778 31.9352C85.4276 30.4339 85.2231 28.4858 84.51 27.0859C84.2934 26.7174 83.9114 26.4253 83.5541 26.2085C84.0773 27.3163 84.7135 28.6264 84.3954 29.9877C84.3587 31.0388 83.7391 32.0477 83.732 33.0611H82.748L82.752 32.9276C83.1209 31.1457 84.2436 29.2493 83.326 27.3534C83.0707 26.5904 82.4987 25.7251 81.7213 25.4068C82.8802 26.731 83.3385 28.8934 82.6756 30.6758C82.3415 31.3846 81.8806 32.2274 81.8349 33.0606H80.882C81.2765 30.965 82.8731 28.9823 81.758 26.7425C81.465 26.081 80.8795 25.4068 80.2297 25.0244L80.1905 25.0635C81.4906 26.3234 81.8851 28.398 81.1846 30.064C80.8569 31.0413 80.1388 32.013 79.993 33.0606H74.2946C74.2732 32.9114 74.2384 32.7644 74.1905 32.6214C73.5407 30.7888 72.215 28.9572 73.005 26.8183C73.2221 26.2075 73.6558 25.6854 74.0368 25.1393C72.7753 25.8134 72.1386 27.239 72.1642 28.6896C72.1095 30.2663 73.2769 31.6175 73.4427 33.0606H72.4844C72.408 31.5688 71.0626 30.4048 71.2858 28.7278C71.3612 27.4935 71.7813 26.4113 72.5839 25.4831C71.4762 25.9279 71.0179 27.2008 70.7119 28.2695C70.1807 29.9837 71.4486 31.5246 71.5758 33.0606H70.545C70.5573 32.7146 70.4973 32.3697 70.3686 32.0482C69.6811 30.2798 69.4384 27.8885 70.7506 26.3229C70.0369 26.5142 69.6168 27.4036 69.3746 28.0782C68.5856 29.805 69.5836 31.4052 69.6178 33.0606H60.3377" fill="black"/>
<path d="M78.0103 18.3054L80.0748 18.4204L80.0366 18.6116L78.5078 20.0623C78.7747 20.7118 79.0425 21.3608 79.3104 22.0084C80.4698 21.3352 81.5789 20.495 82.98 20.4051C82.8524 21.144 82.292 21.9205 82.3674 22.6574C83.2343 22.4159 84.0253 21.8819 84.9681 21.9321C84.3812 23.0143 83.5273 24.0965 83.4761 25.4447C82.1895 24.9624 80.8643 24.3756 79.4255 24.1472C76.3549 23.6246 73.3984 24.2993 70.8625 25.5215C70.6464 24.2365 70.0227 23.1162 69.2578 22.0475C69.7161 21.8949 70.2765 22.1484 70.7489 22.2774C71.1439 22.3908 71.4751 22.6579 71.8957 22.7352C71.9711 21.9717 71.5263 21.2208 71.2082 20.5206C71.4248 20.3549 71.7686 20.4814 72.0108 20.5592C73.0164 20.9402 73.9215 21.538 74.8392 22.0862C75.3101 21.538 75.4875 20.749 75.6789 20.0236L74.113 18.6116V18.4595L76.1765 18.3441C76.5197 17.6956 76.7494 17.0084 77.0936 16.3594C77.5143 16.9321 77.6545 17.683 78.0103 18.3054Z" fill="white"/>
<path d="M78.7388 22.4635L78.5488 22.6543C77.593 22.5529 76.5869 22.6794 75.6813 22.6934C75.5797 22.5915 75.3767 22.4384 75.5662 22.3109L77.0191 21.2031C77.6186 21.5485 78.2548 21.9932 78.7388 22.4635Z" fill="black"/>
<path d="M53.2458 22.9956C52.4553 23.6075 51.895 24.4985 52.0613 25.5159C52.1508 25.6685 52.2392 25.8969 52.4432 25.935C53.08 25.935 53.2966 25.2489 53.5891 24.8282C53.9333 24.0648 54.5967 23.237 55.5008 23.1487C56.2777 23.0985 56.9416 23.3013 57.4507 23.9122C58.2276 24.8418 58.0874 26.3431 57.7185 27.4253C57.3733 28.227 56.8386 29.0401 56.0747 29.5627L54.6982 28.7224C55.45 28.2019 56.2405 27.348 56.3421 26.3938C56.3421 26.0505 56.2667 25.5922 55.8445 25.5536C54.9661 25.8086 54.8771 26.8642 54.2786 27.4625C53.8202 27.9338 53.2463 28.2892 52.5196 28.1873C51.8442 28.1487 51.2703 27.7295 50.8758 27.1949C50.124 26.0505 50.4933 24.3695 50.9522 23.4925C51.2331 22.9956 51.5648 22.4997 52.0231 22.1172C52.4045 22.3345 52.8513 22.6658 53.2458 22.9956ZM103.162 23.99C103.824 25.0581 104.08 26.4701 103.735 27.7687L102.321 27.6924C102.513 26.8396 102.653 25.7709 102.054 25.0581C101.876 24.8418 101.557 24.7138 101.328 24.8287C100.551 25.6941 101.393 26.942 100.908 27.9213C100.678 28.3675 100.335 28.9016 99.8376 29.1039C99.034 29.4096 98.0404 29.257 97.4288 28.6461C96.2322 27.3987 95.6709 25.4642 96.4363 23.8359H97.9263C97.6715 24.4734 97.4946 25.3759 97.7359 26.1268C97.8625 26.445 98.0158 26.8521 98.3862 26.9666C99.6089 27.0107 98.7802 25.2614 99.0732 24.4463C99.1883 23.8359 99.5189 23.1999 100.143 22.9193C101.289 22.3596 102.628 22.9956 103.162 23.99ZM65.6679 26.3938C66.9032 25.9225 68.5848 25.1088 69.91 25.9742C69.6291 26.3682 69.0828 26.5851 68.6863 26.9279C68.0375 27.5639 67.2475 28.3394 66.7766 29.1415C65.184 28.8228 63.909 29.7534 62.5717 30.2875C62.0621 30.3884 61.3867 30.4396 60.9665 30.0962C62.228 28.0212 64.0105 26.1127 63.5653 23.3771C63.7055 23.1351 63.9472 23.3394 64.1 23.4157C65.082 24.1792 65.5529 25.2358 65.6679 26.3938ZM90.8167 23.6833C90.3207 26.2789 92.1033 28.112 93.3008 30.0967C91.9259 31.0133 90.6247 29.5998 89.3261 29.2565C88.7527 29.1681 88.0783 29.0908 87.529 29.1802C86.7405 27.9594 85.6826 26.8135 84.3956 26.1268C84.4715 25.7077 85.0575 25.6806 85.466 25.6299C86.5998 25.5164 87.5933 25.9867 88.5236 26.4706C88.702 26.0515 88.7784 25.5797 88.905 25.1349C89.2121 24.384 89.8116 23.6195 90.5886 23.3023C90.7534 23.3274 90.868 23.5061 90.8167 23.6833ZM80.1907 26.051C80.2299 26.2668 80.446 26.4581 80.3058 26.7C79.554 26.4701 78.7012 26.5971 77.9745 26.8898C77.3242 27.3731 77.4262 28.367 77.592 29.0657L77.7835 29.2193C78.1016 29.1425 78.1152 28.7359 78.3946 28.6461C78.8665 28.761 79.5158 28.9272 79.9616 28.6461C80.3561 28.6591 80.3445 29.2058 80.3817 29.4864C80.1018 30.9626 79.4776 32.5658 77.9745 33.2656C77.3498 33.5713 76.5467 33.3665 75.9482 33.1506C74.4707 32.2727 73.6425 30.5294 73.8083 28.9523C73.9234 28.7103 74.1018 28.5191 74.3827 28.6847C74.9797 29.0913 75.6296 28.367 76.1783 28.8745C76.8402 28.5818 76.4457 27.7687 76.4457 27.1578C75.911 26.4701 74.9933 26.5715 74.1912 26.6227C73.8339 26.4059 74.2169 26.063 74.3048 25.8211C75.1717 24.5998 76.8286 24.5748 78.2795 24.7524C79.0193 24.9432 79.8349 25.2614 80.1907 26.051Z" fill="white"/>
<path d="M75.7577 27.8083V27.9619C75.325 27.9232 74.6249 27.4905 74.2294 28.0376C73.9751 28.1511 73.9369 27.8584 73.9625 27.6938C73.9501 27.6537 73.9463 27.6114 73.9514 27.5697C73.9565 27.528 73.9703 27.4878 73.992 27.4518C74.0137 27.4158 74.0427 27.3848 74.0772 27.3607C74.1117 27.3367 74.1509 27.3202 74.1922 27.3123C74.7897 27.1723 75.4652 27.35 75.7577 27.8083ZM80.3063 27.617C80.2942 27.7706 80.3319 27.9483 80.1535 28.0376C79.669 27.8469 78.9936 27.5794 78.5096 27.9619C78.2287 27.3635 79.0072 27.4905 79.274 27.3128C79.6695 27.2988 80.1284 27.2872 80.3063 27.617Z" fill="white"/>
<path d="M77.8581 30.0546C77.6295 30.538 76.8902 30.2328 76.4821 30.3212C76.3434 30.27 76.4309 30.1184 76.4057 30.0165C76.8138 29.7359 77.54 29.6987 77.8581 30.0546ZM78.4692 31.1243C78.1652 31.5821 77.7058 32.1538 77.0947 32.1172C76.4057 32.1679 76.2535 31.6077 75.7559 31.2769L75.7188 31.0465C76.6364 31.187 77.6425 31.0098 78.4692 31.1243Z" fill="black"/>
<path d="M54.6583 37.0869C55.4302 37.0829 56.171 37.1125 56.968 37.0939L55.1945 38.5752C55.3654 39.1986 55.5131 39.9154 55.7292 40.7516L53.9708 39.5299C53.2315 39.8672 52.7863 40.2808 52.0224 40.6748L52.6335 38.5747C52.0531 38.1003 51.4043 37.6501 50.8555 37.1667C51.6555 37.1461 52.3561 37.1782 53.1295 37.1627C53.4868 36.4951 53.6461 35.7301 53.9708 35.0625L54.6583 37.0869ZM63.7168 47.1269C63.8706 47.4954 64.0922 47.7875 64.1867 48.3407C63.7796 48.5967 63.265 48.8065 62.7997 49.0359C62.6861 48.1956 61.9463 47.3809 61.1186 47.1641C60.4311 46.9934 59.6793 47.3182 59.1702 47.9286C58.7491 48.4235 58.6214 49.1373 58.7491 49.7607C59.0808 50.6246 59.9979 51.2771 60.9276 51.2771L61.195 51.2851C61.0025 51.7615 60.7728 52.2221 60.508 52.6625C58.9657 52.6103 57.4118 51.7068 56.8379 50.2175C56.3413 49.0098 56.5584 47.4442 57.3354 46.4383C58.2782 45.2431 59.7818 44.9118 61.2342 45.2175C62.2132 45.4856 63.1308 46.2229 63.7168 47.1269ZM93.4132 46.3258L93.5097 46.4202L91.2165 48.5525L91.9809 49.4741C92.6302 48.9651 93.3318 48.424 94.0258 47.776C94.3826 48.0751 94.6701 48.424 95.0068 48.82C94.3198 49.4741 93.6052 49.9198 93.0071 50.5437C93.2619 50.8625 93.4584 51.2239 93.8469 51.6064L96.3195 49.57L97.3758 50.6582C95.9747 51.9874 94.4465 53.3562 92.9941 54.4178L88.6746 48.8441C90.0511 47.6982 91.21 46.6551 92.4207 45.4459C92.7905 45.6889 93.0584 46.0061 93.4132 46.3258ZM69.1062 51.0211C69.8831 52.0135 69.8957 53.5525 69.4113 54.6849C68.871 55.8368 67.8322 56.5692 66.698 56.8232C65.3235 57.039 64.0234 56.5948 63.0293 55.6411C62.1509 54.6733 61.6664 53.2864 62.1117 51.9382C62.5067 50.4745 63.9334 49.4058 65.3994 49.2276C66.9146 49.1378 68.3162 49.8375 69.1062 51.0211Z" fill="white"/>
<path d="M67.5025 51.9318C67.9342 52.9367 67.4377 53.9291 66.7371 54.6413C66.2919 54.9972 65.7084 55.2216 65.1229 55.0052C64.7541 54.8271 64.2982 54.5013 64.1962 54.1062C63.9153 53.0888 64.3812 52.1346 65.0938 51.4349C65.527 51.078 66.1517 50.8752 66.6984 51.1292C67.0301 51.2306 67.3995 51.6005 67.5025 51.9318Z" fill="#397657"/>
<path d="M82.7117 53.5497C81.6397 53.7038 80.616 53.8313 79.5953 53.997C79.6984 54.4989 79.6526 54.8352 79.7295 55.2177C80.6854 55.1991 81.5201 55.0295 82.4122 54.9145L82.673 56.5469C81.7654 56.7155 80.8513 56.8473 79.9331 56.9419C79.9587 57.6793 80.0567 58.5823 80.0451 59.397C79.2938 59.5119 78.4827 59.5942 77.7052 59.543L77.2469 52.5835L77.2409 52.4374C78.9562 52.274 80.6658 52.0552 82.3669 51.7813C82.4378 52.3034 82.5971 52.9062 82.7117 53.5497ZM88.5569 50.421L88.6212 50.5405L85.8225 51.9425L86.2964 53.0412C87.1502 52.716 87.8875 52.4128 88.7358 51.9846C88.9946 52.3726 89.172 52.7878 89.3851 53.2611C88.6157 53.6707 87.8191 53.9884 86.9804 54.3564C87.1362 54.7328 87.2146 55.0074 87.4884 55.6112L90.4339 54.3493L91.143 55.6916C89.4243 56.574 87.5729 57.4584 85.8793 58.0708L83.2997 51.5113C84.9425 50.7975 86.3492 50.1204 87.8498 49.3007C88.1377 49.636 88.3051 50.0165 88.5569 50.421ZM76.1961 54.3408C75.1302 54.1626 74.113 53.9724 73.0923 53.8193C73.0355 54.3293 72.8913 54.637 72.8486 55.023C73.7647 55.2955 74.611 55.3879 75.4955 55.5495L75.2467 57.1859C74.3305 57.0702 73.4193 56.9174 72.5154 56.7281C72.3154 57.4379 72.1354 58.3288 71.8766 59.1018C71.1248 58.9824 70.3262 58.8137 69.6016 58.5281L71.2831 51.7598L71.3228 51.6197C73.0174 51.9856 74.7532 52.3049 76.4061 52.5518C76.3137 53.0704 76.2815 53.6948 76.1961 54.3408ZM100.965 37.0947C101.735 37.0917 102.424 37.1123 103.273 37.1027L101.501 38.584C101.674 39.2064 101.82 39.9232 102.035 40.7605L100.278 39.5377C99.5372 39.874 99.0924 40.2886 98.328 40.6827L98.9396 38.5835C98.3597 38.1101 97.7094 37.6579 97.1636 37.1745C97.9617 37.1539 98.6627 37.186 99.4356 37.1705C99.7477 36.4753 99.9709 35.8077 100.278 35.0703L100.965 37.0947Z" fill="white"/>
</svg>
