<svg width="147" height="43" viewBox="0 0 147 43" fill="none" xmlns="http://www.w3.org/2000/svg">
<g id="Vector">
<path d="M73.8312 16.3689C73.3993 18.0196 71.8089 21.4892 69.8694 24.6616C69.5061 25.2548 69.1303 25.8382 68.7488 26.3964C66.3226 29.9403 62.313 36.0957 54.6178 34.79C53.1382 34.5347 51.9139 34.1407 50.8649 33.6624L50.8635 33.661C46.9198 31.8659 45.4529 28.8899 42.2118 27.7483C38.1083 26.3024 34.2838 27.9811 31.9053 29.054C29.5267 30.1269 20.0126 34.79 17.0745 36.1433C14.4266 37.3621 12.8026 38.1643 12.5067 38.3087C12.7269 38.1797 13.7016 37.6019 15.2877 36.4617C17.7406 35.0074 20.9536 32.95 21.7614 32.4114C22.8806 31.6653 27.2407 28.7735 32.0918 26.1622C36.9414 23.5508 41.8388 21.3125 46.363 20.753C49.3937 20.3785 51.3473 21.579 52.3066 22.4106C52.308 22.4134 52.3108 22.4148 52.3136 22.4176C52.3781 22.4948 52.4482 22.5733 52.5184 22.6491C52.6754 22.8187 52.8381 22.98 53.0008 23.1301L53.0036 23.1343C57.9121 27.7119 65.0351 24.3797 67.4417 21.45C69.9297 18.4207 72.5256 13.4771 72.2465 11.0985C71.966 8.72001 70.0068 8.72001 70.0068 8.72001C70.0068 8.72001 68.3281 9.74659 66.4165 9.46611C64.5036 9.18702 62.7323 8.2544 61.8923 8.20671C61.0536 8.16043 60.2135 8.20671 60.2135 8.20671C60.2135 8.20671 62.4518 6.0147 63.3382 5.45513C64.0015 5.0358 66.3142 3.33604 69.0391 3.83951C69.5496 3.93348 70.0741 4.10598 70.6056 4.37805C71.0264 4.59262 71.4499 4.87031 71.8734 5.22232C75.6965 8.39324 74.3445 14.4097 73.8312 16.3689Z" fill="#082A53"/>
<path d="M52.3066 22.4106C51.3473 21.579 49.3937 20.3785 46.363 20.753C41.8388 21.3125 36.9414 23.5508 32.0918 26.1622C27.2407 28.7735 22.8806 31.6653 21.7614 32.4114C20.9536 32.95 17.7406 35.0074 15.2877 36.4617C16.6355 35.494 18.4264 34.1196 20.5721 32.2726C25.6097 27.9349 32.5111 21.9647 35.0762 19.9592C37.1266 18.3562 41.6228 14.9342 45.3701 12.7212C48.3699 11.8334 52.4763 11.6357 53.9488 11.581C53.9488 11.581 47.7935 17.1908 52.3066 22.4106Z" fill="#5793CA"/>
<path d="M45.3701 12.7212C41.6228 14.9342 37.1266 18.3562 35.0762 19.9592C32.5111 21.9647 25.6097 27.9349 20.5721 32.2726C18.4264 34.1196 16.6355 35.494 15.2877 36.4617C13.7016 37.6019 12.7269 38.1797 12.5067 38.3087C12.4969 38.3129 12.4899 38.3171 12.4829 38.3213C12.466 38.3311 12.4576 38.3354 12.4576 38.3354C12.4576 38.3354 9.23902 40.2469 5.78901 41.0869C2.46242 41.8947 0.550894 42.1556 0.41626 42.1724C0.684126 42.0925 9.35261 39.4657 20.3702 29.3653C31.5631 19.1051 34.9836 16.3689 44.1864 13.1349C44.5525 12.982 44.9508 12.8446 45.3701 12.7212Z" fill="#8DBEE2"/>
<path d="M71.6869 30.0806C69.3547 32.4114 67.0224 35.0242 61.3327 35.63C55.643 36.2359 52.5338 34.5698 50.8649 33.6624C51.9139 34.1407 53.1382 34.5347 54.6178 34.79C62.313 36.0957 66.3226 29.9403 68.7488 26.3964C69.1303 25.8382 69.5061 25.2548 69.8694 24.6616C70.5636 24.447 71.6589 23.9772 72.8061 22.9604C74.7176 21.2662 75.6965 18.7475 75.6965 18.7475C75.6965 18.7475 75.9307 25.3235 71.6869 30.0806Z" fill="#5793CA"/>
<path d="M73.4736 3.74695C73.4736 3.74695 71.513 3.47067 70.6056 4.37805C70.0741 4.10598 69.5496 3.93348 69.0391 3.83951C69.0069 3.46506 68.7698 2.33049 67.0855 1.74006C67.0855 1.74006 68.9662 0.434386 70.8623 0.94768C72.7584 1.46097 73.4736 3.74695 73.4736 3.74695Z" fill="#082A53"/>
<path d="M88.0254 17.4572V21.6982H91.7867V24.4217H87.6832V30.2671C87.6832 32.4746 89.7041 34.3707 91.0406 34.4955V35.4281C91.0406 35.4281 87.4966 35.7086 85.5991 33.5628C84.5108 32.288 84.5725 30.671 84.5725 30.671V24.36H82.5208V22.9618C82.5208 22.9618 84.5725 22.3083 85.5052 20.8778C86.4378 19.4473 86.6552 17.4572 86.6552 17.4572H88.0254Z" fill="#082A53"/>
<path d="M93.5594 21.6982H96.7934V23.52C96.7934 23.52 98.8452 21.9282 100.058 21.6982C101.271 21.4682 102.018 21.5608 102.018 21.5608C102.018 21.5608 102.639 23.3643 101.458 24.203C100.277 25.043 99.4679 24.67 98.3796 25.0739C97.2913 25.4778 96.7626 26.2547 96.7626 27.9349V35.3033H93.5608V21.6982H93.5594Z" fill="#082A53"/>
<path d="M103.26 21.6982V30.671C103.26 32.8167 105.468 35.3033 108.11 35.3033C110.752 35.3033 112.369 33.7802 112.369 33.7802V35.4407H115.292V21.6996H110.535L112.463 23.8327V29.6472C112.463 31.4508 110.753 32.6008 109.277 32.6008C107.8 32.6008 106.587 31.2642 106.587 29.6781V21.701H103.26V21.6982Z" fill="#082A53"/>
<path d="M117.872 21.6982H121.168V36.1433C121.168 38.1334 121.137 41.2118 114.763 41.1795C114.763 41.1795 118.089 39.9355 118.089 36.3916C118.089 32.8476 117.872 21.6982 117.872 21.6982Z" fill="#082A53"/>
<path d="M117.966 20.753V17.4572H126.392L117.966 20.753Z" fill="#082A53"/>
<path d="M137.398 28.0905C137.398 28.0905 137.841 24.9266 135.042 22.6883C133.247 21.1484 130.62 21.2494 130.62 21.2494C126.267 21.2494 123.375 23.6686 123.375 28.5688C123.375 33.4689 127.604 35.3033 131.024 35.3033C134.445 35.3033 136.372 33.065 137.398 31.6036L135.595 30.4214C135.595 30.4214 133.916 32.5054 131.117 32.5054C128.317 32.5054 126.64 30.4536 126.64 28.277V28.0905H137.398ZM130.414 23.4106C133.62 23.4106 133.877 26.186 133.877 26.186H126.952C126.952 26.186 127.417 23.4106 130.414 23.4106Z" fill="#082A53"/>
<path d="M141.829 17.4572H143.228V21.8258H146.959V24.6012H142.972V30.758C142.972 32.8336 145.263 34.466 146.213 34.6525V35.6315C146.213 35.6315 143.275 35.6553 141.456 34.3019C139.637 32.95 139.869 30.7341 139.869 30.7341V24.5087H137.818V23.1329C137.818 23.1329 139.847 22.3405 140.872 20.7544C141.897 19.1682 141.829 17.4586 141.829 17.4586V17.4572Z" fill="#082A53"/>
</g>
</svg>
