<svg width="394" height="111" viewBox="0 0 394 111" fill="none" xmlns="http://www.w3.org/2000/svg">
<path d="M240.037 44.4473V55.5268H249.863V62.642H239.143V77.913C239.143 83.68 244.423 88.6335 247.914 88.9596V91.3961C247.914 91.3961 238.656 92.1288 233.698 86.5231C230.855 83.1927 231.016 78.9682 231.016 78.9682V62.4808H225.656V58.828C225.656 58.828 231.016 57.1206 233.453 53.3834C235.889 49.6463 236.457 44.4473 236.457 44.4473H240.037Z" fill="#DE3D40"/>
<path d="M254.495 55.5268H262.943V60.2862C262.943 60.2862 268.304 56.1277 271.473 55.5268C274.642 54.9259 276.591 55.1677 276.591 55.1677C276.591 55.1677 278.214 59.8795 275.129 62.0705C272.044 64.2651 269.93 63.2905 267.087 64.3457C264.244 65.4009 262.863 67.4307 262.863 71.82V91.07H254.498V55.5268H254.495Z" fill="#DE3D40"/>
<path d="M279.838 55.5268V78.9682C279.838 84.5739 285.604 91.07 292.507 91.07C299.41 91.07 303.634 87.091 303.634 87.091V91.429H311.27V55.5305H298.842L303.88 61.1032V76.2936C303.88 81.0053 299.414 84.0097 295.556 84.0097C291.697 84.0097 288.528 80.518 288.528 76.3742V55.5341H279.838V55.5268Z" fill="#DE3D40"/>
<path d="M318.011 55.5268H326.621V93.2646C326.621 98.4637 326.541 106.506 309.889 106.422C309.889 106.422 318.579 103.172 318.579 93.9131C318.579 84.6546 318.011 55.5268 318.011 55.5268Z" fill="#DE3D40"/>
<path d="M318.257 53.0574V44.4473H340.269L318.257 53.0574Z" fill="#DE3D40"/>
<path d="M369.023 72.2267C369.023 72.2267 370.181 63.961 362.868 58.1135C358.178 54.0906 351.316 54.3544 351.316 54.3544C339.943 54.3544 332.388 60.6745 332.388 73.4761C332.388 86.2776 343.435 91.07 352.371 91.07C361.307 91.07 366.341 85.2225 369.023 81.4047L364.312 78.3161C364.312 78.3161 359.926 83.7606 352.613 83.7606C345.3 83.7606 340.918 78.4003 340.918 72.714V72.2267H369.023ZM350.777 60.0004C359.153 60.0004 359.823 67.2512 359.823 67.2512H341.731C341.731 67.2512 342.948 60.0004 350.777 60.0004Z" fill="#DE3D40"/>
<path d="M380.598 44.4473H384.254V55.8602H394V63.111H383.584V79.1954C383.584 84.6179 389.57 88.8826 392.051 89.3699V91.9273C392.051 91.9273 384.375 91.9896 379.623 88.454C374.871 84.922 375.479 79.1331 375.479 79.1331V62.8692H370.119V59.2749C370.119 59.2749 375.421 57.2049 378.099 53.061C380.777 48.9172 380.598 44.4509 380.598 44.4509V44.4473Z" fill="#DE3D40"/>
<path d="M181.08 79.886C174.344 85.2551 167.525 91.3559 152.577 91.2649C137.629 91.174 130.044 85.9394 125.977 83.0958C128.561 84.6441 131.624 86.0252 135.39 87.1205C154.986 92.7604 167.195 77.9533 174.53 69.4623C175.683 68.1248 176.83 66.7202 177.946 65.2863C179.811 64.9323 182.792 64.0329 186.068 61.7287C191.525 57.8896 194.803 51.6369 194.803 51.6369C194.803 51.6369 193.488 68.7773 181.08 79.886Z" fill="#DE3D40"/>
<path d="M191.109 40.6002C189.98 44.9126 185.825 53.977 180.758 62.2647C179.809 63.8145 178.827 65.3387 177.831 66.7969C171.492 76.0555 161.017 92.1362 140.914 88.7251C137.048 88.0583 133.85 87.0288 131.109 85.7794L131.106 85.7757C120.803 81.086 116.97 73.3112 108.503 70.3288C97.7826 66.5514 87.7913 70.937 81.5774 73.7399C75.3634 76.5428 50.5078 88.7251 42.832 92.2607C35.9146 95.4446 31.6718 97.5404 30.8987 97.9178C31.474 97.5807 34.0204 96.0712 38.1642 93.0925C44.5723 89.293 52.9662 83.9181 55.0766 82.5112C58.0004 80.562 69.3913 73.0071 82.0646 66.185C94.7343 59.3629 107.529 53.5154 119.348 52.0535C127.266 51.0752 132.37 54.2115 134.876 56.3842C134.879 56.3915 134.887 56.3952 134.894 56.4025C135.062 56.604 135.246 56.8092 135.429 57.007C135.839 57.4503 136.264 57.8717 136.689 58.2637L136.697 58.2747C149.52 70.2336 168.129 61.5282 174.416 53.8744C180.916 45.9605 187.698 33.0453 186.969 26.8314C186.236 20.6175 181.117 20.6175 181.117 20.6175C181.117 20.6175 176.732 23.2994 171.738 22.5667C166.74 21.8376 162.113 19.4011 159.918 19.2765C157.727 19.1556 155.533 19.2765 155.533 19.2765C155.533 19.2765 161.38 13.5499 163.696 12.088C165.429 10.9925 171.47 6.5519 178.589 7.86723C179.923 8.11271 181.293 8.56336 182.682 9.27415C183.781 9.83473 184.887 10.5602 185.994 11.4798C195.982 19.7638 192.45 35.4818 191.109 40.6002Z" fill="#05408A"/>
<path d="M190.174 7.62541C190.174 7.62541 185.052 6.90363 182.682 9.27415C181.293 8.56336 179.923 8.11271 178.589 7.86723C178.505 6.88898 177.886 3.92491 173.485 2.38242C173.485 2.38242 178.399 -1.02864 183.352 0.312335C188.306 1.65331 190.174 7.62541 190.174 7.62541Z" fill="#05408A"/>
<path d="M135.696 57.9439C133.18 55.7832 128.061 52.6712 120.148 53.6871C108.336 55.2052 95.5695 61.1136 82.9324 67.9959C70.2917 74.8783 58.9368 82.4873 56.0224 84.4503C53.9187 85.8673 45.5505 91.2821 39.1605 95.112C42.6694 92.5672 47.331 88.9544 52.9137 84.1024C66.0203 72.7076 83.9758 57.0249 90.652 51.7537C95.9885 47.5405 107.692 38.5448 117.454 32.7167C125.28 30.3602 136.006 29.7926 139.852 29.6314C139.852 29.6314 123.841 44.3632 135.696 57.9439Z" fill="#0099B2"/>
<path d="M117.454 32.7167C107.692 38.5448 95.9885 47.5405 90.652 51.7537C83.9758 57.0249 66.0203 72.7076 52.9137 84.1024C47.331 88.9544 42.6694 92.5672 39.1605 95.112C35.0309 98.1104 32.4917 99.632 31.9181 99.9718C31.8925 99.9829 31.8742 99.994 31.856 100.005C31.8121 100.031 31.7902 100.042 31.7902 100.042C31.7902 100.042 23.4055 105.076 14.4029 107.313C5.72236 109.465 0.73181 110.17 0.380292 110.216C1.07909 110.004 23.6925 103.034 52.35 76.5098C81.4634 49.5661 90.3655 42.3755 114.367 33.8123C115.322 33.4084 116.361 33.0444 117.454 32.7167Z" fill="#69BA2E"/>
</svg>
