<svg width="419" height="115" viewBox="0 0 419 115" fill="none" xmlns="http://www.w3.org/2000/svg">
<path d="M113.845 56.3788C113.627 56.089 107.685 48.2626 96.5976 41.0884C97.5397 36.8129 97.9745 33.0447 98.1919 29.9286C98.6992 22.537 97.9745 17.7543 97.9745 17.5369L97.8296 16.5948L96.8875 16.4499C96.6701 16.4499 91.8873 15.6527 84.4958 16.2325C81.4522 16.4499 77.6115 16.8847 73.4084 17.7543C66.2342 6.66691 58.4079 0.869598 58.118 0.579733L57.3209 0L56.5238 0.579733C56.1614 0.869598 48.4075 6.6669 41.1609 17.8267C36.8854 16.8847 33.1171 16.4499 30.0011 16.2325C22.6095 15.7252 17.8267 16.4499 17.6093 16.4499L16.5948 16.5948L16.4499 17.5369C16.3774 17.7543 15.7252 22.537 16.2325 29.9286C16.4499 33.0447 16.8847 36.8129 17.8267 41.0884C6.59444 48.2626 0.797131 56.0165 0.579732 56.3788L0 57.176L0.579732 57.9731C0.797131 58.3354 6.6669 66.0893 17.8267 73.3359C16.9571 77.539 16.4499 81.3797 16.2325 84.4233C15.7252 91.8149 16.3774 96.5976 16.4499 96.815L16.5948 97.8296L17.6093 97.9745C17.7543 97.9745 20.363 98.3368 24.5661 98.3368C26.1604 98.3368 27.972 98.2644 30.0011 98.1194C33.1171 97.902 36.9578 97.4672 41.1609 96.5252C48.4075 107.685 56.1614 113.555 56.5238 113.845L57.3209 114.497L58.118 113.845C58.4803 113.627 66.2342 107.685 73.4084 96.5976C77.6115 97.4672 81.3797 97.9745 84.4958 98.1919C86.5248 98.3368 88.3365 98.4093 89.9307 98.4093C94.1338 98.4093 96.7426 98.047 96.8875 98.047L97.902 97.902L98.047 96.8875C98.047 96.6701 98.7716 91.8873 98.2644 84.4958C98.047 81.3797 97.6122 77.6115 96.6701 73.4084C107.83 66.2342 113.772 58.4079 113.99 58.118L114.642 57.3209L113.845 56.3788ZM91.0902 57.176C92.2497 54.7121 93.2642 52.2482 94.0613 49.8568C98.4093 52.9004 101.308 55.7266 102.612 57.1035C101.308 58.4803 98.4093 61.379 93.9889 64.4226C93.2642 62.1037 92.2497 59.6398 91.0902 57.176ZM84.4958 18.8413C89.7133 18.4789 93.6265 18.7688 95.3657 18.9137C95.8005 23.0443 96.7426 39.4217 88.4089 56.5962C87.3219 58.7702 86.1625 60.9442 84.9306 62.9008C83.9885 64.3501 83.0464 65.7994 82.0319 67.1038L81.742 67.5386L81.8145 68.1184C82.829 74.5679 82.3218 79.9304 82.0319 81.9594C80.0029 82.2493 74.7128 82.7566 68.1908 81.742L67.6111 81.6696L67.1763 82.0319C66.0893 82.829 64.8574 83.6986 63.6255 84.4958C62.466 83.9885 61.2341 83.4812 60.0746 82.829C62.466 81.3797 64.7849 79.7854 66.9589 78.0463C73.191 79.568 77.6839 79.1333 77.9013 79.1333L78.9883 79.0608L79.0608 77.9738C79.0608 77.7564 79.4956 73.2635 77.9738 67.1038C80.2927 64.2052 82.3218 61.0891 84.1334 57.9006C85.2929 55.7991 86.3799 53.5526 87.3219 51.3062C93.4816 36.3781 92.2497 24.0588 92.1772 23.4791L92.1047 22.3921L91.0177 22.2472C90.5105 22.1747 78.5535 21.0152 63.9153 26.885C62.7559 26.1603 61.5239 25.4357 60.292 24.7835C69.6402 20.6529 78.4811 19.2761 84.4958 18.8413ZM84.4958 68.3358C84.9306 67.756 85.3654 67.1763 85.7277 66.5966C89.6409 77.2491 89.7133 86.4523 89.6409 89.5684C86.5248 89.7133 77.3941 89.5684 66.669 85.7277C67.2488 85.3654 67.756 85.003 68.2633 84.5682C76.8143 85.8002 83.1189 84.5682 83.4088 84.5682L84.2784 84.4233L84.4233 83.5537C84.5682 83.1914 85.7277 76.8143 84.4958 68.3358ZM38.842 65.727C36.668 63.0457 34.7114 60.1471 32.9722 57.176C34.6389 54.2048 36.5955 51.3062 38.7695 48.6249L39.2043 48.1177L39.0594 47.4655C37.9724 43.19 37.8274 39.7116 37.8999 37.9724C39.6391 37.9724 43.1175 38.0448 47.393 39.1318L48.0452 39.2768L48.5525 38.842C51.3062 36.668 54.2048 34.6389 57.2484 32.8997C60.292 34.6389 63.1907 36.5955 65.8719 38.7695L66.3792 39.2043L67.0314 39.0594C71.3069 37.9724 74.7853 37.8274 76.452 37.8274C76.452 39.5666 76.3795 43.045 75.2925 47.3205L75.1476 47.9727L75.5824 48.48C77.7564 51.1613 79.713 54.0599 81.4522 57.1035C79.713 60.1471 77.7564 63.0457 75.5824 65.7994L75.1476 66.3067L75.2925 66.9589C76.3795 71.162 76.5245 74.7128 76.5245 76.452C74.7853 76.452 71.3069 76.3795 67.1038 75.2201L66.4516 75.0751L65.9444 75.5099C63.2631 77.6839 60.3645 79.6405 57.3933 81.3072C54.3498 79.568 51.4511 77.6115 48.7699 75.4375L48.2626 75.0027L47.6104 75.1476C43.3349 76.2346 39.8565 76.3795 38.1173 76.3071C38.0448 74.5679 38.1898 71.0895 39.2768 66.814L39.4217 66.1618L38.842 65.727ZM84.4958 30.8707L84.3508 30.0011L83.4812 29.8561C83.1914 29.7837 76.8868 28.6242 68.3358 29.8561C67.8285 29.4938 67.2488 29.059 66.669 28.6967C77.3941 24.7835 86.4524 24.7835 89.5684 24.856C89.7133 27.972 89.6409 37.1028 85.7277 47.7553C85.3654 47.1756 84.9306 46.5959 84.4958 46.0161C85.7277 37.4651 84.5682 31.1605 84.4958 30.8707ZM57.1035 23.1892C54.6396 22.0298 52.2482 21.0152 49.8568 20.2181C52.9004 15.8701 55.7991 13.0439 57.1759 11.7395C58.5528 13.0439 61.379 15.8701 64.4226 20.2181C62.0312 21.0152 59.6398 22.0298 57.1035 23.1892ZM57.1759 3.33346C59.2775 5.00018 65.0023 10.1453 70.5098 18.334C69.4228 18.6239 68.2633 18.9137 67.1038 19.276C62.466 12.5367 58.1905 8.98583 58.0455 8.84089L57.1759 8.11623L56.3064 8.84089C56.089 8.98583 51.8134 12.5367 47.1756 19.276C46.0161 18.9137 44.8567 18.6239 43.7697 18.334C49.3496 10.1453 55.1469 5.07265 57.1759 3.33346ZM18.9137 18.9137C23.0443 18.4789 39.3492 17.5369 56.5238 25.8705C58.7702 26.9575 60.9442 28.1169 62.9733 29.4213C64.4226 30.2909 65.8719 31.3055 67.1038 32.2475L67.5386 32.6099L68.0459 32.5374C74.4954 31.5229 79.8579 32.0301 81.887 32.32C82.1768 34.349 82.6841 39.6391 81.6696 46.1611L81.5971 46.7408L81.9594 47.1756C82.829 48.335 83.6262 49.6394 84.4233 50.8714C83.916 52.1033 83.4088 53.2628 82.7566 54.4222C81.3073 52.0308 79.713 49.6395 77.9738 47.4655C79.4231 41.2334 79.0608 36.7405 79.0608 36.5955L78.9883 35.5085L77.8289 35.3636C77.6115 35.3636 73.191 34.9288 66.9589 36.4506C64.0603 34.2041 61.0167 32.1026 57.8281 30.3634C55.6542 29.2039 53.4077 28.117 51.0888 27.1749C36.1607 21.0153 23.8414 22.2472 23.3342 22.3196L22.2472 22.3921L22.1022 23.4791C22.0298 23.9864 20.8703 35.9433 26.7401 50.5815C26.0154 51.8134 25.2908 52.9729 24.6386 54.2048C20.5804 44.7842 19.1311 35.9433 18.7688 29.9286C18.4789 24.6386 18.7688 20.6529 18.9137 18.9137ZM29.7112 46.0161C29.3489 46.5234 28.9865 47.1031 28.6242 47.6104C24.711 36.8854 24.711 27.7546 24.7835 24.711C27.8995 24.5661 36.9578 24.6386 47.6829 28.5517C47.1031 28.9141 46.5234 29.3489 46.0161 29.7112C37.4651 28.4793 31.0881 29.7112 30.7982 29.7837L29.9286 29.9286L29.7112 30.7982C29.7112 31.1605 28.4793 37.4651 29.7112 46.0161ZM20.2181 64.4226C15.8701 61.379 12.9715 58.5528 11.7395 57.176C13.0439 55.7991 15.8701 52.9729 20.2181 49.9293C21.0152 52.3207 22.0298 54.7121 23.1892 57.176C22.0298 59.6398 21.0152 62.1037 20.2181 64.4226ZM3.33345 57.176C5.00018 55.0744 10.1453 49.3496 18.334 43.8422C18.6239 44.9291 18.9137 46.0886 19.276 47.2481C12.5367 51.8859 8.98583 56.1614 8.84089 56.3064L8.11623 57.176L8.84089 58.0455C8.98583 58.2629 12.5367 62.466 19.3485 67.1763C18.9862 68.3358 18.6963 69.4952 18.4065 70.5822C10.2178 65.0748 5.07264 59.2775 3.33345 57.176ZM29.7837 95.4382C24.5661 95.8005 20.6529 95.5831 18.9137 95.3657C18.7688 93.6265 18.4789 89.7133 18.8413 84.4958C19.2761 77.9738 20.8703 68.0459 25.798 57.7557C26.885 55.5817 28.0445 53.3352 29.3489 51.3062C30.2185 49.8568 31.1605 48.48 32.1026 47.1756L32.4649 46.7408L32.3925 46.1611C31.3779 39.6391 31.9577 34.3491 32.2475 32.2475C34.2766 31.9577 39.5666 31.4504 46.0886 32.3925L46.5959 32.4649L47.0307 32.1751C48.1901 31.3055 49.4221 30.5083 50.654 29.7112C51.8859 30.2185 53.1178 30.7982 54.3498 31.3779C51.8859 32.8273 49.4945 34.494 47.2481 36.2332C41.016 34.7839 36.523 35.2186 36.3056 35.2186L35.2186 35.3636L35.0737 36.4506C35.0737 36.668 34.6389 41.1609 36.0882 47.393C33.8418 50.2192 31.8127 53.2628 30.0735 56.4513C28.8416 58.6253 27.7546 60.8717 26.8125 63.1907C20.7254 78.1187 21.8124 90.438 21.8848 90.9453L22.0298 92.0323L23.1168 92.1047C23.2617 92.1047 24.3487 92.2497 26.1604 92.2497C30.7257 92.2497 39.8565 91.5975 50.2916 87.4669C51.4511 88.1915 52.6106 88.8438 53.77 89.4235C44.7117 93.6265 35.7984 95.0034 29.7837 95.4382ZM28.6242 66.6691C28.9865 67.1763 29.3489 67.756 29.7112 68.2633C28.4793 76.8143 29.7112 83.1914 29.7837 83.4812L30.0011 84.3508L30.8707 84.4958C31.1605 84.5682 37.5376 85.8002 46.0886 84.5682C46.6683 84.9306 47.1756 85.3654 47.7553 85.7277C37.0303 89.6409 27.8271 89.7133 24.711 89.6409C24.6386 86.5248 24.711 77.3941 28.6242 66.6691ZM57.1035 91.0902C59.5673 92.2497 62.0312 93.2642 64.4226 94.0613C61.379 98.4093 58.5528 101.308 57.1759 102.612C55.7991 101.308 52.9729 98.4093 49.8568 93.9889C52.2482 93.2642 54.7121 92.2497 57.1035 91.0902ZM57.1759 111.018C55.0744 109.279 49.2771 104.134 43.8421 95.873C44.9291 95.5831 46.0886 95.2933 47.2481 94.9309C51.8859 101.743 56.1614 105.366 56.3788 105.511L57.2484 106.236L58.118 105.511C58.3354 105.366 62.5385 101.743 67.1763 94.9309C68.3358 95.2933 69.4228 95.5831 70.5822 95.873C65.0748 104.062 59.2775 109.279 57.1759 111.018ZM95.3657 95.3657C93.5541 95.5106 89.7133 95.8005 84.4958 95.4382C77.9738 95.0034 67.9734 93.4091 57.7557 88.409C55.5817 87.3944 53.4077 86.1625 51.3786 84.9306C49.9293 84.061 48.5525 83.0464 47.1756 82.1044L46.7408 81.742L46.1611 81.8145C39.6391 82.829 34.349 82.2493 32.2475 81.9594C31.9577 79.9304 31.3779 74.5679 32.3925 68.0459L32.4649 67.4662L32.1026 67.0314C31.3055 65.8719 30.5083 64.7124 29.7112 63.4805C30.2185 62.2486 30.7982 61.0167 31.3779 59.7847C32.8273 62.2486 34.4215 64.5675 36.2332 66.7415C34.7838 72.9736 35.2186 77.4665 35.2186 77.6839L35.3636 78.7709L36.4506 78.9159C36.668 78.9159 41.1609 79.3507 47.393 77.8289C50.2916 80.0753 53.3352 82.1768 56.5238 83.916C58.6253 85.0755 60.8717 86.1625 63.1182 87.0321C73.8432 91.4525 83.1914 92.1047 87.8292 92.1047C89.7133 92.1047 90.8003 92.0323 90.9453 91.9598L92.0323 91.8149L92.1772 90.7279C92.2497 90.2206 93.3367 78.1912 87.4669 63.553C88.1916 62.3935 88.8437 61.2341 89.4959 60.0746C93.5541 69.4228 94.9309 78.3361 95.3657 84.2784C95.8005 89.7133 95.5107 93.6265 95.3657 95.3657ZM95.873 70.5098C95.5831 69.4228 95.2933 68.2633 94.9309 67.1763C101.743 62.5385 105.366 58.2629 105.511 58.0455L106.236 57.176L105.511 56.3064C105.366 56.089 101.743 51.8859 94.9309 47.2481C95.2933 46.0886 95.5831 45.0016 95.873 43.8422C104.062 49.2771 109.279 55.0744 111.018 57.176C109.279 59.2775 104.134 65.0748 95.873 70.5098Z" fill="#BA9653"/>
<path d="M129.135 38.9885H136.237C137.106 38.9885 137.396 39.5682 137.469 39.7131C141.237 46.7424 154.063 69.5693 154.063 69.5693C154.063 69.5693 167.107 46.6699 170.948 39.6407C171.093 39.4233 171.31 38.916 172.108 38.916H175.731C176.311 38.916 176.601 39.5682 176.311 40.003C171.89 47.7569 159.643 69.062 157.035 73.6999C156.745 74.2796 156.382 74.5695 155.73 74.5695H148.991C148.339 74.5695 147.904 74.1347 147.614 73.6274C145.005 69.062 132.831 47.8294 128.41 40.148C128.41 39.8581 128.121 38.9885 129.135 38.9885Z" fill="#501C4B"/>
<path d="M236.312 45.1474C234.428 44.1329 228.775 41.1618 220.152 41.1618C210.804 41.1618 208.992 45.1474 208.992 47.9736C208.992 51.5245 212.688 52.539 216.963 52.8289C219.572 53.0463 226.167 53.3361 229.718 53.9883C238.196 55.5101 240.443 60.2929 240.443 64.1336C240.443 72.1774 231.094 75.5833 219.79 75.5833C210.224 75.5833 203.34 72.5397 200.586 71.0179C200.079 70.7281 200.079 70.0759 200.296 69.6411C201.021 68.3367 200.803 68.7715 201.383 67.6845C201.673 67.1047 202.18 67.0323 202.688 67.3221C204.934 68.7715 212.108 72.2498 219.862 72.2498C227.833 72.2498 232.109 68.7715 232.109 65.2931C232.109 62.3944 231.022 60.5828 225.007 59.7132C221.819 59.2784 214.717 59.2784 211.094 58.4088C207.47 57.6116 201.166 55.8725 201.166 48.8432C201.166 44.93 204.282 37.7559 220.587 37.7559C229.5 37.7559 235.442 40.1473 238.413 41.6691C238.921 41.9589 239.066 42.3937 238.776 42.901C238.269 43.6981 238.124 44.0604 237.616 44.8576C237.254 45.2924 236.747 45.3648 236.312 45.1474Z" fill="#501C4B"/>
<path d="M190.441 38.9883H184.644C184.064 38.9883 183.557 39.4955 183.557 40.0753V73.4098C183.557 74.062 184.064 74.6417 184.644 74.6417H190.441C191.021 74.6417 191.528 74.062 191.528 73.4098V40.0753C191.528 39.4955 191.021 38.9883 190.441 38.9883Z" fill="#501C4B"/>
<path d="M274.792 72.7563C274.285 71.3069 274.502 71.8867 274.067 70.5823C273.85 69.8576 273.198 70.0025 272.908 70.075C270.589 71.0171 267.4 71.8142 265.154 71.8142C259.429 71.8142 256.095 69.3503 256.095 64.2052V43.4799H272.183C272.835 43.4799 273.415 42.9726 273.415 42.3929V40.7261C273.415 40.0739 272.835 39.6391 272.183 39.6391H256.095V31.0157C256.095 30.2185 255.371 29.9287 254.864 30.146C253.487 30.5808 250.878 31.4505 249.429 31.8853C248.921 32.0302 248.414 32.465 248.414 33.2621V62.3211C248.414 69.5678 252.617 75.4375 263.994 75.4375C267.98 75.4375 271.748 74.5679 274.14 73.8433C274.502 73.7708 275.082 73.4809 274.792 72.7563Z" fill="#501C4B"/>
<path d="M370.882 72.9752C366.824 69.8591 357.693 62.9748 356.606 62.1052C363.056 62.1052 370.665 58.4095 370.665 50.2932C370.665 41.3799 361.969 38.916 357.911 38.916H331.606C331.026 38.916 330.519 39.4233 330.519 40.148V73.3375C330.519 73.9897 331.026 74.5695 331.606 74.5695H337.185C337.765 74.5695 338.272 73.9897 338.272 73.3375V62.3951H346.896C346.896 62.3951 356.751 70.3664 360.157 73.1926C360.447 73.4825 361.679 74.497 362.983 74.497H370.665C371.245 74.6419 371.824 73.6999 370.882 72.9752ZM338.345 59.0617V42.5393H354.795C360.012 42.5393 362.331 46.7424 362.331 50.4382C362.331 54.5687 360.302 59.0617 353.635 59.0617H338.345Z" fill="#501C4B"/>
<path d="M321.243 53.6265V53.3367C321.243 51.0902 320.663 45.9451 316.315 42.3943C314.793 41.1623 310.155 38.2637 301.17 38.2637C293.706 38.2637 288.053 40.1478 282.546 43.0465C282.038 43.2639 281.894 43.7711 282.111 44.2059C282.763 45.6552 282.618 45.5103 283.053 46.3799C283.27 46.8872 283.705 47.0321 284.285 46.6698C287.039 45.0755 293.271 41.8145 300.3 41.8145C308.851 41.8145 313.489 45.7277 313.489 51.0902V55.2208C310.445 54.4237 304.793 53.1917 299.068 53.1917C284.502 53.1917 279.43 58.4818 279.43 64.5689C279.43 73.4098 288.198 75.5838 295.952 75.5838C302.619 75.5838 308.634 74.062 313.344 70.5112H313.489C313.489 72.1779 313.489 73.4823 313.489 73.4823C313.489 74.1345 313.996 74.7142 314.576 74.7142H320.083C320.736 74.7142 321.17 74.1345 321.17 73.4823L321.243 53.6265ZM297.474 71.9605C289.647 71.9605 287.618 67.9749 287.618 64.1342C287.618 57.6847 295.372 56.4527 300.228 56.4527C305.735 56.4527 310.518 57.4673 313.489 58.1919V67.0328C310.373 69.1343 305.518 71.9605 297.474 71.9605Z" fill="#501C4B"/>
<path d="M418.855 53.6265V53.3367C418.855 51.0902 418.348 45.9451 413.927 42.3943C412.406 41.1623 407.84 38.2637 398.854 38.2637C391.39 38.2637 385.738 40.1478 380.23 43.0465C379.723 43.2639 379.651 43.7711 379.796 44.2059C380.448 45.6552 380.303 45.5103 380.738 46.3799C380.955 46.8872 381.39 47.0321 381.97 46.6698C384.723 45.0755 390.956 41.8145 397.912 41.8145C406.463 41.8145 411.101 45.7277 411.101 51.0902V55.2208C408.058 54.4237 402.405 53.1917 396.753 53.1917C382.115 53.1917 377.042 58.4818 377.042 64.5689C377.042 73.4098 385.81 75.5838 393.637 75.5838C400.304 75.5838 406.246 74.062 411.029 70.5112H411.174C411.174 72.1779 411.174 73.4823 411.174 73.4823C411.174 74.1345 411.681 74.7142 412.333 74.7142H417.841C418.42 74.7142 418.928 74.1345 418.928 73.4823V53.6265H418.855ZM395.086 71.9605C387.26 71.9605 385.231 67.9749 385.231 64.1342C385.231 57.6847 392.985 56.4527 397.84 56.4527C403.347 56.4527 408.058 57.4673 411.101 58.1919V67.0328C407.913 69.1343 403.057 71.9605 395.086 71.9605Z" fill="#501C4B"/>
<path d="M337.403 28.5525L336.534 26.0886H333.128L332.258 28.5525H330.374L333.925 18.7695H335.809L339.36 28.5525H337.403ZM335.012 21.6682L334.867 20.8711L334.65 21.6682L333.635 24.5668H336.026L335.012 21.6682Z" fill="#501C4B"/>
<path d="M346.534 20.2913V28.5525H344.723V20.2913H341.896V18.7695H349.288V20.2913H346.534Z" fill="#501C4B"/>
<path d="M356.027 28.5525L355.158 26.0886H351.752L350.882 28.5525H348.998L352.549 18.7695H354.433L357.984 28.5525H356.027ZM353.708 21.6682L353.491 20.8711L353.274 21.6682L352.259 24.5668H354.65L353.708 21.6682Z" fill="#501C4B"/>
<path d="M362.331 20.2913V28.5525H360.52V20.2913H357.693V18.7695H365.157V20.2913H362.331Z" fill="#501C4B"/>
<path d="M371.897 28.5525L371.028 26.0886H367.622L366.752 28.5525H364.868L368.419 18.7695H370.303L373.854 28.5525H371.897ZM369.578 21.6682L369.361 20.8711L369.144 21.6682L368.129 24.5668H370.521L369.578 21.6682Z" fill="#501C4B"/>
<path d="M381.318 28.7687C379.289 28.7687 378.347 27.8267 377.694 26.8121L379.216 26.015C379.651 26.6672 380.303 27.1745 381.318 27.1745C382.839 27.1745 383.274 26.5223 383.274 25.6527C383.274 25.0005 382.984 24.5657 382.115 24.4207L380.086 24.0584C378.709 23.841 377.767 23.1164 377.767 21.3047C377.767 19.9278 378.709 18.4785 381.318 18.4785C383.347 18.4785 384.216 19.2032 384.869 20.2177L383.347 21.0148C382.912 20.3626 382.332 20.0728 381.318 20.0728C380.013 20.0728 379.578 20.58 379.578 21.3047C379.578 22.0294 379.796 22.2468 380.521 22.3192L382.477 22.6091C383.926 22.8265 385.158 23.6236 385.158 25.5802C385.086 27.4643 383.999 28.7687 381.318 28.7687Z" fill="#501C4B"/>
<path d="M388.42 18.7695H386.608V28.5525H388.42V18.7695Z" fill="#501C4B"/>
<path d="M397.333 28.5525L396.463 26.0886H393.057L392.188 28.5525H390.304L393.855 18.7695H395.739L399.29 28.5525H397.333ZM394.942 21.6682L394.724 20.8711L394.507 21.6682L393.492 24.5668H395.884L394.942 21.6682Z" fill="#501C4B"/>
<path d="M405.377 28.7697C404.652 28.7697 403.782 28.6247 403.058 27.9725L403.855 26.8131C404.362 27.3204 404.869 27.3203 405.304 27.3203C406.101 27.3203 406.391 26.8856 406.391 25.7261V18.8418H408.203V25.7261C408.203 27.9001 407.116 28.7697 405.377 28.7697Z" fill="#501C4B"/>
<path d="M415.449 28.5525H413.638L410.087 18.7695H412.044L414.362 25.6538L414.58 26.451L414.725 25.6538L417.116 18.7695H419L415.449 28.5525Z" fill="#501C4B"/>
</svg>
