<svg width="23" height="17" viewBox="0 0 23 17" fill="none" xmlns="http://www.w3.org/2000/svg">
<path d="M9.22124 11.8716L14.9655 8.55155L9.22124 5.23146V11.8716ZM22.0157 3.20621C22.1596 3.72636 22.2592 4.42358 22.3256 5.30893C22.4031 6.19429 22.4363 6.95791 22.4363 7.62192L22.5027 8.55155C22.5027 10.9752 22.3256 12.757 22.0157 13.8969C21.739 14.8929 21.0971 15.5348 20.101 15.8115C19.5808 15.9553 18.6289 16.0549 17.168 16.1213C15.7291 16.1988 14.4121 16.232 13.1946 16.232L11.4348 16.2984C6.79738 16.2984 3.90866 16.1213 2.76867 15.8115C1.77256 15.5348 1.13063 14.8929 0.85393 13.8969C0.710047 13.3767 0.610437 12.6795 0.544029 11.7942C0.466554 10.9088 0.433351 10.1452 0.433351 9.48117L0.366943 8.55155C0.366943 6.12789 0.544029 4.34611 0.85393 3.20621C1.13063 2.21019 1.77256 1.56831 2.76867 1.29163C3.28886 1.14776 4.2407 1.04816 5.70166 0.981758C7.14048 0.90429 8.45756 0.871089 9.67502 0.871089L11.4348 0.804688C16.0723 0.804688 18.961 0.981759 20.101 1.29163C21.0971 1.56831 21.739 2.21019 22.0157 3.20621Z" fill="white"/>
</svg>
