<svg width="20" height="20" viewBox="0 0 20 20" fill="none" xmlns="http://www.w3.org/2000/svg">
<path d="M5.91238 0.267578H14.0876C17.202 0.267578 19.7324 2.79801 19.7324 5.91238V14.0876C19.7324 15.5847 19.1377 17.0205 18.0791 18.0791C17.0205 19.1377 15.5847 19.7324 14.0876 19.7324H5.91238C2.79801 19.7324 0.267578 17.202 0.267578 14.0876V5.91238C0.267578 4.41529 0.862297 2.97951 1.9209 1.9209C2.97951 0.862297 4.41529 0.267578 5.91238 0.267578ZM5.71773 2.21406C4.7885 2.21406 3.89733 2.5832 3.24026 3.24026C2.5832 3.89733 2.21406 4.7885 2.21406 5.71773V14.2823C2.21406 16.219 3.78098 17.7859 5.71773 17.7859H14.2823C15.2115 17.7859 16.1027 17.4168 16.7597 16.7597C17.4168 16.1027 17.7859 15.2115 17.7859 14.2823V5.71773C17.7859 3.78098 16.219 2.21406 14.2823 2.21406H5.71773ZM15.1095 3.67393C15.4322 3.67393 15.7416 3.8021 15.9698 4.03025C16.1979 4.25839 16.3261 4.56783 16.3261 4.89048C16.3261 5.21313 16.1979 5.52256 15.9698 5.75071C15.7416 5.97886 15.4322 6.10703 15.1095 6.10703C14.7869 6.10703 14.4774 5.97886 14.2493 5.75071C14.0211 5.52256 13.893 5.21313 13.893 4.89048C13.893 4.56783 14.0211 4.25839 14.2493 4.03025C14.4774 3.8021 14.7869 3.67393 15.1095 3.67393ZM10 5.13379C11.2906 5.13379 12.5283 5.64648 13.4409 6.55907C14.3535 7.47166 14.8662 8.7094 14.8662 10C14.8662 11.2906 14.3535 12.5283 13.4409 13.4409C12.5283 14.3535 11.2906 14.8662 10 14.8662C8.7094 14.8662 7.47166 14.3535 6.55907 13.4409C5.64648 12.5283 5.13379 11.2906 5.13379 10C5.13379 8.7094 5.64648 7.47166 6.55907 6.55907C7.47166 5.64648 8.7094 5.13379 10 5.13379ZM10 7.08027C9.22564 7.08027 8.483 7.38789 7.93544 7.93544C7.38789 8.483 7.08027 9.22564 7.08027 10C7.08027 10.7744 7.38789 11.517 7.93544 12.0646C8.483 12.6121 9.22564 12.9197 10 12.9197C10.7744 12.9197 11.517 12.6121 12.0646 12.0646C12.6121 11.517 12.9197 10.7744 12.9197 10C12.9197 9.22564 12.6121 8.483 12.0646 7.93544C11.517 7.38789 10.7744 7.08027 10 7.08027Z" fill="#FDFDFD"/>
</svg>
