<svg width="22" height="20" viewBox="0 0 22 20" fill="none" xmlns="http://www.w3.org/2000/svg">
<path d="M5.14174 2.58511C5.14146 3.14703 4.91797 3.68583 4.52043 4.08296C4.12289 4.4801 3.58388 4.70305 3.02196 4.70277C2.46004 4.70249 1.92125 4.479 1.52411 4.08147C1.12697 3.68393 0.904016 3.14491 0.904297 2.58299C0.904578 2.02107 1.12807 1.48228 1.52561 1.08514C1.92314 0.688003 2.46216 0.465051 3.02408 0.465332C3.586 0.465613 4.12479 0.689104 4.52193 1.08664C4.91907 1.48418 5.14202 2.02319 5.14174 2.58511ZM5.2053 6.27169H0.967859V19.5349H5.2053V6.27169ZM11.9005 6.27169H7.6842V19.5349H11.8581V12.5749C11.8581 8.69762 16.9112 8.33744 16.9112 12.5749V19.5349H21.0957V11.1341C21.0957 4.5979 13.6166 4.84155 11.8581 8.05141L11.9005 6.27169Z" fill="#FDFDFD"/>
</svg>
